<?xml version="1.0" encoding="UTF-8"?>
<svg width="441px" height="330px" viewBox="0 0 441 330" version="1.1" xmlns="http://www.w3.org/2000/svg" xmlns:xlink="http://www.w3.org/1999/xlink">
    <!-- Generator: Sketch 48 (47235) - http://www.bohemiancoding.com/sketch -->
    <title>sovereign-stack</title>
    <desc>Created with Sketch.</desc>
    <defs></defs>
    <g id="Page-1" stroke="none" stroke-width="1" fill="none" fill-rule="evenodd">
        <g id="Security-Safe-Logo">
            <path d="M322.378,20.437 C322.378,20.437 271.495,0.738 219.368,0.738 C167.238,0.738 116.355,20.437 116.355,20.437 C116.355,20.437 114.388,94.75 141.18,148.628 C167.968,202.507 220.609,233.664 220.609,233.664 C220.609,233.664 272.766,200.937 300.039,142.467 C327.314,83.994 322.378,20.437 322.378,20.437 Z M129.413,32.607 L129.505,28.933 L132.984,27.744 C134.096,27.364 151.372,21.539 174.949,17.374 C169.619,20.521 164.448,24.243 160.987,27.024 C147.257,38.048 136.2,49.538 130.086,56.298 C129.192,42.803 129.388,33.588 129.413,32.607 Z M131.2,69.273 C137.306,75.087 148.164,83.616 165.265,91.219 C193.496,103.772 219.266,108.978 219.266,108.978 C219.266,108.978 241.066,102.637 263.957,89.362 C286.85,76.087 292.478,70.585 292.478,70.585 C292.478,70.585 259.585,72.334 232.892,67.742 C200.923,62.241 190.021,54.276 190.021,54.276 C190.021,54.276 200.923,44.224 215.816,35.31 C231.441,25.96 250.304,18.627 256.758,16.232 C283.823,20.376 304.449,27.329 305.664,27.746 L308.97,28.872 L309.227,32.354 C309.309,33.479 310.248,47.209 308.475,66.702 C301.665,73.26 275.382,96.47 227.81,114.209 C182.393,131.141 153.808,135.873 147.426,136.786 C137.838,114.637 133.312,89.39 131.2,69.273 Z M287.857,143.154 C278.336,149.11 257.996,160.627 229.623,170.154 C198.577,180.582 183.922,183.271 179.243,183.933 C177.529,182.122 175.815,180.236 174.107,178.279 C180.059,176.811 203.29,170.857 233.256,160.101 C260.619,150.282 284.119,135.787 294.17,129.144 C292.999,132.089 291.747,135.027 290.393,137.947 C289.573,139.715 288.723,141.444 287.857,143.154 Z" id="Shape" fill="#157F7A" fill-rule="nonzero"></path>
            <path d="M0.57,302.195 L2.525,295.99 C5.84,298.115 10.6,299.73 15.7,299.73 C23.265,299.73 27.685,295.735 27.685,289.955 C27.685,284.685 24.625,281.54 16.89,278.65 C7.54,275.25 1.76,270.32 1.76,262.33 C1.76,253.405 9.155,246.775 20.29,246.775 C26.07,246.775 30.405,248.135 32.87,249.58 L30.83,255.615 C29.045,254.51 25.22,252.895 20.035,252.895 C12.215,252.895 9.24,257.57 9.24,261.48 C9.24,266.835 12.725,269.47 20.63,272.53 C30.32,276.27 35.165,280.945 35.165,289.36 C35.165,298.2 28.705,305.935 15.19,305.935 C9.665,305.935 3.63,304.235 0.57,302.195 Z M78.575,285.79 L49.675,285.79 C49.845,295.905 56.22,300.07 63.785,300.07 C69.14,300.07 72.455,299.135 75.175,297.945 L76.535,303.3 C73.9,304.49 69.31,305.935 62.765,305.935 C50.1,305.935 42.535,297.52 42.535,285.11 C42.535,272.7 49.845,263.01 61.83,263.01 C75.345,263.01 78.83,274.74 78.83,282.305 C78.83,283.835 78.745,284.94 78.575,285.79 Z M49.76,280.435 L71.605,280.435 C71.69,275.76 69.65,268.365 61.235,268.365 C53.585,268.365 50.355,275.25 49.76,280.435 Z M116.035,297.945 L117.31,303.555 C115.355,304.49 111.02,305.935 105.495,305.935 C93.085,305.935 85.01,297.52 85.01,284.94 C85.01,272.275 93.68,263.01 107.11,263.01 C111.53,263.01 115.44,264.115 117.48,265.22 L115.78,270.915 C113.995,269.98 111.19,268.96 107.11,268.96 C97.675,268.96 92.575,276.015 92.575,284.515 C92.575,294.035 98.695,299.9 106.855,299.9 C111.105,299.9 113.91,298.88 116.035,297.945 Z M160.38,263.86 L160.38,293.695 C160.38,298.03 160.465,301.77 160.72,305 L154.09,305 L153.665,298.285 L153.495,298.285 C151.625,301.6 147.205,305.935 139.895,305.935 C133.435,305.935 125.7,302.28 125.7,287.915 L125.7,263.86 L133.18,263.86 L133.18,286.555 C133.18,294.375 135.645,299.73 142.36,299.73 C147.375,299.73 150.86,296.245 152.22,292.845 C152.645,291.825 152.9,290.465 152.9,289.02 L152.9,263.86 L160.38,263.86 Z M200.65,273.284 C202.262,272.127 205.205,269.787 208.072,266.387 L208.072,305.073 L200.65,305.073 L200.65,273.284 Z M204.221,261.9 C204.221,261.9 200.933,259.953 199.257,256.585 C197.588,253.223 197.709,248.579 197.709,248.579 C197.709,248.579 200.887,247.348 204.145,247.348 C207.402,247.348 210.579,248.579 210.579,248.579 C210.579,248.579 210.889,252.55 209.184,256.203 C207.479,259.857 204.221,261.9 204.221,261.9 Z M172.68,305 L172.68,276.695 C172.68,271.85 172.595,267.685 172.34,263.86 L178.885,263.86 L179.225,272.02 L179.48,272.02 C181.35,266.495 185.94,263.01 190.955,263.01 C191.72,263.01 192.315,263.095 192.995,263.18 L192.995,270.235 C192.23,270.065 191.465,270.065 190.445,270.065 C185.175,270.065 181.435,273.975 180.415,279.585 C180.245,280.605 180.16,281.88 180.16,283.07 L180.16,305 L172.68,305 Z M222.185,256.21 L229.495,254 L229.495,263.86 L240.205,263.86 L240.205,269.555 L229.495,269.555 L229.495,291.74 C229.495,296.84 230.94,299.73 235.105,299.73 C237.145,299.73 238.335,299.56 239.44,299.22 L239.78,304.915 C238.335,305.425 236.04,305.935 233.15,305.935 C229.665,305.935 226.86,304.745 225.075,302.79 C223.035,300.495 222.185,296.84 222.185,291.995 L222.185,269.555 L215.81,269.555 L215.81,263.86 L222.185,263.86 L222.185,256.21 Z M243.835,263.86 L251.995,263.86 L260.92,288.17 C261.94,290.89 262.96,294.12 263.64,296.585 L263.81,296.585 C264.575,294.12 265.425,290.975 266.445,288 L274.605,263.86 L282.51,263.86 L271.29,293.185 C265.935,307.295 262.28,314.435 257.18,318.94 C253.44,322.085 249.87,323.36 248,323.7 L246.13,317.495 C248,316.9 250.465,315.71 252.675,313.84 C254.715,312.225 257.18,309.335 258.965,305.51 C259.305,304.745 259.56,304.15 259.56,303.725 C259.56,303.3 259.39,302.705 258.965,301.77 L243.835,263.86 Z" id="Security" fill="#DC602E"></path>
            <path d="M297.57,302.195 L299.525,295.99 C302.84,298.115 307.6,299.73 312.7,299.73 C320.265,299.73 324.685,295.735 324.685,289.955 C324.685,284.685 321.625,281.54 313.89,278.65 C304.54,275.25 298.76,270.32 298.76,262.33 C298.76,253.405 306.155,246.775 317.29,246.775 C323.07,246.775 327.405,248.135 329.87,249.58 L327.83,255.615 C326.045,254.51 322.22,252.895 317.035,252.895 C309.215,252.895 306.24,257.57 306.24,261.48 C306.24,266.835 309.725,269.47 317.63,272.53 C327.32,276.27 332.165,280.945 332.165,289.36 C332.165,298.2 325.705,305.935 312.19,305.935 C306.665,305.935 300.63,304.235 297.57,302.195 Z M371.155,279.755 L371.155,295.14 C371.155,298.71 371.325,302.195 371.75,305 L365.035,305 L364.44,299.815 L364.185,299.815 C361.89,303.045 357.47,305.935 351.605,305.935 C343.275,305.935 339.025,300.07 339.025,294.12 C339.025,284.175 347.865,278.735 363.76,278.82 L363.76,277.97 C363.76,274.655 362.825,268.45 354.41,268.535 C350.5,268.535 346.505,269.64 343.615,271.595 L341.915,266.58 C345.315,264.455 350.33,263.01 355.515,263.01 C368.095,263.01 371.155,271.595 371.155,279.755 Z M363.93,291.145 L363.93,284.005 C355.77,283.835 346.505,285.28 346.505,293.27 C346.505,298.2 349.735,300.41 353.475,300.41 C358.915,300.41 362.4,297.01 363.59,293.525 C363.845,292.675 363.93,291.825 363.93,291.145 Z M391.275,305 L383.88,305 L383.88,269.555 L378.185,269.555 L378.185,263.86 L383.88,263.86 L383.88,261.905 C383.88,256.125 385.24,250.855 388.64,247.54 C391.445,244.82 395.185,243.715 398.67,243.715 C401.39,243.715 403.6,244.31 405.045,244.905 L404.025,250.685 C402.92,250.175 401.475,249.75 399.265,249.75 C392.89,249.75 391.275,255.275 391.275,261.65 L391.275,263.86 L401.22,263.86 L401.22,269.555 L391.275,269.555 L391.275,305 Z M439.785,285.79 L410.885,285.79 C411.055,295.905 417.43,300.07 424.995,300.07 C430.35,300.07 433.665,299.135 436.385,297.945 L437.745,303.3 C435.11,304.49 430.52,305.935 423.975,305.935 C411.31,305.935 403.745,297.52 403.745,285.11 C403.745,272.7 411.055,263.01 423.04,263.01 C436.555,263.01 440.04,274.74 440.04,282.305 C440.04,283.835 439.955,284.94 439.785,285.79 Z M410.97,280.435 L432.815,280.435 C432.9,275.76 430.86,268.365 422.445,268.365 C414.795,268.365 411.565,275.25 410.97,280.435 Z" id="Safe" fill="#157F7A"></path>
            <text id="by-Sovereign-Stack" font-family="MyriadPro-Regular, Myriad Pro" font-size="18" font-weight="normal" letter-spacing="0.69749999" fill="#5D6363">
                <tspan x="83.0578126" y="327">by Sovereign Stac</tspan>
                <tspan x="227.773312" y="327" letter-spacing="0.784687519">k</tspan>
            </text>
        </g>
        <rect id="Rectangle" stroke="#979797" stroke-width="3" x="-904.5" y="-538.5" width="1399" height="931"></rect>
    </g>
</svg>