<?xml version="1.0" encoding="UTF-8"?>
<svg width="266px" height="46px" viewBox="0 0 266 46" version="1.1" xmlns="http://www.w3.org/2000/svg" xmlns:xlink="http://www.w3.org/1999/xlink">
    <!-- Generator: Sketch 41.2 (35397) - http://www.bohemiancoding.com/sketch -->
    <title>made-with-unity</title>
    <desc>Created with Sketch.</desc>
    <defs>
        <polygon id="path-1" points="0 45.97792 43.9449076 45.97792 43.9449076 0.317952 0 0.317952"></polygon>
    </defs>
    <g id="Page-1" stroke="none" stroke-width="1" fill="none" fill-rule="evenodd">
        <g id="Artboard" transform="translate(-12.000000, -8.000000)">
            <g id="made-with-unity" transform="translate(12.000000, 8.000000)">
                <g id="logo_mark">
                    <mask id="mask-2" fill="white">
                        <use xlink:href="#path-1"></use>
                    </mask>
                    <g id="Clip-2"></g>
                    <path d="M7.37905882,13.730448 C6.14890756,12.446128 5.12544538,11.357216 4.30978151,10.461136 C3.49337815,9.567632 2.97203361,9.009376 2.74611765,8.78968 C2.15747899,8.217808 1.67384874,7.945488 1.29411765,7.971616 C0.915495798,7.99848 0.623394958,8.212656 0.419294118,8.615984 C0.215932773,9.01968 0.0876302521,9.54776 0.0347563025,10.20096 C-0.0155294118,10.853792 -0.0114621849,11.510672 0.0480672269,12.170128 C0.108336134,12.829952 0.223327731,13.440096 0.394521008,14.001664 C0.564605042,14.564704 0.762789916,14.954784 0.989445378,15.175216 C1.79105882,15.954272 2.7194958,16.872432 3.75848739,17.915344 C4.96053782,16.716032 6.64252101,15.578176 8.22208403,14.649344 C7.87378151,14.266992 7.5154958,13.873232 7.37905882,13.730448" id="Fill-1" fill="#000000" mask="url(#mask-2)"></path>
                    <path d="M35.202958,19.394336 C36.0019832,20.78648 36.5906218,22.123424 36.9722017,23.401856 C37.353042,24.679552 37.482084,25.861568 37.3611765,26.947168 C37.2391597,28.031296 36.7817815,28.978528 35.9864538,29.789232 C35.0077311,30.787248 33.8267563,31.299504 32.4472269,31.330048 C32.4368739,31.330416 32.4283697,31.333728 32.4180168,31.334096 C32.0689748,31.339984 31.7136471,31.324528 31.3516639,31.28736 C30.8184874,31.232896 30.2657143,31.115504 29.7040672,30.9672 C29.123563,30.814112 28.5330756,30.627168 27.9222521,30.373616 C26.8551597,29.93312 25.7566387,29.360512 24.6314958,28.68008 C24.065042,28.337472 23.4941513,27.976096 22.9129076,27.573136 C21.1769412,26.370144 19.4616807,25.05528 17.7674958,23.62928 C17.3962689,23.316848 17.0427899,22.995584 16.6785882,22.679472 C16.1997647,22.967984 15.7290756,23.262384 15.272437,23.567088 C14.1191933,24.335104 13.1097815,25.154272 12.2331092,26.020912 C12.9533782,26.660128 13.6862185,27.30008 14.4427227,27.940768 C16.0910588,29.339536 17.7652773,30.62864 19.4638992,31.80992 C20.7162353,32.680976 21.9807731,33.429488 23.2508571,34.118752 C23.2837647,34.136784 23.317042,34.154448 23.3499496,34.172112 C23.7699832,34.398432 24.1877983,34.646096 24.6100504,34.852176 C24.7975126,34.944176 24.9820168,35.020352 25.1683697,35.105728 C26.2524706,35.602528 27.318084,35.999232 28.3615126,36.274864 C28.7941176,36.389312 29.2241345,36.486832 29.6497143,36.563376 C31.2784538,36.854832 32.8387899,36.809936 34.3336807,36.43016 C35.8270924,36.048912 37.2058824,35.212448 38.4730084,33.921136 C39.473916,32.900672 40.0858487,31.728592 40.3102857,30.406 C40.5317647,29.083408 40.4552269,27.674704 40.0806723,26.17952 C39.7046387,24.685808 39.0745882,23.128432 38.1897815,21.506656 C37.3057143,19.885984 36.2767059,18.261632 35.1020168,16.636176 C34.796605,16.213344 34.4656807,15.793824 34.1465882,15.372464 C34.1225546,16.219232 34.0804034,16.952288 34.0404706,17.502816 C34.4501513,18.136144 34.8431933,18.767632 35.202958,19.394336" id="Fill-3" fill="#000000" mask="url(#mask-2)"></path>
                    <path d="M21.9974118,37.440688 C21.4949244,39.143424 21.0589916,40.569792 20.687395,41.720896 C20.3180168,42.871632 20.0928403,43.599904 20.0148235,43.904608 C19.8114622,44.697648 19.8162689,45.250752 20.0288739,45.565024 C20.2418487,45.878192 20.5742521,46.022816 21.0271933,45.997056 C21.4801345,45.97056 22.0036975,45.817104 22.5986218,45.535952 C23.1916975,45.25296 23.7611092,44.921024 24.3050084,44.539776 C24.8492773,44.157792 25.3225546,43.753728 25.7255798,43.325376 C26.1304538,42.897392 26.3711597,42.5316 26.4495462,42.225792 C26.7264874,41.145712 27.0611092,39.886048 27.4489748,38.469248 C25.8047059,38.0328 23.9733445,37.152176 22.3752941,36.254992 C22.217042,36.746272 22.0532437,37.251904 21.9974118,37.440688" id="Fill-4" fill="#000000" mask="url(#mask-2)"></path>
                    <path d="M13.0140168,10.626736 C13.8259832,9.241952 14.694521,8.065824 15.6163025,7.097984 C16.5377143,6.13088 17.5020168,5.428736 18.5066218,4.990448 C19.5112269,4.552896 20.5642689,4.473776 21.6672269,4.753824 C23.0249412,5.09864 24.0609748,5.8604 24.7775462,7.03432 C24.7830924,7.042784 24.7901176,7.048304 24.7956639,7.057504 C24.9753613,7.355216 25.1395294,7.66912 25.2881681,7.999584 C25.5074286,8.486448 25.6815798,9.02152 25.8335462,9.579776 C25.9903193,10.1568 26.1226891,10.759216 26.2081008,11.412416 C26.3578487,12.552848 26.4088739,13.785648 26.3792941,15.095728 C26.3645042,15.755184 26.3356639,16.427888 26.275395,17.130768 C26.0968067,19.228368 25.8102521,21.36424 25.4164706,23.53728 C25.3303193,24.013472 25.2275294,24.478992 25.1343529,24.950768 C25.6250084,25.21904 26.1167731,25.477744 26.6096471,25.719152 C27.854958,26.328928 29.0721681,26.789664 30.264605,27.111664 C30.4609412,26.171424 30.6513613,25.219776 30.8306891,24.24752 C31.2237311,22.127104 31.5080672,20.03944 31.6866555,17.984896 C31.8182857,16.46984 31.8375126,15.005568 31.8020168,13.56632 C31.8012773,13.528784 31.8001681,13.491616 31.7990588,13.45408 C31.7857479,12.978992 31.7924034,12.495072 31.7609748,12.02808 C31.7472941,11.820528 31.721042,11.623648 31.7021849,11.420144 C31.5923697,10.237392 31.4049076,9.120512 31.1231597,8.08312 C31.0063193,7.652928 30.8761681,7.233776 30.7297479,6.828608 C30.1692101,5.27896 29.3502185,3.956736 28.2720336,2.858256 C27.1938487,1.761616 25.776605,0.991392 24.0191933,0.545008 C22.6307899,0.192096 21.3048739,0.250976 20.0418151,0.718704 C18.7802353,1.189008 17.592605,1.9596 16.4789244,3.029744 C15.3674622,4.100992 14.3273613,5.42248 13.3586218,6.996048 C12.3902521,8.568512 11.491395,10.267568 10.6642689,12.092848 C10.4490756,12.567568 10.2494118,13.062528 10.0427227,13.54792 C10.7914622,13.145328 11.4503529,12.815232 11.9491429,12.57456 C12.2955966,11.9048 12.6483361,11.250128 13.0140168,10.626736" id="Fill-5" fill="#000000" mask="url(#mask-2)"></path>
                    <path d="M35.7915966,13.206416 C37.5242353,12.788368 38.9832605,12.450544 40.1708908,12.19552 C41.3566723,11.938656 42.1031933,11.768272 42.4071261,11.683264 C43.1991261,11.462096 43.6779496,11.18168 43.8450756,10.84128 C44.0110924,10.501248 43.9707899,10.14208 43.7219496,9.76488 C43.4723697,9.38768 43.0767395,9.012688 42.5346891,8.641008 C41.9922689,8.271168 41.4184202,7.946224 40.8149916,7.668016 C40.2104538,7.389808 39.6221849,7.184096 39.0479664,7.05088 C38.4730084,6.915456 38.0341176,6.891536 37.7290756,6.976544 C36.650521,7.277936 35.3874622,7.619072 33.960605,7.993328 C34.4028235,9.62872 34.5522017,11.647568 34.5706891,13.473584 C35.0772437,13.364288 35.5993277,13.252784 35.7915966,13.206416" id="Fill-6" fill="#000000" mask="url(#mask-2)"></path>
                    <path d="M16.9514622,34.356848 C15.3404706,34.349488 13.8825546,34.188304 12.579563,33.87808 C11.2773109,33.56712 10.1843361,33.087248 9.30026891,32.440304 C8.41768067,31.79336 7.82201681,30.925616 7.51438655,29.834496 C7.13576471,28.492032 7.28033613,27.218016 7.94366387,26.013552 C7.94847059,26.004352 7.94957983,25.99552 7.9547563,25.98632 C8.12373109,25.68272 8.3152605,25.383904 8.52823529,25.090608 C8.84215126,24.658208 9.22077311,24.240528 9.63045378,23.830576 C10.0541849,23.407008 10.5123025,22.991536 11.038084,22.59152 C11.9550588,21.891952 13.0025546,21.231392 14.1572773,20.602112 C14.738521,20.285264 15.3382521,19.973568 15.9797647,19.674016 C17.8943193,18.779408 19.8961345,17.9584 21.9841008,17.21136 C22.441479,17.0476 22.8981176,16.903344 23.3551261,16.74768 C23.3432941,16.190528 23.3225882,15.637424 23.2856134,15.09168 C23.193916,13.71352 22.9861176,12.433984 22.6703529,11.245344 C21.7537479,11.546 20.8304874,11.857696 19.8950252,12.189632 C17.8532773,12.910912 15.8943529,13.709472 14.0175126,14.583104 C12.6335462,15.227104 11.3497815,15.942496 10.1151933,16.692848 C10.0830252,16.712352 10.0508571,16.731856 10.0190588,16.75136 C9.61196639,17.000496 9.1874958,17.236752 8.79704202,17.497296 C8.6232605,17.612848 8.4650084,17.73392 8.29751261,17.852048 C7.32322689,18.538 6.44507563,19.257808 5.68339496,20.019568 C5.36763025,20.335312 5.06813445,20.656944 4.78860504,20.985936 C3.72040336,22.244128 2.97942857,23.61088 2.56235294,25.089504 C2.1474958,26.567392 2.18594958,28.17408 2.67623529,29.911776 C3.06336134,31.284784 3.77734454,32.398352 4.81596639,33.252848 C5.85606723,34.105136 7.12023529,34.743616 8.60847059,35.168288 C10.0963361,35.59112 11.7661176,35.82664 13.6196639,35.874848 C15.4721008,35.923424 17.3999664,35.84872 19.4017815,35.648896 C19.9223866,35.597008 20.4529748,35.521568 20.9787563,35.457168 C20.2540504,35.012992 19.6376807,34.610032 19.1788235,34.300544 C18.4223193,34.336976 17.6765378,34.36016 16.9514622,34.356848" id="Fill-8" fill="#000000" mask="url(#mask-2)"></path>
                </g>
                <path d="M52,31.104 L54.176,31.104 L55.488,23.648 C55.968,20.96 57.344,19.52 59.552,19.52 C61.6,19.52 62.272,21.152 61.824,23.648 L60.512,31.104 L62.688,31.104 L64,23.648 C64.48,20.96 65.728,19.52 67.968,19.52 C70.048,19.52 70.72,21.12 70.272,23.648 L69.504,28.16 C69.12,30.176 69.76,31.104 71.68,31.104 L73.152,31.104 L73.472,29.344 L72.256,29.344 C71.648,29.344 71.52,28.992 71.616,28.32 L72.48,23.456 C73.12,19.872 71.488,17.568 68.64,17.568 C66.72,17.568 64.96,18.464 63.872,20.416 C63.424,18.688 62.176,17.568 60.288,17.568 C58.24,17.568 56.96,18.656 56,20.256 L56.512,17.856 L54.336,17.856 L52,31.104 Z M81.536,31.36 C83.552,31.36 85.248,30.272 86.4,28.384 L86.304,28.8 C86.144,30.208 86.56,31.104 88.512,31.104 L89.952,31.104 L90.272,29.344 L89.056,29.344 C88.448,29.344 88.32,28.992 88.416,28.32 L90.24,17.856 L88.064,17.856 L87.52,21.472 C86.88,19.072 84.928,17.568 82.592,17.568 C79.008,17.568 76.064,20.576 76.064,24.992 C76.064,28.864 78.336,31.36 81.536,31.36 Z M82.08,29.472 C79.776,29.472 78.304,27.648 78.304,25.024 C78.304,21.824 80.16,19.488 82.976,19.488 C85.408,19.488 86.912,21.472 86.912,24.064 C86.912,27.232 84.8,29.472 82.08,29.472 Z M98.56,31.36 C100.608,31.36 102.496,30.24 103.584,28.352 L103.488,28.768 C103.328,30.176 103.744,31.104 105.696,31.104 L107.168,31.104 L107.456,29.344 L106.24,29.344 C105.632,29.344 105.504,29.024 105.632,28.32 L109.216,8 L107.04,8 L104.672,21.248 C104.032,19.136 102.08,17.568 99.648,17.568 C95.968,17.568 92.96,20.576 92.96,24.992 C92.96,28.704 95.2,31.36 98.56,31.36 Z M99.136,29.472 C96.704,29.472 95.2,27.648 95.2,25.024 C95.2,21.824 97.088,19.488 100.032,19.488 C102.56,19.488 104.16,21.472 104.128,24.064 C104.128,27.232 101.984,29.472 99.136,29.472 Z M112.544,25.664 L123.424,24.512 C123.36,20.512 121.312,17.568 117.184,17.568 C113.312,17.568 110.304,20.672 110.304,24.768 C110.304,28.544 113.024,31.36 117.088,31.36 C119.488,31.36 121.312,30.528 122.592,29.216 L121.216,27.872 C120.288,28.832 119.008,29.536 117.088,29.536 C114.592,29.536 112.896,27.968 112.544,25.664 Z M112.512,24 C112.8,21.248 114.56,19.36 117.152,19.36 C119.808,19.36 120.928,21.216 121.12,23.104 L112.512,24 Z M137.376,31.392 L137.728,31.392 L142.72,23.424 C143.2,22.624 143.584,21.536 143.584,21.536 C143.584,21.536 143.712,22.656 143.968,23.52 L146.176,31.392 L146.528,31.392 L154.016,17.856 L151.744,17.856 L147.712,25.184 C147.232,26.048 146.816,27.2 146.816,27.2 C146.816,27.2 146.656,26.016 146.432,25.184 L144.256,17.664 L143.968,17.664 L139.392,25.28 C138.88,26.144 138.4,27.296 138.4,27.296 C138.4,27.296 138.272,26.112 138.08,25.28 L136.448,17.856 L134.176,17.856 L137.376,31.392 Z M159.328,13.984 C160.16,13.984 160.864,13.376 160.864,12.448 C160.864,11.52 160.128,10.88 159.328,10.88 C158.496,10.88 157.792,11.52 157.792,12.448 C157.792,13.376 158.528,13.984 159.328,13.984 Z M157.696,31.104 L159.232,31.104 L159.552,29.344 L158.24,29.344 C157.632,29.344 157.504,28.992 157.632,28.32 L159.456,17.856 L157.28,17.856 L155.488,28.16 C155.136,30.176 155.744,31.104 157.696,31.104 Z M164.992,19.712 L163.712,27.008 C163.136,30.144 164.736,31.36 166.848,31.36 C168.32,31.36 169.184,30.848 169.856,30.24 L168.832,28.768 C168.384,29.152 167.904,29.472 167.104,29.472 C166.048,29.472 165.568,28.768 165.856,27.104 L167.168,19.712 L170.752,19.712 L171.072,17.856 L167.488,17.856 L168.704,10.944 L166.56,10.944 L165.312,17.856 L163.328,17.856 L163.008,19.712 L164.992,19.712 Z M172.928,31.104 L175.104,31.104 L176.416,23.648 C176.896,20.96 178.432,19.52 180.832,19.52 C183.104,19.52 184.032,21.12 183.584,23.648 L182.816,28.096 C182.464,30.08 183.168,31.104 185.056,31.104 L186.464,31.104 L186.752,29.344 L185.536,29.344 C184.928,29.344 184.8,28.992 184.928,28.32 L185.792,23.456 C186.4,19.808 184.512,17.568 181.6,17.568 C179.456,17.568 177.984,18.72 176.992,20.32 L179.168,8 L176.992,8 L172.928,31.104 Z M210.443032,29.9054795 C209.100804,30.9165931 207.3739,31.36 205.344,31.36 C200.832,31.36 197.376,28.416 198.304,23.04 L200.704,9.344 L203.008,9.344 L200.608,23.072 C199.872,27.296 202.016,29.344 205.44,29.344 C208.512,29.344 210.496,27.904 211.136,24.192 L213.728,9.344 L216.032,9.344 L213.344,24.48 C213.289001,24.7957377 213.225702,25.0991567 213.154295,25.390546 L212.618555,28.464 C212.490555,29.136 212.618555,29.488 213.226555,29.488 L214.538555,29.488 L214.218555,31.248 L212.682555,31.248 C211.352816,31.248 210.646772,30.8173532 210.443032,29.9054795 Z M217.184,31.104 L219.36,31.104 L220.672,23.648 C221.152,20.96 222.688,19.52 225.088,19.52 C227.36,19.52 228.288,21.12 227.84,23.648 L227.04,28.16 C226.688,30.176 227.328,31.104 229.248,31.104 L230.72,31.104 L231.04,29.344 L229.824,29.344 C229.184,29.344 229.056,28.992 229.184,28.32 L230.048,23.456 C230.688,19.808 228.768,17.568 225.856,17.568 C223.712,17.568 222.112,18.752 221.152,20.512 L221.696,17.856 L219.52,17.856 L217.184,31.104 Z M237.792,13.984 C238.624,13.984 239.328,13.376 239.328,12.448 C239.328,11.52 238.592,10.88 237.792,10.88 C236.96,10.88 236.256,11.52 236.256,12.448 C236.256,13.376 236.992,13.984 237.792,13.984 Z M236.302555,31.248 L237.838555,31.248 L238.158555,29.488 L236.846555,29.488 C236.238555,29.488 236.110555,29.136 236.238555,28.464 L238.062555,18 L235.886555,18 L234.094555,28.304 C233.742555,30.32 234.350555,31.248 236.302555,31.248 Z M243.456,19.712 L242.176,27.008 C241.6,30.144 243.2,31.36 245.312,31.36 C246.784,31.36 247.648,30.848 248.32,30.24 L247.296,28.768 C246.848,29.152 246.368,29.472 245.568,29.472 C244.512,29.472 244.032,28.768 244.32,27.104 L245.632,19.712 L249.216,19.712 L249.536,17.856 L245.952,17.856 L247.168,10.944 L245.024,10.944 L243.776,17.856 L241.792,17.856 L241.472,19.712 L243.456,19.712 Z M255.936,38.24 C259.424,38.24 261.824,36.352 262.528,32.352 L265.088,17.856 L262.912,17.856 L261.568,25.312 C261.088,28 259.584,29.44 257.184,29.44 C254.912,29.44 253.984,27.84 254.432,25.312 L255.744,17.856 L253.568,17.856 L252.224,25.504 C251.584,29.152 253.504,31.392 256.416,31.392 C258.528,31.392 259.968,30.304 260.928,28.896 L260.352,32.064 C259.84,34.88 258.272,36.32 255.936,36.32 C253.952,36.32 252.864,35.424 252.032,33.952 L250.304,35.072 C251.264,37.024 253.28,38.24 255.936,38.24 Z" id="made-with-Unity" fill="#000000"></path>
            </g>
        </g>
    </g>
</svg>