<svg xmlns="http://www.w3.org/2000/svg" width="27" height="26" viewBox="0 0 27 26" xmlns:xlink="http://www.w3.org/1999/xlink">
  <defs>
    <path id="a" d="M18.2988281,12.5507812 C18.2988281,10.6523343 17.648444,9.05274088 16.3476562,7.75195312 C15.0468685,6.45116537 13.4472751,5.80078125 11.5488281,5.80078125 C9.68553756,5.80078125 8.10352213,6.45116537 6.80273438,7.75195312 C5.4667902,9.0878973 4.79882812,10.6874907 4.79882812,12.5507812 C4.79882812,14.3789154 5.4667902,15.9609308 6.80273438,17.296875 C8.13867855,18.6328192 9.72069398,19.3007812 11.5488281,19.3007812 C13.4121187,19.3007812 15.0117121,18.6328192 16.3476562,17.296875 C17.648444,15.9960872 18.2988281,14.4140718 18.2988281,12.5507812 Z M26.0507812,25.0488281 C26.0507812,25.5761745 25.8574238,26.0332012 25.4707031,26.4199219 C25.0839824,26.8066426 24.6269558,27 24.0996094,27 C23.572263,27 23.1152363,26.8066426 22.7285156,26.4199219 L17.5605469,21.2519531 C15.7675692,22.5175845 13.7636829,23.1503906 11.5488281,23.1503906 C10.0722582,23.1503906 8.7011782,22.8691434 7.43554688,22.3066406 C6.0996027,21.7441378 4.97461395,20.988286 4.06054688,20.0390625 C3.11132338,19.1249954 2.35547156,18.0000067 1.79296875,16.6640625 C1.23046594,15.2578055 0.94921875,13.8867254 0.94921875,12.5507812 C0.94921875,11.1445242 1.23046594,9.77344418 1.79296875,8.4375 C2.39062799,7.06639939 3.1464798,5.9238327 4.06054688,5.00976562 C5.00977037,4.06054213 6.13475912,3.30469031 7.43554688,2.7421875 C8.73633463,2.21484111 10.1074147,1.95117188 11.5488281,1.95117188 C12.9902416,1.95117188 14.3788996,2.21484111 15.7148438,2.7421875 C17.0859444,3.37500316 18.2109331,4.13085498 19.0898438,5.00976562 C20.0039108,5.9238327 20.7597626,7.06639939 21.3574219,8.4375 C21.9199247,9.77344418 22.2011719,11.1445242 22.2011719,12.5507812 C22.2011719,14.7656361 21.5683657,16.7695223 20.3027344,18.5625 L25.4707031,23.7304688 C25.8574238,24.1171894 26.0507812,24.5566382 26.0507812,25.0488281 Z"/>
  </defs>
  <g fill="#000000" fill-rule="evenodd" transform="translate(0 -1)">
    <use xlink:href="#a"/>
    <use xlink:href="#a"/>
  </g>
</svg>
