<svg id="unity-logo" class="svg-unity-logo" aria-labelledby="unity-logo-title" role="img" xmlns="http://www.w3.org/2000/svg" width="116" height="26" viewBox="0 0 116 26">
  <title id="unity-logo-title">Powered By Unity</title>
  <g fill="none" fill-rule="evenodd">
    <path fill="#ffffff" d="M0 0L57 0 57 26 0 26 0 0zM4.23557692 11.8601286C4.23557692 13.0123316 4.97109307 13.7840281 6.44214744 14.1752412L7.92628205 14.5691318C8.40790839 14.6977498 8.74818277 14.8518212 8.94711538 15.0313505 9.146048 15.2108798 9.24551282 15.4533747 9.24551282 15.7588424 9.24551282 16.1500555 9.07668438 16.459538 8.73902244 16.687299 8.40136049 16.9150601 7.94460758 17.0289389 7.36875 17.0289389 6.79289242 17.0289389 6.33483076 16.9123806 5.99455128 16.6792605 5.6542718 16.4461403 5.44748968 16.1098629 5.37419872 15.670418L4 15.670418C4.0680559 16.4206897 4.40309528 17.0275968 5.00512821 17.4911576 5.60716113 17.9547183 6.36361724 18.1864952 7.27451923 18.1864952 8.25347712 18.1864952 9.05573939 17.950699 9.68133013 17.4790997 10.3069209 17.0075003 10.6197115 16.401933 10.6197115 15.6623794 10.6197115 15.0300076 10.4469569 14.5409985 10.1014423 14.1953376 9.75592776 13.8496767 9.15390387 13.5669893 8.29535256 13.3472669L7.00753205 13.0176849C6.52067064 12.894426 6.16076505 12.7323161 5.92780449 12.5313505 5.69484392 12.3303848 5.57836538 12.0825309 5.57836538 11.7877814 5.57836538 11.4072864 5.73803259 11.1018232 6.05737179 10.8713826 6.376711 10.640942 6.79812772 10.5257235 7.32163462 10.5257235 7.83990644 10.5257235 8.26132316 10.6436215 8.58589744 10.8794212 8.91047171 11.1152209 9.09369637 11.4367611 9.13557692 11.8440514L10.4469551 11.8440514C10.4207798 11.1312933 10.1158416 10.5404632 9.53213141 10.0715434 8.94842123 9.60262359 8.2273013 9.3681672 7.36875 9.3681672 6.45261294 9.3681672 5.70139182 9.59994409 5.1150641 10.0635048 4.52873638 10.5270656 4.23557692 11.1259342 4.23557692 11.8601286zM12.3708333 18.1061093L13.7371795 18.1061093 13.7371795 9.44051447 12.3708333 9.44051447 12.3708333 18.1061093zM13.0540064 8.04180064C13.2948196 8.04180064 13.4989842 7.95471684 13.6665064 7.78054662 13.8340286 7.60637641 13.9177885 7.39871503 13.9177885 7.15755627 13.9177885 6.91103842 13.8340286 6.7020373 13.6665064 6.53054662 13.4989842 6.35905595 13.2948196 6.2733119 13.0540064 6.2733119 12.8184283 6.2733119 12.6155724 6.35905595 12.4454327 6.53054662 12.275293 6.7020373 12.1902244 6.91103842 12.1902244 7.15755627 12.1902244 7.39871503 12.275293 7.60637641 12.4454327 7.78054662 12.6155724 7.95471684 12.8184283 8.04180064 13.0540064 8.04180064zM15.8573718 18.1061093L17.2237179 18.1061093 17.2237179 12.7282958C17.2237179 12.1227194 17.4095601 11.6176333 17.78125 11.2130225 18.1529399 10.8084117 18.6214715 10.6061093 19.186859 10.6061093 19.7156009 10.6061093 20.1409439 10.7641999 20.4629006 11.0803859 20.7848574 11.3965718 20.9458333 11.8172535 20.9458333 12.3424437L20.9458333 18.1061093 22.3121795 18.1061093 22.3121795 12.6559486C22.3121795 12.0610903 22.4940954 11.5707415 22.8579327 11.1848875 23.22177 10.7990334 23.6863754 10.6061093 24.2517628 10.6061093 24.8171503 10.6061093 25.2555807 10.7735782 25.5670673 11.1085209 25.8785539 11.4434636 26.0342949 11.9110367 26.0342949 12.511254L26.0342949 18.1061093 27.400641 18.1061093 27.400641 12.1897106C27.400641 11.3268982 27.1506702 10.639606 26.6507212 10.1278135 26.1507721 9.61602102 25.4820021 9.36012862 24.644391 9.36012862 24.0528282 9.36012862 23.5214767 9.5048217 23.0503205 9.79421222 22.5791643 10.0836027 22.223185 10.485528 21.9823718 11L21.9509615 11C21.7677341 10.4748098 21.4706484 10.0702051 21.0596955 9.78617363 20.6487426 9.5021422 20.1553448 9.36012862 19.5794872 9.36012862 19.0298049 9.36012862 18.5416421 9.49276395 18.114984 9.75803859 17.6883259 10.0233132 17.3755352 10.3863857 17.1766026 10.8472669L17.1451923 10.8472669 17.1451923 9.44051447 15.8573718 9.44051447 15.8573718 18.1061093zM33.4706731 9.36012862C32.8843454 9.36012862 32.3425239 9.49544345 31.8451923 9.76607717 31.3478608 10.0367109 30.9761764 10.3971039 30.7301282 10.8472669L30.6987179 10.8472669 30.6987179 9.44051447 29.4030449 9.44051447 29.4030449 21 30.769391 21 30.769391 16.6993569 30.8008013 16.6993569C31.0677898 17.1709563 31.4342391 17.5367082 31.9001603 17.7966238 32.3660814 18.0565393 32.9000504 18.1864952 33.5020833 18.1864952 34.5700374 18.1864952 35.4364283 17.7818904 36.1012821 16.9726688 36.7661358 16.1634472 37.0985577 15.0970055 37.0985577 13.7733119 37.0985577 12.4496182 36.7635183 11.3831766 36.0934295 10.573955 35.4233407 9.76473336 34.5490973 9.36012862 33.4706731 9.36012862zM33.219391 16.9405145C32.4917164 16.9405145 31.9001625 16.6484488 31.4447115 16.0643087 30.9892605 15.4801686 30.7615385 14.7165106 30.7615385 13.7733119 30.7615385 12.8301132 30.9892605 12.0664552 31.4447115 11.4823151 31.9001625 10.898175 32.4917164 10.6061093 33.219391 10.6061093 33.9680059 10.6061093 34.568721 10.8941557 35.0215545 11.4702572 35.4743879 12.0463587 35.7008013 12.8140359 35.7008013 13.7733119 35.7008013 14.7325879 35.4743879 15.5002651 35.0215545 16.0763666 34.568721 16.652468 33.9680059 16.9405145 33.219391 16.9405145zM38.8025641 18.1061093L40.1689103 18.1061093 40.1689103 6 38.8025641 6 38.8025641 18.1061093zM45.6657051 10.5900322C46.3357939 10.5900322 46.8789242 10.8151103 47.2951122 11.2652733 47.7113002 11.7154363 47.9272435 12.3076062 47.9429487 13.0418006L43.2863782 13.0418006C43.3334938 12.3076062 43.5756121 11.7154363 44.0127404 11.2652733 44.4498686 10.8151103 45.0008514 10.5900322 45.6657051 10.5900322zM47.9115385 15.6302251C47.7911319 16.0375154 47.5385436 16.3603954 47.153766 16.5988746 46.7689885 16.8373538 46.3122355 16.9565916 45.7834936 16.9565916 45.0296437 16.9565916 44.4250023 16.7100775 43.9695513 16.2170418 43.5141003 15.7240061 43.2863782 15.0648487 43.2863782 14.2395498L43.2863782 14.159164 49.3642628 14.159164 49.3642628 13.6125402C49.3642628 12.2995647 49.0344584 11.2625976 48.3748397 10.5016077 47.7152211 9.74061785 46.8200377 9.36012862 45.6892628 9.36012862 44.5375477 9.36012862 43.6135719 9.76473336 42.9173077 10.573955 42.2210435 11.3831766 41.8729167 12.4603363 41.8729167 13.8054662 41.8729167 15.1452371 42.2223523 16.210339 42.921234 17.0008039 43.6201157 17.7912687 44.5637227 18.1864952 45.7520833 18.1864952 46.6577503 18.1864952 47.4403813 17.9466798 48.1 17.4670418 48.7596187 16.9874038 49.147008 16.3751377 49.2621795 15.6302251L47.9115385 15.6302251zM52.1048077 18.1864952C52.3613261 18.1864952 52.5746519 18.0980716 52.7447917 17.9212219 52.9149314 17.7443721 53 17.5273325 53 17.2700965 53 17.0075014 52.9149314 16.789122 52.7447917 16.6149518 52.5746519 16.4407816 52.3613261 16.3536977 52.1048077 16.3536977 51.8535244 16.3536977 51.6415073 16.4407816 51.46875 16.6149518 51.2959927 16.789122 51.2096154 17.0075014 51.2096154 17.2700965 51.2096154 17.5273325 51.2959927 17.7443721 51.46875 17.9212219 51.6415073 18.0980716 51.8535244 18.1864952 52.1048077 18.1864952zM65.0924838 18.3597884C63.8001205 18.3597884 62.7397198 17.5470899 62.3917759 16.2603175L62.1266757 18.2243386 61 18.2243386 63.0876638 6 64.2143395 6 63.0876638 12.552381C63.6675704 11.621164 64.5622835 11.0624339 65.5895466 11.0624339 67.3292665 11.0624339 68.5056484 12.4338624 68.5056484 14.431746 68.5056484 16.7343915 66.9647537 18.3597884 65.0924838 18.3597884zM64.8273836 17.3608466C66.3517096 17.3608466 67.3458352 16.1079365 67.3458352 14.431746 67.3458352 13.0433862 66.5671035 12.0783069 65.3078777 12.0783069 63.833258 12.0783069 62.7231511 13.2804233 62.7231511 14.9396825 62.7231511 16.3280423 63.5350203 17.3608466 64.8273836 17.3608466zM89.121195 15.183347L88.8439176 16.796607C88.7776699 17.1493407 88.8439176 17.334106 89.158594 17.334106L89.8376327 17.334106 89.6720135 18.2579323 88.8770414 18.2579323C88.1888218 18.2579323 87.8234018 18.0318852 87.7179538 17.5532415 87.0232707 18.0839764 86.129494 18.3167213 85.0788993 18.3167213 82.7436689 18.3167213 80.9549818 16.7714118 81.4352774 13.9495423L82.6774212 6.76049383 83.8698793 6.76049383 82.6277355 13.9663391C82.2468114 16.1835223 83.3564599 17.2585202 85.1285851 17.2585202 86.7185292 17.2585202 87.7453681 16.5026623 88.0766065 14.5542286L89.4181218 6.76049383 90.6105799 6.76049383 89.2193788 14.7054002C89.1909133 14.8711313 89.1581526 15.0303964 89.121195 15.183347zM72.2833258 22C70.9081187 22 69.8642868 21.3566138 69.367224 20.3238095L70.261937 19.7312169C70.6927248 20.5100529 71.2560627 20.984127 72.2833258 20.984127 73.4928453 20.984127 74.3047146 20.2222222 74.5698147 18.7322751L74.8680524 17.0560847C74.3709896 17.8010582 73.6253954 18.3767196 72.5318572 18.3767196 71.0241 18.3767196 70.0299744 17.1915344 70.3613496 15.2613757L71.0572375 11.2148148 72.1839132 11.2148148 71.5045941 15.1597884C71.2726314 16.4973545 71.7531255 17.3439153 72.9295075 17.3439153 74.1721645 17.3439153 74.9508962 16.5820106 75.1994276 15.1597884L75.8953156 11.2148148 77.0219913 11.2148148 75.6964904 18.8846561C75.3319777 21.0010582 74.0893207 22 72.2833258 22zM91.2068089 18.1823465L92.4158289 11.2284539 93.5420394 11.2284539 93.2604868 12.6225918C93.7573443 11.6987654 94.5854402 11.0772823 95.6950887 11.0772823 97.2022232 11.0772823 98.1959383 12.2530612 97.8646999 14.1679012L97.4175281 16.7210212C97.3512805 17.0737549 97.4175281 17.2585202 97.7487665 17.2585202L98.3781194 17.2585202 98.2125002 18.1823465 97.450652 18.1823465C96.4569369 18.1823465 96.1256986 17.6952381 96.3078796 16.637037L96.7219276 14.2686823C96.9537944 12.9417318 96.4734988 12.1018896 95.2976027 12.1018896 94.0554588 12.1018896 93.2604868 12.8577475 93.012058 14.2686823L92.3330194 18.1823465 91.2068089 18.1823465zM101.872684 9.19603595C101.458636 9.19603595 101.077712 8.87689594 101.077712 8.38978752 101.077712 7.9026791 101.442074 7.56674225 101.872684 7.56674225 102.286732 7.56674225 102.667656 7.9026791 102.667656 8.38978752 102.667656 8.87689594 102.303294 9.19603595 101.872684 9.19603595zM101.101807 18.2579323C100.09153 18.2579323 99.7768536 17.7708239 99.9590347 16.7126228L100.886502 11.3040396 102.012713 11.3040396 101.068683 16.796607C101.002436 17.1493407 101.068683 17.334106 101.38336 17.334106L102.062398 17.334106 101.896779 18.2579323 101.101807 18.2579323zM104.804144 12.2026707L103.777305 12.2026707 103.942924 11.2284539 104.969763 11.2284539 105.615677 7.60033594 106.725326 7.60033594 106.095973 11.2284539 107.950908 11.2284539 107.785289 12.2026707 105.930354 12.2026707 105.251315 16.0827412C105.102258 16.956177 105.350687 17.3257076 105.89723 17.3257076 106.311278 17.3257076 106.559707 17.1577391 106.791574 16.956177L107.321555 17.7288318C106.973755 18.0479718 106.526583 18.3167213 105.764735 18.3167213 104.671648 18.3167213 103.843552 17.6784413 104.141667 16.0323507L104.804144 12.2026707zM111.263291 21.9280423C109.888652 21.9280423 108.845251 21.2897623 108.348394 20.265155L109.242738 19.6772655C109.673347 20.4499202 110.236453 20.9202318 111.263291 20.9202318 112.472311 20.9202318 113.283845 20.1643739 113.548836 18.6862518L113.846951 17.0233644C113.350093 17.7624255 112.604807 18.3335181 111.51172 18.3335181 110.004586 18.3335181 109.010871 17.1577391 109.342109 15.2428991L110.03771 11.2284539 111.16392 11.2284539 110.484881 15.1421181C110.253014 16.4690686 110.73331 17.3089107 111.909206 17.3089107 113.15135 17.3089107 113.92976 16.5530528 114.178189 15.1421181L114.87379 11.2284539 116 11.2284539 114.675047 18.8374234C114.310684 20.9370286 113.068541 21.9280423 111.263291 21.9280423z"/>
  </g>
</svg>
