<svg xmlns="http://www.w3.org/2000/svg" width="110" height="110" viewBox="0 0 110 110">
  <g fill="none">
    <path fill="#FAC338" d="M49.6774194,42.5806452 L60.3225806,42.5806452 C64.2538746,42.5806452 67.5510333,40.0042527 68.7144815,36.4610635 C64.4938414,34.6929342 59.8634389,33.7096774 55,33.7096774 C50.1365611,33.7096774 45.5061586,34.6929342 41.2855185,36.4610635 C42.4489667,40.0042527 45.7461254,42.5806452 49.6774194,42.5806452 L49.6774194,42.5806452 Z M74.9986611,39.8890341 C72.4595198,45.705409 66.4594884,49.6774194 59.7759419,49.6774194 L58.5483871,49.6774194 L58.5483871,104.498094 C76.4783108,102.71697 90.483871,87.5921435 90.483871,69.1935484 C90.483871,57.0158928 84.3452305,46.2780368 74.9986611,39.8890341 L74.9986611,39.8890341 Z M39.0322581,97.5806452 L44.3548387,97.5806452 L44.3548387,85.1612903 L39.0322581,85.1612903 L39.0322581,78.0645161 L51.4516129,78.0645161 L51.4516129,49.6774194 L49.6774194,49.6774194 C43.059712,49.6774194 37.4001386,45.643035 34.9779486,39.905494 C25.6461064,46.2996944 19.516129,57.0262885 19.516129,69.1935484 C19.516129,83.0397083 27.4644815,95.0025202 39.0322581,100.850082 L39.0322581,97.5806452 Z"/>
    <path fill="#000000" d="M60.3225806,23.0645161 L59.2258381,23.0645161 L58.5483871,24.4202841 C57.8726689,25.7717206 56.5134357,26.6129032 55,26.6129032 C53.4865643,26.6129032 52.1273311,25.7717206 51.4516129,24.4202841 L50.7741619,23.0645161 L49.6774194,23.0645161 C43.8064674,23.0645161 39.0322581,27.8387255 39.0322581,33.7096774 C39.0322581,39.5806294 43.8064674,44.3548387 49.6774194,44.3548387 L60.3225806,44.3548387 C66.1935326,44.3548387 70.9677419,39.5806294 70.9677419,33.7096774 C70.9677419,27.8387255 66.1935326,23.0645161 60.3225806,23.0645161 Z M60.3225806,40.8064516 L49.6774194,40.8064516 C45.7634513,40.8064516 42.5806452,37.6236455 42.5806452,33.7096774 C42.5806452,30.1413652 45.2280746,27.1786006 48.6603767,26.6856729 C50.0343372,28.8479713 52.3976184,30.1612903 55,30.1612903 C57.6023816,30.1612903 59.9656628,28.8479713 61.3396233,26.6856729 C64.7719254,27.1786006 67.4193548,30.1413652 67.4193548,33.7096774 C67.4193548,37.6236455 64.2365487,40.8064516 60.3225806,40.8064516 Z"/>
    <path fill="#000000" d="M60.3225806,15.9677419 L50.2240581,15.9677419 C40.5916079,15.9677419 32.5739509,23.2455739 31.9727351,32.5332345 C31.6513357,37.4997638 33.3406314,42.22546 36.7296183,45.8414189 C40.0735571,49.4079983 44.7931892,51.4516129 49.6774194,51.4516129 L49.6774194,76.2903226 L37.2580645,76.2903226 L37.2580645,86.9354839 L42.5806452,86.9354839 L42.5806452,95.8064516 L37.2580645,95.8064516 L37.2580645,106.451613 L50.0040165,106.451613 C50.7386435,108.511687 52.6904298,110 55,110 C57.9341766,110 60.3225806,107.611596 60.3225806,104.677419 L60.3225806,51.44295 C69.7098664,51.1752614 77.4364447,43.9996536 78.0272649,34.8861203 C78.3486643,29.919591 76.6593686,25.1938948 73.2703817,21.577936 C69.9264429,18.0113565 65.2068108,15.9677419 60.3225806,15.9677419 L60.3225806,15.9677419 Z M55,106.451613 C54.0228075,106.451613 53.2258065,105.656344 53.2258065,104.677419 L53.2258065,94.0322581 L49.6774194,94.0322581 L49.6774194,102.903226 L40.8064516,102.903226 L40.8064516,99.3548387 L46.1290323,99.3548387 L46.1290323,83.3870968 L40.8064516,83.3870968 L40.8064516,79.8387097 L49.6774194,79.8387097 L49.6774194,88.7096774 L53.2258065,88.7096774 L53.2258065,63.8709677 L56.7741935,63.8709677 L56.7741935,104.677419 C56.7741935,105.656344 55.9771925,106.451613 55,106.451613 Z M53.2258065,56.7741935 L56.7741935,56.7741935 L56.7741935,60.3225806 L53.2258065,60.3225806 L53.2258065,56.7741935 Z M74.4840758,34.6574157 C74.0032762,42.0859847 67.5432366,47.9032258 59.7759419,47.9032258 L56.7741935,47.9032258 L56.7741935,53.2258065 L53.2258065,53.2258065 L53.2258065,47.9032258 L49.6774194,47.9032258 C45.7123394,47.9032258 42.0322739,46.31009 39.3198715,43.4148974 C36.6083353,40.5223034 35.2568988,36.7382812 35.5141917,32.7619392 C35.9967238,25.3333701 42.4567634,19.516129 50.2240581,19.516129 L60.3225806,19.516129 C64.2876606,19.516129 67.9677261,21.1092648 70.6801285,24.0044575 C73.3916647,26.8970514 74.7413684,30.6810736 74.4840758,34.6574157 Z"/>
    <polygon fill="#000000" points="29.597 1.49 32.874 .133 34.233 3.41 30.955 4.768"/>
    <polygon fill="#000000" points="32.313 8.046 35.59 6.688 36.949 9.966 33.671 11.324"/>
    <polygon fill="#000000" points="1.906 32.876 3.262 29.597 6.541 30.954 5.184 34.233"/>
    <polygon fill="#000000" points="8.461 35.592 9.819 32.314 13.098 33.672 11.739 36.95"/>
    <polygon fill="#000000" points="1.907 77.123 5.186 75.766 6.542 79.044 3.263 80.402"/>
    <polygon fill="#000000" points="8.46 74.406 11.739 73.048 13.097 76.326 9.819 77.684"/>
    <polygon fill="#000000" points="103.455 79.048 104.812 75.769 108.091 77.126 106.734 80.404"/>
    <polygon fill="#000000" points="96.898 76.329 98.256 73.051 101.534 74.41 100.175 77.688"/>
    <polygon fill="#000000" points="103.454 30.955 106.733 29.598 108.09 32.877 104.811 34.234"/>
    <polygon fill="#000000" points="96.899 33.672 100.177 32.314 101.535 35.592 98.257 36.95"/>
    <polygon fill="#000000" points="75.765 3.412 77.124 .134 80.402 1.493 79.043 4.771"/>
    <polygon fill="#000000" points="73.049 9.969 74.407 6.69 77.685 8.049 76.327 11.327"/>
    <polygon fill="#000000" points="6.074 8.582 8.582 6.073 23.637 21.128 21.128 23.636"/>
    <polygon fill="#000000" points="0 53.226 17.742 53.226 17.742 56.774 0 56.774"/>
    <polygon fill="#000000" points="92.258 53.226 110 53.226 110 56.774 92.258 56.774"/>
    <polygon fill="#000000" points="86.363 21.129 101.418 6.075 103.926 8.583 88.872 23.638"/>
    <polygon fill="#000000" points="53.226 0 56.774 0 56.774 3.548 53.226 3.548"/>
    <polygon fill="#000000" points="53.226 7.097 56.774 7.097 56.774 10.645 53.226 10.645"/>
  </g>
</svg>
