<svg xmlns="http://www.w3.org/2000/svg" width="110" height="110" viewBox="0 0 110 110"><g fill="none"><path fill="#FAC338" d="M49.677 42.58h10.646c3.93 0 7.228-2.576 8.391-6.119A35.404 35.404 0 0 0 55 33.71c-4.863 0-9.494.983-13.714 2.751 1.163 3.543 4.46 6.12 8.391 6.12zM75 39.89c-2.54 5.816-8.54 9.788-15.223 9.788h-1.228v54.821c17.93-1.781 31.936-16.906 31.936-35.304 0-12.178-6.139-22.916-15.485-29.305zM39.032 97.581h5.323V85.16h-5.323v-7.096h12.42V49.677h-1.775c-6.617 0-12.277-4.034-14.7-9.772-9.33 6.395-15.46 17.121-15.46 29.289 0 13.846 7.947 25.809 19.515 31.656v-3.27z"/><path fill="#000" d="M60.323 23.065h-1.097l-.678 1.355A3.946 3.946 0 0 1 55 26.613a3.946 3.946 0 0 1-3.548-2.193l-.678-1.355h-1.097c-5.87 0-10.645 4.774-10.645 10.645 0 5.87 4.774 10.645 10.645 10.645h10.646c5.87 0 10.645-4.774 10.645-10.645 0-5.871-4.774-10.645-10.645-10.645zm0 17.741H49.677a7.104 7.104 0 0 1-7.096-7.096c0-3.569 2.647-6.531 6.08-7.024A7.473 7.473 0 0 0 55 30.16a7.473 7.473 0 0 0 6.34-3.475c3.432.493 6.08 3.455 6.08 7.024a7.104 7.104 0 0 1-7.097 7.096z"/><path fill="#000" d="M60.323 15.968H50.224c-9.632 0-17.65 7.278-18.251 16.565-.322 4.967 1.368 9.692 4.757 13.308a17.813 17.813 0 0 0 12.947 5.61v24.84H37.258v10.644h5.323v8.871h-5.323v10.646h12.746C50.739 108.512 52.69 110 55 110a5.33 5.33 0 0 0 5.323-5.323V51.443C69.71 51.175 77.436 44 78.027 34.886c.322-4.966-1.368-9.692-4.757-13.308a17.813 17.813 0 0 0-12.947-5.61zM55 106.452a1.777 1.777 0 0 1-1.774-1.775V94.032h-3.549v8.871h-8.87v-3.548h5.322V83.387h-5.323V79.84h8.871v8.87h3.549V63.872h3.548v40.806c0 .98-.797 1.775-1.774 1.775zm-1.774-49.678h3.548v3.549h-3.548v-3.549zm21.258-22.117c-.48 7.429-6.94 13.246-14.708 13.246h-3.002v5.323h-3.548v-5.323h-3.549a14.056 14.056 0 0 1-10.357-4.488c-2.712-2.893-4.063-6.677-3.806-10.653.483-7.429 6.943-13.246 14.71-13.246h10.099c3.965 0 7.645 1.593 10.357 4.488 2.712 2.893 4.061 6.677 3.804 10.653zM29.597 1.49L32.874.133l1.359 3.277-3.278 1.358zm2.716 6.556l3.277-1.358 1.359 3.278-3.278 1.358zM1.906 32.876l1.356-3.279 3.279 1.357-1.357 3.279zm6.555 2.716l1.358-3.278 3.279 1.358-1.359 3.278zM1.907 77.123l3.279-1.357 1.356 3.278-3.279 1.358zm6.553-2.717l3.279-1.358 1.358 3.278-3.278 1.358zm94.995 4.642l1.357-3.279 3.279 1.357-1.357 3.278zm-6.557-2.719l1.358-3.278 3.278 1.359-1.359 3.278zm6.556-45.374l3.279-1.357 1.357 3.279-3.279 1.357zm-6.555 2.717l3.278-1.358 1.358 3.278-3.278 1.358zM75.765 3.412L77.124.134l3.278 1.359-1.359 3.278zm-2.716 6.557l1.358-3.279 3.278 1.359-1.358 3.278zM6.074 8.582l2.508-2.509 15.055 15.055-2.509 2.508zM0 53.226h17.742v3.548H0zm92.258 0H110v3.548H92.258zm-5.895-32.097l15.055-15.054 2.508 2.508-15.054 15.055zM53.226 0h3.548v3.548h-3.548zm0 7.097h3.548v3.548h-3.548z"/></g></svg>