<svg xmlns="http://www.w3.org/2000/svg" width="110" height="110" viewBox="0 0 110 110">
<defs>
<linearGradient id="f" x1="25.377%" x2="74.623%" y1="-32.236%" y2="100%">
<stop stop-color="#F9C137" offset="0"/>
<stop stop-color="#F29127" offset="1"/>
</linearGradient>
<linearGradient id="e" x2="97.363%" y1="2.041%" y2="95.43%">
<stop stop-color="#FAC238" offset="0"/>
<stop stop-color="#F29127" offset="1"/>
</linearGradient>
<linearGradient id="d" x1="-373.47%" x2="2664.5%" y1="-1009.1%" y2="1768.2%">
<stop stop-color="#F9BE36" offset="0"/>
<stop stop-color="#F29127" offset="1"/>
</linearGradient>
</defs>
<path d="m108.17 97.135h-1.8333v-58.814c0-3.1245-2.3833-5.5138-5.5-5.5138h-11v3.6759h11c1.1 0 1.8333 0.73517 1.8333 1.8379v60.652c0 1.1028 0.73333 1.8379 1.8333 1.8379h1.8333v5.5138h-102.67v-5.5138h1.8333 93.5v-3.6759h-91.667v-58.814c0-1.1028 0.73333-1.8379 1.8333-1.8379h12.833v-3.6759h-12.833c-3.1167 0-5.5 2.3893-5.5 5.5138v58.814h-1.8333c-1.1 0-1.8333 0.73517-1.8333 1.8379v7.3517c0 2.2055 1.4667 3.6759 3.6667 3.6759h102.67c2.2 0 3.6667-1.4703 3.6667-3.6759v-7.3517c0-1.1028-0.73333-1.8379-1.8333-1.8379z" fill="url(#f)"/>
<path d="m12.351 89.926v-47.716h9.1667v-3.6705h-11c-1.1 0-1.8333 0.73409-1.8333 1.8352v51.386c0 1.1011 0.73333 1.8352 1.8333 1.8352h22 3.6667 7.3333 3.6667 9.1667 18.333 23.833c1.1 0 1.8333-0.73409 1.8333-1.8352v-51.386c0-1.1011-0.73333-1.8352-1.8333-1.8352h-9.1667v3.6705h7.3333v47.716h-20.167v-88.091c0-1.1011-0.73333-1.8352-1.8333-1.8352h-18.333c-1.1 0-1.8333 0.73409-1.8333 1.8352v88.091h-7.3333v-11.011-60.562c0-0.36705-0.18333-0.91761-0.36667-1.1011l-5.3167-15.966c-0.18333-0.73409-0.91667-1.2847-1.65-1.2847s-1.4667 0.55057-1.65 1.2847l-5.3167 15.966c-0.18333 0.36705-0.36667 0.73409-0.36667 1.1011v60.562 11.011h-20.167zm45.833-9.1761h7.3333v-3.6705h-7.3333v-7.3409h7.3333v-3.6705h-7.3333v-7.3409h7.3333v-3.6705h-7.3333v-7.3409h7.3333v-3.6705h-7.3333v-7.3409h7.3333v-3.6705h-7.3333v-7.3409h7.3333v-3.6705h-7.3333v-7.3409h7.3333v-3.6705h-7.3333v-7.3409h14.667v86.256h-14.667v-9.1761zm-22-60.562h1.8333v56.892h-1.8333v-56.892zm5.5 0h1.8333v56.892h-1.8333v-56.892zm-1.8333-12.48l2.9333 8.8091h-5.8667l2.9333-8.8091zm-3.6667 73.042h1.8333 3.6667 1.8333v9.1761h-7.3333v-9.1761z" fill="url(#e)"/>
<rect x="16.404" y="46.316" width="3.86" height="3.86" fill="url(#d)"/>
<rect x="26.053" y="46.316" width="3.86" height="3.86" fill="url(#d)"/>
<rect x="16.404" y="53.07" width="3.86" height="3.86" fill="url(#d)"/>
<rect x="26.053" y="53.07" width="3.86" height="3.86" fill="url(#d)"/>
<rect x="16.404" y="59.825" width="3.86" height="3.86" fill="url(#d)"/>
<rect x="26.053" y="59.825" width="3.86" height="3.86" fill="url(#d)"/>
<rect x="16.404" y="67.544" width="3.86" height="3.86" fill="url(#d)"/>
<rect x="26.053" y="67.544" width="3.86" height="3.86" fill="url(#d)"/>
<rect x="16.404" y="75.263" width="3.86" height="3.86" fill="url(#d)"/>
<rect x="26.053" y="75.263" width="3.86" height="3.86" fill="url(#d)"/>
<rect x="16.404" y="82.982" width="3.86" height="3.86" fill="url(#d)"/>
<rect x="26.053" y="82.982" width="3.86" height="3.86" fill="url(#d)"/>
<rect x="81.053" y="46.316" width="3.86" height="3.86" fill="url(#d)"/>
<rect x="89.737" y="46.316" width="3.86" height="3.86" fill="url(#d)"/>
<rect x="81.053" y="53.07" width="3.86" height="3.86" fill="url(#d)"/>
<rect x="89.737" y="53.07" width="3.86" height="3.86" fill="url(#d)"/>
<rect x="81.053" y="59.825" width="3.86" height="3.86" fill="url(#d)"/>
<rect x="89.737" y="59.825" width="3.86" height="3.86" fill="url(#d)"/>
<rect x="81.053" y="67.544" width="3.86" height="3.86" fill="url(#d)"/>
<rect x="89.737" y="67.544" width="3.86" height="3.86" fill="url(#d)"/>
<rect x="81.053" y="75.263" width="3.86" height="3.86" fill="url(#d)"/>
<rect x="89.737" y="75.263" width="3.86" height="3.86" fill="url(#d)"/>
<rect x="81.053" y="82.982" width="3.86" height="3.86" fill="url(#d)"/>
<rect x="89.737" y="82.982" width="3.86" height="3.86" fill="url(#d)"/>
</svg>
