<svg xmlns="http://www.w3.org/2000/svg" width="110" height="110" viewBox="0 0 110 110"><defs><linearGradient id="a" x1="0%" y1="-32.236%" y2="100%"><stop stop-color="#F9C137" offset="0%"/><stop stop-color="#F29127" offset="100%"/></linearGradient><linearGradient id="b" x1="0%" x2="97.363%" y1="0%" y2="97.363%"><stop stop-color="#FAC238" offset="0%"/><stop stop-color="#F29127" offset="100%"/></linearGradient><linearGradient id="c" x1="-373.471%" x2="2664.519%" y1="-1009.081%" y2="1768.21%"><stop stop-color="#F9BE36" offset="0%"/><stop stop-color="#F29127" offset="100%"/></linearGradient></defs><g fill="none"><path fill="url(#a)" d="M108.167 97.135h-1.834V38.32c0-3.125-2.383-5.514-5.5-5.514h-11v3.676h11c1.1 0 1.834.735 1.834 1.838v60.651c0 1.103.733 1.838 1.833 1.838h1.833v5.514H3.667v-5.514H99v-3.675H7.333V38.32c0-1.103.734-1.838 1.834-1.838H22v-3.676H9.167c-3.117 0-5.5 2.39-5.5 5.514v58.814H1.833c-1.1 0-1.833.735-1.833 1.837v7.352C0 108.53 1.467 110 3.667 110h102.666c2.2 0 3.667-1.47 3.667-3.676v-7.352c0-1.102-.733-1.837-1.833-1.837z"/><path fill="url(#b)" d="M12.35 89.926V42.21h9.168v-3.67h-11c-1.1 0-1.834.734-1.834 1.835v51.386c0 1.101.734 1.835 1.834 1.835h88c1.1 0 1.833-.734 1.833-1.835V40.375c0-1.101-.733-1.835-1.833-1.835H89.35v3.67h7.333v47.716H76.518V1.836C76.518.733 75.784 0 74.684 0H56.351c-1.1 0-1.833.734-1.833 1.835v88.091h-7.334V18.352c0-.367-.183-.917-.366-1.1L41.5 1.284C41.318.55 40.584 0 39.85 0c-.733 0-1.467.55-1.65 1.285L32.884 17.25c-.183.367-.366.734-.366 1.101v71.574H12.35zm45.834-9.176h7.334v-3.67h-7.334v-7.341h7.334v-3.67h-7.334v-7.342h7.334v-3.67h-7.334v-7.341h7.334v-3.67h-7.334v-7.341h7.334v-3.67h-7.334v-7.342h7.334v-3.67h-7.334v-7.341h7.334v-3.67h-7.334V3.67h14.667v86.256H58.184V80.75zm-22-60.563h1.834V77.08h-1.834V20.187zm5.5 0h1.834V77.08h-1.834V20.187zm-1.833-12.48l2.933 8.81h-5.866l2.933-8.81zM36.184 80.75h7.334v9.176h-7.334V80.75z"/><path fill="url(#c)" d="M16.404 46.316h3.86v3.86h-3.86zm9.649 0h3.86v3.86h-3.86zm-9.649 6.754h3.86v3.86h-3.86zm9.649 0h3.86v3.86h-3.86zm-9.649 6.755h3.86v3.86h-3.86zm9.649 0h3.86v3.86h-3.86zm-9.649 7.719h3.86v3.86h-3.86zm9.649 0h3.86v3.86h-3.86zm-9.649 7.719h3.86v3.86h-3.86zm9.649 0h3.86v3.86h-3.86zm-9.649 7.719h3.86v3.86h-3.86zm9.649 0h3.86v3.86h-3.86zm55-36.666h3.86v3.86h-3.86zm8.684 0h3.86v3.86h-3.86zm-8.684 6.754h3.86v3.86h-3.86zm8.684 0h3.86v3.86h-3.86zm-8.684 6.755h3.86v3.86h-3.86zm8.684 0h3.86v3.86h-3.86zm-8.684 7.719h3.86v3.86h-3.86zm8.684 0h3.86v3.86h-3.86zm-8.684 7.719h3.86v3.86h-3.86zm8.684 0h3.86v3.86h-3.86zm-8.684 7.719h3.86v3.86h-3.86zm8.684 0h3.86v3.86h-3.86z"/></g></svg>