<svg xmlns="http://www.w3.org/2000/svg" width="110" height="110" viewBox="0 0 110 110"><defs><linearGradient id="a" x1="25.377%" x2="74.623%" y1="-32.236%" y2="100%"><stop stop-color="#F9C137" offset="0"/><stop stop-color="#F29127" offset="1"/></linearGradient><linearGradient id="b" x2="97.363%" y1="2.041%" y2="95.43%"><stop stop-color="#FAC238" offset="0"/><stop stop-color="#F29127" offset="1"/></linearGradient><linearGradient id="c" x1="-373.47%" x2="2664.5%" y1="-1009.1%" y2="1768.2%"><stop stop-color="#F9BE36" offset="0"/><stop stop-color="#F29127" offset="1"/></linearGradient></defs><path d="M108.17 97.135h-1.833V38.321c0-3.124-2.384-5.514-5.5-5.514h-11v3.676h11c1.1 0 1.833.735 1.833 1.838v60.652c0 1.103.733 1.838 1.833 1.838h1.834v5.514H3.667v-5.514H99v-3.676H7.333V38.321c0-1.103.733-1.838 1.833-1.838H22v-3.676H9.166c-3.117 0-5.5 2.39-5.5 5.514v58.814H1.833c-1.1 0-1.833.735-1.833 1.838v7.352C0 108.53 1.466 110 3.666 110h102.67c2.2 0 3.667-1.47 3.667-3.676v-7.352c0-1.103-.733-1.838-1.833-1.838z" fill="url(#a)"/><path d="M12.351 89.926V42.21h9.167v-3.67h-11c-1.1 0-1.834.734-1.834 1.835V91.76c0 1.1.734 1.835 1.834 1.835h87.999c1.1 0 1.833-.734 1.833-1.835V40.375c0-1.101-.733-1.835-1.833-1.835H89.35v3.67h7.334v47.716H76.517V1.835C76.517.734 75.783 0 74.683 0H56.35c-1.1 0-1.833.734-1.833 1.835v88.091h-7.333V18.353c0-.367-.184-.918-.367-1.101L41.5 1.286C41.317.552 40.584 0 39.85 0s-1.466.55-1.65 1.285l-5.316 15.966c-.184.367-.367.734-.367 1.101v71.573H12.35zm45.833-9.176h7.333v-3.67h-7.333v-7.342h7.333v-3.67h-7.333v-7.34h7.333v-3.671h-7.333v-7.341h7.333v-3.67h-7.333v-7.342h7.333v-3.67h-7.333v-7.341h7.333v-3.67h-7.333V14.68h7.333v-3.67h-7.333V3.67h14.667v86.255H58.184V80.75zm-22-60.562h1.833V77.08h-1.833V20.188zm5.5 0h1.833V77.08h-1.833V20.188zm-1.833-12.48l2.933 8.809h-5.867l2.934-8.81zM36.184 80.75h7.333v9.176h-7.333V80.75z" fill="url(#b)"/><path fill="url(#c)" d="M16.404 46.316h3.86v3.86h-3.86zm9.649 0h3.86v3.86h-3.86zm-9.649 6.754h3.86v3.86h-3.86zm9.649 0h3.86v3.86h-3.86zm-9.649 6.755h3.86v3.86h-3.86zm9.649 0h3.86v3.86h-3.86zm-9.649 7.719h3.86v3.86h-3.86zm9.649 0h3.86v3.86h-3.86zm-9.649 7.719h3.86v3.86h-3.86zm9.649 0h3.86v3.86h-3.86zm-9.649 7.719h3.86v3.86h-3.86zm9.649 0h3.86v3.86h-3.86zm55-36.666h3.86v3.86h-3.86zm8.684 0h3.86v3.86h-3.86zm-8.684 6.754h3.86v3.86h-3.86zm8.684 0h3.86v3.86h-3.86zm-8.684 6.755h3.86v3.86h-3.86zm8.684 0h3.86v3.86h-3.86zm-8.684 7.719h3.86v3.86h-3.86zm8.684 0h3.86v3.86h-3.86zm-8.684 7.719h3.86v3.86h-3.86zm8.684 0h3.86v3.86h-3.86zm-8.684 7.719h3.86v3.86h-3.86zm8.684 0h3.86v3.86h-3.86z"/></svg>