<svg width="512" height="512" viewBox="0 0 310 310" xmlns="http://www.w3.org/2000/svg"><g fill="#FFF"><title>LinkedIn</title><path class="active-path" d="M72.16 99.73H9.927a5 5 0 0 0-5 5v199.93a5 5 0 0 0 5 5H72.16a5 5 0 0 0 5-5V104.73a5 5 0 0 0-5-5zM41.066.341C18.422.341 0 18.743 0 41.362 0 63.991 18.422 82.4 41.066 82.4c22.626 0 41.033-18.41 41.033-41.038C82.1 18.743 63.692.341 41.066.341zm189.384 94.42c-24.995 0-43.472 10.745-54.679 22.954V104.73a5 5 0 0 0-5-5h-59.599a5 5 0 0 0-5 5v199.93a5 5 0 0 0 5 5h62.097a5 5 0 0 0 5-5v-98.918c0-33.333 9.054-46.319 32.29-46.319 25.306 0 27.317 20.818 27.317 48.034v97.204a5 5 0 0 0 5 5h62.12a5 5 0 0 0 5-5v-109.66c0-49.565-9.451-100.23-79.546-100.23z"/></g></svg>