<svg xmlns="http://www.w3.org/2000/svg" width="110" height="116" viewBox="0 0 110 116"><g fill="none"><path fill="#FAC338" d="M45.203 47.76l1.944 1.943c2.057-3.906 4.668-7.536 7.848-10.716 3.18 3.18 5.79 6.81 7.847 10.718l1.944-1.944a17.268 17.268 0 0 1 12.173-5.057l-.019-.776c-3.926-8.553-12.54-14.08-21.945-14.08-9.406 0-18.02 5.527-21.947 14.078l-.018.776a17.28 17.28 0 0 1 12.173 5.058zM32.716 70.549H14.88c2.477 9.603 11.17 16.708 21.55 16.708h12.995c0-9.213-7.495-16.708-16.709-16.708zm62.393 0H77.273c-9.214 0-16.709 7.495-16.709 16.708H73.56c10.378 0 19.072-7.105 21.549-16.708z"/><path fill="#000" d="M40.493 21.819l3.43-1.421 4.264 10.291-3.432 1.421zm-2.844-6.86l3.431-1.42 1.42 3.43-3.43 1.42zm24.154 15.732l4.265-10.29 3.429 1.421-4.263 10.29zm5.684-13.72l1.422-3.43 3.43 1.421-1.421 3.43zM6.86 36.118l1.421-3.429 10.29 4.263-1.422 3.431zM0 33.276l1.421-3.43 3.431 1.421-1.422 3.431zm91.411 3.676l10.291-4.264 1.42 3.43-10.29 4.265zm13.723-5.684l3.429-1.421 1.422 3.43-3.431 1.422zM53.138 0h3.713v24.135h-3.713zM16.923 16.539l2.625-2.626 17.066 17.066-2.625 2.626zm90.055 37.301v-3.713H88.79c-.03-.18-.043-.36-.078-.539a15.343 15.343 0 0 1-.3-3.035v-8.085l-7.67 1.915a15.52 15.52 0 0 1-3.741.46 19 19 0 0 0-13.529 5.606l-.206.206c-1.938-3.244-4.253-6.273-6.96-8.98l-1.312-1.313-1.313 1.313c-2.707 2.707-5.022 5.736-6.96 8.98l-.206-.206a19.007 19.007 0 0 0-13.529-5.605c-1.257 0-2.515-.156-3.741-.46l-7.67-1.916v8.085c0 1.019-.1 2.04-.3 3.035-.035.179-.048.358-.078.539H3.01v3.713h17.91a19.188 19.188 0 0 0 2.661 9.282H12.294v1.857c0 13.308 10.828 24.135 24.135 24.135h9.47c.458 2.252 1.756 4.183 3.526 5.521v20.47h11.14v-20.47c1.769-1.338 3.066-3.271 3.525-5.521h9.47c13.308 0 24.135-10.827 24.135-24.135v-1.857H86.407a19.237 19.237 0 0 0 2.66-9.282h17.91zM54.995 41.672c6.14 6.717 9.945 15.255 10.882 24.319a24.266 24.266 0 0 0-10.882 11.998A24.28 24.28 0 0 0 44.11 65.991c.938-9.062 4.744-17.602 10.884-24.32zM27.712 62.64a15.5 15.5 0 0 1-2.794-12.324c.248-1.233.372-2.5.372-3.763V43.22l3.056.763c1.518.38 3.08.574 4.641.574a15.32 15.32 0 0 1 10.904 4.517l.989.99a46.23 46.23 0 0 0-4.313 14.397 23.927 23.927 0 0 0-7.85-1.339h-4.642l-.363-.482zm-11.621 4.195h16.625c10.636 0 19.397 8.17 20.339 18.566H36.429c-10.636 0-19.397-8.17-20.338-18.566zm40.76 44.557h-3.713v-15.04a9.278 9.278 0 0 0 3.713 0v15.04zm-1.856-18.565c-2.418 0-4.46-1.557-5.228-3.713h10.455c-.768 2.156-2.81 3.713-5.227 3.713zm18.565-7.426H56.935c.94-10.395 9.702-18.566 20.338-18.566h16.626c-.942 10.395-9.703 18.566-20.339 18.566zm3.713-22.279c-2.751 0-5.386.485-7.85 1.337a46.246 46.246 0 0 0-4.313-14.398l.99-.989a15.315 15.315 0 0 1 10.902-4.515c1.56 0 3.123-.193 4.64-.574l3.057-.763v3.333c0 1.264.124 2.528.373 3.763a15.506 15.506 0 0 1-2.794 12.324l-.364.482h-4.641zm-3.901-32.144l17.066-17.066 2.626 2.627-17.067 17.066z"/></g></svg>