<svg xmlns="http://www.w3.org/2000/svg" width="100" height="100" viewBox="0 0 100 100">
  <defs>
    <linearGradient id="a" x1="0%" y1="0%" y2="100%">
      <stop stop-color="#FAC338" offset="0%"/>
      <stop stop-color="#F29027" offset="100%"/>
    </linearGradient>
  </defs>
  <path fill="url(#a)" d="M97.9069086,10 L2.0930914,10 C0.937007251,10 0,10.9370073 0,12.0930914 L0,107.906909 C0,109.062993 0.937007251,110 2.0930914,110 L97.9069086,110 C99.0629927,110 100,109.062993 100,107.906909 L100,12.0930914 C100,10.9370073 99.0629927,10 97.9069086,10 Z M52.0930914,28.4971139 L76.2564363,28.4971139 C76.5720279,29.6062197 77.1383254,30.6367184 77.9234673,31.5088398 C78.8907081,32.5832934 80.1370277,33.351458 81.5028861,33.7417032 L81.5028861,57.9069086 L77.2276307,57.9069086 C76.5057467,55.3786867 74.5094026,53.3825752 71.9809482,52.6604587 L71.9809482,40.1116781 C71.9809482,38.9555939 71.043941,38.0185867 69.8878568,38.0185867 L57.3390762,38.0185867 C56.6171922,35.4903648 54.6208481,33.4942533 52.0928588,32.7721368 L52.0928588,28.4971139 L52.0930914,28.4971139 Z M13.8427763,28.7078184 C13.2727577,28.0747745 12.958794,27.2568409 12.958794,26.4040225 C12.958794,24.5044257 14.5044257,22.9590266 16.4037899,22.9590266 C18.3031541,22.9590266 19.8487858,24.5046583 19.8487858,26.4040225 C19.8487858,28.3033866 18.3031541,29.8490183 16.4037899,29.8490183 C15.4295721,29.8492509 14.4960534,29.4331908 13.8427763,28.7078184 Z M19.8492509,93.5959775 C19.8492509,95.4955743 18.3036192,97.0409734 16.404255,97.0409734 C15.4298047,97.0409734 14.4962859,96.6249134 13.8430088,95.8997735 C13.2729903,95.2667296 12.9590266,94.448796 12.9590266,93.5959775 C12.9590266,91.6963808 14.5046583,90.1509817 16.4040225,90.1509817 C18.3033866,90.1509817 19.8492509,91.6963808 19.8492509,93.5959775 Z M18.4971139,33.7435637 C21.0253357,33.0216798 23.0214472,31.0253357 23.7435637,28.4971139 L47.9069086,28.4971139 L47.9069086,32.7723693 C45.3786867,33.4942533 43.3825752,35.4905974 42.6604587,38.0188192 L30.1116781,38.0188192 C28.9555939,38.0188192 28.0185867,38.9558265 28.0185867,40.1119106 L28.0185867,52.6606913 C25.4903648,53.3825752 23.4937882,55.3789193 22.7716716,57.9071412 L18.4971139,57.9071412 L18.4971139,33.7435637 Z M30.1119106,56.5550041 C32.0115074,56.5550041 33.5569065,58.1006358 33.5569065,60 C33.5569065,61.8993642 32.0112748,63.4449959 30.1119106,63.4449959 C29.1372277,63.4449959 28.203709,63.0291684 27.5506644,62.3037959 C26.9804133,61.6705195 26.666217,60.8523533 26.666217,60 C26.666217,58.1004033 28.2120813,56.5550041 30.1119106,56.5550041 Z M32.205002,67.3395413 C35.3983618,66.4274186 37.7430893,63.482439 37.7430893,60 C37.7430893,56.517561 35.3983618,53.5725814 32.205002,52.6604587 L32.205002,42.2047695 L42.6606913,42.2047695 C42.9765155,43.3136428 43.5425805,44.3441414 44.3279549,45.2164954 C45.7735833,46.8221291 47.8408599,47.7428567 50.0002326,47.7428567 C53.4826715,47.7428567 56.4274186,45.3981292 57.3395413,42.2047695 L67.7952305,42.2047695 L67.7952305,52.6604587 C64.6018708,53.5725814 62.2571433,56.517561 62.2571433,60 C62.2571433,61.8884336 62.9527473,63.7012833 64.2162768,65.1052825 C65.1839827,66.1795035 66.4300698,66.9472029 67.7952305,67.3376808 L67.7952305,77.7952305 L57.3395413,77.7952305 C56.4274186,74.6018708 53.4826715,72.2571433 50.0002326,72.2571433 C46.5177936,72.2571433 43.572814,74.6018708 42.6606913,77.7952305 L32.205002,77.7952305 L32.205002,67.3395413 Z M69.8880894,56.5550041 C71.7879187,56.5550041 73.3333178,58.1006358 73.3333178,60 C73.3333178,61.8993642 71.7876861,63.4449959 69.8880894,63.4449959 C68.913639,63.4449959 67.9801203,63.0289358 67.3270758,62.3042611 C66.7570572,61.6707521 66.4430935,60.8525859 66.4430935,60 C66.4430935,58.1004033 67.9884926,56.5550041 69.8880894,56.5550041 Z M57.3393087,81.9814133 L69.8880894,81.9814133 C71.0441735,81.9814133 71.9811808,81.0444061 71.9811808,79.8883219 L71.9811808,67.3395413 C74.5094026,66.6176573 76.5057467,64.6213133 77.2278632,62.0930914 L81.5031187,62.0930914 L81.5031187,86.2564363 C78.9748969,86.9783202 76.9787854,88.9746643 76.2566688,91.5028861 L52.0930914,91.5028861 L52.0930914,87.2276307 C54.6210807,86.5057467 56.6171922,84.5096352 57.3393087,81.9814133 Z M83.5959775,90.1509817 C85.4955743,90.1509817 87.0409734,91.6966134 87.0409734,93.5959775 C87.0409734,95.4953417 85.4955743,97.0409734 83.5959775,97.0409734 C82.6210621,97.0409734 81.6875433,96.6251459 81.0347314,95.8997735 C80.4647128,95.2667296 80.1507491,94.448796 80.1507491,93.5959775 C80.1509817,91.6963808 81.6963808,90.1509817 83.5959775,90.1509817 Z M81.0347314,28.7078184 C80.4647128,28.0747745 80.1507491,27.2568409 80.1507491,26.4040225 C80.1507491,24.5044257 81.6963808,22.9590266 83.595745,22.9590266 C85.4951091,22.9590266 87.0407409,24.5046583 87.0407409,26.4040225 C87.0407409,28.3033866 85.4953417,29.8490183 83.595745,29.8490183 C82.6210621,29.8492509 81.6875433,29.4334234 81.0347314,28.7078184 Z M53.4449959,40.1119106 C53.4449959,42.0115074 51.8995967,43.5569065 50,43.5569065 C49.0253171,43.5569065 48.0917983,43.141079 47.4387538,42.4159391 C46.8687353,41.7826627 46.5547716,40.9644965 46.5547716,40.1119106 C46.5547716,38.2123139 48.1004033,36.6669147 49.9997674,36.6669147 C51.8991316,36.6669147 53.4449959,38.2123139 53.4449959,40.1119106 Z M4.18618281,14.1861828 L47.9069086,14.1861828 L47.9069086,24.3109311 L23.7435637,24.3109311 C22.831441,21.1175713 19.8864614,18.7728438 16.4040225,18.7728438 C12.1959785,18.7728438 8.77284377,22.196211 8.77284377,26.4040225 C8.77284377,28.2931537 9.46868038,30.1060035 10.7322099,31.509305 C11.6999158,32.583526 12.9460029,33.3512254 14.3111636,33.7417032 L14.3111636,57.9069086 L4.18618281,57.9069086 L4.18618281,14.1861828 Z M47.9069086,105.813817 L4.18618281,105.813817 L4.18618281,62.0930914 L14.3109311,62.0930914 L14.3109311,86.2564363 C11.1175713,87.168559 8.77284377,90.1135386 8.77284377,93.5959775 C8.77284377,95.4851088 9.46868038,97.2979585 10.7322099,98.70126 C12.1783035,100.306429 14.2453475,101.227156 16.404255,101.227156 C19.886694,101.227156 22.8316736,98.8824287 23.7437963,95.6890689 L47.9071412,95.6890689 L47.9071412,105.813817 L47.9069086,105.813817 Z M47.9069086,91.5028861 L23.7435637,91.5028861 C23.0216798,88.9746643 21.0253357,86.9785528 18.4971139,86.2564363 L18.4971139,62.0930914 L22.7719042,62.0930914 C23.0877284,63.2019647 23.6540259,64.2326959 24.4396329,65.1048174 C25.4068737,66.179271 26.6531934,66.9472029 28.0188192,67.3376808 L28.0188192,79.8883219 C28.0188192,81.0444061 28.9558265,81.9814133 30.1119106,81.9814133 L42.6606913,81.9814133 C42.9765155,83.0902867 43.5425805,84.1207853 44.3279549,84.9931393 C45.2951957,86.0675929 46.5415153,86.8355249 47.9071412,87.2260027 L47.9071412,91.5028861 L47.9069086,91.5028861 Z M47.4387538,82.1923504 C46.8687353,81.559074 46.5547716,80.7409078 46.5547716,79.8883219 C46.5547716,77.9887252 48.1004033,76.4433261 49.9997674,76.4433261 C51.8991316,76.4433261 53.4447633,77.9889578 53.4447633,79.8883219 C53.4447633,81.7876861 51.8993642,83.3333178 49.9997674,83.3333178 C49.0253171,83.3333178 48.0917983,82.9174903 47.4387538,82.1923504 Z M95.8138172,105.813817 L52.0930914,105.813817 L52.0930914,95.6890689 L76.2564363,95.6890689 C76.5720279,96.7981748 77.1383254,97.8286735 77.9234673,98.7007949 C79.3688632,100.306196 81.4361398,101.227156 83.5959775,101.227156 C87.803789,101.227156 91.2271562,97.803789 91.2271562,93.5959775 C91.2271562,90.1135386 88.8826613,87.168559 85.6890689,86.2564363 L85.6890689,62.0930914 L95.8138172,62.0930914 L95.8138172,105.813817 Z M95.8138172,57.9069086 L85.6890689,57.9069086 L85.6890689,33.7435637 C88.8824287,32.831441 91.2271562,29.8864614 91.2271562,26.4040225 C91.2271562,22.1959785 87.803789,18.7728438 83.5959775,18.7728438 C80.1135386,18.7728438 77.168559,21.1175713 76.2564363,24.3109311 L52.0930914,24.3109311 L52.0930914,14.1861828 L95.8138172,14.1861828 L95.8138172,57.9069086 Z" transform="translate(0 -10)"/>
</svg>
