<svg xmlns="http://www.w3.org/2000/svg" width="100" height="100" viewBox="0 0 100 100">
<defs>
<linearGradient id="b" y2="100%">
<stop stop-color="#FAC338" offset="0"/>
<stop stop-color="#F29027" offset="1"/>
</linearGradient>
</defs>
<path d="m97.907 0h-95.814c-1.1561 0-2.0931 0.93701-2.0931 2.0931v95.814c0 1.1561 0.93701 2.0931 2.0931 2.0931h95.814c1.1561 0 2.0931-0.93701 2.0931-2.0931v-95.814c0-1.1561-0.93701-2.0931-2.0931-2.0931zm-45.814 18.497h24.164c0.31559 1.1091 0.88189 2.1396 1.667 3.0117 0.96724 1.0745 2.2136 1.8426 3.5794 2.2329v24.165h-4.2753c-0.72188-2.5282-2.7182-4.5243-5.2467-5.2464v-12.549c0-1.1561-0.93701-2.0931-2.0931-2.0931h-12.549c-0.72188-2.5282-2.7182-4.5243-5.2462-5.2464v-4.275zm-38.25 0.2107c-0.57002-0.63304-0.88398-1.451-0.88398-2.3038 0-1.8996 1.5456-3.445 3.445-3.445s3.445 1.5456 3.445 3.445c0 1.8994-1.5456 3.445-3.445 3.445-0.97422 2.326e-4 -1.9077-0.41583-2.561-1.1412zm6.0065 64.888c0 1.8996-1.5456 3.445-3.445 3.445-0.97445 0-1.908-0.41606-2.5612-1.1412-0.57002-0.63304-0.88398-1.451-0.88398-2.3038 0-1.8996 1.5456-3.445 3.445-3.445 1.8994 0 3.4452 1.5454 3.4452 3.445zm-1.3521-59.852c2.5282-0.72188 4.5243-2.7182 5.2464-5.2464h24.163v4.2753c-2.5282 0.72188-4.5243 2.7182-5.2464 5.2464h-12.549c-1.1561 0-2.0931 0.93701-2.0931 2.0931v12.549c-2.5282 0.72188-4.5248 2.7182-5.2469 5.2464h-4.2746v-24.164zm11.615 22.811c1.8996 0 3.445 1.5456 3.445 3.445s-1.5456 3.445-3.445 3.445c-0.97468 0-1.9082-0.41583-2.5612-1.1412-0.57025-0.63328-0.88445-1.4514-0.88445-2.3038 0-1.8996 1.5459-3.445 3.4457-3.445zm2.0931 10.785c3.1934-0.91212 5.5381-3.8571 5.5381-7.3395s-2.3447-6.4274-5.5381-7.3395v-10.456h10.456c0.31582 1.1089 0.88189 2.1394 1.6673 3.0117 1.4456 1.6056 3.5129 2.5264 5.6723 2.5264 3.4824 0 6.4272-2.3447 7.3393-5.5381h10.456v10.456c-3.1934 0.91212-5.5381 3.8571-5.5381 7.3395 0 1.8884 0.6956 3.7013 1.9591 5.1053 0.96771 1.0742 2.2138 1.8419 3.579 2.2324v10.458h-10.456c-0.91212-3.1934-3.8569-5.5381-7.3393-5.5381-3.4824 0-6.4274 2.3447-7.3395 5.5381h-10.456v-10.456zm37.683-10.785c1.8998 0 3.4452 1.5456 3.4452 3.445s-1.5456 3.445-3.4452 3.445c-0.97445 0-1.908-0.41606-2.561-1.1407-0.57002-0.63351-0.88398-1.4517-0.88398-2.3043 0-1.8996 1.5454-3.445 3.445-3.445zm-12.549 25.426h12.549c1.1561 0 2.0931-0.93701 2.0931-2.0931v-12.549c2.5282-0.72188 4.5246-2.7182 5.2467-5.2464h4.2753v24.163c-2.5282 0.72188-4.5243 2.7182-5.2464 5.2464h-24.164v-4.2753c2.528-0.72188 4.5241-2.718 5.2462-5.2462zm26.257 8.1696c1.8996 0 3.445 1.5456 3.445 3.445 0 1.8994-1.5454 3.445-3.445 3.445-0.97492 0-1.9084-0.41583-2.5612-1.1412-0.57002-0.63304-0.88398-1.451-0.88398-2.3038 2.326e-4 -1.8996 1.5456-3.445 3.4452-3.445zm-2.5612-61.443c-0.57002-0.63304-0.88398-1.451-0.88398-2.3038 0-1.8996 1.5456-3.445 3.445-3.445 1.8994 0 3.445 1.5456 3.445 3.445 0 1.8994-1.5454 3.445-3.445 3.445-0.97468 2.326e-4 -1.9082-0.41559-2.561-1.1412zm-27.59 11.404c0 1.8996-1.5454 3.445-3.445 3.445-0.97468 0-1.9082-0.41583-2.5612-1.141-0.57002-0.63328-0.88398-1.4514-0.88398-2.304 0-1.8996 1.5456-3.445 3.445-3.445 1.8994 0 3.4452 1.5454 3.4452 3.445zm-49.259-25.926h43.721v10.125h-24.163c-0.91212-3.1934-3.8571-5.5381-7.3395-5.5381-4.208 0-7.6312 3.4234-7.6312 7.6312 0 1.8891 0.69584 3.702 1.9594 5.1053 0.96771 1.0742 2.2138 1.8419 3.579 2.2324v24.165h-10.125v-43.721zm43.721 91.628h-43.721v-43.721h10.125v24.163c-3.1934 0.91212-5.5381 3.8571-5.5381 7.3395 0 1.8891 0.69584 3.702 1.9594 5.1053 1.4461 1.6052 3.5131 2.5259 5.672 2.5259 3.4824 0 6.4274-2.3447 7.3395-5.5381h24.163v10.125zm0-14.311h-24.164c-0.72188-2.5282-2.7182-4.5243-5.2464-5.2464v-24.163h4.2748c0.31582 1.1089 0.88212 2.1396 1.6677 3.0117 0.96724 1.0745 2.2136 1.8424 3.5792 2.2329v12.551c0 1.1561 0.93701 2.0931 2.0931 2.0931h12.549c0.31582 1.1089 0.88189 2.1394 1.6673 3.0117 0.96724 1.0745 2.2136 1.8424 3.5792 2.2329v4.2769zm-0.46839-9.3105c-0.57002-0.63328-0.88398-1.4514-0.88398-2.304 0-1.8996 1.5456-3.445 3.445-3.445 1.8994 0 3.445 1.5456 3.445 3.445 0 1.8994-1.5454 3.445-3.445 3.445-0.97445 0-1.908-0.41583-2.561-1.141zm48.375 23.621h-43.721v-10.125h24.163c0.31559 1.1091 0.88189 2.1396 1.667 3.0117 1.4454 1.6054 3.5127 2.5264 5.6725 2.5264 4.2078 0 7.6312-3.4234 7.6312-7.6312 0-3.4824-2.3445-6.4274-5.5381-7.3395v-24.163h10.125v43.721zm0-47.907h-10.125v-24.163c3.1934-0.91212 5.5381-3.8571 5.5381-7.3395 0-4.208-3.4234-7.6312-7.6312-7.6312-3.4824 0-6.4274 2.3447-7.3395 5.5381h-24.163v-10.125h43.721v43.721z" fill="url(#b)"/>
</svg>
