<svg xmlns="http://www.w3.org/2000/svg" width="100" height="100" viewBox="0 0 100 100"><defs><linearGradient id="a" x1="0%" y1="0%" y2="100%"><stop stop-color="#FAC338" offset="0%"/><stop stop-color="#F29027" offset="100%"/></linearGradient></defs><path fill="url(#a)" d="M97.907 10H2.093A2.093 2.093 0 0 0 0 12.093v95.814C0 109.063.937 110 2.093 110h95.814a2.093 2.093 0 0 0 2.093-2.093V12.093A2.093 2.093 0 0 0 97.907 10zM52.093 28.497h24.163a7.614 7.614 0 0 0 1.667 3.012 7.644 7.644 0 0 0 3.58 2.233v24.165h-4.275a7.663 7.663 0 0 0-5.247-5.247V40.112a2.093 2.093 0 0 0-2.093-2.093H57.339a7.663 7.663 0 0 0-5.246-5.247v-4.275zm-38.25.21a3.437 3.437 0 0 1-.884-2.303c0-1.9 1.545-3.445 3.445-3.445a3.45 3.45 0 0 1 3.445 3.445 3.45 3.45 0 0 1-3.445 3.445 3.451 3.451 0 0 1-2.561-1.141zm6.006 64.889c0 1.9-1.545 3.445-3.445 3.445a3.453 3.453 0 0 1-2.561-1.141 3.437 3.437 0 0 1-.884-2.304c0-1.9 1.546-3.445 3.445-3.445a3.45 3.45 0 0 1 3.445 3.445zm-1.352-59.852a7.663 7.663 0 0 0 5.247-5.247h24.163v4.275a7.663 7.663 0 0 0-5.247 5.247H30.112a2.093 2.093 0 0 0-2.093 2.093V52.66a7.663 7.663 0 0 0-5.247 5.246h-4.275V33.744zm11.615 22.811c1.9 0 3.445 1.546 3.445 3.445a3.45 3.45 0 0 1-3.445 3.445 3.452 3.452 0 0 1-2.561-1.141A3.437 3.437 0 0 1 26.666 60a3.45 3.45 0 0 1 3.446-3.445zm2.093 10.785c3.193-.913 5.538-3.858 5.538-7.34 0-3.482-2.345-6.427-5.538-7.34V42.205h10.456a7.617 7.617 0 0 0 1.667 3.011A7.644 7.644 0 0 0 50 47.743c3.483 0 6.427-2.345 7.34-5.538h10.455V52.66c-3.193.913-5.538 3.858-5.538 7.34a7.62 7.62 0 0 0 1.96 5.105 7.65 7.65 0 0 0 3.578 2.233v10.457H57.34c-.913-3.193-3.857-5.538-7.34-5.538-3.482 0-6.427 2.345-7.34 5.538H32.206V67.34zm37.683-10.785A3.45 3.45 0 0 1 73.333 60a3.45 3.45 0 0 1-3.445 3.445 3.454 3.454 0 0 1-2.56-1.14A3.44 3.44 0 0 1 66.442 60c0-1.9 1.545-3.445 3.445-3.445zM57.34 81.981h12.55a2.093 2.093 0 0 0 2.092-2.093V67.34a7.663 7.663 0 0 0 5.247-5.247h4.275v24.163a7.663 7.663 0 0 0-5.246 5.247H52.093v-4.275a7.663 7.663 0 0 0 5.246-5.247zm26.257 8.17c1.9 0 3.445 1.546 3.445 3.445 0 1.9-1.545 3.445-3.445 3.445a3.45 3.45 0 0 1-2.561-1.141 3.437 3.437 0 0 1-.884-2.304 3.45 3.45 0 0 1 3.445-3.445zm-2.561-61.443a3.437 3.437 0 0 1-.884-2.304c0-1.9 1.545-3.445 3.445-3.445a3.45 3.45 0 0 1 3.445 3.445c0 1.9-1.546 3.445-3.445 3.445a3.45 3.45 0 0 1-2.561-1.141zm-27.59 11.404c0 1.9-1.545 3.445-3.445 3.445a3.452 3.452 0 0 1-2.561-1.141 3.438 3.438 0 0 1-.884-2.304c0-1.9 1.545-3.445 3.445-3.445a3.45 3.45 0 0 1 3.445 3.445zM4.186 14.186h43.72v10.125H23.745c-.913-3.193-3.858-5.538-7.34-5.538-4.208 0-7.631 3.423-7.631 7.631 0 1.89.696 3.702 1.96 5.105a7.65 7.65 0 0 0 3.578 2.233v24.165H4.186v-43.72zm43.72 91.628H4.187v-43.72h10.125v24.162c-3.193.913-5.538 3.858-5.538 7.34 0 1.89.696 3.702 1.96 5.105a7.646 7.646 0 0 0 5.671 2.526c3.483 0 6.428-2.345 7.34-5.538h24.163v10.125zm0-14.311H23.745a7.663 7.663 0 0 0-5.247-5.247V62.093h4.275a7.614 7.614 0 0 0 1.668 3.012 7.646 7.646 0 0 0 3.579 2.233v12.55c0 1.156.937 2.093 2.093 2.093H42.66a7.617 7.617 0 0 0 1.667 3.012 7.646 7.646 0 0 0 3.58 2.233v4.277h-.001zm-.467-9.31a3.438 3.438 0 0 1-.884-2.305c0-1.9 1.545-3.445 3.445-3.445a3.45 3.45 0 0 1 3.445 3.445c0 1.9-1.546 3.445-3.445 3.445a3.452 3.452 0 0 1-2.561-1.14zm48.375 23.62h-43.72V95.69h24.162a7.614 7.614 0 0 0 1.667 3.012 7.644 7.644 0 0 0 5.673 2.526c4.208 0 7.631-3.423 7.631-7.631 0-3.482-2.344-6.427-5.538-7.34V62.093h10.125v43.72zm0-47.906H85.689V33.744c3.193-.913 5.538-3.858 5.538-7.34 0-4.208-3.423-7.631-7.631-7.631-3.482 0-6.427 2.345-7.34 5.538H52.093V14.186h43.72v43.72z" transform="translate(0 -10)"/></svg>