<svg xmlns="http://www.w3.org/2000/svg" width="100" height="100" viewBox="0 0 100 100"><defs><linearGradient id="a" y2="100%"><stop stop-color="#FAC338" offset="0"/><stop stop-color="#F29027" offset="1"/></linearGradient></defs><path d="M97.907 0H2.093A2.093 2.093 0 0 0 0 2.093v95.814C0 99.063.937 100 2.093 100h95.814A2.093 2.093 0 0 0 100 97.907V2.093A2.093 2.093 0 0 0 97.907 0zM52.093 18.497h24.164a7.614 7.614 0 0 0 1.667 3.012 7.644 7.644 0 0 0 3.58 2.233v24.165h-4.276a7.662 7.662 0 0 0-5.247-5.247V30.111a2.093 2.093 0 0 0-2.093-2.093H57.34a7.663 7.663 0 0 0-5.246-5.246v-4.275zm-38.25.21a3.437 3.437 0 0 1-.884-2.303c0-1.9 1.546-3.445 3.445-3.445s3.445 1.546 3.445 3.445a3.45 3.45 0 0 1-3.445 3.445 3.451 3.451 0 0 1-2.561-1.141zm6.006 64.889c0 1.9-1.545 3.445-3.445 3.445a3.453 3.453 0 0 1-2.56-1.141 3.437 3.437 0 0 1-.885-2.304c0-1.9 1.546-3.445 3.445-3.445a3.45 3.45 0 0 1 3.446 3.445zm-1.352-59.852a7.663 7.663 0 0 0 5.247-5.247h24.163v4.276a7.663 7.663 0 0 0-5.247 5.246H30.111a2.093 2.093 0 0 0-2.093 2.093v12.55a7.663 7.663 0 0 0-5.247 5.246h-4.274V23.744zm11.615 22.81c1.9 0 3.445 1.546 3.445 3.446s-1.545 3.445-3.445 3.445a3.451 3.451 0 0 1-2.56-1.141A3.437 3.437 0 0 1 26.666 50a3.45 3.45 0 0 1 3.445-3.445zm2.093 10.786c3.194-.912 5.539-3.857 5.539-7.34s-2.345-6.427-5.539-7.34V32.206h10.456a7.616 7.616 0 0 0 1.668 3.011A7.644 7.644 0 0 0 50 37.743c3.482 0 6.427-2.345 7.34-5.538h10.455V42.66c-3.193.912-5.538 3.857-5.538 7.34a7.62 7.62 0 0 0 1.96 5.105 7.651 7.651 0 0 0 3.578 2.232v10.458H57.34c-.912-3.194-3.857-5.538-7.339-5.538s-6.427 2.345-7.34 5.538H32.207V57.34zm37.683-10.785c1.9 0 3.446 1.545 3.446 3.445s-1.546 3.445-3.446 3.445a3.454 3.454 0 0 1-2.56-1.141A3.44 3.44 0 0 1 66.443 50c0-1.9 1.545-3.445 3.445-3.445zM57.34 71.98h12.55a2.093 2.093 0 0 0 2.093-2.093v-12.55a7.663 7.663 0 0 0 5.246-5.246h4.276v24.163a7.663 7.663 0 0 0-5.247 5.247H52.093v-4.276a7.662 7.662 0 0 0 5.246-5.246zm26.257 8.17c1.9 0 3.445 1.545 3.445 3.444 0 1.9-1.545 3.445-3.445 3.445a3.45 3.45 0 0 1-2.56-1.14 3.437 3.437 0 0 1-.885-2.305 3.45 3.45 0 0 1 3.446-3.445zm-2.56-61.444a3.437 3.437 0 0 1-.885-2.303c0-1.9 1.546-3.445 3.445-3.445a3.45 3.45 0 0 1 3.445 3.445 3.449 3.449 0 0 1-3.445 3.445 3.449 3.449 0 0 1-2.56-1.142zM53.447 30.11a3.45 3.45 0 0 1-3.446 3.445 3.452 3.452 0 0 1-2.56-1.14 3.438 3.438 0 0 1-.885-2.305c0-1.9 1.546-3.445 3.445-3.445a3.45 3.45 0 0 1 3.445 3.445zM4.185 4.185h43.721V14.31H23.744c-.912-3.193-3.857-5.538-7.34-5.538-4.207 0-7.63 3.424-7.63 7.631 0 1.89.695 3.702 1.959 5.106a7.651 7.651 0 0 0 3.579 2.232v24.165H4.187V4.186zm43.721 91.628H4.187v-43.72H14.31v24.162c-3.193.912-5.538 3.857-5.538 7.34 0 1.889.696 3.702 1.96 5.105a7.646 7.646 0 0 0 5.672 2.526c3.482 0 6.427-2.345 7.34-5.538h24.162v10.125zm0-14.31H23.743a7.663 7.663 0 0 0-5.246-5.247V52.093h4.275a7.614 7.614 0 0 0 1.667 3.012 7.646 7.646 0 0 0 3.58 2.233v12.55c0 1.157.937 2.094 2.093 2.094H42.66a7.616 7.616 0 0 0 1.667 3.011 7.646 7.646 0 0 0 3.58 2.233v4.277zm-.468-9.311a3.438 3.438 0 0 1-.884-2.304c0-1.9 1.546-3.445 3.445-3.445a3.45 3.45 0 0 1 3.445 3.445c0 1.9-1.545 3.445-3.445 3.445a3.452 3.452 0 0 1-2.561-1.141zm48.375 23.62h-43.72V85.689h24.163a7.614 7.614 0 0 0 1.667 3.012 7.644 7.644 0 0 0 5.672 2.526c4.208 0 7.632-3.423 7.632-7.631 0-3.483-2.345-6.428-5.538-7.34V52.092h10.125v43.721zm0-47.906H85.689V23.743c3.193-.912 5.538-3.857 5.538-7.34 0-4.208-3.423-7.63-7.631-7.63-3.483 0-6.428 2.344-7.34 5.537H52.093V4.185h43.721v43.721z" fill="url(#a)"/></svg>