<svg xmlns="http://www.w3.org/2000/svg" width="100" height="110" viewBox="0 0 100 110"><defs><linearGradient id="a" y1="8.678%" y2="91.322%"><stop stop-color="#FAC338" offset="0"/><stop stop-color="#F29027" offset="1"/></linearGradient></defs><path d="M93.103 70.642V39.359c3.93-.798 6.897-4.27 6.897-8.42 0-4.74-3.868-8.595-8.621-8.595a8.612 8.612 0 0 0-6.426 2.873L58.53 9.84a8.59 8.59 0 0 0 .091-1.247C58.62 3.856 54.753 0 50 0s-8.621 3.856-8.621 8.594c0 .424.032.84.092 1.247L15.046 25.217a8.612 8.612 0 0 0-6.426-2.873C3.867 22.344 0 26.2 0 30.938c0 4.15 2.966 7.623 6.896 8.421v31.283C2.966 71.44 0 74.912 0 79.062c0 4.74 3.867 8.595 8.62 8.595a8.612 8.612 0 0 0 6.427-2.874l26.424 15.375a8.61 8.61 0 0 0-.092 1.248c0 4.739 3.867 8.594 8.62 8.594s8.621-3.855 8.621-8.594c0-.424-.032-.84-.092-1.248l26.424-15.375a8.613 8.613 0 0 0 6.427 2.874c4.753 0 8.62-3.856 8.62-8.594 0-4.15-2.966-7.623-6.896-8.421zm-4.505.288L72.672 43.804l12.282-7.145a8.629 8.629 0 0 0 4.7 2.7V70.64c-.36.073-.712.172-1.055.288zm-36.874-7.509a8.628 8.628 0 0 0 4.7-2.7l26.79 15.587a8.47 8.47 0 0 0-.283 1.036H51.723V63.421zM17.068 77.344a8.503 8.503 0 0 0-.284-1.036l26.79-15.587a8.629 8.629 0 0 0 4.701 2.7v13.923H17.067zm-6.724-6.702V39.359a8.628 8.628 0 0 0 4.702-2.7l12.282 7.146L11.4 70.931a8.56 8.56 0 0 0-1.056-.288zm19.96-25.105l11.531 6.709a8.531 8.531 0 0 0 0 5.51l-26.79 15.586a8.699 8.699 0 0 0-.672-.672l15.93-27.132zm17.971-28.522V46.58a8.628 8.628 0 0 0-4.7 2.7l-11.53-6.708L47.22 16.727c.343.117.694.215 1.055.288zm4.503-.288l15.175 25.845-11.529 6.708a8.629 8.629 0 0 0-4.7-2.7V17.016a8.49 8.49 0 0 0 1.054-.288zM50 60.157c-1.847 0-3.47-.97-4.385-2.426a1.704 1.704 0 0 0-.167-.282 5.113 5.113 0 0 1-.62-2.448c0-.895.23-1.738.634-2.472.027-.039.055-.075.079-.116.027-.046.05-.093.073-.14a5.177 5.177 0 0 1 8.772 0c.022.047.046.094.072.14.024.04.051.076.078.113a5.11 5.11 0 0 1 .636 2.475 5.11 5.11 0 0 1-.619 2.443 1.719 1.719 0 0 0-.167.285A5.177 5.177 0 0 1 50 60.157zm34.954 13.185l-26.79-15.587a8.531 8.531 0 0 0 0-5.51l11.53-6.708L85.627 72.67a8.534 8.534 0 0 0-.673.672zm6.425-47.56c2.852 0 5.172 2.314 5.172 5.156 0 2.843-2.32 5.157-5.172 5.157a5.176 5.176 0 0 1-4.387-2.43 1.693 1.693 0 0 0-.165-.28 5.11 5.11 0 0 1-.62-2.447c0-.895.23-1.737.634-2.472.027-.038.055-.075.08-.116.026-.046.05-.092.072-.14a5.177 5.177 0 0 1 4.386-2.428zm-8.164 2.401a8.532 8.532 0 0 0 0 5.51L70.93 40.84 55.751 14.99a8.663 8.663 0 0 0 1.574-1.871l25.89 15.065zM50 3.438c2.852 0 5.173 2.314 5.173 5.157a5.12 5.12 0 0 1-.237 1.542 5.19 5.19 0 0 1-2.29 2.886l-.036.018-.026.018a5.15 5.15 0 0 1-2.584.692 5.15 5.15 0 0 1-2.583-.692l-.027-.018c-.013-.007-.026-.012-.038-.02a5.184 5.184 0 0 1-2.287-2.88 5.123 5.123 0 0 1-.237-1.546c0-2.843 2.32-5.156 5.172-5.156zm-7.325 9.68a8.659 8.659 0 0 0 1.574 1.871L29.068 40.84l-12.284-7.147a8.531 8.531 0 0 0 0-5.51l25.89-15.065zM3.447 30.939c0-2.842 2.32-5.156 5.173-5.156 1.847 0 3.471.972 4.386 2.43.022.046.046.093.072.138.024.04.051.076.078.114.405.735.636 1.578.636 2.475 0 .883-.224 1.715-.619 2.443a1.743 1.743 0 0 0-.167.285 5.177 5.177 0 0 1-4.386 2.428c-2.852 0-5.173-2.314-5.173-5.156zM8.62 84.22c-2.852 0-5.173-2.314-5.173-5.157 0-2.842 2.32-5.156 5.173-5.156.946 0 1.833.256 2.597.7.02.013.024.014.03.017a5.202 5.202 0 0 1 1.76 1.712c.021.047.044.093.071.139.024.04.051.076.078.114a5.11 5.11 0 0 1 .636 2.474 5.11 5.11 0 0 1-.616 2.438 1.737 1.737 0 0 0-.175.298 5.176 5.176 0 0 1-4.382 2.42zm8.164-2.403c.114-.337.21-.681.283-1.035h31.208v12.204a8.644 8.644 0 0 0-5.6 3.896L16.784 81.817zm33.215 24.747c-2.852 0-5.173-2.314-5.173-5.156S47.147 96.25 50 96.25s5.172 2.314 5.172 5.157-2.32 5.156-5.172 5.156zm7.324-9.682a8.644 8.644 0 0 0-5.6-3.895V80.783H82.93c.072.353.168.698.283 1.034l-25.89 15.065zM91.378 84.22a5.176 5.176 0 0 1-4.382-2.422 1.74 1.74 0 0 0-.174-.295 5.11 5.11 0 0 1-.617-2.439c0-.895.231-1.738.636-2.473.026-.038.054-.075.078-.115.027-.046.05-.093.073-.14a5.202 5.202 0 0 1 1.76-1.711c.019-.01.023-.014.028-.017a5.15 5.15 0 0 1 2.598-.7c2.852 0 5.172 2.313 5.172 5.156 0 2.843-2.32 5.156-5.172 5.156z" fill="url(#a)"/></svg>