<svg xmlns="http://www.w3.org/2000/svg" width="100" height="110" viewBox="0 0 100 110"><defs><linearGradient id="a" x1="0%" y1="0%" y2="100%"><stop stop-color="#FAC338" offset="0%"/><stop stop-color="#F29027" offset="100%"/></linearGradient></defs><path fill="url(#a)" d="M334.103 70.642V39.358c3.93-.798 6.897-4.27 6.897-8.42 0-4.739-3.867-8.594-8.62-8.594a8.612 8.612 0 0 0-6.426 2.872L299.529 9.841a8.59 8.59 0 0 0 .092-1.247C299.62 3.855 295.753 0 291 0s-8.62 3.855-8.62 8.594c0 .423.031.84.091 1.247l-26.425 15.375a8.612 8.612 0 0 0-6.425-2.872c-4.754 0-8.621 3.855-8.621 8.594 0 4.15 2.966 7.622 6.897 8.42v31.284c-3.93.798-6.897 4.27-6.897 8.42 0 4.74 3.867 8.594 8.62 8.594a8.612 8.612 0 0 0 6.427-2.873l26.424 15.375a8.61 8.61 0 0 0-.092 1.248c0 4.739 3.868 8.594 8.621 8.594s8.62-3.855 8.62-8.594c0-.424-.031-.84-.091-1.248l26.424-15.375a8.612 8.612 0 0 0 6.426 2.873c4.754 0 8.621-3.855 8.621-8.593 0-4.15-2.966-7.623-6.897-8.421zm-4.504.288l-15.927-27.125 12.282-7.146a8.629 8.629 0 0 0 4.701 2.7v31.283a8.52 8.52 0 0 0-1.056.288zm-36.875-7.51a8.628 8.628 0 0 0 4.701-2.699l26.79 15.587a8.472 8.472 0 0 0-.283 1.036h-31.208V63.42zm-34.656 13.924a8.5 8.5 0 0 0-.284-1.036l26.79-15.587a8.629 8.629 0 0 0 4.702 2.7v13.923h-31.208zm-6.723-6.702V39.358a8.628 8.628 0 0 0 4.701-2.7l12.282 7.146-15.927 27.126a8.56 8.56 0 0 0-1.056-.288zm19.96-25.106l11.531 6.71a8.531 8.531 0 0 0 0 5.509l-26.79 15.586a8.699 8.699 0 0 0-.673-.672l15.932-27.133zm17.97-28.521v29.564a8.628 8.628 0 0 0-4.7 2.7l-11.53-6.707 15.176-25.845c.343.117.694.214 1.055.288zm4.504-.288l15.175 25.844-11.529 6.708a8.629 8.629 0 0 0-4.7-2.7V17.015c.36-.074.711-.171 1.054-.288zM291 60.157a5.176 5.176 0 0 1-4.385-2.427 1.705 1.705 0 0 0-.166-.282 5.113 5.113 0 0 1-.621-2.448c0-.895.23-1.738.635-2.472.026-.039.054-.075.078-.116.027-.046.05-.093.073-.14a5.176 5.176 0 0 1 8.773.001 1.8 1.8 0 0 0 .072.139c.023.04.05.076.077.114a5.11 5.11 0 0 1 .636 2.474 5.11 5.11 0 0 1-.619 2.443 1.718 1.718 0 0 0-.167.285A5.176 5.176 0 0 1 291 60.156zm34.954 13.184l-26.79-15.586a8.531 8.531 0 0 0 0-5.51l11.531-6.709 15.932 27.133a8.708 8.708 0 0 0-.673.672zm6.425-47.56c2.852 0 5.173 2.314 5.173 5.157 0 2.842-2.321 5.156-5.173 5.156a5.176 5.176 0 0 1-4.386-2.43 1.693 1.693 0 0 0-.166-.28 5.11 5.11 0 0 1-.62-2.446c0-.896.23-1.738.635-2.473.027-.038.055-.075.079-.116.026-.046.05-.092.072-.14a5.176 5.176 0 0 1 4.386-2.428zm-8.163 2.402a8.532 8.532 0 0 0 0 5.51L311.93 40.84l-15.18-25.852a8.66 8.66 0 0 0 1.574-1.87l25.89 15.065zM291 3.438c2.852 0 5.172 2.313 5.172 5.156a5.12 5.12 0 0 1-.236 1.542 5.19 5.19 0 0 1-2.29 2.886l-.036.018-.026.018a5.15 5.15 0 0 1-2.584.692 5.15 5.15 0 0 1-2.583-.692l-.027-.018c-.013-.007-.026-.012-.038-.02a5.184 5.184 0 0 1-2.287-2.88 5.123 5.123 0 0 1-.237-1.546c0-2.843 2.32-5.156 5.172-5.156zm-7.325 9.68a8.66 8.66 0 0 0 1.573 1.87L270.07 40.84l-12.285-7.148a8.531 8.531 0 0 0 0-5.51l25.891-15.064zm-39.227 17.82c0-2.843 2.321-5.157 5.173-5.157 1.848 0 3.471.972 4.387 2.43a1.8 1.8 0 0 0 .071.138c.024.04.052.076.078.114.405.735.636 1.578.636 2.475 0 .883-.224 1.715-.619 2.443a1.743 1.743 0 0 0-.167.285 5.176 5.176 0 0 1-4.386 2.428c-2.852 0-5.173-2.314-5.173-5.156zm5.173 53.28c-2.852 0-5.173-2.313-5.173-5.155 0-2.843 2.321-5.157 5.173-5.157.946 0 1.833.256 2.597.7l.03.018a5.202 5.202 0 0 1 1.76 1.712c.021.046.045.093.071.138.024.04.052.077.078.114a5.11 5.11 0 0 1 .636 2.475 5.11 5.11 0 0 1-.616 2.437 1.737 1.737 0 0 0-.175.298 5.176 5.176 0 0 1-4.381 2.42zm8.164-2.402a8.48 8.48 0 0 0 .283-1.035h31.208v12.205a8.644 8.644 0 0 0-5.6 3.895l-25.891-15.065zM291 106.563c-2.852 0-5.172-2.314-5.172-5.157 0-2.842 2.32-5.156 5.172-5.156s5.172 2.314 5.172 5.156c0 2.843-2.32 5.157-5.172 5.157zm7.324-9.682a8.644 8.644 0 0 0-5.6-3.895V80.78h31.208c.072.354.169.699.283 1.035l-25.89 15.065zM332.38 84.22a5.176 5.176 0 0 1-4.382-2.422 1.74 1.74 0 0 0-.174-.296 5.11 5.11 0 0 1-.616-2.438c0-.896.23-1.738.635-2.473.027-.038.055-.075.079-.116.026-.046.05-.092.072-.14a5.203 5.203 0 0 1 1.76-1.71c.02-.01.024-.014.028-.017a5.15 5.15 0 0 1 2.598-.7c2.852 0 5.173 2.313 5.173 5.156 0 2.842-2.321 5.156-5.173 5.156z" transform="translate(-241)"/></svg>