<svg xmlns="http://www.w3.org/2000/svg" width="100" height="110" viewBox="0 0 100 110">
<defs>
<linearGradient id="a" y1="8.678%" y2="91.322%">
<stop stop-color="#FAC338" offset="0"/>
<stop stop-color="#F29027" offset="1"/>
</linearGradient>
</defs>
<path d="m93.103 70.642v-31.283c3.9302-0.79836 6.8966-4.2707 6.8966-8.4208 0-4.7386-3.8672-8.5938-8.6207-8.5938-2.5509 0-4.8457 1.1112-6.4254 2.8725l-26.425-15.376c0.059699-0.40734 0.091811-0.82328 0.091811-1.2467 0-4.7386-3.8672-8.5938-8.6207-8.5938s-8.6207 3.8552-8.6207 8.5938c0 0.42346 0.032112 0.8394 0.091811 1.2467l-26.425 15.376c-1.5797-1.7613-3.8744-2.8725-6.4254-2.8725-4.7534 0-8.6207 3.8552-8.6207 8.5938 0 4.1501 2.9664 7.6225 6.8966 8.4208v31.283c-3.9302 0.79836-6.8966 4.2707-6.8966 8.4208 0 4.7386 3.8672 8.5938 8.6207 8.5938 2.5515 0 4.8466-1.1118 6.4265-2.8738l26.424 15.375c-0.059698 0.40777-0.092026 0.82436-0.092026 1.2482 0 4.7386 3.8672 8.5938 8.6207 8.5938s8.6207-3.8552 8.6207-8.5938c0-0.4241-0.032112-0.84047-0.092026-1.2482l26.424-15.375c1.58 1.7619 3.875 2.8738 6.4265 2.8738 4.7534 0 8.6207-3.8552 8.6207-8.5938 0-4.1501-2.9664-7.6225-6.8966-8.4208zm-4.5045 0.28832l-15.927-27.126 12.282-7.1457c1.2142 1.3537 2.8504 2.3235 4.7013 2.6997v31.283c-0.36078 0.073047-0.71272 0.17123-1.056 0.28811zm-36.875-7.5092c1.8509-0.37598 3.4871-1.346 4.7013-2.6997l26.79 15.587c-0.11466 0.33688-0.21121 0.68213-0.2834 1.036h-31.208v-13.923zm-34.656 13.923c-0.072414-0.35406-0.16875-0.6991-0.2834-1.036l26.79-15.587c1.2142 1.3537 2.8504 2.3235 4.7013 2.6997v13.923h-31.208zm-6.7231-6.7021v-31.283c1.8509-0.37598 3.4871-1.346 4.7013-2.6997l12.282 7.1457-15.927 27.126c-0.34332-0.11688-0.69526-0.21506-1.0562-0.28832zm19.96-25.105l11.531 6.7089c-0.29461 0.86539-0.4569 1.7914-0.4569 2.7547 0 0.96336 0.16228 1.8893 0.4569 2.7547l-26.79 15.587c-0.21185-0.23611-0.43621-0.46084-0.67263-0.67246l15.931-27.132zm17.971-28.522v29.565c-1.8509 0.37598-3.4871 1.346-4.7013 2.6997l-11.529-6.7074 15.175-25.845c0.34267 0.11666 0.69418 0.21441 1.0547 0.28768zm4.503-0.28789l15.175 25.845-11.529 6.7074c-1.2142-1.3537-2.8504-2.3235-4.7013-2.6997v-29.564c0.36056-0.073262 0.71207-0.17102 1.0547-0.28789zm-2.7789 43.43c-1.8466 0-3.4694-0.97067-4.3847-2.4262-0.022414-0.047695-0.046552-0.095176-0.073923-0.14158-0.028879-0.048984-0.059913-0.09582-0.092672-0.14072-0.3959-0.72875-0.62112-1.5626-0.62112-2.4477 0-0.89526 0.2306-1.7379 0.63491-2.4724 0.026724-0.038242 0.054741-0.074981 0.078879-0.11602 0.026724-0.045762 0.050431-0.092383 0.07263-0.13965 0.91509-1.4566 2.5386-2.4282 4.386-2.4282 1.8478 0 3.4718 0.97196 4.3869 2.4292 0.021983 0.046621 0.045259 0.093028 0.071768 0.13857 0.023491 0.040176 0.051293 0.07627 0.077586 0.11387 0.40517 0.73498 0.63621 1.5782 0.63621 2.4746 0 0.88344-0.22435 1.7155-0.61897 2.4432-0.03362 0.046406-0.065517 0.094746-0.094827 0.14523-0.026724 0.045762-0.050431 0.092383-0.07263 0.13965-0.91509 1.4566-2.5386 2.4282-4.386 2.4282zm34.954 13.185l-26.79-15.587c0.29461-0.86539 0.4569-1.7914 0.4569-2.7547 0-0.96336-0.16228-1.8893-0.4569-2.7547l11.531-6.7089 15.931 27.133c-0.23642 0.21162-0.46078 0.43613-0.67263 0.67225zm6.4254-47.56c2.8517 0 5.1724 2.3134 5.1724 5.1563 0 2.8428-2.3207 5.1563-5.1724 5.1563-1.8478 0-3.4718-0.97196-4.3866-2.4292-0.021982-0.046836-0.045258-0.093028-0.071982-0.13857-0.029095-0.049629-0.060561-0.09711-0.093535-0.14266-0.39547-0.72832-0.62026-1.5613-0.62026-2.4458 0-0.89526 0.2306-1.7379 0.63491-2.4724 0.026724-0.038242 0.054742-0.074981 0.07888-0.11602 0.026724-0.045762 0.050431-0.092383 0.072629-0.13965 0.91509-1.4566 2.5386-2.4282 4.386-2.4282zm-8.1638 2.4013c-0.29461 0.86539-0.4569 1.7914-0.4569 2.7549s0.16228 1.8893 0.4569 2.7547l-12.285 7.1474-15.179-25.851c0.60905-0.54484 1.1394-1.1748 1.5735-1.8706l25.89 15.065zm-33.216-24.745c2.8517 0 5.1724 2.3134 5.1724 5.1563 0 0.5369-0.082974 1.0549-0.23664 1.5422-0.38685 1.2216-1.2121 2.2434-2.2899 2.886-0.011853 0.0064453-0.023922 0.011602-0.03556 0.018262-0.009267 0.0053711-0.017673 0.011816-0.026724 0.017402-0.76099 0.43957-1.6429 0.69244-2.5836 0.69244-0.94052 0-1.8224-0.25287-2.5832-0.69223-0.009267-0.0055859-0.017672-0.012246-0.027155-0.017617-0.0125-0.0073047-0.025431-0.012676-0.038146-0.019766-1.0774-0.64303-1.9022-1.6655-2.2862-2.8808-0.15431-0.48856-0.23772-1.0076-0.23772-1.5458 0-2.8428 2.3207-5.1563 5.1724-5.1563zm-7.325 9.6802c0.43405 0.69588 0.96444 1.3258 1.5735 1.8706l-15.179 25.851-12.285-7.1474c0.29461-0.86539 0.4569-1.7914 0.4569-2.7547 0-0.96358-0.16228-1.8893-0.4569-2.7549l25.891-15.065zm-39.227 17.82c0-2.8428 2.3207-5.1563 5.1724-5.1563 1.8478 0 3.4718 0.97196 4.3869 2.4292 0.021983 0.046621 0.045259 0.093028 0.071767 0.13857 0.023492 0.040176 0.051293 0.07627 0.077587 0.11387 0.40517 0.7352 0.63621 1.5785 0.63621 2.4746 0 0.88344-0.22435 1.7153-0.61875 2.443-0.03362 0.046406-0.065517 0.094746-0.095043 0.14545-0.026724 0.045762-0.050431 0.092383-0.072629 0.13965-0.91509 1.4566-2.5386 2.4282-4.386 2.4282-2.8517 0-5.1724-2.3134-5.1724-5.1563zm5.1724 53.281c-2.8517 0-5.1724-2.3134-5.1724-5.1563 0-2.8428 2.3207-5.1563 5.1724-5.1563 0.94634 0 1.8336 0.25609 2.5976 0.70039 0.019181 0.012246 0.024353 0.013965 0.029095 0.016758 0.71509 0.42217 1.3196 1.0106 1.7599 1.7121 0.021982 0.046836 0.045258 0.093028 0.071982 0.13857 0.023707 0.040176 0.051293 0.076484 0.077587 0.11408 0.40517 0.73498 0.63621 1.5782 0.63621 2.4744 0 0.88108-0.22328 1.711-0.61573 2.4372-0.034914 0.047695-0.067673 0.097539-0.098061 0.14953-0.028448 0.04877-0.054094 0.098399-0.077155 0.14846-0.91595 1.4528-2.5373 2.4211-4.3815 2.4211zm8.1642-2.4028c0.11444-0.33645 0.21078-0.68106 0.28297-1.0347h31.208v12.204c-2.3584 0.4791-4.3685 1.922-5.6 3.8956l-25.891-15.065zm33.215 24.747c-2.8517 0-5.1724-2.3134-5.1724-5.1563s2.3207-5.1563 5.1724-5.1563 5.1724 2.3134 5.1724 5.1563-2.3207 5.1563-5.1724 5.1563zm7.3241-9.6815c-1.2315-1.9736-3.2416-3.4165-5.6-3.8956v-12.204h31.208c0.072198 0.35363 0.16854 0.69824 0.28297 1.0347l-25.891 15.065zm34.055-12.662c-1.8448 0-3.4664-0.96873-4.3821-2.4222-0.02306-0.049844-0.048276-0.099043-0.076508-0.14738-0.030173-0.051563-0.062716-0.10076-0.097199-0.14803-0.3931-0.7266-0.61659-1.557-0.61659-2.4387 0-0.89526 0.2306-1.7379 0.63513-2.4726 0.026724-0.038242 0.054741-0.074981 0.078664-0.1158 0.026724-0.045762 0.050431-0.092383 0.072629-0.13965 0.4403-0.70104 1.0446-1.2891 1.7593-1.711 0.019612-0.010098 0.023923-0.01375 0.02888-0.016543 0.76401-0.44451 1.6513-0.70061 2.5978-0.70061 2.8517 0 5.1724 2.3134 5.1724 5.1563 0 2.8428-2.3207 5.1563-5.1724 5.1563z" fill="url(#a)"/>
</svg>
