<svg xmlns="http://www.w3.org/2000/svg" width="100" height="110" viewBox="0 0 100 110">
  <defs>
    <linearGradient id="a" x1="0%" y1="0%" y2="100%">
      <stop stop-color="#FAC338" offset="0%"/>
      <stop stop-color="#F29027" offset="100%"/>
    </linearGradient>
  </defs>
  <path fill="url(#a)" d="M334.103448,70.6418372 L334.103448,39.3583777 C338.033621,38.5600167 341,35.0877052 341,30.9375604 C341,26.1989574 337.132759,22.3437936 332.37931,22.3437936 C329.828448,22.3437936 327.533621,23.4549677 325.953879,25.2162602 L299.528879,9.8405075 C299.588578,9.43316296 299.62069,9.01722464 299.62069,8.59376678 C299.62069,3.85516378 295.753448,0 291,0 C286.246552,0 282.37931,3.85516378 282.37931,8.59376678 C282.37931,9.01722464 282.411422,9.43316296 282.471121,9.8405075 L256.046121,25.2162602 C254.466379,23.4549677 252.171767,22.3437936 249.62069,22.3437936 C244.867241,22.3437936 241,26.1989574 241,30.9375604 C241,35.0877052 243.966379,38.5600167 247.896552,39.3583777 L247.896552,70.6418372 C243.966379,71.4401981 241,74.9125096 241,79.0626544 C241,83.8012574 244.867241,87.6564212 249.62069,87.6564212 C252.172198,87.6564212 254.467241,86.5446026 256.047198,84.7826656 L282.471336,100.157989 C282.411638,100.565763 282.37931,100.982346 282.37931,101.406233 C282.37931,106.144836 286.246552,110 291,110 C295.753448,110 299.62069,106.144836 299.62069,101.406233 C299.62069,100.982131 299.588578,100.565763 299.528664,100.157989 L325.952802,84.7826656 C327.532759,86.5446026 329.827802,87.6564212 332.37931,87.6564212 C337.132759,87.6564212 341,83.8012574 341,79.0626544 C341,74.9125096 338.033621,71.4401981 334.103448,70.6418372 Z M329.598922,70.9301581 L313.671552,43.8045777 L325.953664,36.6588607 C327.167888,38.0125938 328.804095,38.9824004 330.654957,39.3585925 L330.654957,70.642052 C330.294181,70.7150991 329.942241,70.8132828 329.598922,70.9301581 Z M292.724138,63.4209247 C294.575,63.0449474 296.211207,62.0749259 297.425431,60.7211928 L324.215517,76.3077076 C324.100862,76.6445833 324.00431,76.9898379 323.932112,77.3436862 L292.724138,77.3436862 L292.724138,63.4209247 Z M258.067888,77.3439011 C257.995474,76.9898379 257.899138,76.6447981 257.784483,76.3079225 L284.574569,60.7214077 C285.788793,62.0751408 287.425,63.0449474 289.275862,63.4211395 L289.275862,77.3439011 L258.067888,77.3439011 Z M251.344828,70.6418372 L251.344828,39.3583777 C253.19569,38.9824004 254.831897,38.0123789 256.046121,36.6586458 L268.328233,43.8043629 L252.401078,70.9301581 C252.057759,70.8132828 251.705819,70.7150991 251.344828,70.6418372 Z M271.304957,45.5364366 L282.836207,52.2453755 C282.541595,53.1107678 282.37931,54.0367462 282.37931,55.0001074 C282.37931,55.9634687 282.541595,56.889447 282.836207,57.7548394 L256.046121,73.3413542 C255.834267,73.1052404 255.609914,72.8805134 255.373491,72.6688919 L271.304957,45.5364366 Z M289.275862,17.014584 L289.275862,46.5792902 C287.425,46.9552675 285.788793,47.9252889 284.574569,49.279022 L273.045905,42.5715871 L288.221121,16.7269077 C288.563793,16.8435681 288.915302,16.9413222 289.275862,17.014584 Z M293.778879,16.7266928 L308.954095,42.5713722 L297.425431,49.2788072 C296.211207,47.9250741 294.575,46.9552675 292.724138,46.5790753 L292.724138,17.014584 C293.084698,16.9413222 293.436207,16.8435681 293.778879,16.7266928 Z M291,60.1563675 C289.153448,60.1563675 287.530603,59.1857015 286.615302,57.7301323 C286.592888,57.6824369 286.56875,57.6349563 286.541379,57.58855 C286.5125,57.5395655 286.481466,57.4927295 286.448707,57.447827 C286.052802,56.7190756 285.827586,55.8852654 285.827586,55.0001074 C285.827586,54.1048518 286.05819,53.2622329 286.4625,52.5276807 C286.489224,52.4894385 286.517241,52.4527001 286.541379,52.4116649 C286.568103,52.3659031 286.59181,52.3192819 286.614009,52.2720162 C287.529095,50.8153727 289.152586,49.8438474 291,49.8438474 C292.847845,49.8438474 294.471767,50.8158024 295.386853,52.2730904 C295.408836,52.3197116 295.432112,52.3661179 295.458621,52.4116649 C295.482112,52.4518407 295.509914,52.4879345 295.536207,52.5255323 C295.941379,53.2605142 296.172414,54.1037775 296.172414,55.0001074 C296.172414,55.8835466 295.94806,56.7156381 295.553448,57.4433153 C295.519828,57.4897217 295.487931,57.5380616 295.458621,57.58855 C295.431897,57.6343118 295.40819,57.680933 295.385991,57.7281987 C294.470905,59.1848422 292.847414,60.1563675 291,60.1563675 Z M325.953879,73.3413542 L299.163793,57.7548394 C299.458405,56.889447 299.62069,55.9634687 299.62069,55.0001074 C299.62069,54.0367462 299.458405,53.1107678 299.163793,52.2453755 L310.695043,45.5364366 L326.626509,72.6691068 C326.390086,72.8807283 326.165733,73.1052404 325.953879,73.3413542 Z M332.37931,25.7813004 C335.231034,25.7813004 337.551724,28.0947424 337.551724,30.9375604 C337.551724,33.7803785 335.231034,36.0938205 332.37931,36.0938205 C330.531466,36.0938205 328.907543,35.1218655 327.992672,33.6645775 C327.97069,33.6177414 327.947414,33.5715499 327.92069,33.526003 C327.891595,33.476374 327.860129,33.4288934 327.827155,33.3833465 C327.431681,32.6550247 327.206897,31.8220739 327.206897,30.9375604 C327.206897,30.0423048 327.4375,29.1996859 327.84181,28.4651337 C327.868534,28.4268915 327.896552,28.3901531 327.92069,28.3491179 C327.947414,28.3033561 327.971121,28.2567349 327.993319,28.2094692 C328.908405,26.7528257 330.531897,25.7813004 332.37931,25.7813004 Z M324.215517,28.1826136 C323.920905,29.048006 323.758621,29.9739843 323.758621,30.9375604 C323.758621,31.9011365 323.920905,32.8269001 324.215517,33.6922924 L311.930603,40.8397282 L296.751724,14.9883886 C297.360776,14.4435438 297.891164,13.8136207 298.325216,13.1177405 L324.215517,28.1826136 Z M291,3.43750671 C293.851724,3.43750671 296.172414,5.75094873 296.172414,8.59376678 C296.172414,9.13066236 296.08944,9.64865166 295.935776,10.1359182 C295.548922,11.3575222 294.723707,12.3793211 293.645905,13.02192 C293.634052,13.0283653 293.621983,13.0335215 293.610345,13.0401817 C293.601078,13.0455528 293.592672,13.0519981 293.583621,13.0575841 C292.822629,13.4971553 291.940733,13.7500269 291,13.7500269 C290.059483,13.7500269 289.177586,13.4971553 288.41681,13.0577989 C288.407543,13.052213 288.399138,13.0455528 288.389655,13.0401817 C288.377155,13.032877 288.364224,13.0275059 288.351509,13.0204161 C287.274138,12.3773875 286.449353,11.3549441 286.065302,10.1395706 C285.910991,9.65101494 285.827586,9.13195143 285.827586,8.59376678 C285.827586,5.75094873 288.148276,3.43750671 291,3.43750671 Z M283.675,13.1177405 C284.109052,13.8136207 284.63944,14.4435438 285.248491,14.9883886 L270.069181,40.8397282 L257.784267,33.6922924 C258.078879,32.8269001 258.241164,31.9009217 258.241164,30.9375604 C258.241164,29.9739843 258.078879,29.0482208 257.784267,28.1826136 L283.675,13.1177405 Z M244.448276,30.9375604 C244.448276,28.0947424 246.768966,25.7813004 249.62069,25.7813004 C251.468534,25.7813004 253.092457,26.7532554 254.007543,28.2105434 C254.029526,28.2571646 254.052802,28.3035709 254.07931,28.3491179 C254.102802,28.3892937 254.130603,28.4253875 254.156897,28.4629853 C254.562069,29.198182 254.793103,30.0414454 254.793103,30.9375604 C254.793103,31.8209997 254.56875,32.6528763 254.174353,33.3805535 C254.140733,33.4269598 254.108836,33.4752998 254.07931,33.526003 C254.052586,33.5717648 254.028879,33.618386 254.006681,33.6656517 C253.091595,35.1222952 251.468103,36.0938205 249.62069,36.0938205 C246.768966,36.0938205 244.448276,33.7803785 244.448276,30.9375604 Z M249.62069,84.2189145 C246.768966,84.2189145 244.448276,81.9054725 244.448276,79.0626544 C244.448276,76.2198364 246.768966,73.9063943 249.62069,73.9063943 C250.567026,73.9063943 251.45431,74.1624886 252.218319,74.6067863 C252.2375,74.6190325 252.242672,74.6207512 252.247414,74.6235442 C252.9625,75.045713 253.567026,75.6341712 254.007328,76.3356374 C254.02931,76.3824734 254.052586,76.4286649 254.07931,76.4742119 C254.103017,76.5143877 254.130603,76.5506964 254.156897,76.5882941 C254.562069,77.323276 254.793103,78.1665394 254.793103,79.0626544 C254.793103,79.9437304 254.569828,80.7736734 254.177371,81.4998467 C254.142457,81.5475421 254.109698,81.5973859 254.07931,81.6493782 C254.050862,81.6981478 254.025216,81.7477769 254.002155,81.7978355 C253.086207,83.2506118 251.464871,84.2189145 249.62069,84.2189145 Z M257.784914,81.8160973 C257.899353,81.4796513 257.99569,81.1350413 258.067888,80.7814078 L289.275862,80.7814078 L289.275862,92.9856308 C286.917457,93.4647333 284.907328,94.9076268 283.675862,96.8811853 L257.784914,81.8160973 Z M291,106.562708 C288.148276,106.562708 285.827586,104.249266 285.827586,101.406448 C285.827586,98.56363 288.148276,96.250188 291,96.250188 C293.851724,96.250188 296.172414,98.56363 296.172414,101.406448 C296.172414,104.249266 293.851724,106.562708 291,106.562708 Z M298.324138,96.8811853 C297.092672,94.9076268 295.082543,93.4647333 292.724138,92.9856308 L292.724138,80.7814078 L323.932112,80.7814078 C324.00431,81.1350413 324.100647,81.4796513 324.215086,81.8160973 L298.324138,96.8811853 Z M332.37931,84.2189145 C330.534483,84.2189145 328.912931,83.2501821 327.997198,81.7967613 C327.974138,81.7469175 327.948922,81.6977182 327.92069,81.6493782 C327.890517,81.5978156 327.857974,81.5486163 327.823491,81.5013506 C327.430388,80.7747476 327.206897,79.9443749 327.206897,79.0626544 C327.206897,78.1673988 327.4375,77.3247799 327.842026,76.5900129 C327.86875,76.5517706 327.896767,76.5150323 327.92069,76.4742119 C327.947414,76.4284501 327.971121,76.3818289 327.993319,76.3345632 C328.433621,75.6335266 329.037931,75.0454981 329.752586,74.6235442 C329.772198,74.6134465 329.776509,74.6097942 329.781466,74.6070012 C330.545474,74.1624886 331.432759,73.9063943 332.37931,73.9063943 C335.231034,73.9063943 337.551724,76.2198364 337.551724,79.0626544 C337.551724,81.9054725 335.231034,84.2189145 332.37931,84.2189145 Z" transform="translate(-241)"/>
</svg>
