<svg xmlns="http://www.w3.org/2000/svg" width="110" height="91" viewBox="0 0 110 91"><defs><linearGradient id="a" x1="-4079.724%" x2="751.478%" y1="-1996.845%" y2="1427.892%"><stop stop-color="#F8B734" offset="0%"/><stop stop-color="#F29227" offset="100%"/></linearGradient><linearGradient id="b" x1="0%" y1="0%" y2="88.612%"><stop stop-color="#FAC338" offset="0%"/><stop stop-color="#F29027" offset="100%"/></linearGradient><linearGradient id="c" x1="-61.866%" x2="1235.075%" y1="-63.39%" y2="876.193%"><stop stop-color="#FAC338" offset="0%"/><stop stop-color="#F29027" offset="100%"/></linearGradient></defs><g fill="none"><path fill="url(#a)" d="M101 43h3.223v3.263H101zm3.086 6h-3.223v20.3H97v3.222h7.086zM17.233 69.394h-9.01V57H5v15.617h12.233z"/><path fill="url(#b)" d="M0 0v78.523h20.334l12.04 12.04 12.04-12.04H69.21l7.184 7.184a7.308 7.308 0 0 0 5.187 2.165 6.909 6.909 0 0 0 4.928-2.028c1.528-1.527 2.246-3.654 1.97-5.835a7.228 7.228 0 0 0-.351-1.486H110V0H0zm43.56 74.818L32.375 86.005l-7.844-7.843 22.16-22.16 7.843 7.844L43.56 74.818zm4.076.482l9.175-9.175 9.175 9.175h-18.35zm36.594 8.265a3.69 3.69 0 0 1-2.722 1.083 4.1 4.1 0 0 1-2.836-1.22l-41.408-41.41-.903.248a10.157 10.157 0 0 1-7.71-.975 10.1 10.1 0 0 1-5.004-10.096l6.336 6.336 6.85-1.857 1.857-6.85-6.337-6.336c.14-.019.28-.031.42-.044.244-.022.49-.038.734-.042a10.096 10.096 0 0 1 7.856 3.547 10.186 10.186 0 0 1 1.885 9.836c-.198.414-1.29 2.615-2.884 4.208l2.279 2.28c1.035-1.036 1.88-2.237 2.487-3.228l13.18 13.18 25.76 25.76.044.047.026.026a4.097 4.097 0 0 1 1.141 2.354c.15 1.185-.233 2.335-1.051 3.152zm22.547-8.265H85.942L61.728 51.086l18.765-18.765 2.396 2.396 7.506-7.507-7.07-7.07-7.506 7.506 2.396 2.396L59.45 48.81 46.57 35.928c1.193-4.546-.114-9.488-3.464-12.84-.151-.15-.306-.295-.462-.437a13.31 13.31 0 0 0-14.005-2.482l-2.248.915 8.7 8.7-.886 3.264-3.264.885-8.7-8.7-.915 2.248A13.311 13.311 0 0 0 26.49 43.75c.078.05.158.099.238.147.039.024.078.05.118.073l.08.046a13.39 13.39 0 0 0 9.355 1.58l8.129 8.128L22.834 75.3H3.223V17.415h103.554V75.3zm-26.4-47.654l2.948-2.949 2.513 2.513-2.95 2.95-2.512-2.514zm26.4-13.454H3.223V3.222h103.554v10.97z"/><path fill="url(#c)" d="M9.285 12.57a4.29 4.29 0 0 0 4.285-4.285A4.29 4.29 0 0 0 9.285 4 4.29 4.29 0 0 0 5 8.285a4.29 4.29 0 0 0 4.285 4.285zm0-5.347a1.063 1.063 0 0 1 0 2.124 1.063 1.063 0 0 1 0-2.125zm13 5.347a4.29 4.29 0 0 0 4.285-4.285A4.29 4.29 0 0 0 22.285 4 4.29 4.29 0 0 0 18 8.285a4.29 4.29 0 0 0 4.285 4.285zm0-5.347a1.063 1.063 0 0 1 0 2.124 1.063 1.063 0 0 1 0-2.125zm12 5.347a4.29 4.29 0 0 0 4.285-4.285A4.29 4.29 0 0 0 34.285 4 4.29 4.29 0 0 0 30 8.285a4.29 4.29 0 0 0 4.285 4.285zm0-5.347a1.063 1.063 0 0 1 0 2.124 1.063 1.063 0 0 1 0-2.125zm36 5.347h27.628a4.29 4.29 0 0 0 3.86-6.146A4.31 4.31 0 0 0 97.914 4H70.285A4.29 4.29 0 0 0 66 8.285a4.29 4.29 0 0 0 4.285 4.285zm0-5.347h27.628a1.056 1.056 0 0 1 1.063 1.062c0 .586-.477 1.062-1.063 1.062H70.285a1.063 1.063 0 0 1 0-2.125z"/><path fill="url(#c)" transform="rotate(-134.992 42.148 70.148)" d="M40.537 68.721h3.223v2.854h-3.223z"/><path fill="url(#c)" d="M32.345 78.067l-1.066-1.066L29 79.28l3.345 3.345 7.346-7.346L37.412 73z"/></g></svg>