<svg xmlns="http://www.w3.org/2000/svg" width="110" height="91" viewBox="0 0 110 91">
<defs>
<linearGradient id="n" x1="-4079.7%" x2="751.48%" y1="-1947%" y2="1394.3%">
<stop stop-color="#F8B734" offset="0"/>
<stop stop-color="#F29227" offset="1"/>
</linearGradient>
<linearGradient id="m" x1="-4079.7%" x2="751.48%" y1="-135.75%" y2="175.05%">
<stop stop-color="#F8B734" offset="0"/>
<stop stop-color="#F29227" offset="1"/>
</linearGradient>
<linearGradient id="l" x1="-4079.7%" x2="751.48%" y1="-1205.9%" y2="895.45%">
<stop stop-color="#F8B734" offset="0"/>
<stop stop-color="#F29227" offset="1"/>
</linearGradient>
<linearGradient id="k" x1="16.109%" x2="83.891%" y2="88.612%">
<stop stop-color="#FAC338" offset="0"/>
<stop stop-color="#F29027" offset="1"/>
</linearGradient>
<linearGradient id="j" x1="49.13%" x2="59.213%" y1="-63.39%" y2="876.19%">
<stop stop-color="#FAC338" offset="0"/>
<stop stop-color="#F29027" offset="1"/>
</linearGradient>
<linearGradient id="i" x1="-37.717%" x2="979.25%" y1="-63.39%" y2="876.19%">
<stop stop-color="#FAC338" offset="0"/>
<stop stop-color="#F29027" offset="1"/>
</linearGradient>
<linearGradient id="h" x1="-40.67%" x2="1010.5%" y1="-63.39%" y2="876.19%">
<stop stop-color="#FAC338" offset="0"/>
<stop stop-color="#F29027" offset="1"/>
</linearGradient>
</defs>
<rect x="101" y="43" width="3.223" height="3.263" fill="url(#n)"/>
<polygon points="104.09 49 100.86 49 100.86 69.3 97 69.3 97 72.522 104.09 72.522" fill="url(#m)"/>
<polygon points="17.233 69.394 8.223 69.394 8.223 57 5 57 5 72.617 17.233 72.617" fill="url(#l)"/>
<path d="m0 0v17.415 61.108h20.334l12.04 12.04 12.04-12.04h24.796l7.1839 7.1839c1.3619 1.3619 3.158 2.1304 5.0579 2.1637 0.043184 8.594e-4 0.086152 0.001289 0.12955 0.001289 1.8724-2.148e-4 3.6182-0.71715 4.9283-2.0273 1.5271-1.5273 2.2451-3.6543 1.9699-5.8352-0.064023-0.50682-0.18283-1.0053-0.3517-1.4865h21.872v-61.108-17.415h-110zm43.561 74.818l-11.187 11.188-7.8433-7.8435 22.159-22.159 7.8433 7.8433-10.972 10.972zm4.0754 0.48232l9.1751-9.1751 9.1751 9.1751h-18.35zm36.594 8.2655c-0.71629 0.71672-1.6837 1.1077-2.7221 1.0826-1.0603-0.018691-2.0674-0.45203-2.8355-1.2205l-41.409-41.408-0.9032 0.2475c-0.21893 0.060156-0.43893 0.11258-0.65957 0.15748-2.4275 0.49371-4.9369 0.073691-7.0503-1.1329-0.7685-0.43871-1.4846-0.98162-2.1254-1.6223-1.5561-1.5559-2.5257-3.5254-2.8475-5.6027-0.14631-0.94424-0.15877-1.9106-0.031367-2.8707l6.3362 6.3364 6.8496-1.8573 1.8575-6.8499-6.3364-6.3362c0.13965-0.018476 0.27951-0.030723 0.41938-0.043398 0.24471-0.022129 0.48963-0.038457 0.73412-0.042539 2.6896-0.045976 5.3395 0.98441 7.3199 2.9648 0.18756 0.18756 0.36588 0.38242 0.53668 0.58266 2.2928 2.6909 3.0329 6.4601 1.8842 9.836-0.19766 0.41379-1.2899 2.6149-2.8834 4.2081l2.2788 2.2791c1.0353-1.0353 1.8795-2.237 2.4872-3.2274l13.179 13.179c2.148e-4 2.149e-4 4.297e-4 4.297e-4 6.445e-4 6.445e-4l25.759 25.759c0.014609 0.016113 0.029434 0.032012 0.044902 0.04791l0.025352 0.026211c0.63422 0.65463 1.0297 1.4659 1.1417 2.3532 0.14975 1.1857-0.23354 2.3351-1.0514 3.1528zm22.547-8.2655h-20.836l-24.214-24.214 18.765-18.765 2.3955 2.3955 7.5064-7.5064-7.0701-7.0703-7.5064 7.5064 2.3959 2.3959c-6.0872 6.0895-15.533 15.538-18.764 18.766l-12.881-12.881c1.193-4.5457-0.11322-9.4881-3.4637-12.839-0.15082-0.15082-0.30551-0.29584-0.46213-0.43828-0.33709-0.3068-0.68621-0.59555-1.0476-0.86281-3.7041-2.7405-8.5968-3.3962-12.957-1.6193l-2.2473 0.91566 8.6995 8.6992-0.88537 3.2646-3.2643 0.88516-8.6997-8.6995-0.91566 2.2473c-0.063379 0.15576-0.12375 0.31217-0.18111 0.46922-1.7753 4.8675-0.58416 10.312 3.1017 13.998 0.19723 0.19723 0.39961 0.38715 0.60715 0.5702 0.18691 0.16479 0.37855 0.32291 0.57342 0.47609 0.057148 0.044902 0.11494 0.08916 0.17273 0.13299 0.28939 0.22 0.58609 0.42818 0.89074 0.62262 0.078848 0.050273 0.15855 0.098613 0.23826 0.14717 0.039316 0.024062 0.078203 0.048984 0.11795 0.072617 0.026426 0.015684 0.053281 0.030293 0.079922 0.045977 0.14266 0.083359 0.2866 0.16371 0.43205 0.2417 2.7021 1.4496 5.8601 1.945 8.9229 1.3376l8.129 8.129-21.576 21.576h-19.612v-57.885h103.55v57.885zm-26.401-47.654l2.9492-2.9492 2.5126 2.5128-2.9492 2.9492-2.5126-2.5128zm26.401-13.454h-103.55v-10.969h103.55v10.969z" fill="url(#k)"/>
<path d="m9.2851 12.57c2.3629 0 4.2851-1.9222 4.2851-4.2851 0-2.3626-1.9222-4.2848-4.2851-4.2848-2.3629 0-4.2851 1.9222-4.2851 4.2848 0 2.3629 1.9222 4.2851 4.2851 4.2851zm0-5.347c0.58588 0 1.0624 0.47652 1.0624 1.0622 0 0.58566-0.47652 1.0624-1.0624 1.0624-0.58588 0-1.0624-0.47674-1.0624-1.0624 0-0.58588 0.47652-1.0622 1.0624-1.0622zm13 5.347c2.3629 0 4.2851-1.9222 4.2851-4.2851 2.148e-4 -2.3626-1.9222-4.2848-4.2851-4.2848s-4.2851 1.9222-4.2851 4.2848c0 2.3629 1.9222 4.2851 4.2851 4.2851zm0-5.347c0.58588 0 1.0624 0.47652 1.0624 1.0622 2.149e-4 0.58566-0.47631 1.0624-1.0624 1.0624-0.58588 0-1.0624-0.47674-1.0624-1.0624 0-0.58588 0.47652-1.0622 1.0624-1.0622zm12 5.347c2.3629 0 4.2851-1.9222 4.2851-4.2851 2.148e-4 -2.3626-1.9222-4.2848-4.2851-4.2848s-4.2851 1.9222-4.2851 4.2848c0 2.3629 1.9222 4.2851 4.2851 4.2851zm0-5.347c0.58588 0 1.0624 0.47652 1.0624 1.0622 2.149e-4 0.58566-0.47652 1.0624-1.0624 1.0624s-1.0624-0.47674-1.0624-1.0624c0-0.58588 0.47652-1.0622 1.0624-1.0622zm36 5.347h27.628c2.3629 0 4.2851-1.9222 4.2851-4.2851 0-0.65141-0.14287-1.2777-0.42453-1.8605-0.71049-1.4725-2.2258-2.4243-3.8607-2.4243h-27.628c-2.3629 0-4.2851 1.9222-4.2851 4.2848 0 2.3629 1.9222 4.2851 4.2851 4.2851zm0-5.347h27.628c0.41186 0 0.77902 0.23053 0.95842 0.60264 0.068965 0.14287 0.10398 0.29756 0.10398 0.45977 0 0.58545-0.47674 1.0622-1.0626 1.0622h-27.628c-0.58588 0-1.0624-0.47674-1.0624-1.0624 0-0.58588 0.47674-1.0622 1.0624-1.0622z" fill="url(#j)"/>
<rect transform="rotate(225.01 42.148 70.148)" x="40.536" y="68.721" width="3.223" height="2.854" fill="url(#i)"/>
<polygon points="32.345 78.067 31.279 77.001 29 79.28 32.345 82.625 39.691 75.279 37.412 73" fill="url(#h)"/>
</svg>
