<svg xmlns="http://www.w3.org/2000/svg" width="110" height="91" viewBox="0 0 110 91"><defs><linearGradient id="a" x1="-4079.7%" x2="751.48%" y1="-1947%" y2="1394.3%"><stop stop-color="#F8B734" offset="0"/><stop stop-color="#F29227" offset="1"/></linearGradient><linearGradient id="b" x1="-4079.7%" x2="751.48%" y1="-135.75%" y2="175.05%"><stop stop-color="#F8B734" offset="0"/><stop stop-color="#F29227" offset="1"/></linearGradient><linearGradient id="c" x1="-4079.7%" x2="751.48%" y1="-1205.9%" y2="895.45%"><stop stop-color="#F8B734" offset="0"/><stop stop-color="#F29227" offset="1"/></linearGradient><linearGradient id="d" x1="16.109%" x2="83.891%" y2="88.612%"><stop stop-color="#FAC338" offset="0"/><stop stop-color="#F29027" offset="1"/></linearGradient><linearGradient id="e" x1="49.13%" x2="59.213%" y1="-63.39%" y2="876.19%"><stop stop-color="#FAC338" offset="0"/><stop stop-color="#F29027" offset="1"/></linearGradient><linearGradient id="f" x1="-37.717%" x2="979.25%" y1="-63.39%" y2="876.19%"><stop stop-color="#FAC338" offset="0"/><stop stop-color="#F29027" offset="1"/></linearGradient><linearGradient id="g" x1="-40.67%" x2="1010.5%" y1="-63.39%" y2="876.19%"><stop stop-color="#FAC338" offset="0"/><stop stop-color="#F29027" offset="1"/></linearGradient></defs><path fill="url(#a)" d="M101 43h3.223v3.263H101z"/><path fill="url(#b)" d="M104.09 49h-3.23v20.3H97v3.222h7.09z"/><path fill="url(#c)" d="M17.233 69.394h-9.01V57H5v15.617h12.233z"/><path d="M0 0v78.523h20.334l12.04 12.04 12.04-12.04H69.21l7.184 7.184a7.308 7.308 0 0 0 5.187 2.165 6.908 6.908 0 0 0 4.929-2.027c1.527-1.528 2.245-3.655 1.97-5.836a7.227 7.227 0 0 0-.352-1.486H110V0H0zm43.561 74.818L32.374 86.006l-7.843-7.843 22.159-22.16 7.843 7.844-10.972 10.972zm4.075.482l9.175-9.175 9.176 9.175h-18.35zm36.594 8.266a3.69 3.69 0 0 1-2.722 1.082 4.1 4.1 0 0 1-2.835-1.22L37.263 42.02l-.902.247a10.157 10.157 0 0 1-7.71-.975 10.1 10.1 0 0 1-5.004-10.096l6.336 6.337 6.85-1.858 1.857-6.85-6.337-6.336c.14-.018.28-.03.42-.043.244-.022.49-.039.734-.043a10.096 10.096 0 0 1 7.856 3.548 10.186 10.186 0 0 1 1.885 9.836c-.198.414-1.29 2.615-2.884 4.208l2.279 2.279c1.035-1.035 1.88-2.237 2.487-3.227l13.18 13.179 25.759 25.76.045.047.025.026a4.098 4.098 0 0 1 1.142 2.354c.15 1.185-.234 2.335-1.052 3.152zm22.547-8.266H85.941L61.727 51.086l18.765-18.765 2.396 2.396 7.506-7.507-7.07-7.07-7.506 7.507 2.396 2.395A65592.15 65592.15 0 0 1 59.45 48.808l-12.881-12.88c1.193-4.546-.114-9.489-3.464-12.84-.15-.15-.306-.295-.462-.438a13.309 13.309 0 0 0-14.005-2.482l-2.247.916 8.7 8.699-.886 3.264-3.264.886-8.7-8.7-.916 2.247a13.311 13.311 0 0 0 5.165 16.27c.079.05.159.098.238.147l.118.072.08.046a13.389 13.389 0 0 0 9.355 1.58l8.13 8.129L22.833 75.3H3.222V17.415h103.55V75.3zm-26.4-47.654l2.949-2.949 2.512 2.513-2.949 2.95-2.513-2.514zm26.4-13.454H3.227V3.223h103.55v10.97z" fill="url(#d)"/><path d="M9.285 12.57a4.29 4.29 0 0 0 4.285-4.285A4.29 4.29 0 0 0 9.285 4 4.29 4.29 0 0 0 5 8.285a4.29 4.29 0 0 0 4.285 4.285zm0-5.347a1.063 1.063 0 0 1 0 2.125 1.063 1.063 0 0 1 0-2.125zm13 5.347a4.29 4.29 0 0 0 4.285-4.285C26.57 5.922 24.648 4 22.285 4S18 5.922 18 8.285a4.29 4.29 0 0 0 4.285 4.285zm0-5.347a1.063 1.063 0 0 1 0 2.125 1.063 1.063 0 0 1 0-2.125zm12 5.347a4.29 4.29 0 0 0 4.285-4.285C38.57 5.922 36.648 4 34.285 4S30 5.922 30 8.285a4.29 4.29 0 0 0 4.285 4.285zm0-5.347a1.063 1.063 0 0 1 0 2.125 1.063 1.063 0 0 1 0-2.125zm36 5.347h27.628a4.29 4.29 0 0 0 3.86-6.146A4.31 4.31 0 0 0 97.914 4H70.285A4.29 4.29 0 0 0 66 8.285a4.29 4.29 0 0 0 4.285 4.285zm0-5.347h27.628a1.056 1.056 0 0 1 1.063 1.062c0 .586-.477 1.063-1.063 1.063H70.285a1.063 1.063 0 0 1 0-2.125z" fill="url(#e)"/><path transform="rotate(225.01 42.148 70.148)" fill="url(#f)" d="M40.536 68.721h3.223v2.854h-3.223z"/><path fill="url(#g)" d="M32.345 78.067l-1.066-1.066L29 79.28l3.345 3.345 7.346-7.346L37.412 73z"/></svg>