<?xml version="1.0" encoding="UTF-8"?>
<svg viewBox="0 0 80 80" xmlns="http://www.w3.org/2000/svg">
<defs>
</defs>
<path d="m40 80c-22.091 0-40-17.909-40-40s17.909-40 40-40 40 17.909 40 40-17.909 40-40 40zm-20.552-52.055c-1.6683-1.7862-3.0566-3.3-4.1635-4.5459-1.1069-1.2429-1.8141-2.0189-2.12-2.3252-0.79807-0.79519-1.4547-1.1736-1.9699-1.1368-0.51377 0.036814-0.90919 0.33575-1.1863 0.89533-0.27564 0.56105-0.45027 1.2959-0.52098 2.2045-0.069272 0.90711-0.063499 1.8216 0.017318 2.7375 0.08226 0.91742 0.23812 1.7671 0.47047 2.5476 0.23091 0.78194 0.49934 1.3253 0.80673 1.6316 1.0867 1.0838 2.3466 2.3605 3.7551 3.8096 1.6308-1.667 3.9124-3.25 6.0541-4.5414-0.47192-0.5316-0.95826-1.0794-1.143-1.2767zm37.737 7.8754c1.0838 1.9364 1.8819 3.7948 2.4 5.5722 0.51521 1.7774 0.69128 3.4208 0.52676 4.9302-0.16452 1.5079-0.78508 2.8244-1.8646 3.9524-1.3277 1.3872-2.9282 2.0999-4.8 2.1411-0.014432 0.0014726-0.024534 0.0058903-0.038965 0.0058903-0.47336 0.0088355-0.95538-0.013253-1.4461-0.064794-0.72447-0.075102-1.4735-0.23856-2.2355-0.44472-0.78653-0.21352-1.5875-0.4727-2.4173-0.82464-1.4475-0.61407-2.9368-1.4093-4.4623-2.3561-0.76776-0.47564-1.5427-0.97779-2.3307-1.5388-2.3552-1.6728-4.6816-3.5018-6.9791-5.4839-0.50366-0.43441-0.9828-0.88207-1.4764-1.3209-0.64942 0.40054-1.2887 0.80992-1.9079 1.234-1.5644 1.0676-2.9325 2.2074-4.1217 3.412 0.97702 0.88944 1.9699 1.7789 2.996 2.6698 2.2355 1.9453 4.507 3.7374 6.8103 5.3808 1.6986 1.2105 3.4145 2.2516 5.1362 3.2102 0.044738 0.025034 0.089476 0.048595 0.13566 0.073629 0.56861 0.31513 1.1358 0.65972 1.7087 0.9454 0.254 0.12811 0.50366 0.23414 0.75622 0.35342 1.4706 0.69064 2.9152 1.2429 4.3309 1.6257 0.58737 0.15904 1.1704 0.29452 1.7477 0.40054 2.2095 0.40496 4.3252 0.34311 6.3528-0.18554 2.0248-0.53013 3.8951-1.692 5.6139-3.4885 1.358-1.4181 2.1878-3.0482 2.4923-4.8875 0.30018-1.8393 0.19627-3.7978-0.31172-5.8771-0.50944-2.0778-1.3638-4.2425-2.5645-6.497-1.1993-2.2545-2.5948-4.5135-4.1881-6.7739-0.41419-0.58756-0.86301-1.1707-1.296-1.7568-0.03175 1.1781-0.089476 2.1971-0.14432 2.9628 0.55562 0.8806 1.0896 1.7583 1.5774 2.63zm-17.91 25.094c-0.68262 2.3664-1.2729 4.35-1.778 5.9507-0.50078 1.6007-0.80673 2.6138-0.91208 3.0365-0.27564 1.103-0.26987 1.8716 0.018761 2.309 0.28863 0.43588 0.74034 0.63763 1.3537 0.60081 0.61479-0.036814 1.3248-0.25034 2.1316-0.64057 0.80529-0.39318 1.5774-0.85557 2.3148-1.3857 0.73746-0.5316 1.3797-1.0927 1.9266-1.689 0.54985-0.59492 0.876-1.103 0.98135-1.5285 0.37667-1.502 0.82982-3.2529 1.3566-5.2232-2.2297-0.6067-4.7148-1.8319-6.881-3.0792-0.21503 0.68328-0.43728 1.3857-0.51232 1.6493zm-12.186-37.286c1.1026-1.9261 2.2802-3.5607 3.53-4.9066 1.2498-1.3445 2.5573-2.3208 3.9211-2.9304 1.3623-0.60818 2.7896-0.71862 4.2862-0.32986 1.8415 0.48006 3.2471 1.5388 4.2184 3.1719 0.0072159 0.011781 0.017318 0.019144 0.024534 0.032397 0.2439 0.41379 0.46614 0.84968 0.66819 1.3091 0.29729 0.67739 0.53397 1.421 0.7389 2.1971 0.21359 0.80256 0.39254 1.6405 0.50799 2.549 0.20349 1.586 0.27276 3.3 0.23379 5.1216-0.020204 0.91742-0.060613 1.8525-0.14143 2.8288-0.24245 2.9172-0.63066 5.8874-1.1646 8.9091-0.11834 0.66266-0.25688 1.3091-0.38388 1.9659 0.66674 0.37256 1.3335 0.73334 2.0017 1.0676 1.6885 0.84821 3.3395 1.4888 4.9573 1.9364 0.26699-1.3077 0.52387-2.63 0.76776-3.9819 0.53253-2.9496 0.9193-5.852 1.1603-8.7088 0.17895-2.1073 0.20493-4.1424 0.15731-6.1436-0.0014432-0.05154-0.0028863-0.10455-0.0043295-0.15609-0.017318-0.66119-0.008659-1.3342-0.051954-1.9836-0.018761-0.28863-0.053397-0.56253-0.079374-0.84526-0.14865-1.6449-0.40264-3.197-0.78508-4.6401-0.15875-0.59787-0.33481-1.181-0.53397-1.7435-0.76055-2.1559-1.8718-3.9936-3.3337-5.5222-1.4619-1.5241-3.3842-2.5947-5.7683-3.2161-1.8819-0.49037-3.6801-0.40938-5.3931 0.2415-1.7116 0.65383-3.3222 1.7259-4.8332 3.2132-1.5081 1.4903-2.9181 3.328-4.2314 5.5163-1.3147 2.1853-2.5328 4.5488-3.6555 7.0861-0.29152 0.66119-0.56139 1.3489-0.84281 2.0233 1.016-0.55958 1.9093-1.0176 2.5862-1.3533 0.47047-0.93067 0.94816-1.8407 1.4432-2.7081zm30.918 3.5967c2.3615-0.59147 4.3517-1.0691 5.9705-1.43 1.6159-0.36237 2.6342-0.60345 3.0491-0.72324 1.0792-0.31296 1.732-0.70977 1.9597-1.1919 0.22629-0.48066 0.17117-0.98828-0.16827-1.5214s-0.87904-1.0632-1.6188-1.5887c-0.73834-0.52259-1.5216-0.98229-2.3441-1.3761-0.82392-0.39232-1.6261-0.68431-2.4094-0.87298-0.78331-0.19017-1.3809-0.22461-1.7972-0.10482-1.4709 0.42676-3.1927 0.90892-5.1379 1.4375 0.60344 2.3135 0.80651 5.1675 0.83262 7.749 0.69047-0.15423 1.4012-0.31146 1.6638-0.37734zm-25.501 29.226c-2.1875-0.011749-4.1668-0.23352-5.9367-0.66531-1.767-0.43032-3.2523-1.0956-4.4515-1.993-1.1992-0.89736-2.0083-2.1002-2.4258-3.6144-0.51435-1.8608-0.31786-3.6276 0.58226-5.299 0.0072241-0.011749 0.0086689-0.024967 0.015893-0.036717 0.22973-0.42151 0.48979-0.83567 0.77876-1.2425 0.42622-0.60069 0.94057-1.1793 1.4968-1.7477 0.57504-0.58747 1.1963-1.1632 1.9115-1.7183 1.2454-0.97079 2.6671-1.8858 4.2348-2.7596 0.78887-0.43913 1.6037-0.87092 2.475-1.2866 2.5992-1.241 5.3184-2.3792 8.1531-3.4147 0.62127-0.22764 1.2411-0.42738 1.8609-0.64328-0.015893-0.77252-0.043344-1.5406-0.093913-2.297-0.12425-1.9107-0.40599-3.6849-0.8351-5.3342-1.2454 0.4171-2.4981 0.84889-3.7695 1.3101-2.7712 1.0002-5.4311 2.1075-7.9797 3.3192-1.8797 0.89295-3.6222 1.8858-5.2996 2.9256-0.043344 0.026436-0.086689 0.054341-0.13003 0.080777-0.55192 0.34514-1.1284 0.67412-1.6586 1.0354-0.23695 0.16009-0.45078 0.32751-0.67906 0.492-1.3235 0.95023-2.5154 1.9489-3.5499 3.0049-0.42767 0.43913-0.8351 0.88414-1.2151 1.3409-1.4491 1.7448-2.4562 3.6408-3.0226 5.6911-0.56348 2.0488-0.51146 4.2768 0.1546 6.6869 0.52591 1.9049 1.4954 3.4484 2.9055 4.6337 1.413 1.1823 3.1295 2.0679 5.1493 2.6568 2.0199 0.586 4.2882 0.91351 6.8051 0.9796 2.5154 0.067559 5.1334-0.036717 7.8511-0.31283 0.70651-0.071965 1.4275-0.17771 2.1412-0.2673-0.98392-0.61537-1.8205-1.1735-2.4446-1.6038-1.0273 0.051404-2.0386 0.083714-3.024 0.079308z" fill="#FAC338" />
</svg>
