<svg viewBox="0 0 80 80" xmlns="http://www.w3.org/2000/svg"><path d="M40 80C17.909 80 0 62.091 0 40S17.909 0 40 0s40 17.909 40 40-17.909 40-40 40zM19.448 27.945a255.798 255.798 0 0 1-4.163-4.546c-1.107-1.243-1.815-2.019-2.12-2.325-.799-.795-1.455-1.174-1.97-1.137-.514.037-.91.336-1.187.895-.275.561-.45 1.296-.52 2.205-.07.907-.064 1.822.017 2.737.082.918.238 1.768.47 2.548.231.782.5 1.325.807 1.632a348.292 348.292 0 0 1 3.755 3.81c1.63-1.668 3.912-3.25 6.054-4.542-.472-.532-.958-1.08-1.143-1.277zm37.737 7.875c1.084 1.937 1.882 3.795 2.4 5.573.515 1.777.691 3.42.527 4.93-.165 1.508-.785 2.824-1.865 3.952-1.328 1.387-2.928 2.1-4.8 2.141-.014.002-.024.006-.039.006-.473.009-.955-.013-1.446-.065-.724-.075-1.473-.238-2.235-.444a18.59 18.59 0 0 1-2.418-.825c-1.447-.614-2.937-1.41-4.462-2.356a43.266 43.266 0 0 1-2.33-1.539 94.21 94.21 0 0 1-6.98-5.484c-.503-.434-.983-.882-1.476-1.32-.65.4-1.289.81-1.908 1.233a27.722 27.722 0 0 0-4.122 3.412c.977.89 1.97 1.78 2.996 2.67a90.071 90.071 0 0 0 6.81 5.38c1.7 1.211 3.415 2.253 5.137 3.211l.135.074c.569.315 1.136.66 1.71.945.253.128.503.234.755.354 1.47.69 2.915 1.242 4.331 1.625.588.16 1.17.295 1.748.4 2.21.406 4.325.344 6.353-.185 2.024-.53 3.895-1.692 5.614-3.488 1.358-1.418 2.187-3.048 2.492-4.888.3-1.839.196-3.798-.312-5.877-.51-2.078-1.364-4.242-2.564-6.497a63.714 63.714 0 0 0-4.188-6.774c-.415-.587-.863-1.17-1.296-1.757a67.277 67.277 0 0 1-.145 2.963c.556.88 1.09 1.759 1.578 2.63zm-17.91 25.094a259.432 259.432 0 0 1-1.778 5.951c-.5 1.6-.807 2.614-.912 3.037-.276 1.103-.27 1.871.019 2.309.288.435.74.637 1.353.6.615-.036 1.325-.25 2.132-.64a15.95 15.95 0 0 0 2.315-1.386 12.578 12.578 0 0 0 1.926-1.689c.55-.595.876-1.103.982-1.528.376-1.502.83-3.253 1.356-5.224-2.23-.606-4.714-1.831-6.88-3.079-.216.684-.438 1.386-.513 1.65zM27.089 23.628c1.103-1.926 2.28-3.56 3.53-4.906 1.25-1.345 2.557-2.321 3.921-2.93 1.362-.609 2.79-.72 4.286-.33 1.842.48 3.247 1.538 4.219 3.171.007.012.017.02.024.033.244.414.466.85.668 1.309.298.677.534 1.42.74 2.197.213.803.392 1.64.507 2.549.204 1.586.273 3.3.234 5.122-.02.917-.06 1.852-.141 2.828a97.718 97.718 0 0 1-1.165 8.91c-.118.662-.257 1.309-.384 1.965.667.373 1.334.734 2.002 1.068a27.216 27.216 0 0 0 4.957 1.936c.267-1.307.524-2.63.768-3.981.532-2.95.92-5.852 1.16-8.71.18-2.107.205-4.142.158-6.143l-.005-.156c-.017-.661-.008-1.334-.052-1.984-.018-.288-.053-.562-.08-.845-.148-1.645-.402-3.197-.784-4.64a22.628 22.628 0 0 0-.534-1.743c-.76-2.156-1.872-3.994-3.334-5.523-1.462-1.524-3.384-2.594-5.768-3.216-1.882-.49-3.68-.41-5.393.242-1.712.654-3.322 1.726-4.833 3.213-1.509 1.49-2.919 3.328-4.232 5.516a63.862 63.862 0 0 0-3.655 7.086c-.292.662-.562 1.35-.843 2.024a68.288 68.288 0 0 1 2.586-1.354c.47-.93.948-1.84 1.443-2.708zm30.918 3.597a247.183 247.183 0 0 1 5.97-1.43c1.616-.362 2.635-.603 3.05-.723 1.079-.313 1.732-.71 1.96-1.192.226-.48.17-.988-.169-1.521s-.879-1.064-1.619-1.59a16.056 16.056 0 0 0-2.344-1.375 12.345 12.345 0 0 0-2.41-.873c-.783-.19-1.38-.225-1.796-.105-1.471.427-3.193.909-5.138 1.437.603 2.314.806 5.168.832 7.75.69-.155 1.401-.312 1.664-.378zM32.506 56.451c-2.188-.012-4.167-.233-5.937-.665-1.767-.43-3.252-1.096-4.451-1.993-1.2-.898-2.008-2.1-2.426-3.615-.514-1.86-.318-3.627.582-5.299.007-.011.009-.025.016-.036.23-.422.49-.836.779-1.243.426-.6.94-1.18 1.497-1.748a18.71 18.71 0 0 1 1.911-1.718c1.246-.97 2.667-1.886 4.235-2.76.789-.439 1.604-.87 2.475-1.286a92.882 92.882 0 0 1 8.153-3.415c.621-.227 1.241-.427 1.861-.643a49.903 49.903 0 0 0-.094-2.297 28.483 28.483 0 0 0-.835-5.334c-1.245.417-2.498.849-3.77 1.31a88.718 88.718 0 0 0-7.98 3.32c-1.879.892-3.621 1.885-5.299 2.925l-.13.08c-.552.346-1.128.675-1.658 1.036-.237.16-.451.327-.68.492-1.323.95-2.515 1.949-3.55 3.005-.427.439-.834.884-1.214 1.34-1.45 1.745-2.457 3.641-3.023 5.692-.564 2.049-.512 4.277.155 6.687.525 1.905 1.495 3.448 2.905 4.633 1.413 1.183 3.13 2.068 5.15 2.657 2.02.586 4.288.914 6.804.98a61.404 61.404 0 0 0 7.852-.313c.706-.072 1.427-.178 2.14-.267a66.127 66.127 0 0 1-2.444-1.604 55.776 55.776 0 0 1-3.024.08z" fill="#FAC338"/></svg>