<svg xmlns="http://www.w3.org/2000/svg" width="110" height="117" viewBox="0 0 466 497">
  <g fill="none">
    <polygon fill="#000000" points=".501 448.905 16.533 448.905 16.533 464.937 .501 464.937"/>
    <polygon fill="#000000" points="16.533 464.937 32.566 464.937 32.566 480.97 16.533 480.97"/>
    <polygon fill="#000000" points="32.566 448.905 48.598 448.905 48.598 464.937 32.566 464.937"/>
    <polygon fill="#000000" points="16.533 432.873 32.566 432.873 32.566 448.905 16.533 448.905"/>
    <path fill="#000000" d="M362.817425,162.663889 L351.986995,174.496338 C388.427651,207.844823 409.325253,255.276389 409.325253,304.614141 C409.325253,310 409.043434,315.323232 408.569823,320.591666 C392.146086,320.294192 377.444571,311.092046 370.078156,296.359217 C362.727399,281.673359 347.971086,272.549495 331.551262,272.549495 C312.426768,272.549495 295.400253,285.391793 290.147475,303.78043 C285.955429,318.434975 272.392929,328.662626 257.163005,328.662626 L234.707576,328.662626 C220.4875,328.662626 208.921212,317.096338 208.921212,302.876263 C208.921212,299.701894 209.496591,296.582323 210.643434,293.615405 L221.219445,266.130303 L206.251768,260.372601 L195.6875,287.861616 C193.828283,292.668182 192.888889,297.721339 192.888889,302.876263 C192.888889,325.938384 211.645455,344.694949 234.707576,344.694949 L257.163005,344.694949 C279.520581,344.694949 299.416162,329.680303 305.565278,308.179924 C308.857071,296.644949 319.542677,288.581818 331.551262,288.581818 C341.861111,288.581818 351.118055,294.304293 355.728914,303.522096 C365.510354,323.077146 384.748358,335.402777 406.389646,336.471339 C402.103662,359.846591 393.214646,381.617045 380.66591,400.808081 L349.493686,400.808081 C333.355682,400.808081 318.188384,394.521969 306.774747,383.116162 C292.33548,368.680808 273.140531,360.727273 252.720455,360.727273 L251.918055,360.727273 C238.069823,360.727273 224.472096,364.496591 212.592676,371.620329 L205.018813,376.164646 C195.628788,381.80101 184.880555,384.775758 173.940531,384.775758 L169.560606,384.775758 C151.716035,384.775758 134.337247,391.069697 120.629924,402.491162 L99.7088379,419.924747 C86.6590909,404.87096 76.1261361,387.597853 68.7362371,368.743434 L82.0325763,368.743434 C98.7968432,368.743434 114.555177,362.21856 126.411111,350.362626 C138.267045,338.506692 144.791919,322.756187 144.791919,305.913636 C144.791919,294.210354 152.256187,283.861363 163.356692,280.158586 C181.025126,274.263889 192.888889,257.80101 192.888889,239.185354 L192.888889,237.408334 L176.856566,237.408334 L176.856566,239.185354 C176.856566,250.888636 169.392298,261.237627 158.291793,264.940404 C140.623359,270.835101 128.759596,287.29798 128.759596,305.984091 C128.759596,318.466288 123.902147,330.200884 115.075758,339.027273 C106.249368,347.853662 94.5226008,352.711111 82.0325763,352.711111 L63.3308081,352.711111 C58.9861116,337.406818 56.6141414,321.288384 56.6141414,304.614141 C56.6141414,255.276389 77.5117427,207.844823 113.952399,174.496338 L103.121969,162.663889 C63.3816917,199.049748 40.5818182,250.786869 40.5818182,304.614141 C40.5818182,410.699116 126.892551,497.00202 232.969697,497.00202 C339.046843,497.00202 425.357576,410.699116 425.357576,304.614141 C425.357576,250.786869 402.557702,199.049748 362.817425,162.663889 Z M232.969697,480.969697 C185.553788,480.969697 142.490404,462.130935 110.762373,431.581061 L130.892803,414.805051 C141.73106,405.779041 155.461869,400.808081 169.560606,400.808081 L173.928788,400.808081 C187.780935,400.808081 201.378661,397.038762 213.258081,389.915025 L220.831945,385.370707 C230.229798,379.734343 240.978031,376.759596 251.918055,376.759596 L252.720455,376.759596 C268.858459,376.759596 284.025758,383.045708 295.439394,394.451515 C309.878661,408.886869 329.073611,416.840404 349.493686,416.840404 L368.907828,416.840404 C336.53005,455.981818 287.615025,480.969697 232.969697,480.969697 L232.969697,480.969697 Z"/>
    <polygon fill="#000000" points="401.309 432.873 417.341 432.873 417.341 448.905 401.309 448.905"/>
    <polygon fill="#000000" points="417.341 448.905 433.374 448.905 433.374 464.937 417.341 464.937"/>
    <polygon fill="#000000" points="433.374 432.873 449.406 432.873 449.406 448.905 433.374 448.905"/>
    <polygon fill="#000000" points="417.341 416.84 433.374 416.84 433.374 432.873 417.341 432.873"/>
    <path fill="#FAC338" d="M232.969697,291.356944 L95.8064391,167.889267 C75.9891419,150.079924 64.630303,124.563636 64.630303,97.9083338 L64.630303,94.1585859 C64.630303,42.245328 106.875631,-2.84217094e-14 158.788889,-2.84217094e-14 C177.443687,-2.84217094e-14 195.503535,5.47588409 211.023106,15.8170452 L232.969697,30.4441914 L254.916288,15.8170452 C270.435859,5.47588409 288.495707,-2.84217094e-14 307.150505,-2.84217094e-14 C359.063763,-2.84217094e-14 401.309091,42.245328 401.309091,94.1585859 L401.309091,97.9083338 C401.309091,124.563636 389.950252,150.079924 370.132955,167.889267 L232.969697,291.356944 Z"/>
    <path fill="#000000" d="M97.1215907 105.141667C96.8397725 102.750127 96.6949495 100.339015 96.6949495 97.9083338L96.6949495 94.1585859C96.6949495 91.8335864 96.8241159 89.5477278 97.0707071 87.2892674L113.001263 89.0662881C112.825126 90.7337119 112.727273 92.4441914 112.727273 94.1585859L112.727273 97.9083338C112.727273 99.7127528 112.832955 101.509344 113.040404 103.278535L97.1215907 105.141667zM195.542677 214.522349L117.248106 144.059974C110.852399 138.302273 105.803157 131.401642 102.241288 123.54596L116.841036 116.923232C119.483081 122.751389 123.228914 127.875001 127.972854 132.1375L206.267424 202.599873 195.542677 214.522349zM369.244444 96.1939394L353.212121 96.1939394C353.212121 69.6678033 331.641288 48.0969697 305.115152 48.0969697L305.115152 32.0646465C340.475505 32.0646465 369.244444 60.8335864 369.244444 96.1939394z"/>
    <polygon fill="#000000" points="417.341 160.323 433.374 160.323 433.374 176.356 417.341 176.356"/>
    <polygon fill="#000000" points="433.374 176.356 449.406 176.356 449.406 192.388 433.374 192.388"/>
    <polygon fill="#000000" points="449.406 160.323 465.438 160.323 465.438 176.356 449.406 176.356"/>
    <polygon fill="#000000" points="433.374 144.291 449.406 144.291 449.406 160.323 433.374 160.323"/>
    <polygon fill="#000000" points=".501 32.065 16.533 32.065 16.533 48.097 .501 48.097"/>
    <polygon fill="#000000" points="16.533 48.097 32.566 48.097 32.566 64.129 16.533 64.129"/>
    <polygon fill="#000000" points="32.566 32.065 48.598 32.065 48.598 48.097 32.566 48.097"/>
    <polygon fill="#000000" points="16.533 16.032 32.566 16.032 32.566 32.065 16.533 32.065"/>
  </g>
</svg>
