<svg xmlns="http://www.w3.org/2000/svg" width="110" height="117" viewBox="0 0 466 497"><g fill="none"><path fill="#000" d="M.501 448.905h16.032v16.032H.501zm16.032 16.032h16.033v16.033H16.533zm16.033-16.032h16.032v16.032H32.566zm-16.033-16.032h16.033v16.032H16.533zm346.284-270.209l-10.83 11.832c36.44 33.349 57.338 80.78 57.338 130.118 0 5.386-.282 10.71-.755 15.978-16.424-.298-31.125-9.5-38.492-24.233-7.35-14.686-22.107-23.81-38.527-23.81-19.124 0-36.15 12.843-41.404 31.231-4.192 14.655-17.754 24.883-32.984 24.883h-22.455c-14.22 0-25.787-11.567-25.787-25.787 0-3.174.576-6.294 1.722-9.26l10.576-27.486-14.967-5.757-10.565 27.489a41.462 41.462 0 0 0-2.798 15.014c0 23.062 18.756 41.819 41.819 41.819h22.455c22.358 0 42.253-15.015 48.402-36.515 3.292-11.535 13.978-19.598 25.986-19.598 10.31 0 19.567 5.722 24.178 14.94 9.781 19.555 29.02 31.88 50.66 32.95a175.18 175.18 0 0 1-25.723 64.336h-31.172c-16.138 0-31.306-6.286-42.72-17.692-14.439-14.435-33.633-22.389-54.054-22.389h-.802a76.486 76.486 0 0 0-39.325 10.893l-7.574 4.545a60.4 60.4 0 0 1-31.078 8.61h-4.38a76.587 76.587 0 0 0-48.931 17.716l-20.921 17.434a176.45 176.45 0 0 1-30.973-51.182h13.297c16.764 0 32.522-6.524 44.378-18.38 11.856-11.856 18.38-27.607 18.38-44.45a27.12 27.12 0 0 1 18.566-25.754 43.139 43.139 0 0 0 29.532-40.974v-1.777h-16.032v1.777a27.12 27.12 0 0 1-18.565 25.755c-17.669 5.895-29.532 22.358-29.532 41.044 0 12.482-4.858 24.217-13.684 33.043-8.827 8.827-20.553 13.684-33.043 13.684H63.33c-4.345-15.304-6.717-31.423-6.717-48.097 0-49.338 20.898-96.77 57.338-130.118l-10.83-11.832c-39.74 36.386-62.54 88.123-62.54 141.95 0 106.085 86.31 192.388 192.388 192.388 106.077 0 192.388-86.303 192.388-192.388 0-53.827-22.8-105.564-62.54-141.95zM232.97 480.97c-47.416 0-90.48-18.84-122.208-49.389l20.13-16.776a60.538 60.538 0 0 1 38.669-13.997h4.368a76.49 76.49 0 0 0 39.33-10.893l7.573-4.544a60.45 60.45 0 0 1 31.086-8.611h.802c16.138 0 31.306 6.286 42.72 17.692 14.439 14.435 33.634 22.388 54.054 22.388h19.414c-32.378 39.142-81.293 64.13-135.938 64.13zm168.339-48.097h16.032v16.032h-16.032zm16.032 16.032h16.033v16.032h-16.033zm16.033-16.032h16.032v16.032h-16.032zm-16.033-16.033h16.033v16.033h-16.033z"/><path fill="#FAC338" d="M232.97 291.357L95.806 167.889C75.99 150.08 64.63 124.564 64.63 97.91v-3.75C64.63 42.245 106.876 0 158.79 0c18.655 0 36.715 5.476 52.234 15.817l21.947 14.627 21.946-14.627C270.436 5.476 288.496 0 307.151 0c51.913 0 94.158 42.245 94.158 94.159v3.75c0 26.655-11.359 52.17-31.176 69.98L232.97 291.357z"/><path fill="#000" d="M97.122 105.142a61.756 61.756 0 0 1-.427-7.234v-3.75c0-2.324.13-4.61.376-6.869L113 89.066a48.623 48.623 0 0 0-.274 5.093v3.75c0 1.804.106 3.6.313 5.37l-15.918 1.863zm98.42 109.38l-78.294-70.462a61.736 61.736 0 0 1-15.007-20.514l14.6-6.623a45.692 45.692 0 0 0 11.132 15.214l78.294 70.463-10.724 11.922zM369.245 96.194h-16.032c0-26.526-21.57-48.097-48.097-48.097V32.065c35.36 0 64.13 28.769 64.13 64.129zm48.096 64.129h16.033v16.033h-16.033zm16.033 16.033h16.032v16.032h-16.032zm16.032-16.033h16.032v16.033h-16.032zm-16.032-16.032h16.032v16.032h-16.032zM.501 32.065h16.032v16.032H.501zm16.032 16.032h16.033v16.032H16.533zm16.033-16.032h16.032v16.032H32.566zM16.533 16.032h16.033v16.033H16.533z"/></g></svg>