<svg width="202" height="101" viewBox="0 0 202 101" xmlns="http://www.w3.org/2000/svg"><title>together</title><path d="M172.412 53.776c-.793 2.047-1.71 3.844-2.752 5.392-1.12 1.664-2.288 3.072-3.504 4.224-1.216 1.152-2.416 2.016-3.6 2.592-1.184.576-2.224.896-3.12.96a2.109 2.109 0 0 1-1.632-.288 4.964 4.964 0 0 1-1.344-1.248 10.658 10.658 0 0 1-1.008-1.632 29.293 29.293 0 0 1-.72-1.536 9.874 9.874 0 0 1-.624-3.696c.032-1.248.112-2.512.24-3.792a121.968 121.968 0 0 1 .384-2.496c0-.064.128-.032.384.096.128.128.288.224.48.288.768.64 1.696 1.024 2.784 1.152 1.216.128 2.224-.112 3.024-.72.8-.608 1.584-1.328 2.352-2.16a13.775 13.775 0 0 0 2.208-2.928 47.144 47.144 0 0 0 1.728-3.312c.384-.832.64-1.712.768-2.64a8.705 8.705 0 0 0-.048-2.736 7.043 7.043 0 0 0-.912-2.448c-.448-.736-1.088-1.296-1.92-1.68-1.024-.384-2.016-.544-2.976-.48-1.984 0-3.632.624-4.944 1.872-1.312 1.248-2.608 2.704-3.888 4.368a16.304 16.304 0 0 0-1.392 2.304 23.351 23.351 0 0 0-1.104 2.592c-.704 1.728-1.232 3.632-1.584 5.712a26.455 26.455 0 0 0-.386 4.728 5.045 5.045 0 0 1-.142.312 23.24 23.24 0 0 1-1.104 2.736c-.416.864-.848 1.744-1.296 2.64-.192.32-.496.928-.912 1.824-.416.896-.912 1.76-1.488 2.592-.576.832-1.184 1.456-1.824 1.872-.64.416-1.28.304-1.92-.336-.576-.576-.896-1.376-.96-2.4a43.77 43.77 0 0 1-.096-2.688c0-1.088.096-2.096.288-3.024.192-.928.384-1.872.576-2.832.192-1.024.352-2.032.48-3.024s.32-1.968.576-2.928c.192-1.024.352-2.032.48-3.024s.224-2.032.288-3.12c0-.768.048-1.6.144-2.496.096-.896.112-1.776.048-2.64a7.824 7.824 0 0 0-.576-2.448c-.32-.768-.896-1.408-1.728-1.92-1.28-.768-2.56-.976-3.84-.624-1.28.352-2.4 1.04-3.36 2.064-1.344 1.344-2.4 2.944-3.168 4.8a143.998 143.998 0 0 1-2.304 5.28 34.414 34.414 0 0 0-1.92 5.28 42.636 42.636 0 0 1-1.824 5.28 17.009 17.009 0 0 1-.096-4.032l.384-4.032c.256-2.24.544-4.448.864-6.624.32-2.176.704-4.384 1.152-6.624.128-.64.224-1.28.288-1.92.064-.64.256-1.216.576-1.728.32-.512.736-.992 1.248-1.44l1.536-1.344c.448-.512.896-.992 1.344-1.44.448-.448.896-.928 1.344-1.44a84.093 84.093 0 0 0 2.592-3.312 56.184 56.184 0 0 0 2.4-3.504 353.014 353.014 0 0 1 2.304-3.6 21.353 21.353 0 0 0 1.92-3.696 72.375 72.375 0 0 0 1.632-3.936c.512-1.344.832-2.72.96-4.128.064-.512.128-1.072.192-1.68.064-.608-.064-1.104-.384-1.488a2.813 2.813 0 0 0-1.584-.816 5.568 5.568 0 0 0-1.92.048 8.79 8.79 0 0 0-1.968.624c-.64.288-1.184.56-1.632.816-1.28.64-2.432 1.568-3.456 2.784a34.373 34.373 0 0 0-2.928 3.984 37.89 37.89 0 0 0-2.352 4.368 59.054 59.054 0 0 0-3.936 9.792 114.841 114.841 0 0 0-2.592 10.272 146.142 146.142 0 0 0-1.68 11.232A149.883 149.883 0 0 0 119.116 56c-.03.453-.05.906-.059 1.358a68.296 68.296 0 0 1-1.669 3.01 17.567 17.567 0 0 1-3.648 4.368c-.512.512-1.04.88-1.584 1.104-.544.224-1.168.208-1.872-.048-.768-.256-1.376-.672-1.824-1.248a4.405 4.405 0 0 1-.864-2.016c-.128-.704-.24-1.36-.336-1.968a12.637 12.637 0 0 1-.144-1.968 26.148 26.148 0 0 1 .288-4.992 66.22 66.22 0 0 0 .576-4.992 56.62 56.62 0 0 1 .576-4.608l.768-4.608c.384-2.048.752-4.112 1.104-6.192.352-2.08.72-4.176 1.104-6.288.064-.448.384-.672.96-.672a23.41 23.41 0 0 0 5.088.576c.704.128 1.488-.128 2.352-.768.864-.64 1.36-1.44 1.488-2.4a.408.408 0 0 0 0-.384l-.192-.384c-.384-.128-.656.016-.816.432-.16.416-.336.752-.528 1.008-.32.512-.688.96-1.104 1.344-.416.384-.944.544-1.584.48a25.54 25.54 0 0 1-2.256-.288c-.736-.128-1.456-.256-2.16-.384-.64-.064-.864-.448-.672-1.152.32-1.408.64-2.8.96-4.176.32-1.376.64-2.768.96-4.176.064-.448.176-.912.336-1.392.16-.48.272-.944.336-1.392a3.23 3.23 0 0 0-.048-1.248c-.096-.384-.336-.704-.72-.96-.896-.512-1.6-.464-2.112.144s-.928 1.392-1.248 2.352a118.2 118.2 0 0 0-1.44 4.416l-1.344 4.416c-.128.384-.256.672-.384.864-.128.192-.416.192-.864 0a5.949 5.949 0 0 0-1.488-.528 32.09 32.09 0 0 1-1.488-.336 8.442 8.442 0 0 0-1.44-.24c-.448-.032-.928-.08-1.44-.144-.704.064-1.296.272-1.776.624s-.912.784-1.296 1.296c0 .128-.032.24-.096.336-.064.096-.032.208.096.336.128.128.32.144.576.048.256-.096.448-.208.576-.336.256-.384.544-.624.864-.72.32-.096.672-.144 1.056-.144 1.92-.064 3.872.288 5.856 1.056.32.192.48.384.48.576l-.96 4.416c-.32 1.472-.608 2.944-.864 4.416a550.339 550.339 0 0 0-1.104 6.48 392.344 392.344 0 0 0-1.008 6.48 61.256 61.256 0 0 1-.576 4.56 22.632 22.632 0 0 0-.306 3.902 25.663 25.663 0 0 1-2.142 3.922c-1.12 1.664-2.288 3.072-3.504 4.224-1.216 1.152-2.416 2.016-3.6 2.592-1.184.576-2.224.896-3.12.96a2.109 2.109 0 0 1-1.632-.288 4.964 4.964 0 0 1-1.344-1.248 10.658 10.658 0 0 1-1.008-1.632 29.293 29.293 0 0 1-.72-1.536 9.874 9.874 0 0 1-.624-3.696c.032-1.248.112-2.512.24-3.792a121.968 121.968 0 0 1 .384-2.496c0-.064.128-.032.384.096.128.128.288.224.48.288.768.64 1.696 1.024 2.784 1.152 1.216.128 2.224-.112 3.024-.72.8-.608 1.584-1.328 2.352-2.16a13.775 13.775 0 0 0 2.208-2.928 47.144 47.144 0 0 0 1.728-3.312c.384-.832.64-1.712.768-2.64a8.705 8.705 0 0 0-.048-2.736 7.043 7.043 0 0 0-.912-2.448c-.448-.736-1.088-1.296-1.92-1.68-1.024-.384-2.016-.544-2.976-.48-1.984 0-3.632.624-4.944 1.872-1.312 1.248-2.608 2.704-3.888 4.368a16.304 16.304 0 0 0-1.392 2.304 23.351 23.351 0 0 0-1.104 2.592c-.704 1.728-1.232 3.632-1.584 5.712l-.031.188a7.98 7.98 0 0 1-.401.436 46.383 46.383 0 0 0-3.12 3.024 53.356 53.356 0 0 1-3.312 3.216c-.448.448-.896.928-1.344 1.44-.448.512-.96.928-1.536 1.248-.128-.768-.08-1.632.144-2.592.224-.96.4-1.824.528-2.592.192-.96.368-1.92.528-2.88.16-.96.336-1.92.528-2.88a44.73 44.73 0 0 1 .48-2.736c.192-.928.352-1.84.48-2.736l.384-2.304a8.814 8.814 0 0 1 .672-2.208c.448-.896.992-1.776 1.632-2.64a26.65 26.65 0 0 0 1.728-2.64 76.04 76.04 0 0 0 1.392-2.064c.48-.736.624-1.488.432-2.256-.128-.384-.352-.608-.672-.672-.32-.064-.704-.048-1.152.048a7.115 7.115 0 0 0-1.248.384c-.384.16-.672.272-.864.336a6.08 6.08 0 0 0-.912.672c-.288.256-.576.48-.864.672-.288.192-.576.32-.864.384-.288.064-.624 0-1.008-.192-.832-.448-1.76-.624-2.784-.528-1.024.096-1.984.24-2.88.432a6.98 6.98 0 0 0-2.208.768c-.704.384-1.408.8-2.112 1.248-2.944 2.112-5.376 4.8-7.296 8.064-.96 1.6-1.792 3.424-2.496 5.472-.156.437-.293.878-.411 1.323-.21.128-.458.295-.741.501-.448.32-.944.512-1.488.576a5.345 5.345 0 0 0-1.488.384c-.256.128-.56.272-.912.432-.352.16-.688.176-1.008.048a41.037 41.037 0 0 1-.192-3.888c0-1.248-.08-2.48-.24-3.696a22.577 22.577 0 0 0-.816-3.696c-.384-1.248-.992-2.512-1.824-3.792-.896-1.408-2-2.528-3.312-3.36-1.312-.832-2.8-1.216-4.464-1.152-1.728 0-3.232.512-4.512 1.536-1.28 1.024-2.208 2.336-2.784 3.936-.64 1.6-.8 3.392-.48 5.376.128.32.24.704.336 1.152.096.448.048.832-.144 1.152-.32.448-.608.88-.864 1.296a10.33 10.33 0 0 1-.864 1.2 23.783 23.783 0 0 0-2.592 5.28 11.848 11.848 0 0 0-.586 5.008 68.319 68.319 0 0 1-1.718 3.104 17.567 17.567 0 0 1-3.648 4.368c-.512.512-1.04.88-1.584 1.104-.544.224-1.168.208-1.872-.048-.768-.256-1.376-.672-1.824-1.248a4.405 4.405 0 0 1-.864-2.016c-.128-.704-.24-1.36-.336-1.968a12.637 12.637 0 0 1-.144-1.968 26.148 26.148 0 0 1 .288-4.992 66.22 66.22 0 0 0 .576-4.992A56.62 56.62 0 0 1 11.98 44l.768-4.608c.384-2.048.752-4.112 1.104-6.192.352-2.08.72-4.176 1.104-6.288.064-.448.384-.672.96-.672a23.41 23.41 0 0 0 5.088.576c.704.128 1.488-.128 2.352-.768.864-.64 1.36-1.44 1.488-2.4a.408.408 0 0 0 0-.384l-.192-.384c-.384-.128-.656.016-.816.432-.16.416-.336.752-.528 1.008-.32.512-.688.96-1.104 1.344-.416.384-.944.544-1.584.48a25.54 25.54 0 0 1-2.256-.288c-.736-.128-1.456-.256-2.16-.384-.64-.064-.864-.448-.672-1.152.32-1.408.64-2.8.96-4.176.32-1.376.64-2.768.96-4.176.064-.448.176-.912.336-1.392.16-.48.272-.944.336-1.392a3.23 3.23 0 0 0-.048-1.248c-.096-.384-.336-.704-.72-.96-.896-.512-1.6-.464-2.112.144s-.928 1.392-1.248 2.352a118.2 118.2 0 0 0-1.44 4.416l-1.344 4.416c-.128.384-.256.672-.384.864-.128.192-.416.192-.864 0a5.949 5.949 0 0 0-1.488-.528 32.09 32.09 0 0 1-1.488-.336 8.442 8.442 0 0 0-1.44-.24c-.448-.032-.928-.08-1.44-.144-.704.064-1.296.272-1.776.624s-.912.784-1.296 1.296c0 .128-.032.24-.096.336-.064.096-.032.208.096.336.128.128.32.144.576.048.256-.096.448-.208.576-.336.256-.384.544-.624.864-.72.32-.096.672-.144 1.056-.144 1.92-.064 3.872.288 5.856 1.056.32.192.48.384.48.576l-.96 4.416c-.32 1.472-.608 2.944-.864 4.416a550.339 550.339 0 0 0-1.104 6.48 392.344 392.344 0 0 0-1.008 6.48 61.256 61.256 0 0 1-.576 4.56 22.261 22.261 0 0 0-.288 4.56c.064 3.648 1.216 6.912 3.456 9.792.96 1.28 2.24 2.016 3.84 2.208 1.6.192 2.976-.192 4.128-1.152.832-.704 1.6-1.472 2.304-2.304a40.036 40.036 0 0 0 2.016-2.592c.55-.8 1.042-1.6 1.475-2.4a19.63 19.63 0 0 0 1.069 3.408c.672 1.632 1.712 2.896 3.12 3.792 1.152.704 2.464 1.152 3.936 1.344 1.472.192 2.848.032 4.128-.48a11.45 11.45 0 0 0 4.272-3.12 24.795 24.795 0 0 0 3.024-4.368 25.88 25.88 0 0 0 2.208-5.568c.192-.832.464-1.392.816-1.68.352-.288.912-.56 1.68-.816a57.16 57.16 0 0 1 2.064-.48 13.617 13.617 0 0 0 1.919-.55 107.09 107.09 0 0 1-.431 2.278 34.389 34.389 0 0 0-.576 5.328c-.064 1.888.48 3.536 1.632 4.944a13.121 13.121 0 0 0 1.68 1.584c.608.48 1.36.656 2.256.528a15.642 15.642 0 0 0 2.352-.384 4.9 4.9 0 0 0 2.16-1.152c.96-.96 1.712-1.856 2.256-2.688a24.127 24.127 0 0 0 1.392-2.4c.384-.768.752-1.552 1.104-2.352.352-.8.848-1.616 1.488-2.448.192.512.224 1.072.096 1.68a20.631 20.631 0 0 0-.288 1.68 72.881 72.881 0 0 0-.672 3.648 93.302 93.302 0 0 1-.672 3.744c-.128.64-.336 1.12-.624 1.44-.288.32-.656.736-1.104 1.248a796.355 796.355 0 0 0-5.136 5.376 61.819 61.819 0 0 0-4.752 5.664c-1.216 1.6-2.496 3.6-3.84 6-1.344 2.4-2.336 4.736-2.976 7.008-.64 2.272-.72 4.256-.24 5.952.48 1.696 1.936 2.608 4.368 2.736 1.344.064 2.56-.176 3.648-.72a11.197 11.197 0 0 0 2.928-2.112 17.787 17.787 0 0 0 2.352-2.928 90.104 90.104 0 0 0 2.016-3.264 40.19 40.19 0 0 0 3.408-7.584c.864-2.624 1.648-5.28 2.352-7.968.384-1.344.72-2.688 1.008-4.032.288-1.344.56-2.688.816-4.032.128-.64.192-1.328.192-2.064s.16-1.392.48-1.968c.256-.512.64-.992 1.152-1.44.512-.448.992-.864 1.44-1.248a132.658 132.658 0 0 0 2.976-3.072 65.252 65.252 0 0 1 2.976-2.976l1.44-1.44.08-.08a24.602 24.602 0 0 0-.08 4.112 12.987 12.987 0 0 0 1.2 4.992 9.619 9.619 0 0 0 3.312 3.936c1.216.896 2.528 1.408 3.936 1.536a10.587 10.587 0 0 0 4.128-.432 12.846 12.846 0 0 0 3.792-1.92 14.626 14.626 0 0 0 3.024-2.928c1.329-1.645 2.391-3.337 3.188-5.076.35 2.954 1.462 5.638 3.34 8.052.96 1.28 2.24 2.016 3.84 2.208 1.6.192 2.976-.192 4.128-1.152.832-.704 1.6-1.472 2.304-2.304a40.036 40.036 0 0 0 2.016-2.592 26.94 26.94 0 0 0 1.135-1.794c.011.566.017 1.132.017 1.698v2.208c0 .768.16 1.44.48 2.016.192.384.544.768 1.056 1.152.512.384 1.008.656 1.488.816.48.16.896.144 1.248-.048s.496-.672.432-1.44a13.11 13.11 0 0 1 .432-6c.608-1.952 1.2-3.856 1.776-5.712.32-1.024.688-2.016 1.104-2.976.416-.96.784-1.952 1.104-2.976a45.134 45.134 0 0 1 2.208-5.184c.448-.896.944-1.76 1.488-2.592.544-.832 1.168-1.6 1.872-2.304.256-.256.592-.576 1.008-.96.416-.384.784-.544 1.104-.48.384.064.704.256.96.576.256.32.448.64.576.96.256.832.352 1.776.288 2.832a53.156 53.156 0 0 0-.096 3.216 31.204 31.204 0 0 1-.336 3.024c-.16.992-.336 1.968-.528 2.928-.384 1.984-.832 4-1.344 6.048a18.168 18.168 0 0 0-.48 6.144c.064.896.256 1.792.576 2.688a8.65 8.65 0 0 0 1.248 2.352 4.55 4.55 0 0 0 1.968 1.488c.8.32 1.712.352 2.736.096 1.664-.448 3.04-1.456 4.128-3.024s1.952-3.088 2.592-4.56a56.055 56.055 0 0 0 1.264-3.223c.174 1.27.537 2.505 1.088 3.703a9.619 9.619 0 0 0 3.312 3.936c1.216.896 2.528 1.408 3.936 1.536a10.587 10.587 0 0 0 4.128-.432 12.846 12.846 0 0 0 3.792-1.92 14.626 14.626 0 0 0 3.024-2.928c1.344-1.664 2.416-3.376 3.216-5.136.454-1 .914-2.045 1.378-3.138.526.165 1.107.155 1.742-.03.768-.224 1.536-.608 2.304-1.152.768-.544 1.376-1.04 1.824-1.488.704-.704 1.392-1.408 2.064-2.112a36.959 36.959 0 0 0 1.872-2.112c.448-.576.896-1.296 1.344-2.16.448-.864.992-1.456 1.632-1.776.064.512 0 1.12-.192 1.824s-.4 1.424-.624 2.16a59.1 59.1 0 0 1-.72 2.208 9.067 9.067 0 0 0-.48 2.064 19.5 19.5 0 0 1-.336 2.208 19.04 19.04 0 0 0-.336 2.304c-.128 1.6-.272 3.072-.432 4.416-.16 1.344.272 2.752 1.296 4.224.64 1.152 1.472 1.952 2.496 2.4 1.536.512 3.008.288 4.416-.672 1.408-.96 2.56-1.984 3.456-3.072a37.155 37.155 0 0 0 3.504-4.752 174.854 174.854 0 0 0 3.024-5.04c.128-.192.288-.464.48-.816.192-.352.224-.656.096-.912s-.304-.304-.528-.144c-.224.16-.4.304-.528.432a6.939 6.939 0 0 0-1.152 2.064 6.939 6.939 0 0 1-1.152 2.064l-2.88 4.224a16.383 16.383 0 0 1-3.552 3.744c-.512.384-1.072.768-1.68 1.152-.608.384-1.136.192-1.584-.576-.512-.832-.736-1.632-.672-2.4.064-.768.16-1.6.288-2.496.32-1.856.624-3.712.912-5.568.288-1.856.592-3.712.912-5.568.064-.448.24-1.136.528-2.064.288-.928.56-1.92.816-2.976.256-1.056.464-2.064.624-3.024.16-.96.208-1.696.144-2.208-.128-.704-.528-1.152-1.2-1.344-.672-.192-1.296-.224-1.872-.096-.704.256-1.264.752-1.68 1.488a92.204 92.204 0 0 1-1.2 2.064c-.384.576-.896 1.328-1.536 2.256a51.921 51.921 0 0 1-2.064 2.784 29.632 29.632 0 0 1-2.256 2.544c-.768.768-1.472 1.312-2.112 1.632-.576.256-.96.272-1.152.048-.192-.224-.288-.56-.288-1.008 0-.448.048-.912.144-1.392.096-.48.176-.848.24-1.104.192-.96.448-1.904.768-2.832.32-.928.64-1.872.96-2.832.192-.64.432-1.408.72-2.304a9.907 9.907 0 0 0 .48-2.688c.032-.896-.096-1.696-.384-2.4-.288-.704-.912-1.216-1.872-1.536-.896-.32-1.552-.272-1.968.144-.416.416-.592 1.072-.528 1.968.064.96-.048 1.968-.336 3.024a45.246 45.246 0 0 0-.72 3.024 36.225 36.225 0 0 1-1.68 5.904 13.282 13.282 0 0 0-.816 6c.077.697.243 1.236.496 1.616zM38.668 33.344a8.619 8.619 0 0 0-2.88-.672 7.15 7.15 0 0 0-2.88.384c-1.088.384-1.84 1.168-2.256 2.352-.416 1.184-.656 2.32-.72 3.408-.064.448-.08.928-.048 1.44.032.512.144.992.336 1.44.256.512.608.832 1.056.96.448.128.8.416 1.056.864.32.512.464.928.432 1.248-.032.32-.112.736-.24 1.248-.128.576.112 1.072.72 1.488.608.416 1.104.784 1.488 1.104 2.048 1.6 4.384 2.432 7.008 2.496.384.064.912.144 1.584.24s1.04-.144 1.104-.72c.064-1.6.064-3.264 0-4.992a24.561 24.561 0 0 0-.672-4.944 13.793 13.793 0 0 0-1.824-4.272 9.389 9.389 0 0 0-3.264-3.072zm-8.928 32.16c.832.96 1.792 1.392 2.88 1.296a7.946 7.946 0 0 0 3.072-.912c2.24-1.28 4-3.04 5.28-5.28a28.901 28.901 0 0 0 2.88-7.008c.128-.384.08-.656-.144-.816a1.661 1.661 0 0 0-.816-.288 5.808 5.808 0 0 0-1.056 0c-.384.032-.704.048-.96.048a22.012 22.012 0 0 1-3.792-.72 14.355 14.355 0 0 1-3.6-1.584c-.128-.064-.32-.208-.576-.432a10.159 10.159 0 0 0-.864-.672c-.32-.224-.624-.4-.912-.528-.288-.128-.496-.128-.624 0-.32.32-.608.768-.864 1.344a11.922 11.922 0 0 0-.576 1.536c-1.024 2.496-1.472 4.992-1.344 7.488.064.96.272 2.112.624 3.456.352 1.344.816 2.368 1.392 3.072zm24.384-4.896c.256.576.512 1.2.768 1.872a2.67 2.67 0 0 0 1.344 1.488c.448.256 1.04.256 1.776 0s1.264-.544 1.584-.864a7.98 7.98 0 0 0 1.488-1.776 46.32 46.32 0 0 0 1.104-1.872c.448-.704.896-1.424 1.344-2.16.448-.736.832-1.488 1.152-2.256a43.181 43.181 0 0 0 2.16-4.848 36.745 36.745 0 0 0 1.488-5.136c.384-1.664.816-3.344 1.296-5.04a24.9 24.9 0 0 1 1.872-4.752c.384-.704.544-1.248.48-1.632-.064-.384-.544-.544-1.44-.48-1.728.064-3.232.544-4.512 1.44a17.273 17.273 0 0 0-3.456 3.216 35.994 35.994 0 0 0-2.784 3.888c-.832 1.408-1.632 3.072-2.4 4.992A60.45 60.45 0 0 0 55.42 52.4c-.544 1.888-.944 3.584-1.2 5.088s-.288 2.544-.096 3.12zm4.032 33.408c1.216-2.496 2.112-5.024 2.688-7.584.32-1.6.624-3.168.912-4.704.288-1.536.592-3.104.912-4.704.192-.832.368-1.648.528-2.448.16-.8.336-1.616.528-2.448.128-.704.32-1.424.576-2.16a6.552 6.552 0 0 0 .384-2.16 9.277 9.277 0 0 0-1.92 1.632 47.808 47.808 0 0 1-1.728 1.824 28.54 28.54 0 0 0-1.968 1.968c-.608.672-1.232 1.36-1.872 2.064a52.48 52.48 0 0 0-3.408 4.176 44.316 44.316 0 0 0-2.928 4.56 79.188 79.188 0 0 0-2.448 4.944c-.8 1.76-1.264 3.536-1.392 5.328 0 .704.032 1.44.096 2.208.064.768.416 1.408 1.056 1.92.832.768 1.744 1.104 2.736 1.008.992-.096 1.968-.432 2.928-1.008.96-.576 1.824-1.28 2.592-2.112.768-.832 1.344-1.6 1.728-2.304zm19.008-61.824a97.76 97.76 0 0 0-.528 1.44c-.16.448-.336.928-.528 1.44a25.194 25.194 0 0 0 1.536-1.92c.512-.704.8-1.28.864-1.728.064-.256-.064-.384-.384-.384s-.64.384-.96 1.152zm8.485 17.18c.015.033.034.098.059.196.064.256.192.592.384 1.008.192.416.464.832.816 1.248.352.416.816.688 1.392.816.832.256 1.696.08 2.592-.528.896-.608 1.6-1.168 2.112-1.68a17.4 17.4 0 0 0 3.456-4.608c.448-.896.848-1.856 1.2-2.88.352-1.024.464-2.016.336-2.976a14.197 14.197 0 0 0-.624-2.256c-.288-.8-.816-1.264-1.584-1.392-.832-.128-1.68.08-2.544.624-.864.544-1.552 1.072-2.064 1.584a14.898 14.898 0 0 0-3.36 5.136 265.785 265.785 0 0 0-2.171 5.708zm56.507-47.42c-.64-.128-1.296.032-1.968.48-.672.448-1.232.896-1.68 1.344-1.088.96-2 2.08-2.736 3.36a114.193 114.193 0 0 0-2.16 3.936 49.613 49.613 0 0 0-1.872 4.704c-.544 1.6-1.136 3.2-1.776 4.8a85.705 85.705 0 0 0-1.584 4.848 29.46 29.46 0 0 0-1.008 4.944c.96-.704 1.824-1.584 2.592-2.64a46.755 46.755 0 0 1 2.304-2.928 50.444 50.444 0 0 0 2.448-3.216 65.771 65.771 0 0 0 2.16-3.312c.64-1.088 1.296-2.16 1.968-3.216a36.904 36.904 0 0 0 1.872-3.312c.256-.448.576-1.184.96-2.208a21.16 21.16 0 0 0 .912-3.168c.224-1.088.336-2.064.336-2.928 0-.864-.256-1.36-.768-1.488zm13.093 47.42l-.037.1c0-.118.012-.152.037-.1zm0 0c.015.033.034.098.059.196.064.256.192.592.384 1.008.192.416.464.832.816 1.248.352.416.816.688 1.392.816.832.256 1.696.08 2.592-.528.896-.608 1.6-1.168 2.112-1.68a17.4 17.4 0 0 0 3.456-4.608c.448-.896.848-1.856 1.2-2.88.352-1.024.464-2.016.336-2.976a14.197 14.197 0 0 0-.624-2.256c-.288-.8-.816-1.264-1.584-1.392-.832-.128-1.68.08-2.544.624-.864.544-1.552 1.072-2.064 1.584a14.898 14.898 0 0 0-3.36 5.136 265.785 265.785 0 0 0-2.171 5.708z" fill="#F3C548" fill-rule="evenodd"/></svg>