<?xml version="1.0" encoding="UTF-8"?>
<svg width="202px" height="101px" viewBox="0 0 202 101" version="1.1" xmlns="http://www.w3.org/2000/svg" xmlns:xlink="http://www.w3.org/1999/xlink">
    <!-- Generator: Sketch 41.2 (35397) - http://www.bohemiancoding.com/sketch -->
    <title>together</title>
    <desc>Created with Sketch.</desc>
    <defs></defs>
    <g id="Page-1" stroke="none" stroke-width="1" fill="none" fill-rule="evenodd">
        <g id="together" fill="#F3C548">
            <path d="M172.411823,53.7764623 C171.619162,55.8228785 170.701895,57.6200424 169.66,59.168 C168.539994,60.832008 167.372006,62.239994 166.156,63.392 C164.939994,64.544006 163.740006,65.407997 162.556,65.984 C161.371994,66.560003 160.332004,66.88 159.436,66.944 C158.859997,67.072001 158.316003,66.976002 157.804,66.656 C157.291997,66.335998 156.844002,65.920003 156.46,65.408 C156.075998,64.895997 155.740001,64.352003 155.452,63.776 C155.163999,63.199997 154.924001,62.688002 154.732,62.24 C154.283998,61.023994 154.076,59.792006 154.108,58.544 C154.14,57.295994 154.219999,56.032006 154.348,54.752 C154.412,54.303998 154.476,53.872002 154.54,53.456 C154.604,53.039998 154.668,52.640002 154.732,52.256 C154.732,52.192 154.859999,52.223999 155.116,52.352 C155.244001,52.480001 155.403999,52.576 155.596,52.64 C156.364004,53.280003 157.291995,53.663999 158.38,53.792 C159.596006,53.920001 160.603996,53.680003 161.404,53.072 C162.204004,52.463997 162.987996,51.744004 163.756,50.912 C164.588004,50.079996 165.323997,49.104006 165.964,47.984 C166.604003,46.863994 167.179997,45.760005 167.692,44.672 C168.076002,43.839996 168.331999,42.960005 168.46,42.032 C168.588001,41.103995 168.572001,40.192004 168.412,39.296 C168.251999,38.399996 167.948002,37.584004 167.5,36.848 C167.051998,36.111996 166.412004,35.552002 165.58,35.168 C164.555995,34.783998 163.564005,34.624 162.604,34.688 C160.61999,34.688 158.972007,35.311994 157.66,36.56 C156.347993,37.808006 155.052006,39.263992 153.772,40.928 C153.259997,41.632004 152.796002,42.399996 152.38,43.232 C151.963998,44.064004 151.596002,44.927996 151.276,45.824 C150.571996,47.552009 150.044002,49.45599 149.692,51.536 C149.417056,53.1606667 149.288537,54.7365074 149.306441,56.2635508 C149.259982,56.3748472 149.212502,56.4789969 149.164,56.576 C148.843998,57.536005 148.476002,58.447996 148.06,59.312 C147.643998,60.176004 147.212002,61.055996 146.764,61.952 C146.571999,62.272002 146.268002,62.879996 145.852,63.776 C145.435998,64.672004 144.940003,65.535996 144.364,66.368 C143.787997,67.200004 143.180003,67.823998 142.54,68.24 C141.899997,68.656002 141.260003,68.544003 140.62,67.904 C140.043997,67.327997 139.724,66.528005 139.66,65.504 C139.596,64.479995 139.564,63.584004 139.564,62.816 C139.564,61.727995 139.659999,60.720005 139.852,59.792 C140.044001,58.863995 140.235999,57.920005 140.428,56.96 C140.620001,55.935995 140.779999,54.928005 140.908,53.936 C141.036001,52.943995 141.227999,51.968005 141.484,51.008 C141.676001,49.983995 141.835999,48.976005 141.964,47.984 C142.092001,46.991995 142.188,45.952005 142.252,44.864 C142.252,44.095996 142.3,43.264004 142.396,42.368 C142.492,41.471996 142.508,40.592004 142.444,39.728 C142.38,38.863996 142.188002,38.048004 141.868,37.28 C141.547998,36.511996 140.972004,35.872003 140.14,35.36 C138.859994,34.591996 137.580006,34.383998 136.3,34.736 C135.019994,35.088002 133.900005,35.775995 132.94,36.8 C131.595993,38.144007 130.540004,39.743991 129.772,41.6 C129.003996,43.456009 128.236004,45.215992 127.468,46.88 C126.699996,48.544008 126.060003,50.303991 125.548,52.16 C125.035997,54.016009 124.428004,55.775992 123.724,57.44 C123.531999,56.095993 123.499999,54.752007 123.628,53.408 L124.012,49.376 C124.268001,47.135989 124.555998,44.928011 124.876,42.752 C125.196002,40.575989 125.579998,38.368011 126.028,36.128 C126.156001,35.487997 126.252,34.848003 126.316,34.208 C126.38,33.567997 126.571998,32.992003 126.892,32.48 C127.212002,31.967997 127.627997,31.488002 128.14,31.04 L129.676,29.696 C130.124002,29.183997 130.571998,28.704002 131.02,28.256 C131.468002,27.807998 131.915998,27.328003 132.364,26.816 C133.260004,25.727995 134.123996,24.624006 134.956,23.504 C135.788004,22.383994 136.587996,21.216006 137.356,20 C138.124004,18.783994 138.891996,17.584006 139.66,16.4 C140.428004,15.215994 141.067997,13.984006 141.58,12.704 C142.156003,11.423994 142.699997,10.112007 143.212,8.768 C143.724003,7.423993 144.043999,6.048007 144.172,4.64 C144.236,4.127997 144.3,3.568003 144.364,2.96 C144.428,2.351997 144.300002,1.856002 143.98,1.472 C143.531998,1.023998 143.004003,0.752 142.396,0.656 C141.787997,0.56 141.148003,0.575999 140.476,0.704 C139.803997,0.832001 139.148003,1.039999 138.508,1.328 C137.867997,1.616001 137.324002,1.887999 136.876,2.144 C135.595994,2.784003 134.444005,3.711994 133.42,4.928 C132.331995,6.208006 131.356004,7.535993 130.492,8.912 C129.627996,10.288007 128.844004,11.743992 128.14,13.28 C126.539992,16.416016 125.228005,19.679983 124.204,23.072 C123.179995,26.464017 122.316004,29.887983 121.612,33.344 C120.907996,37.056019 120.348002,40.799981 119.932,44.576 C119.515998,48.352019 119.244001,52.159981 119.116,56 C119.085816,56.4527618 119.066309,56.9055202 119.057478,57.3582785 C118.524335,58.3790286 117.967844,59.3822653 117.388,60.368 C116.427995,62.000008 115.212007,63.455994 113.74,64.736 C113.227997,65.248003 112.700003,65.615999 112.156,65.84 C111.611997,66.064001 110.988004,66.048001 110.284,65.792 C109.515996,65.535999 108.908002,65.120003 108.46,64.544 C108.011998,63.967997 107.724001,63.296004 107.596,62.528 C107.467999,61.823996 107.356,61.168003 107.26,60.56 C107.164,59.951997 107.116,59.296004 107.116,58.592 C107.052,56.927992 107.147999,55.264008 107.404,53.6 C107.660001,51.935992 107.851999,50.272008 107.98,48.608 C108.108001,47.071992 108.299999,45.536008 108.556,44 L109.324,39.392 C109.708002,37.34399 110.075998,35.28001 110.428,33.2 C110.780002,31.11999 111.147998,29.024011 111.532,26.912 C111.596,26.463998 111.915997,26.24 112.492,26.24 C114.220009,26.624002 115.915992,26.816 117.58,26.816 C118.284004,26.944001 119.067996,26.688003 119.932,26.048 C120.796004,25.407997 121.291999,24.608005 121.42,23.648 C121.484,23.519999 121.484,23.392001 121.42,23.264 L121.228,22.88 C120.843998,22.751999 120.572001,22.895998 120.412,23.312 C120.251999,23.728002 120.076001,24.063999 119.884,24.32 C119.563998,24.832003 119.196002,25.279998 118.78,25.664 C118.363998,26.048002 117.836003,26.208 117.196,26.144 C116.427996,26.08 115.676004,25.984001 114.94,25.856 C114.203996,25.727999 113.484004,25.600001 112.78,25.472 C112.139997,25.408 111.915999,25.024004 112.108,24.32 C112.428002,22.911993 112.747998,21.520007 113.068,20.144 C113.388002,18.767993 113.707998,17.376007 114.028,15.968 C114.092,15.519998 114.203999,15.056002 114.364,14.576 C114.524001,14.095998 114.636,13.632002 114.7,13.184 C114.764,12.735998 114.748,12.320002 114.652,11.936 C114.556,11.551998 114.316002,11.232001 113.932,10.976 C113.035996,10.463997 112.332003,10.511997 111.82,11.12 C111.307997,11.728003 110.892002,12.511995 110.572,13.472 C110.059997,14.944007 109.580002,16.415993 109.132,17.888 L107.788,22.304 C107.659999,22.688002 107.532001,22.975999 107.404,23.168 C107.275999,23.360001 106.988002,23.360001 106.54,23.168 C106.027997,22.911999 105.532002,22.736 105.052,22.64 C104.571998,22.544 104.076003,22.432001 103.564,22.304 C103.051997,22.175999 102.572002,22.096 102.124,22.064 C101.675998,22.032 101.196003,21.984 100.684,21.92 C99.979996,21.984 99.388002,22.191998 98.908,22.544 C98.427998,22.896002 97.996002,23.327997 97.612,23.84 C97.612,23.968001 97.58,24.08 97.516,24.176 C97.452,24.272 97.483999,24.383999 97.612,24.512 C97.740001,24.640001 97.931999,24.656 98.188,24.56 C98.444001,24.464 98.635999,24.352001 98.764,24.224 C99.020001,23.839998 99.307998,23.6 99.628,23.504 C99.948002,23.408 100.299998,23.36 100.684,23.36 C102.60401,23.296 104.55599,23.647996 106.54,24.416 C106.860002,24.608001 107.02,24.799999 107.02,24.992 L106.06,29.408 C105.739998,30.880007 105.452001,32.351993 105.196,33.824 C104.811998,36.000011 104.444002,38.159989 104.092,40.304 C103.739998,42.448011 103.404002,44.607989 103.084,46.784 C102.955999,48.256007 102.764001,49.775992 102.508,51.344 C102.289945,52.6795872 102.187975,53.9803329 102.202087,55.2462648 C101.558748,56.6948885 100.844723,58.002127 100.06,59.168 C98.939994,60.832008 97.772006,62.239994 96.556,63.392 C95.339994,64.544006 94.140006,65.407997 92.956,65.984 C91.771994,66.560003 90.732004,66.88 89.836,66.944 C89.259997,67.072001 88.716003,66.976002 88.204,66.656 C87.691997,66.335998 87.244002,65.920003 86.86,65.408 C86.475998,64.895997 86.140001,64.352003 85.852,63.776 C85.563999,63.199997 85.324001,62.688002 85.132,62.24 C84.683998,61.023994 84.476,59.792006 84.508,58.544 C84.54,57.295994 84.619999,56.032006 84.748,54.752 C84.812,54.303998 84.876,53.872002 84.94,53.456 C85.004,53.039998 85.068,52.640002 85.132,52.256 C85.132,52.192 85.259999,52.223999 85.516,52.352 C85.644001,52.480001 85.803999,52.576 85.996,52.64 C86.764004,53.280003 87.691995,53.663999 88.78,53.792 C89.996006,53.920001 91.003996,53.680003 91.804,53.072 C92.604004,52.463997 93.387996,51.744004 94.156,50.912 C94.988004,50.079996 95.723997,49.104006 96.364,47.984 C97.004003,46.863994 97.579997,45.760005 98.092,44.672 C98.476002,43.839996 98.731999,42.960005 98.86,42.032 C98.988001,41.103995 98.972001,40.192004 98.812,39.296 C98.651999,38.399996 98.348002,37.584004 97.9,36.848 C97.451998,36.111996 96.812004,35.552002 95.98,35.168 C94.955995,34.783998 93.964005,34.624 93.004,34.688 C91.01999,34.688 89.372007,35.311994 88.06,36.56 C86.747993,37.808006 85.452006,39.263992 84.172,40.928 C83.659997,41.632004 83.196002,42.399996 82.78,43.232 C82.363998,44.064004 81.996002,44.927996 81.676,45.824 C80.971996,47.552009 80.444002,49.45599 80.092,51.536 C80.0813555,51.5988993 80.0709304,51.6617255 80.0607249,51.7244785 C79.9194176,51.8889835 79.785843,52.034157 79.66,52.16 C78.571995,53.120005 77.532005,54.127995 76.54,55.184 C75.547995,56.240005 74.444006,57.311995 73.228,58.4 C72.779998,58.848002 72.332002,59.327997 71.884,59.84 C71.435998,60.352003 70.924003,60.767998 70.348,61.088 C70.219999,60.319996 70.267999,59.456005 70.492,58.496 C70.716001,57.535995 70.891999,56.672004 71.02,55.904 C71.212001,54.943995 71.387999,53.984005 71.548,53.024 C71.708001,52.063995 71.883999,51.104005 72.076,50.144 C72.204001,49.247996 72.363999,48.336005 72.556,47.408 C72.748001,46.479995 72.907999,45.568004 73.036,44.672 L73.42,42.368 C73.548001,41.599996 73.771998,40.864004 74.092,40.16 C74.540002,39.263996 75.083997,38.384004 75.724,37.52 C76.364003,36.655996 76.939997,35.776004 77.452,34.88 C77.900002,34.239997 78.363998,33.552004 78.844,32.816 C79.324002,32.079996 79.468001,31.328004 79.276,30.56 C79.147999,30.175998 78.924002,29.952 78.604,29.888 C78.283998,29.824 77.900002,29.84 77.452,29.936 C77.003998,30.032 76.588002,30.159999 76.204,30.32 C75.819998,30.480001 75.532001,30.592 75.34,30.656 C75.019998,30.848001 74.716001,31.071999 74.428,31.328 C74.139999,31.584001 73.852001,31.807999 73.564,32 C73.275999,32.192001 72.988001,32.32 72.7,32.384 C72.411999,32.448 72.076002,32.384001 71.692,32.192 C70.859996,31.743998 69.932005,31.568 68.908,31.664 C67.883995,31.76 66.924004,31.903999 66.028,32.096 C65.259996,32.224001 64.524004,32.479998 63.82,32.864 C63.115996,33.248002 62.412004,33.663998 61.708,34.112 C58.763985,36.224011 56.33201,38.911984 54.412,42.176 C53.451995,43.776008 52.620004,45.59999 51.916,47.648 C51.7599009,48.0850768 51.6228394,48.5259577 51.5048145,48.970646 C51.2941208,49.0989309 51.0471829,49.2660487 50.764,49.472 C50.315998,49.792002 49.820003,49.984 49.276,50.048 C48.731997,50.112 48.236002,50.239999 47.788,50.432 C47.531999,50.560001 47.228002,50.703999 46.876,50.864 C46.523998,51.024001 46.188002,51.040001 45.868,50.912 C45.739999,49.567993 45.676,48.272006 45.676,47.024 C45.676,45.775994 45.596001,44.544006 45.436,43.328 C45.275999,42.111994 45.004002,40.880006 44.62,39.632 C44.235998,38.383994 43.628004,37.120006 42.796,35.84 C41.899996,34.431993 40.796007,33.312004 39.484,32.48 C38.171993,31.647996 36.684008,31.264 35.02,31.328 C33.291991,31.328 31.788006,31.839995 30.508,32.864 C29.227994,33.888005 28.300003,35.199992 27.724,36.8 C27.083997,38.400008 26.923998,40.19199 27.244,42.176 C27.372001,42.496002 27.484,42.879998 27.58,43.328 C27.676,43.776002 27.628001,44.159998 27.436,44.48 C27.115998,44.928002 26.828001,45.359998 26.572,45.776 C26.315999,46.192002 26.028002,46.591998 25.708,46.976 C24.619995,48.640008 23.756003,50.399991 23.116,52.256 C22.5648743,53.8542649 22.369693,55.5236973 22.5304542,57.2643336 C21.9824393,58.3174892 21.4096234,59.3520405 20.812,60.368 C19.851995,62.000008 18.636007,63.455994 17.164,64.736 C16.651997,65.248003 16.124003,65.615999 15.58,65.84 C15.035997,66.064001 14.412004,66.048001 13.708,65.792 C12.939996,65.535999 12.332002,65.120003 11.884,64.544 C11.435998,63.967997 11.148001,63.296004 11.02,62.528 C10.891999,61.823996 10.78,61.168003 10.684,60.56 C10.588,59.951997 10.54,59.296004 10.54,58.592 C10.476,56.927992 10.571999,55.264008 10.828,53.6 C11.084001,51.935992 11.275999,50.272008 11.404,48.608 C11.532001,47.071992 11.723999,45.536008 11.98,44 L12.748,39.392 C13.132002,37.34399 13.499998,35.28001 13.852,33.2 C14.204002,31.11999 14.571998,29.024011 14.956,26.912 C15.02,26.463998 15.339997,26.24 15.916,26.24 C17.644009,26.624002 19.339992,26.816 21.004,26.816 C21.708004,26.944001 22.491996,26.688003 23.356,26.048 C24.220004,25.407997 24.715999,24.608005 24.844,23.648 C24.908,23.519999 24.908,23.392001 24.844,23.264 L24.652,22.88 C24.267998,22.751999 23.996001,22.895998 23.836,23.312 C23.675999,23.728002 23.500001,24.063999 23.308,24.32 C22.987998,24.832003 22.620002,25.279998 22.204,25.664 C21.787998,26.048002 21.260003,26.208 20.62,26.144 C19.851996,26.08 19.100004,25.984001 18.364,25.856 C17.627996,25.727999 16.908004,25.600001 16.204,25.472 C15.563997,25.408 15.339999,25.024004 15.532,24.32 C15.852002,22.911993 16.171998,21.520007 16.492,20.144 C16.812002,18.767993 17.131998,17.376007 17.452,15.968 C17.516,15.519998 17.627999,15.056002 17.788,14.576 C17.948001,14.095998 18.06,13.632002 18.124,13.184 C18.188,12.735998 18.172,12.320002 18.076,11.936 C17.98,11.551998 17.740002,11.232001 17.356,10.976 C16.459996,10.463997 15.756003,10.511997 15.244,11.12 C14.731997,11.728003 14.316002,12.511995 13.996,13.472 C13.483997,14.944007 13.004002,16.415993 12.556,17.888 L11.212,22.304 C11.083999,22.688002 10.956001,22.975999 10.828,23.168 C10.699999,23.360001 10.412002,23.360001 9.964,23.168 C9.451997,22.911999 8.956002,22.736 8.476,22.64 C7.995998,22.544 7.500003,22.432001 6.988,22.304 C6.475997,22.175999 5.996002,22.096 5.548,22.064 C5.099998,22.032 4.620003,21.984 4.108,21.92 C3.403996,21.984 2.812002,22.191998 2.332,22.544 C1.851998,22.896002 1.420002,23.327997 1.036,23.84 C1.036,23.968001 1.004,24.08 0.94,24.176 C0.876,24.272 0.907999,24.383999 1.036,24.512 C1.164001,24.640001 1.355999,24.656 1.612,24.56 C1.868001,24.464 2.059999,24.352001 2.188,24.224 C2.444001,23.839998 2.731998,23.6 3.052,23.504 C3.372002,23.408 3.723998,23.36 4.108,23.36 C6.02801,23.296 7.97999,23.647996 9.964,24.416 C10.284002,24.608001 10.444,24.799999 10.444,24.992 L9.484,29.408 C9.163998,30.880007 8.876001,32.351993 8.62,33.824 C8.235998,36.000011 7.868002,38.159989 7.516,40.304 C7.163998,42.448011 6.828002,44.607989 6.508,46.784 C6.379999,48.256007 6.188001,49.775992 5.932,51.344 C5.675999,52.912008 5.58,54.431993 5.644,55.904 C5.708,59.552018 6.859989,62.815986 9.1,65.696 C10.060005,66.976006 11.339992,67.711999 12.94,67.904 C14.540008,68.096001 15.915994,67.712005 17.068,66.752 C17.900004,66.047996 18.667996,65.280004 19.372,64.448 C20.076004,63.615996 20.747997,62.752004 21.388,61.856 C21.9381359,61.0558029 22.4296431,60.255615 22.8625315,59.4554219 C23.0976721,60.5673443 23.4541601,61.7035313 23.932,62.864 C24.604003,64.496008 25.643993,65.759996 27.052,66.656 C28.204006,67.360004 29.515993,67.807999 30.988,68 C32.460007,68.192001 33.835994,68.032003 35.116,67.52 C36.780008,66.815996 38.203994,65.776007 39.388,64.4 C40.572006,63.023993 41.579996,61.568008 42.412,60.032 C43.372005,58.239991 44.107997,56.38401 44.62,54.464 C44.812001,53.631996 45.083998,53.072001 45.436,52.784 C45.788002,52.495999 46.347996,52.224001 47.116,51.968 C47.884004,51.775999 48.571997,51.616001 49.18,51.488 C49.788003,51.359999 50.363997,51.200001 50.908,51.008 C50.9716828,50.9855237 51.0353655,50.9619512 51.0990482,50.9372824 C50.965655,51.6865658 50.8219734,52.4461332 50.668,53.216 C50.347998,54.880008 50.156,56.655991 50.092,58.544 C50.028,60.432009 50.571994,62.079993 51.724,63.488 C52.236003,64.064003 52.795997,64.591998 53.404,65.072 C54.012003,65.552002 54.763996,65.728001 55.66,65.6 C56.428004,65.536 57.211996,65.408001 58.012,65.216 C58.812004,65.023999 59.531997,64.640003 60.172,64.064 C61.132005,63.103995 61.883997,62.208004 62.428,61.376 C62.972003,60.543996 63.435998,59.744004 63.82,58.976 C64.204002,58.207996 64.571998,57.424004 64.924,56.624 C65.276002,55.823996 65.771997,55.008004 66.412,54.176 C66.604001,54.688003 66.636001,55.247997 66.508,55.856 C66.379999,56.464003 66.284,57.023997 66.22,57.536 C65.963999,58.752006 65.740001,59.967994 65.548,61.184 C65.355999,62.400006 65.132001,63.647994 64.876,64.928 C64.747999,65.568003 64.540001,66.047998 64.252,66.368 C63.963999,66.688002 63.596002,67.103997 63.148,67.616 C61.419991,69.408009 59.708008,71.199991 58.012,72.992 C56.315992,74.784009 54.732007,76.67199 53.26,78.656 C52.043994,80.256008 50.764007,82.255988 49.42,84.656 C48.075993,87.056012 47.084003,89.391989 46.444,91.664 C45.803997,93.936011 45.723998,95.919992 46.204,97.616 C46.684002,99.312008 48.139988,100.223999 50.572,100.352 C51.916007,100.416 53.131995,100.176003 54.22,99.632 C55.308005,99.087997 56.283996,98.384004 57.148,97.52 C58.012004,96.655996 58.795996,95.680005 59.5,94.592 C60.204004,93.503995 60.875997,92.416005 61.516,91.328 C62.924007,88.895988 64.059996,86.368013 64.924,83.744 C65.788004,81.119987 66.571996,78.464013 67.276,75.776 C67.660002,74.431993 67.995999,73.088007 68.284,71.744 C68.572001,70.399993 68.843999,69.056007 69.1,67.712 C69.228001,67.071997 69.292,66.384004 69.292,65.648 C69.292,64.911996 69.451998,64.256003 69.772,63.68 C70.028001,63.167997 70.411997,62.688002 70.924,62.24 C71.436003,61.791998 71.915998,61.376002 72.364,60.992 C73.388005,59.967995 74.379995,58.944005 75.34,57.92 C76.300005,56.895995 77.291995,55.904005 78.316,54.944 L79.756,53.504 C79.7826067,53.4773933 79.8093263,53.4507866 79.8361587,53.4241799 C79.6939119,54.8332944 79.6671927,56.2038944 79.756,57.536 C79.82,59.264009 80.219996,60.927992 80.956,62.528 C81.692004,64.128008 82.795993,65.439995 84.268,66.464 C85.484006,67.360004 86.795993,67.871999 88.204,68 C89.612007,68.128001 90.987993,67.984002 92.332,67.568 C93.676007,67.151998 94.939994,66.512004 96.124,65.648 C97.308006,64.783996 98.315996,63.808005 99.148,62.72 C100.476655,61.0749992 101.539471,59.3831132 102.336479,57.6442926 C102.685194,60.5980087 103.798361,63.2818923 105.676,65.696 C106.636005,66.976006 107.915992,67.711999 109.516,67.904 C111.116008,68.096001 112.491994,67.712005 113.644,66.752 C114.476004,66.047996 115.243996,65.280004 115.948,64.448 C116.652004,63.615996 117.323997,62.752004 117.964,61.856 C118.375188,61.2579086 118.753623,60.6598222 119.09931,60.061735 C119.110437,60.6278222 119.116,61.1939085 119.116,61.76 L119.116,63.968 C119.116,64.736004 119.275998,65.407997 119.596,65.984 C119.788001,66.368002 120.139997,66.751998 120.652,67.136 C121.164003,67.520002 121.659998,67.791999 122.14,67.952 C122.620002,68.112001 123.035998,68.096001 123.388,67.904 C123.740002,67.711999 123.884,67.232004 123.82,66.464 C123.499998,64.41599 123.643997,62.41601 124.252,60.464 C124.860003,58.51199 125.451997,56.608009 126.028,54.752 C126.348002,53.727995 126.715998,52.736005 127.132,51.776 C127.548002,50.815995 127.915998,49.824005 128.236,48.8 C128.556002,47.903996 128.891998,47.040004 129.244,46.208 C129.596002,45.375996 129.995998,44.512004 130.444,43.616 C130.892002,42.719996 131.387997,41.856004 131.932,41.024 C132.476003,40.191996 133.099996,39.424004 133.804,38.72 C134.060001,38.463999 134.395998,38.144002 134.812,37.76 C135.228002,37.375998 135.595998,37.216 135.916,37.28 C136.300002,37.344 136.619999,37.535998 136.876,37.856 C137.132001,38.176002 137.323999,38.495998 137.452,38.816 C137.708001,39.648004 137.804,40.591995 137.74,41.648 C137.676,42.704005 137.644,43.775995 137.644,44.864 C137.58,45.888005 137.468001,46.895995 137.308,47.888 C137.147999,48.880005 136.972001,49.855995 136.78,50.816 C136.395998,52.80001 135.948003,54.81599 135.436,56.864 C134.923997,58.91201 134.763999,60.95999 134.956,63.008 C135.02,63.904004 135.211998,64.799996 135.532,65.696 C135.852002,66.592004 136.267997,67.375997 136.78,68.048 C137.292003,68.720003 137.947996,69.215998 138.748,69.536 C139.548004,69.856002 140.459995,69.888001 141.484,69.632 C143.148008,69.183998 144.523995,68.176008 145.612,66.608 C146.700005,65.039992 147.563997,63.520007 148.204,62.048 C148.588002,61.151996 148.955998,60.224005 149.308,59.264 C149.361615,59.1177782 149.414858,58.9715568 149.46773,58.8253356 C149.642014,60.0954568 150.004768,61.3296711 150.556,62.528 C151.292004,64.128008 152.395993,65.439995 153.868,66.464 C155.084006,67.360004 156.395993,67.871999 157.804,68 C159.212007,68.128001 160.587993,67.984002 161.932,67.568 C163.276007,67.151998 164.539994,66.512004 165.724,65.648 C166.908006,64.783996 167.915996,63.808005 168.748,62.72 C170.092007,61.055992 171.163996,59.344009 171.964,57.584 C172.418294,56.5845526 172.877744,55.5386785 173.342354,54.4463672 C173.868162,54.6114161 174.448707,54.6012937 175.084,54.416 C175.852004,54.191999 176.619996,53.808003 177.388,53.264 C178.156004,52.719997 178.763998,52.224002 179.212,51.776 C179.916004,51.071996 180.603997,50.368004 181.276,49.664 C181.948003,48.959996 182.571997,48.256004 183.148,47.552 C183.596002,46.975997 184.043998,46.256004 184.492,45.392 C184.940002,44.527996 185.483997,43.936002 186.124,43.616 C186.188,44.128003 186.124001,44.735996 185.932,45.44 C185.739999,46.144004 185.532001,46.863996 185.308,47.6 C185.083999,48.336004 184.844001,49.071996 184.588,49.808 C184.331999,50.544004 184.172,51.231997 184.108,51.872 C184.044,52.576004 183.932001,53.311996 183.772,54.08 C183.611999,54.848004 183.5,55.615996 183.436,56.384 C183.307999,57.984008 183.164001,59.455993 183.004,60.8 C182.843999,62.144007 183.275995,63.551993 184.3,65.024 C184.940003,66.176006 185.771995,66.975998 186.796,67.424 C188.332008,67.936003 189.803993,67.712005 191.212,66.752 C192.620007,65.791995 193.771996,64.768005 194.668,63.68 C195.948006,62.207993 197.115995,60.624008 198.172,58.928 C199.228005,57.231992 200.235995,55.552008 201.196,53.888 C201.324001,53.695999 201.483999,53.424002 201.676,53.072 C201.868001,52.719998 201.900001,52.416001 201.772,52.16 C201.643999,51.903999 201.468001,51.855999 201.244,52.016 C201.019999,52.176001 200.844001,52.319999 200.716,52.448 C200.203997,53.088003 199.820001,53.775996 199.564,54.512 C199.307999,55.248004 198.924003,55.935997 198.412,56.576 L195.532,60.8 C194.571995,62.208007 193.388007,63.455995 191.98,64.544 C191.467997,64.928002 190.908003,65.311998 190.3,65.696 C189.691997,66.080002 189.164002,65.888004 188.716,65.12 C188.203997,64.287996 187.98,63.488004 188.044,62.72 C188.108,61.951996 188.203999,61.120004 188.332,60.224 C188.652002,58.367991 188.955999,56.512009 189.244,54.656 C189.532001,52.799991 189.835998,50.944009 190.156,49.088 C190.22,48.639998 190.395999,47.952005 190.684,47.024 C190.972001,46.095995 191.243999,45.104005 191.5,44.048 C191.756001,42.991995 191.963999,41.984005 192.124,41.024 C192.284001,40.063995 192.332,39.328003 192.268,38.816 C192.139999,38.111996 191.740003,37.664001 191.068,37.472 C190.395997,37.279999 189.772003,37.247999 189.196,37.376 C188.491996,37.632001 187.932002,38.127996 187.516,38.864 C187.099998,39.600004 186.700002,40.287997 186.316,40.928 C185.931998,41.504003 185.420003,42.255995 184.78,43.184 C184.139997,44.112005 183.452004,45.039995 182.716,45.968 C181.979996,46.896005 181.228004,47.743996 180.46,48.512 C179.691996,49.280004 178.988003,49.823998 178.348,50.144 C177.771997,50.400001 177.388001,50.416001 177.196,50.192 C177.003999,49.967999 176.908,49.632002 176.908,49.184 C176.908,48.735998 176.956,48.272002 177.052,47.792 C177.148,47.311998 177.228,46.944001 177.292,46.688 C177.484001,45.727995 177.739998,44.784005 178.06,43.856 C178.380002,42.927995 178.699998,41.984005 179.02,41.024 C179.212001,40.383997 179.451999,39.616004 179.74,38.72 C180.028001,37.823996 180.188,36.928004 180.22,36.032 C180.252,35.135996 180.124001,34.336004 179.836,33.632 C179.547999,32.927996 178.924005,32.416002 177.964,32.096 C177.067996,31.775998 176.412002,31.823998 175.996,32.24 C175.579998,32.656002 175.404,33.311996 175.468,34.208 C175.532,35.168005 175.420001,36.175995 175.132,37.232 C174.843999,38.288005 174.604001,39.295995 174.412,40.256 C174.027998,42.24001 173.468004,44.20799 172.732,46.16 C171.995996,48.11201 171.723999,50.11199 171.916,52.16 C171.993437,52.8569328 172.158711,53.395752 172.411823,53.7764623 Z M38.668,33.344 C37.771996,32.959998 36.812005,32.736 35.788,32.672 C34.763995,32.608 33.804004,32.735998 32.908,33.056 C31.819995,33.440002 31.068002,34.223994 30.652,35.408 C30.235998,36.592006 29.996,37.727995 29.932,38.816 C29.868,39.264002 29.852,39.743997 29.884,40.256 C29.916,40.768003 30.027999,41.247998 30.22,41.696 C30.476001,42.208003 30.827998,42.527999 31.276,42.656 C31.724002,42.784001 32.075999,43.071998 32.332,43.52 C32.652002,44.032003 32.796,44.447998 32.764,44.768 C32.732,45.088002 32.652001,45.503997 32.524,46.016 C32.395999,46.592003 32.635997,47.087998 33.244,47.504 C33.852003,47.920002 34.347998,48.287998 34.732,48.608 C36.78001,50.208008 39.115987,51.04 41.74,51.104 C42.124002,51.168 42.651997,51.248 43.324,51.344 C43.996003,51.44 44.364,51.200003 44.428,50.624 C44.492,49.023992 44.492,47.360009 44.428,45.632 C44.364,43.903991 44.140002,42.256008 43.756,40.688 C43.371998,39.119992 42.764004,37.696006 41.932,36.416 C41.099996,35.135994 40.012007,34.112004 38.668,33.344 Z M29.74,65.504 C30.572004,66.464005 31.531995,66.896 32.62,66.8 C33.708005,66.704 34.731995,66.400003 35.692,65.888 C37.932011,64.607994 39.691994,62.848011 40.972,60.608 C42.252006,58.367989 43.211997,56.032012 43.852,53.6 C43.980001,53.215998 43.932001,52.944001 43.708,52.784 C43.483999,52.623999 43.212002,52.528 42.892,52.496 C42.571998,52.464 42.220002,52.464 41.836,52.496 C41.451998,52.528 41.132001,52.544 40.876,52.544 C39.595994,52.415999 38.332006,52.176002 37.084,51.824 C35.835994,51.471998 34.636006,50.944004 33.484,50.24 C33.355999,50.176 33.164001,50.032001 32.908,49.808 C32.651999,49.583999 32.364002,49.360001 32.044,49.136 C31.723998,48.911999 31.420001,48.736001 31.132,48.608 C30.843999,48.479999 30.636001,48.479999 30.508,48.608 C30.187998,48.928002 29.900001,49.375997 29.644,49.952 C29.387999,50.528003 29.196001,51.039998 29.068,51.488 C28.043995,53.984012 27.595999,56.479988 27.724,58.976 C27.788,59.936005 27.995998,61.087993 28.348,62.432 C28.700002,63.776007 29.163997,64.799996 29.74,65.504 Z M54.124,60.608 C54.380001,61.184003 54.635999,61.807997 54.892,62.48 C55.148001,63.152003 55.595997,63.647998 56.236,63.968 C56.684002,64.224001 57.275996,64.224001 58.012,63.968 C58.748004,63.711999 59.275998,63.424002 59.596,63.104 C60.172003,62.591997 60.667998,62.000003 61.084,61.328 C61.500002,60.655997 61.867998,60.032003 62.188,59.456 C62.636002,58.751996 63.083998,58.032004 63.532,57.296 C63.980002,56.559996 64.363998,55.808004 64.684,55.04 C65.516004,53.439992 66.235997,51.824008 66.844,50.192 C67.452003,48.559992 67.947998,46.848009 68.332,45.056 C68.716002,43.391992 69.147998,41.712008 69.628,40.016 C70.108002,38.319992 70.731996,36.736007 71.5,35.264 C71.884002,34.559996 72.044,34.016002 71.98,33.632 C71.916,33.247998 71.436004,33.088 70.54,33.152 C68.811991,33.216 67.308006,33.695996 66.028,34.592 C64.747994,35.488004 63.596005,36.559994 62.572,37.808 C61.547995,39.056006 60.620004,40.351993 59.788,41.696 C58.955996,43.104007 58.156004,44.76799 57.388,46.688 C56.619996,48.60801 55.964003,50.511991 55.42,52.4 C54.875997,54.288009 54.476001,55.983992 54.22,57.488 C53.963999,58.992008 53.931999,60.031997 54.124,60.608 Z M58.156,94.016 C59.372006,91.519988 60.267997,88.992013 60.844,86.432 C61.164002,84.831992 61.467999,83.264008 61.756,81.728 C62.044001,80.191992 62.347998,78.624008 62.668,77.024 C62.860001,76.191996 63.035999,75.376004 63.196,74.576 C63.356001,73.775996 63.531999,72.960004 63.724,72.128 C63.852001,71.423996 64.043999,70.704004 64.3,69.968 C64.556001,69.231996 64.684,68.512004 64.684,67.808 C63.979996,68.256002 63.340003,68.799997 62.764,69.44 C62.187997,70.080003 61.612003,70.687997 61.036,71.264 C60.331996,71.904003 59.676003,72.559997 59.068,73.232 C58.459997,73.904003 57.836003,74.591996 57.196,75.296 C55.979994,76.640007 54.844005,78.031993 53.788,79.472 C52.731995,80.912007 51.756004,82.431992 50.86,84.032 C50.027996,85.568008 49.212004,87.215991 48.412,88.976 C47.611996,90.736009 47.148001,92.511991 47.02,94.304 C47.02,95.008004 47.052,95.743996 47.116,96.512 C47.18,97.280004 47.531997,97.919997 48.172,98.432 C49.004004,99.200004 49.915995,99.536 50.908,99.44 C51.900005,99.344 52.875995,99.008003 53.836,98.432 C54.796005,97.855997 55.659996,97.152004 56.428,96.32 C57.196004,95.487996 57.771998,94.720004 58.156,94.016 Z M77.164,32.192 C76.971999,32.704003 76.796001,33.183998 76.636,33.632 C76.475999,34.080002 76.300001,34.559997 76.108,35.072 C76.620003,34.495997 77.131997,33.856004 77.644,33.152 C78.156003,32.447996 78.444,31.872002 78.508,31.424 C78.572,31.167999 78.444002,31.04 78.124,31.04 C77.803998,31.04 77.484002,31.423996 77.164,32.192 Z M85.648538,49.372414 C85.663663,49.40474 85.683484,49.469935 85.708,49.568 C85.772,49.824001 85.899999,50.159998 86.092,50.576 C86.284001,50.992002 86.555998,51.407998 86.908,51.824 C87.260002,52.240002 87.723997,52.511999 88.3,52.64 C89.132004,52.896001 89.995996,52.720003 90.892,52.112 C91.788004,51.503997 92.491997,50.944003 93.004,50.432 C94.412007,49.087993 95.563996,47.552009 96.46,45.824 C96.908002,44.927996 97.307998,43.968005 97.66,42.944 C98.012002,41.919995 98.124001,40.928005 97.996,39.968 C97.867999,39.263996 97.660001,38.512004 97.372,37.712 C97.083999,36.911996 96.556004,36.448001 95.788,36.32 C94.955996,36.191999 94.108004,36.399997 93.244,36.944 C92.379996,37.488003 91.692003,38.015997 91.18,38.528 C89.707993,40.000007 88.588004,41.71199 87.82,43.664 C87.065272,45.582266 86.341459,47.485052 85.648538,49.372414 Z M142.156,1.952 C141.515997,1.823999 140.860003,1.983998 140.188,2.432 C139.515997,2.880002 138.956002,3.327998 138.508,3.776 C137.419995,4.736005 136.508004,5.855994 135.772,7.136 C135.035996,8.416006 134.316004,9.727993 133.612,11.072 C132.907996,12.608008 132.284003,14.175992 131.74,15.776 C131.195997,17.376008 130.604003,18.975992 129.964,20.576 C129.387997,22.176008 128.860002,23.791992 128.38,25.424 C127.899998,27.056008 127.564001,28.703992 127.372,30.368 C128.332005,29.663996 129.195996,28.784005 129.964,27.728 C130.732004,26.671995 131.499996,25.696004 132.268,24.8 C133.164004,23.711995 133.979996,22.640005 134.716,21.584 C135.452004,20.527995 136.171996,19.424006 136.876,18.272 C137.516003,17.183995 138.171997,16.112005 138.844,15.056 C139.516003,13.999995 140.139997,12.896006 140.716,11.744 C140.972001,11.295998 141.291998,10.560005 141.676,9.536 C142.060002,8.511995 142.363999,7.456005 142.588,6.368 C142.812001,5.279995 142.924,4.304004 142.924,3.44 C142.924,2.575996 142.668003,2.080001 142.156,1.952 Z M155.248538,49.372414 C155.236349,49.405614 155.22417,49.438809 155.212,49.472 C155.212,49.353548 155.224179,49.320352 155.248538,49.372414 Z M155.248538,49.372414 C155.263663,49.40474 155.283484,49.469935 155.308,49.568 C155.372,49.824001 155.499999,50.159998 155.692,50.576 C155.884001,50.992002 156.155998,51.407998 156.508,51.824 C156.860002,52.240002 157.323997,52.511999 157.9,52.64 C158.732004,52.896001 159.595996,52.720003 160.492,52.112 C161.388004,51.503997 162.091997,50.944003 162.604,50.432 C164.012007,49.087993 165.163996,47.552009 166.06,45.824 C166.508002,44.927996 166.907998,43.968005 167.26,42.944 C167.612002,41.919995 167.724001,40.928005 167.596,39.968 C167.467999,39.263996 167.260001,38.512004 166.972,37.712 C166.683999,36.911996 166.156004,36.448001 165.388,36.32 C164.555996,36.191999 163.708004,36.399997 162.844,36.944 C161.979996,37.488003 161.292003,38.015997 160.78,38.528 C159.307993,40.000007 158.188004,41.71199 157.42,43.664 C156.665272,45.582266 155.941459,47.485052 155.248538,49.372414 Z" id="together-copy"></path>
        </g>
    </g>
</svg>