<?xml version="1.0" encoding="UTF-8"?>
<svg aria-labelledby="linkedin-title" width="512px" height="512px" enable-background="new 0 0 310 310" version="1.1" viewBox="0 0 310 310" xml:space="preserve" xmlns="http://www.w3.org/2000/svg"><g fill="#FFF">
	<title id="linkedin-title">LinkedIn</title>
	<path class="active-path" d="m72.16 99.73h-62.233c-2.762 0-5 2.239-5 5v199.93c0 2.762 2.238 5 5 5h62.233c2.762 0 5-2.238 5-5v-199.93c0-2.761-2.238-5-5-5z"/>
	<path class="active-path" d="M41.066,0.341C18.422,0.341,0,18.743,0,41.362C0,63.991,18.422,82.4,41.066,82.4   c22.626,0,41.033-18.41,41.033-41.038C82.1,18.743,63.692,0.341,41.066,0.341z"/>
	<path class="active-path" d="m230.45 94.761c-24.995 0-43.472 10.745-54.679 22.954v-12.985c0-2.761-2.238-5-5-5h-59.599c-2.762 0-5 2.239-5 5v199.93c0 2.762 2.238 5 5 5h62.097c2.762 0 5-2.238 5-5v-98.918c0-33.333 9.054-46.319 32.29-46.319 25.306 0 27.317 20.818 27.317 48.034v97.204c0 2.762 2.238 5 5 5h62.12c2.762 0 5-2.238 5-5v-109.66c0-49.565-9.451-100.23-79.546-100.23z"/>
</g> </svg>
