<svg xmlns="http://www.w3.org/2000/svg" width="110" height="116" viewBox="0 0 110 116">
  <g fill="none">
    <path fill="#FAC338" d="M45.2033062,47.7596749 L47.1468716,49.7032403 C49.2037514,45.7970728 51.8145109,42.1673919 54.9945608,38.9873418 C58.1746111,42.1673919 60.7853706,45.7970728 62.8422502,49.7050535 L64.7858156,47.7614881 C68.015724,44.5306732 72.392372,42.7149262 76.9593882,42.704048 L76.9403515,41.9280723 C73.0142405,33.3751153 64.3996406,27.8481013 54.9945608,27.8481013 C45.5894812,27.8481013 36.9748813,33.3751153 33.0478639,41.9262591 L33.0297336,42.7022349 C37.5949367,42.7131132 41.9724914,44.5306732 45.2033062,47.7596749 Z M32.7160798,70.5485232 L14.8804227,70.5485232 C17.3570181,80.1521294 26.0504845,87.257384 36.42916,87.257384 L49.4249405,87.257384 C49.4249405,78.0435786 41.9298854,70.5485232 32.7160798,70.5485232 Z M95.1086992,70.5485232 L77.2730418,70.5485232 C68.0592367,70.5485232 60.5641811,78.0435786 60.5641811,87.257384 L73.5599616,87.257384 C83.9377306,87.257384 92.6321037,80.1521294 95.1086992,70.5485232 L95.1086992,70.5485232 Z"/>
    <polygon fill="#000000" points="40.493 21.819 43.923 20.398 48.187 30.689 44.755 32.11"/>
    <polygon fill="#000000" points="37.649 14.959 41.08 13.539 42.5 16.969 39.07 18.389"/>
    <polygon fill="#000000" points="61.803 30.691 66.068 20.401 69.497 21.822 65.234 32.112"/>
    <polygon fill="#000000" points="67.487 16.971 68.909 13.541 72.339 14.962 70.918 18.392"/>
    <polygon fill="#000000" points="6.86 36.118 8.281 32.689 18.571 36.952 17.149 40.383"/>
    <polygon fill="#000000" points="0 33.276 1.421 29.846 4.852 31.267 3.43 34.698"/>
    <polygon fill="#000000" points="91.411 36.952 101.702 32.688 103.122 36.118 92.832 40.383"/>
    <polygon fill="#000000" points="105.134 31.268 108.563 29.847 109.985 33.277 106.554 34.699"/>
    <polygon fill="#000000" points="53.138 0 56.851 0 56.851 24.135 53.138 24.135"/>
    <polygon fill="#000000" points="16.923 16.539 19.548 13.913 36.614 30.979 33.989 33.605"/>
    <path fill="#000000" d="M106.977683,53.8396624 L106.977683,50.1265823 L88.7912052,50.1265823 C88.7612903,49.946186 88.7476925,49.7666964 88.7132451,49.5881132 C88.5119989,48.5927611 88.4122823,47.5720268 88.4122823,46.5531051 L88.4122823,38.4679095 L80.7431765,40.3833729 C79.51757,40.6879615 78.2602354,40.8438819 77.0019944,40.8438819 C71.89107,40.8438819 67.0856408,42.8336795 63.4731837,46.4488562 L63.2674051,46.6546346 C61.3292789,43.4111287 59.0140427,40.3815597 56.3071927,37.6747099 L54.9945608,36.3620781 L53.6819289,37.6747099 C50.9750791,40.3815597 48.6598432,43.4111287 46.7217168,46.6546346 L46.5159381,46.4488562 C42.9007614,42.8336795 38.0962387,40.8438819 32.9871274,40.8438819 C31.7297929,40.8438819 30.4715521,40.6879615 29.2459455,40.3833729 L21.5768393,38.4679095 L21.5768393,46.5531051 C21.5768393,47.5720268 21.4762164,48.5927611 21.275877,49.5881132 C21.2405229,49.7666964 21.2278316,49.946186 21.1979167,50.1265823 L3.01143844,50.1265823 L3.01143844,53.8396624 L20.92143,53.8396624 C21.0048293,57.0976726 21.9104363,60.2985726 23.5820478,63.1223629 L12.2941389,63.1223629 L12.2941389,64.978903 C12.2941389,78.2865243 23.1215386,89.1139241 36.42916,89.1139241 L45.8995088,89.1139241 C46.3572981,91.3657041 47.6554258,93.2965784 49.4249405,94.6354991 L49.4249405,115.105485 L60.5641811,115.105485 L60.5641811,94.6354991 C62.3336958,93.2965784 63.630917,91.363891 64.0896131,89.1139241 L73.5599616,89.1139241 C86.867583,89.1139241 97.6949827,78.2865243 97.6949827,64.978903 L97.6949827,63.1223629 L86.4070742,63.1223629 C88.0759659,60.2985726 88.9824796,57.0976726 89.0676918,53.8396624 L106.977683,53.8396624 Z M54.9945608,41.6715288 C61.1343784,48.3887955 64.9399228,56.9272483 65.8772581,65.9905723 C61.0074664,68.610397 57.1384659,72.851068 54.9945608,77.9891878 C52.8497495,72.8528812 48.9807489,68.610397 44.1109573,65.9905723 C45.049199,56.9290612 48.8547435,48.3887955 54.9945608,41.6715288 L54.9945608,41.6715288 Z M27.7121241,62.6400976 C25.0741693,59.1201048 24.0552479,54.6301424 24.9182489,50.3160436 C25.1657271,49.0831849 25.2899195,47.8167853 25.2899195,46.5531051 L25.2899195,43.2198542 L28.3457772,43.9831389 C29.8641878,44.3638747 31.4252043,44.556962 32.9871274,44.556962 C37.1045128,44.556962 40.9771394,46.1605847 43.8906744,49.0741199 L44.8796809,50.0631262 C42.6741331,54.573032 41.2173655,59.4301326 40.5673952,64.4612836 C38.1016779,63.6073478 35.467349,63.1223629 32.7160798,63.1223629 L28.0747296,63.1223629 L27.7121241,62.6400976 Z M16.0906185,66.835443 L32.7160798,66.835443 C43.3522054,66.835443 52.1127539,75.0058511 53.0546217,85.4008439 L36.42916,85.4008439 C25.7930346,85.4008439 17.0315796,77.2304358 16.0906185,66.835443 Z M56.8511009,111.392405 L53.1380207,111.392405 L53.1380207,96.352436 C53.7372265,96.4748154 54.3590947,96.5400844 54.9945608,96.5400844 C55.6291206,96.5400844 56.2509889,96.4748154 56.8511009,96.352436 L56.8511009,111.392405 Z M54.9945608,92.8270042 C52.5768889,92.8270042 50.5345133,91.2696135 49.7666964,89.1139241 L60.2224254,89.1139241 C59.4537018,91.2696135 57.4113265,92.8270042 54.9945608,92.8270042 L54.9945608,92.8270042 Z M73.5599616,85.4008439 L56.9345004,85.4008439 C57.8754615,75.0058511 66.6369165,66.835443 77.2730418,66.835443 L93.8985035,66.835443 C92.9566357,77.2304358 84.1960872,85.4008439 73.5599616,85.4008439 Z M77.2730418,63.1223629 C74.5217729,63.1223629 71.8874439,63.6073478 69.4235397,64.4594707 C68.7735692,59.4301326 67.3158952,54.5712191 65.1103474,50.0613133 L66.1002604,49.0723068 C69.0110759,46.1605847 72.8837025,44.556962 77.0019944,44.556962 C78.561198,44.556962 80.1249341,44.3638747 81.6415315,43.9831389 L84.6992022,43.2198542 L84.6992022,46.5531051 C84.6992022,47.8167853 84.8233947,49.081372 85.0717793,50.3160436 C85.9338739,54.6283295 84.915859,59.1201048 82.2779042,62.6400976 L81.914392,63.1223629 L77.2730418,63.1223629 Z"/>
    <polygon fill="#000000" points="73.372 30.978 90.438 13.912 93.064 16.539 75.997 33.605"/>
  </g>
</svg>
