<svg xmlns="http://www.w3.org/2000/svg" viewBox="0 0 327 190.1"><g fill="#08AFB2"><path d="M174.1 27.9s.1.2.4.5c.3.3.7.7 1.2 1.4 1.1 1.2 2.6 3.1 4.1 5.7.2.3.4.7.6 1 .2.4.4.7.5 1.1.2.4.4.8.5 1.2.2.4.4.8.5 1.2.7 1.7 1.3 3.6 1.7 5.6.5 2.1.8 4.3.8 6.7.1 2.4 0 4.9-.5 7.4-.9 5.1-3 10.6-6.7 15.4-.2.3-.5.6-.7.9-.2.3-.5.6-.7.9-.3.3-.5.6-.8.9l-.4.4-.4.4-.8.8c-.3.3-.6.5-.9.8-.6.6-1.2 1-1.8 1.6-1.3 1-2.6 1.9-4 2.8-.7.4-1.4.8-2.2 1.2-.4.2-.8.4-1.1.5l-.6.3-.6.2c-3.1 1.3-6.5 2.2-9.9 2.5-3.5.4-7 .3-10.5-.4-1.8-.3-3.5-.8-5.2-1.4-1.7-.6-3.4-1.3-5-2.2-1.6-.8-3.1-1.8-4.6-2.9l-1.1-.8c-.4-.3-.7-.6-1-.9-.3-.3-.7-.6-1-.9l-1-1-.9-.9c-.1-.2-.3-.3-.4-.5l-.5-.5c-.3-.4-.6-.7-.9-1.1l-.8-1.1c-1.1-1.5-2.1-3-2.9-4.6-.8-1.6-1.6-3.3-2.2-5-.6-1.7-1.1-3.4-1.4-5.2-.7-3.5-.8-7.1-.4-10.5.4-3.5 1.3-6.8 2.5-9.9l.2-.6.3-.6c.2-.4.3-.8.5-1.1.4-.7.8-1.5 1.2-2.2.8-1.4 1.8-2.7 2.8-4l1.5-1.8c.3-.3.5-.6.8-.9l.8-.8.2-.2.1-.1.1-.1.1-.1.4-.4c.3-.3.6-.5.8-.8.3-.2.6-.5.9-.7.3-.2.6-.5.9-.7 4.9-3.6 10.3-5.8 15.4-6.7 5.2-.9 10-.6 14.1.4 2.1.5 3.9 1.1 5.6 1.7.4.2.8.3 1.2.5.4.2.8.3 1.2.5.4.2.7.4 1.1.5.3.2.7.4 1 .6 2.6 1.5 4.5 3 5.7 4.1.6.5 1 1 1.4 1.2.6.6.8.7.8.7zm0 0s-.2-.1-.5-.4c-.3-.3-.7-.7-1.4-1.2-1.2-1.1-3.1-2.5-5.7-4s-6-2.9-10.1-3.7c-2-.4-4.3-.6-6.6-.6s-4.8.3-7.3.8c-2.5.6-5 1.4-7.5 2.6-2.5 1.2-4.8 2.8-7 4.6-.3.2-.5.5-.8.7-.3.2-.5.5-.8.7l-.8.8-.4.4-.2.4c-.2.3-.5.5-.7.8-.2.3-.5.6-.7.9-.5.6-.9 1.2-1.3 1.8-.8 1.2-1.7 2.5-2.3 3.9-.4.7-.7 1.4-1 2.1-.2.4-.3.7-.4 1.1l-.2.5-.2.5c-1 2.9-1.7 6-1.9 9.2-.1 1.6-.1 3.2 0 4.7 0 .4.1.8.1 1.2 0 .4.1.8.2 1.2l.1.6.1.6c.1.4.1.8.2 1.2.7 3.1 1.8 6.2 3.4 9l.6 1.1c.2.3.4.7.6 1l.3.5.3.5c.2.3.5.7.7 1l.7 1c.2.3.5.6.8.9l.4.4c.1.1.3.3.4.5l.9.9.8.8c.3.3.6.5.9.8.3.3.6.5.9.8l1 .7c.3.2.7.5 1 .7l.5.3.5.3c.3.2.7.4 1 .6l1.1.6c2.8 1.5 5.9 2.7 9 3.4 6.3 1.4 12.8.9 18.6-1.2l.5-.2.5-.2c.4-.1.7-.3 1.1-.4.7-.3 1.4-.6 2.1-1 1.4-.7 2.6-1.5 3.9-2.3.6-.4 1.2-.9 1.8-1.3.3-.2.6-.4.9-.7.3-.3.6-.5.9-.8l.4-.4.4-.4.8-.8c.2-.3.5-.5.7-.8.2-.3.5-.5.7-.8 1.9-2.2 3.4-4.6 4.6-7 1.2-2.5 2-5 2.6-7.5.6-2.5.8-4.9.8-7.3 0-2.3-.2-4.5-.6-6.6-.8-4.1-2.2-7.5-3.7-10.1-1.5-2.6-2.9-4.5-4-5.7-.5-.6-1-1.1-1.2-1.4-.4-.1-.5-.3-.5-.3z"/><path d="M148.6 89.9c-2.2 0-4.5-.2-6.7-.6-1.6-.3-3.4-.8-5.2-1.4-1.6-.5-3.2-1.3-5-2.2-1.5-.8-3-1.7-4.7-2.9l-1.1-.8c-.2-.2-.5-.4-.7-.6-.1-.1-.2-.2-.4-.3-.4-.3-.7-.6-1-.9l-1-1-1.1-1.1-.3-.3-.5-.5c-.1-.1-.2-.2-.3-.4-.2-.2-.4-.5-.6-.7l-.8-1.1c-1.2-1.7-2.2-3.2-2.9-4.7-.9-1.8-1.6-3.4-2.2-5-.6-1.9-1.1-3.6-1.4-5.2-.7-3.5-.8-7-.4-10.6.4-3.5 1.3-6.9 2.6-10l.7-1.6c.1-.3.2-.5.4-.8l.3-.6c.3-.5.6-1.1.9-1.6.7-1.2 1.6-2.5 2.8-4l.4-.4c.4-.5.8-1 1.2-1.4l.3-.3c.2-.2.4-.4.5-.6l1.7-1.6 1.9-1.6c.2-.2.5-.4.7-.6 4.6-3.4 9.9-5.7 15.6-6.7 4.7-.8 9.6-.7 14.2.4 1.9.4 3.9 1 5.7 1.8.3.1.6.3.9.4l.5.2c.3.1.7.3 1 .5l1.1.5 1 .6c2.1 1.2 4 2.6 5.7 4.1.4.4.8.7 1.1 1l.3.3.5.4-.2.2.2-.2.4.5.3.3c.3.3.6.6 1 1.1 1.5 1.7 2.9 3.6 4.1 5.7l1.1 2.1c.2.3.3.6.5 1l.2.5c.1.3.3.6.4.9.7 1.8 1.3 3.7 1.8 5.7.5 2.2.8 4.5.9 6.7.1 2.6-.1 5.2-.5 7.5-1 5.6-3.3 11-6.7 15.6-.2.2-.4.5-.6.7l-1 1.3-1.4 1.5-.8.8c-.2.2-.4.4-.6.5l-.3.3c-.5.4-1 .8-1.4 1.2l-.4.3c-1.5 1.2-2.8 2.1-4.1 2.8-.5.3-1.1.6-1.6.9l-.6.3c-.3.1-.6.3-.8.4l-1.5.7a36.8 36.8 0 0 1-10 2.6c-1.4-.1-2.7 0-4.1 0zM144.9 18l-2.4.3c-5.5 1-10.8 3.2-15.3 6.6-.2.2-.5.4-.7.5l-1.3 1.1-1.8 1.6-.6.5c-.2.2-.3.4-.5.5l-.3.3c-.4.4-.8.9-1.2 1.4l-.3.4c-1.1 1.5-2 2.7-2.7 4-.3.5-.6 1-.9 1.6l-.3.6c-.1.2-.2.5-.3.7l-.7 1.5c-1.3 3.1-2.1 6.4-2.5 9.8-.4 3.5-.2 7 .4 10.4.3 1.6.7 3.3 1.4 5.1.5 1.5 1.2 3.2 2.1 4.9.7 1.4 1.7 2.9 2.9 4.6l.8 1.1c.2.2.4.5.6.7.1.1.2.2.3.4l.5.5.3.3 1 1.1 1 1c.3.3.6.6 1 .9.1.1.3.2.4.3.2.2.4.4.7.5l1.1.8c1.6 1.2 3.1 2.1 4.6 2.9 1.8.9 3.4 1.6 4.9 2.1 1.8.6 3.5 1.1 5.1 1.4 3.4.6 7 .8 10.4.4 3.4-.4 6.7-1.2 9.8-2.5l1.5-.6c.3-.1.5-.2.8-.4l.6-.3c.5-.3 1.1-.6 1.6-.9 1.2-.7 2.5-1.6 4-2.7l.4-.3c.5-.4.9-.8 1.4-1.2l.3-.3c.2-.2.4-.3.6-.5l1.6-1.7.8-.9.9-1.1c.2-.2.4-.5.5-.7 3.4-4.5 5.6-9.8 6.6-15.3.1-.7.2-1.5.3-2.2-.1.7-.3 1.5-.4 2.2-.6 2.6-1.5 5.1-2.6 7.5-1.2 2.4-2.8 4.8-4.7 7.1-.2.2-.4.4-.6.7l-2.1 2.1-1.3 1.1c-.2.2-.4.3-.6.5l-.3.2c-.4.4-.9.7-1.4 1l-.4.3c-1.5 1-2.7 1.8-3.9 2.4-.5.3-1 .5-1.5.7l-.6.3-2.2.9c-3.6 1.3-7.5 2-11.5 2-2.5 0-5-.3-7.4-.8-3.2-.7-6.2-1.8-9.1-3.4l-1.1-.6c-.2-.1-.5-.3-.7-.4l-1.8-1.2c-.2-.2-.4-.3-.6-.5l-1-.7c-.2-.2-.4-.3-.6-.5l-.3-.3-.1-.1c-.3-.3-.6-.5-.9-.8l-.8-.8-1.1-1.1-.3-.3-.4-.4-.3-.3c-.2-.2-.3-.4-.5-.6l-.7-1c-.2-.2-.3-.4-.5-.6l-.9-1.4c-.1-.1-.2-.3-.3-.4-.1-.2-.3-.4-.4-.6l-.6-1.1c-1.5-2.8-2.7-5.9-3.4-9.1-.1-.2-.1-.5-.2-.8 0-.1 0-.3-.1-.4l-.3-1.6c0-.3-.1-.5-.1-.8l-.1-1.2c-.1-1.7-.1-3.3 0-4.8.2-3.2.8-6.3 1.9-9.3l.6-1.5c.1-.2.2-.5.3-.7l.3-.6c.2-.5.5-1 .7-1.5.6-1.2 1.3-2.4 2.3-3.9l.3-.5c.3-.5.7-.9 1-1.4l.2-.3c.2-.2.3-.4.5-.6l2.3-2.4 1-.9c.2-.2.4-.4.7-.6 2.3-1.9 4.6-3.5 7.1-4.7 2.4-1.2 4.9-2 7.5-2.6 1 .1 1.8 0 2.6-.1zm5.1.3h-.1c-2.4 0-4.8.3-7.2.8-2.5.6-5 1.4-7.4 2.6-2.4 1.2-4.7 2.7-6.9 4.6-.2.2-.4.4-.6.5l-2.1 2.1-1.1 1.2c-.1.2-.3.3-.4.5l-.3.3c-.4.4-.7.9-1 1.3l-.3.5c-1 1.5-1.7 2.7-2.3 3.8-.3.5-.5 1-.7 1.5l-.3.6-.3.6-.6 1.5c-1 2.9-1.6 5.9-1.8 9.1-.1 1.5-.1 3 0 4.7l.1 1.2c0 .2.1.5.1.7l.2 1.6c0 .1.1.3.1.4 0 .2.1.5.1.7.7 3.1 1.8 6.1 3.3 8.9l.6 1c.1.2.2.4.4.6.1.1.2.3.3.4l.7 1c.1.1.2.2.3.4.1.2.3.4.4.6l.7 1c.2.2.3.4.5.6l.3.3.4.4.3.3 1 1.1.8.8c.3.3.6.5.8.8.2.1.3.2.4.3.2.2.4.3.6.5l1 .8c.2.2.4.3.6.4.1.1.2.2.4.3l1.4.9c.2.1.4.3.6.4l1 .6c2.8 1.5 5.8 2.6 8.9 3.3 2.4.5 4.8.8 7.2.8 3.9 0 7.6-.6 11.2-1.9l1.3-.5.8-.3.6-.3c.5-.2 1-.4 1.4-.7 1.2-.6 2.4-1.3 3.9-2.3l.4-.3c.4-.3.9-.7 1.3-1l.3-.3c.2-.1.4-.3.5-.4l2.5-2.4.7-.8c.2-.2.4-.4.5-.6 1.9-2.2 3.4-4.6 4.6-7 1.1-2.4 2-4.8 2.6-7.4.5-2.3.8-4.8.8-7.2 0-2.2-.2-4.4-.6-6.5-.6-3.5-1.9-6.8-3.6-10-1.5-2.7-3-4.5-4-5.6-.4-.4-.7-.8-.9-1l-.3-.3-.9-.9-.3-.3c-.3-.3-.6-.6-1-.9-1.2-1-3-2.5-5.6-4-3.2-1.8-6.6-3-10-3.6-2-.6-4.1-.8-6.3-.8z"/></g><g fill="#E55962"><path d="M152.9 60.6s-.1-.2-.4-.5c-.3-.3-.7-.7-1.2-1.4-1.1-1.2-2.6-3.1-4.1-5.7-1.5-2.6-3.1-6-4.1-10.1-.5-2.1-.9-4.3-1-6.7-.1-1.2 0-2.4 0-3.7 0-.6.1-1.3.2-1.9.1-.6.2-1.3.3-1.9.5-2.6 1.2-5.3 2.4-7.9.1-.3.3-.7.5-1 .2-.3.3-.7.5-1 .2-.3.4-.6.5-1l.3-.5.3-.5.6-.9.6-.9c.4-.6.9-1.2 1.4-1.8.2-.3.5-.6.7-.9.3-.3.5-.6.8-.9.3-.3.5-.6.8-.8l.4-.4.1-.1h.1l.1-.1.2-.2c.3-.3.6-.5.8-.8.3-.3.6-.5.9-.8.6-.5 1.3-1 1.9-1.5 1.3-.9 2.7-1.8 4.1-2.5.7-.4 1.5-.7 2.2-1.1.4-.2.8-.3 1.1-.5l.6-.2.6-.2C171.3 0 178.2-.6 185 .8c3.4.7 6.6 1.8 9.7 3.4 1.5.8 3 1.7 4.5 2.7L200 8c.4.3.7.5 1 .8.3.3.7.6 1 .9l1 .9c.6.6 1.2 1.2 1.8 1.9.3.3.6.7.9 1l.8 1c1.1 1.4 2.1 2.8 2.9 4.4.8 1.5 1.6 3.1 2.2 4.8.6 1.6 1.1 3.3 1.5 5 1.5 6.8.9 14-1.5 20.2-2.4 6.3-6.4 11.6-11.3 15.3-.6.5-1.2.9-1.8 1.3l-.9.6c-.3.2-.6.4-1 .6l-.5.3-.5.3c-.3.2-.6.4-1 .5-.3.2-.7.3-1 .5-.3.2-.6.3-1 .5-.7.3-1.3.6-2 .8-.3.1-.7.2-1 .4-.3.1-.7.2-1 .3-1.3.4-2.7.7-4 .9-2.6.5-5.2.5-7.6.4-2.4-.1-4.7-.5-6.7-1-2.1-.5-4-1.2-5.6-1.9l-1.2-.6-1.2-.6c-.4-.2-.7-.4-1.1-.6-.3-.2-.7-.4-1-.6-2.6-1.5-4.5-3.1-5.7-4.1-.6-.5-1-1-1.4-1.3 0-.1-.2-.3-.2-.3zm.2-.1s.2.1.5.4c.3.3.7.7 1.4 1.2 1.2 1.1 3.1 2.5 5.7 3.9 1.3.7 2.8 1.4 4.5 2 .4.1.9.3 1.3.4.4.1.9.3 1.4.4.5.1.9.2 1.4.3l1.5.3c2 .3 4.2.5 6.5.5s4.7-.3 7.1-.9c1.2-.3 2.4-.6 3.7-1.1l.9-.3c.3-.1.6-.2.9-.4.6-.2 1.2-.5 1.8-.8 2.4-1.1 4.8-2.6 7-4.4.3-.2.5-.5.8-.7.3-.2.5-.5.8-.7l.8-.8.4-.4.4-.4.8-.8c.3-.3.5-.6.7-.8.5-.5.9-1.1 1.4-1.7.9-1.2 1.7-2.5 2.5-3.8.4-.7.7-1.4 1.1-2 .2-.3.3-.7.5-1.1l.2-.5.2-.5c1.1-2.9 1.9-6 2.2-9.2.2-1.6.2-3.2.1-4.8-.1-1.6-.3-3.2-.6-4.9-1.2-6.4-4.3-12.7-9-17.6l-.9-.9-.9-.9c-.3-.3-.6-.6-1-.8l-1-.8c-1.3-1-2.7-2-4.2-2.8-1.5-.8-3-1.5-4.6-2.1-1.6-.6-3.2-1-4.8-1.4-3.3-.7-6.6-.8-9.9-.5-3.3.3-6.4 1.2-9.3 2.4l-.6.5-.5.3c-.4.2-.7.3-1.1.5-.7.4-1.4.7-2 1.1-1.3.8-2.6 1.7-3.8 2.6-.6.5-1.2.9-1.7 1.4-.3.3-.5.5-.8.7l-.8.8-.2.2-.1.1h-.1l-.4.4c-.2.3-.5.5-.7.8-.2.3-.5.6-.7.8-.2.3-.5.5-.7.8-1.8 2.3-3.2 4.6-4.3 7.1-1.1 2.4-1.9 4.9-2.5 7.4-.5 2.4-.8 4.9-.9 7.2-.1 2.3.1 4.5.5 6.5l.3 1.5c.1.5.2 1 .3 1.4.1.5.3.9.4 1.4.1.4.3.9.4 1.3.6 1.7 1.3 3.2 2 4.5 1.4 2.6 2.9 4.5 3.9 5.7.5.6 1 1 1.2 1.4l.6.6z"/><path d="M179.1 72h-1.9c-2.3-.1-4.6-.4-6.8-1-2-.5-3.9-1.1-5.7-1.9-.3-.1-.6-.3-.9-.4l-.5-.2c-.3-.2-.7-.3-1-.5l-1.2-.6-.9-.5c-2.1-1.2-3.9-2.6-5.7-4.2-.4-.4-.8-.7-1.1-1l-.3-.3-.9-.9-.3-.3c-.3-.3-.6-.6-1-1.1-1.6-1.8-2.9-3.7-4.2-5.7-1.9-3.2-3.3-6.7-4.2-10.2-.5-2.2-.9-4.5-1-6.8-.1-1.2-.1-2.4 0-3.7 0-.5.1-1 .1-1.4v-.5c.1-.7.2-1.3.3-2 .5-2.8 1.3-5.5 2.4-8 .1-.2.2-.4.3-.7l.3-.6c.1-.2.2-.5.4-.7l1.1-1.9.6-.9c.1-.2.3-.4.4-.6l.2-.3c.4-.6.9-1.2 1.4-1.8.2-.2.4-.5.6-.7l.9-1 2.5-2.5c.2-.2.4-.3.6-.5l.3-.3c.5-.4 1-.8 1.5-1.1l.4-.3c1.5-1 2.9-1.9 4.2-2.5.5-.3 1.1-.5 1.6-.8l.6-.3c.3-.1.5-.2.8-.3l1.6-.6c4-1.4 8.3-2.2 12.6-2.2 2.5 0 5 .2 7.4.7 3.4.7 6.7 1.8 9.8 3.4 1.4.7 2.9 1.6 4.5 2.7l1.1.8c.2.2.5.4.7.5l.3.3h.1c.3.3.7.5 1 .8l1 .9.6.6 1.3 1.3.3.3c.2.2.4.4.6.7l.8 1c1.2 1.6 2.2 3 3 4.4.9 1.7 1.7 3.3 2.3 4.8.7 1.8 1.1 3.5 1.5 5.1 1.4 6.8.9 14-1.5 20.4-2.3 6.1-6.3 11.6-11.4 15.5l-.3.2c-.5.4-1.1.8-1.6 1.2l-.3.2c-.2.1-.4.3-.6.4l-1.9 1.2-1 .5c-.3.1-.5.3-.8.4l-.5.3c-.2.1-.5.2-.7.3l-.5.2-1.5.6-2 .7c-1.4.4-2.7.7-4 .9-1.9.4-3.8.5-5.8.5zm-13.3-3.3c1.5.6 3.1 1.1 4.8 1.5 2.2.5 4.4.9 6.7 1h1.9c2 0 3.8-.2 5.6-.5 1.2-.2 2.6-.5 3.9-.9l2-.7c.5-.2.9-.4 1.4-.6l.5-.2c.2-.1.4-.2.7-.3l.5-.3c.2-.1.5-.2.7-.4l1.9-1.1 1-.6c.2-.1.4-.3.6-.4l.3-.2c.5-.4 1-.7 1.6-1.1l.3-.2c5-3.9 8.9-9.3 11.1-15.2 2.4-6.3 2.9-13.4 1.5-20-.3-1.6-.8-3.2-1.5-5-.6-1.5-1.3-3-2.2-4.7-.8-1.4-1.7-2.8-2.9-4.3l-.8-1-.6-.6-.3-.3c-.4-.5-.8-.9-1.2-1.3l-.6-.6-1-.9c-.3-.3-.6-.5-.9-.8-.2-.1-.3-.2-.4-.3-.2-.2-.4-.4-.6-.5l-1.1-.8c-1.6-1.1-3-2-4.4-2.7-2.4-1.2-5-2.2-7.6-2.9.9.3 1.9.6 2.9.9 1.5.5 3 1.2 4.7 2.1 1.3.7 2.7 1.7 4.3 2.8l1 .8c.2.2.4.4.6.5l.3.3.1.1c.3.3.6.5.9.8l.9.9c4.6 4.8 7.8 11.1 9.1 17.8.3 1.8.5 3.4.6 4.9.1 1.8 0 3.4-.1 4.9-.3 3.3-1.1 6.4-2.2 9.3l-.6 1.5c-.1.2-.2.5-.3.7-.1.2-.2.5-.3.7-.2.5-.5.9-.7 1.4-.6 1.2-1.4 2.3-2.5 3.8l-.3.4c-.3.4-.7.9-1.1 1.3l-.2.3c-.2.2-.3.4-.5.5l-1.5 1.6-1.8 1.6c-.2.2-.4.4-.7.5-2.2 1.8-4.6 3.2-7.1 4.4l-.5.2c-.4.2-.9.4-1.3.6l-1.8.7c-1.1.4-2.3.7-3.7 1.1-2.4.5-4.9.8-7.2.9-2.2 0-4.4-.1-6.6-.5-.2 0-.4-.1-.5-.1-.3-.1-.7-.1-1-.2l-.5-.1c-.3-.1-.6-.1-.9-.2l-1.4-.4c-.7.2-.8.2-1 .1zm-12.4-8.5l.4.4.3.3c.3.3.6.6 1 .9 1.7 1.5 3.6 2.8 5.7 3.9 1.2.7 2.7 1.3 4.5 2l.5.2c.3.1.5.2.8.3l1.4.4c.3.1.6.1.9.2l.5.1c.3.1.6.1.9.2.2 0 .4.1.5.1 2.1.4 4.3.5 6.4.5 2.3 0 4.7-.3 7.1-.9 1.4-.3 2.5-.7 3.6-1l1.8-.7c.4-.2.9-.4 1.3-.6l.5-.2c2.5-1.2 4.8-2.6 6.9-4.3.2-.2.4-.3.6-.5l1-.8 2.3-2.3.5-.5.3-.3c.4-.4.7-.8 1-1.3l.3-.4c1-1.4 1.8-2.6 2.4-3.7.3-.4.5-.9.7-1.4.1-.2.2-.5.3-.7l.3-.6.6-1.4c1.1-2.8 1.9-5.9 2.2-9.1.1-1.4.2-3 .1-4.8-.1-1.4-.2-3-.6-4.8-1.2-6.5-4.4-12.7-8.9-17.4l-.9-.9c-.3-.3-.6-.5-.8-.8l.2-.3-.3-.3c-.2-.2-.4-.4-.6-.5l-1-.8c-1.5-1.1-2.9-2-4.2-2.8-1.6-.9-3.1-1.6-4.5-2.1-1.7-.6-3.3-1-4.8-1.4-3.3-.7-6.6-.8-9.8-.5-3.2.3-6.3 1.1-9.2 2.4l-1.4.6c-.2.1-.5.2-.7.3l-.6.3c-.5.3-1 .5-1.4.8-1.4.8-2.7 1.7-3.8 2.6l-.4.3c-.5.4-.9.7-1.3 1.1l-.3.3-.5.5L154 12l-1.2 1.3-.8 1c-.2.2-.3.4-.5.6-1.7 2.2-3.2 4.6-4.3 7-1.1 2.4-1.9 4.8-2.5 7.3-.5 2.4-.8 4.8-.8 7.1 0 2.2.1 4.3.5 6.5 0 .2.1.4.1.5.1.3.1.6.2.9l.1.5c.1.3.1.6.2.9l.4 1.4c.1.3.2.5.3.8l.2.5c.6 1.8 1.3 3.2 2 4.4 1.1 2.1 2.4 3.9 3.9 5.6.4.4.7.8.9 1l.3.3.4.6zm24-59.4c-4.3 0-8.4.7-12.4 2.1l-1.5.6c-.2.1-.5.2-.7.3l-.6.2c-.5.2-1.1.5-1.6.8-1.3.7-2.6 1.5-4.1 2.5l-.4.3c-.5.4-1 .7-1.4 1.1l-.4.3c-.2.2-.4.3-.6.5l-1.7 1.6-1.7 1.9c-.2.2-.4.4-.6.7-.5.6-.9 1.2-1.4 1.8l-.2.3c-.1.2-.3.4-.4.6l-1.7 2.8c-.1.2-.2.5-.4.7l-.3.6-.3.6c-1.1 2.5-1.9 5.1-2.4 7.8-.1.6-.2 1.3-.3 1.9v.5c0 .5-.1.9-.1 1.4-.1 1.3-.1 2.5 0 3.7.1 2.2.4 4.5 1 6.6.3 1.4.8 2.7 1.3 4.1l-.3-1.2c-.1-.3-.1-.6-.2-.9l-.1-.5c-.1-.3-.1-.6-.2-1 0-.2-.1-.4-.1-.5-.4-2.2-.5-4.4-.5-6.6 0-2.4.3-4.8.9-7.2.6-2.5 1.4-5 2.5-7.5s2.6-4.9 4.4-7.2c.2-.2.3-.4.5-.7l2.4-2.6.8-.8c.2-.2.4-.3.5-.5l.3-.3c.4-.4.9-.8 1.3-1.1l.4-.3c1.1-.8 2.4-1.8 3.8-2.6.5-.3 1-.6 1.5-.8l.6-.3c.2-.1.5-.2.7-.3l1.5-.7c3-1.3 6.2-2.1 9.4-2.4 2.1-.2 4.3-.2 6.4 0-1.1-.3-2.3-.3-3.6-.3z"/></g><g fill="#E3BF21"><path d="M163.8 86.6l-.3-.3c-.2-.2-.5-.5-.9-1-.8-.9-1.9-2.3-3-4.2-1.1-1.9-2.3-4.4-3.1-7.4-.4-1.5-.6-3.2-.7-4.9v-2.7c0-.5.1-.9.1-1.4.1-.5.1-1 .2-1.4.3-1.9.9-3.9 1.8-5.8.1-.2.2-.5.3-.7.1-.2.2-.5.4-.7.1-.2.3-.5.4-.7l.2-.4.2-.3c.1-.2.3-.5.4-.7.1-.2.3-.5.5-.7.3-.5.7-.9 1-1.3.2-.2.4-.4.5-.6l.6-.6.6-.6.3-.3.1-.1.1-.1.2-.1.6-.6c.2-.2.4-.4.7-.6.4-.4.9-.7 1.4-1.1 1-.7 2-1.3 3-1.8.5-.3 1.1-.5 1.6-.8.3-.1.6-.2.8-.3l.4-.2.4-.1c4.6-1.6 9.7-2 14.6-1 2.5.5 4.9 1.3 7.2 2.5 1.1.6 2.2 1.3 3.3 2l.8.6c.3.2.5.4.8.6.2.2.5.4.7.6l.7.7c.4.5.9.9 1.3 1.4.2.2.4.5.6.7l.6.8c.8 1 1.5 2.1 2.2 3.2.6 1.1 1.2 2.3 1.6 3.5.4 1.2.8 2.4 1.1 3.7 1.1 5 .6 10.3-1.1 14.9-1.7 4.6-4.7 8.5-8.3 11.3-.4.3-.9.7-1.4 1-.2.2-.5.3-.7.5-.2.1-.5.3-.7.4l-.4.2-.4.2c-.2.1-.5.3-.7.4-.2.1-.5.2-.7.4-.2.1-.5.2-.7.3l-1.5.6c-.2.1-.5.2-.7.3-.2.1-.5.2-.7.2-1 .3-2 .5-2.9.7-1.9.3-3.8.4-5.6.3-1.8-.1-3.4-.4-5-.7-1.5-.4-2.9-.8-4.2-1.4-.3-.1-.6-.3-.9-.4-.3-.1-.6-.3-.9-.4-.3-.1-.5-.3-.8-.4-.3-.1-.5-.3-.7-.4-1.9-1.1-3.3-2.3-4.2-3-.5-.4-.8-.7-1-.9 0-.8-.1-.9-.1-.9zm.1-.1l.3.3c.2.2.5.5 1 .9.9.8 2.3 1.9 4.2 2.9 1 .5 2.1 1 3.3 1.5.3.1.6.2 1 .3.3.1.7.2 1 .3.3.1.7.2 1.1.2.4.1.7.1 1.1.2 1.5.3 3.1.4 4.8.4 1.7 0 3.5-.2 5.3-.7.9-.2 1.8-.5 2.7-.8.2-.1.5-.2.7-.2.2-.1.4-.2.7-.3.5-.2.9-.4 1.3-.6 1.8-.8 3.5-1.9 5.2-3.2.2-.2.4-.3.6-.5.2-.2.4-.3.6-.5l.6-.6.3-.3.3-.3.6-.6c.2-.2.4-.4.5-.6.4-.4.7-.8 1-1.3.6-.9 1.3-1.8 1.8-2.8.3-.5.5-1 .8-1.5.1-.3.2-.5.3-.8l.2-.4.2-.4c.8-2.1 1.4-4.4 1.6-6.8.1-1.2.1-2.4.1-3.6 0-1.2-.2-2.4-.4-3.6-.9-4.7-3.2-9.3-6.6-12.9l-.7-.6c-.2-.2-.4-.4-.7-.6-.2-.2-.5-.4-.7-.6l-.7-.6c-1-.8-2-1.5-3.1-2.1-1.1-.6-2.2-1.1-3.4-1.6-1.2-.4-2.4-.8-3.6-1-2.4-.5-4.9-.6-7.3-.4-2.4.2-4.7.9-6.9 1.8l-.4.2-.4.2c-.3.1-.5.2-.8.4-.5.3-1 .5-1.5.8-1 .6-1.9 1.2-2.8 1.9-.4.4-.9.7-1.3 1.1-.2.2-.4.4-.6.5l-.6.6-.1.1-.1.1-.3.3c-.2.2-.4.4-.5.6-.2.2-.3.4-.5.6-.2.2-.3.4-.5.6-1.3 1.7-2.4 3.4-3.2 5.2-.8 1.8-1.4 3.6-1.8 5.4-.4 1.8-.6 3.6-.6 5.3 0 1.7.1 3.3.4 4.8.1.4.1.7.2 1.1.1.4.2.7.2 1.1.1.3.2.7.3 1 .1.3.2.6.3 1 .5 1.2.9 2.4 1.5 3.3 1 1.9 2.1 3.3 2.9 4.2.4.5.7.8.9 1 .1.4.2.6.2.6z"/><path d="M183.1 95.5h-1.4c-1.7-.1-3.4-.3-5.1-.7-1.5-.4-2.9-.8-4.3-1.4-.2-.1-.5-.2-.7-.3l-.4-.2c-.3-.1-.5-.2-.7-.4l-1.6-.9c-1.5-.9-3-1.9-4.3-3.1-.3-.3-.6-.5-.8-.7l-.2-.2-.7-.7-.2-.2c-.2-.2-.5-.5-.7-.8-1.2-1.3-2.2-2.7-3.1-4.3-1.4-2.4-2.5-5-3.1-7.7-.4-1.7-.7-3.4-.7-5.1V66c0-.4.1-.7.1-1.1v-.4c.1-.5.1-1 .2-1.5.4-2.1 1-4.1 1.8-6 .1-.2.2-.3.2-.5l.2-.4.3-.6 1.3-2.1c.1-.2.2-.3.3-.5l.2-.2c.3-.5.7-.9 1-1.4.1-.2.3-.4.4-.5l.7-.8 1.3-1.3.6-.6c.2-.1.3-.3.5-.4l.2-.2c.4-.3.7-.6 1.1-.8l.3-.2c1.1-.8 2.2-1.4 3.1-1.9l1.2-.6.4-.2c.2-.1.4-.2.6-.2l1.2-.4c3-1.1 6.2-1.6 9.5-1.6 1.9 0 3.7.2 5.6.6 2.6.5 5.1 1.4 7.4 2.6 1.1.5 2.2 1.2 3.4 2.1l.8.6c.2.1.3.3.5.4l.3.2c.3.2.5.4.8.7l.7.6.4.4 1 1 .2.2.5.5.6.7c.9 1.2 1.6 2.3 2.2 3.3.7 1.3 1.3 2.5 1.7 3.6.5 1.3.9 2.6 1.1 3.8 1.1 5.1.7 10.5-1.2 15.3-1.7 4.5-4.7 8.7-8.5 11.6l-.2.1-1.2.9-.2.2c-.2.1-.3.2-.5.3l-1.4.9-.7.4-.6.3-.4.2c-.2.1-.4.2-.5.2l-.4.2c-.4.2-.7.3-1.1.4l-1.5.5c-1 .3-2.1.5-3 .7-1.6.2-3 .4-4.5.4zm23.5-35.1c.3.9.5 1.9.7 2.8.2 1.4.4 2.6.4 3.7 0 1.4 0 2.6-.1 3.7-.2 2.4-.8 4.8-1.7 7l-.5 1.1c-.1.2-.1.3-.2.5s-.2.3-.3.5c-.2.4-.4.7-.6 1.1-.5.9-1 1.8-1.8 2.9l-.3.3c-.3.3-.5.7-.8 1l-.2.2c-.1.1-.2.3-.4.4l-1.7 1.8-.7.6c-.2.1-.3.3-.5.4-1.6 1.3-3.4 2.4-5.3 3.3l-.4.2c-.3.2-.7.3-1 .4l-1.4.5c-.8.3-1.7.5-2.8.8.9-.2 1.9-.4 2.8-.7l1.4-.5c.4-.1.7-.3 1-.4l.4-.2c.2-.1.3-.1.4-.2l.4-.2c.2-.1.3-.2.5-.3l1.4-.8.7-.4c.1-.1.3-.2.4-.3l.2-.2c.4-.3.8-.5 1.1-.8l.2-.1c3.6-2.8 6.4-6.7 8.1-11 1.7-4.5 2.1-9.7 1.1-14.5.1-.7-.1-1.6-.5-2.6zm-42.1 25.5l.3.3.2.2.7.7c1.3 1.1 2.6 2 4.1 2.8.9.5 1.9 1 3.2 1.4l.3.1c.2.1.4.1.6.2l1 .3c.2 0 .4.1.6.1l.4.1c.2.1.4.1.7.1.1 0 .3 0 .4.1 1.5.3 3.1.4 4.6.3 1.7 0 3.4-.2 5.1-.6 1-.2 1.8-.5 2.6-.8l1.3-.5c.3-.1.6-.3.9-.4l.4-.2c1.8-.8 3.5-1.9 5-3.1.2-.1.3-.2.4-.4l1.8-1.7.6-.6c.1-.1.2-.2.3-.4l.2-.2c.3-.3.5-.6.7-.9l.3-.3c.8-1 1.3-1.9 1.7-2.7.2-.3.4-.7.5-1 .1-.2.2-.3.3-.5.1-.1.1-.3.2-.4l.4-1.1c.8-2.1 1.3-4.3 1.6-6.6.1-1 .1-2.2.1-3.5 0-1-.2-2.1-.4-3.5-.9-4.7-3.2-9.1-6.4-12.5l-.6-.6-.6-.6-.3-.3c-.1-.1-.3-.2-.4-.4l-.7-.6c-1.1-.8-2.1-1.5-3-2-1.2-.6-2.3-1.1-3.3-1.5-1.2-.4-2.4-.8-3.5-1-2.4-.5-4.8-.6-7.1-.3-2.3.2-4.5.8-6.7 1.7l-1 .5c-.2.1-.3.2-.5.2l-.4.2c-.3.2-.7.4-1 .6-1 .6-1.9 1.3-2.7 1.9l-.3.2c-.3.3-.6.5-.9.8l-.2.2c-.1.1-.2.2-.4.3l-.8.8v.1l-1.4 1.6c-.1.1-.2.3-.3.4-1.3 1.6-2.3 3.3-3.1 5.1-.8 1.7-1.4 3.5-1.8 5.3-.4 1.7-.6 3.4-.6 5.1 0 1.6.1 3.1.3 4.7 0 .1 0 .3.1.4 0 .2.1.4.1.7l.1.4c.1.2.1.4.2.6l.3 1c.1.2.1.4.2.6l.1.3c.5 1.3.9 2.3 1.4 3.2.8 1.5 1.7 2.8 2.8 4.1.3.3.5.6.7.7l.2.2.4.6zm-1.1-35.4l-.5.5-.7.7c-.1.2-.3.3-.4.5-.4.5-.7.9-1 1.3l-.2.2c-.1.1-.2.3-.3.4l-1.2 2.1c-.1.2-.2.3-.2.5l-.2.4c-.1.1-.1.3-.2.4-.5 1.2-1 2.4-1.3 3.7.4-1.2.8-2.4 1.4-3.6.8-1.9 2-3.7 3.3-5.4.1-.2.3-.3.4-.5l1.1-1.2zm-.1-1l.5.5.1-.1-.6-.4z"/></g><g fill="#6D6F74"><path d="M130.8 85.8s-.1.1-.3.2c-.2.2-.4.4-.8.7-.7.6-1.7 1.4-3.2 2.3-1.4.9-3.3 1.7-5.6 2.3-1.1.3-2.4.5-3.7.5h-2.1c-.4 0-.7-.1-1.1-.1-.4 0-.7-.1-1.1-.2-1.5-.3-2.9-.7-4.4-1.3-.2-.1-.4-.2-.5-.3-.2-.1-.4-.2-.5-.3-.2-.1-.4-.2-.5-.3l-.3-.2-.3-.2c-.2-.1-.3-.2-.5-.3-.2-.1-.3-.2-.5-.4-.3-.2-.7-.5-1-.8-.2-.1-.3-.3-.5-.4-.2-.1-.3-.3-.5-.4-.2-.1-.3-.3-.5-.5l-.2-.2-.1-.1-.1-.1c-.1-.2-.3-.3-.4-.5-.1-.2-.3-.3-.4-.5-.3-.3-.5-.7-.8-1.1-.5-.7-1-1.5-1.4-2.3l-.6-1.2-.3-.6-.1-.3-.1-.3c-1.2-3.4-1.5-7.3-.8-11 .4-1.9 1-3.7 1.9-5.4.4-.9 1-1.7 1.5-2.5l.4-.6c.1-.2.3-.4.5-.6.2-.2.3-.4.5-.6l.5-.5 1-1c.2-.2.4-.3.6-.5l.6-.5c.8-.6 1.6-1.2 2.4-1.6.9-.5 1.7-.9 2.7-1.2.9-.3 1.9-.6 2.8-.8 3.8-.8 7.8-.5 11.2.8 3.5 1.3 6.4 3.6 8.5 6.3.3.3.5.7.8 1 .1.2.2.3.4.5.1.2.2.4.3.5l.2.3.1.3c.1.2.2.4.3.5.1.2.2.4.3.5.1.2.2.4.3.5.2.4.3.7.4 1.1.1.2.1.4.2.6.1.2.1.4.2.6.2.7.4 1.5.5 2.2.3 1.5.3 2.9.2 4.2-.1 1.3-.3 2.6-.5 3.7-.3 1.2-.6 2.2-1 3.1-.1.2-.2.5-.3.7l-.3.6-.3.6-.3.6c-.9 1.5-1.7 2.5-2.3 3.1-.3.3-.5.6-.7.8-.3.5-.4.6-.4.6zm-.1-.1s.1-.1.2-.3c.2-.2.4-.4.7-.8.6-.7 1.4-1.7 2.2-3.2.4-.7.8-1.6 1.1-2.5.1-.2.2-.5.2-.7.1-.2.1-.5.2-.8.1-.3.1-.5.2-.8.1-.3.1-.6.2-.8.2-1.1.3-2.4.3-3.6 0-1.3-.2-2.6-.5-4-.2-.7-.3-1.4-.6-2-.1-.2-.1-.3-.2-.5s-.1-.3-.2-.5c-.1-.3-.3-.7-.4-1-.6-1.4-1.5-2.7-2.4-3.9-.1-.2-.3-.3-.4-.5l-.4-.4c-.1-.1-.3-.3-.4-.5l-.2-.2-.2-.2-.4-.4c-.1-.1-.3-.3-.5-.4-.3-.3-.6-.5-1-.8-.7-.5-1.4-1-2.1-1.4-.4-.2-.8-.4-1.1-.6l-.6-.3-.3-.1-.3-.1c-1.6-.6-3.3-1.1-5.1-1.2-.9-.1-1.8-.1-2.7-.1-.9 0-1.8.2-2.7.3-3.6.7-7 2.4-9.8 5l-.5.5-.5.5-.5.5-.4.5c-.6.7-1.1 1.5-1.6 2.4-.4.8-.9 1.7-1.2 2.6-.3.9-.6 1.8-.8 2.7-.4 1.8-.5 3.7-.3 5.5.2 1.8.6 3.6 1.3 5.2l.1.3.1.3.3.6c.2.4.4.8.6 1.1.4.7.9 1.4 1.4 2.1.3.3.5.7.8 1 .1.2.3.3.4.5.1.2.3.3.4.5l.1.1.1.1.2.2.4.4c.2.1.3.3.5.4.2.1.3.3.5.4 1.3 1 2.6 1.8 3.9 2.4 1.4.6 2.7 1.1 4.1 1.4 1.4.3 2.7.5 4 .5 1.3 0 2.5-.1 3.6-.3.3-.1.6-.1.8-.2.3-.1.5-.1.8-.2.3-.1.5-.1.8-.2.2-.1.5-.2.7-.2.9-.3 1.8-.7 2.5-1.1 1.5-.8 2.5-1.6 3.2-2.2.3-.3.6-.5.8-.7.5-.2.6-.3.6-.3z"/><path d="M116.4 92.3h-1.2c-.3 0-.5 0-.8-.1h-.3c-.4-.1-.7-.1-1.1-.2-1.6-.3-3.1-.7-4.5-1.4-.1 0-.3-.1-.4-.2l-.3-.1c-.1-.1-.3-.1-.4-.2l-1.6-1c-.1-.1-.2-.2-.4-.2l-.2-.1c-.4-.2-.7-.5-1-.8-.1-.1-.3-.2-.4-.3l-2-1.9-.3-.3-.1-.2c-.2-.3-.4-.5-.6-.8l-.2-.2c-.6-.8-1.1-1.6-1.4-2.3-.2-.3-.3-.6-.4-.9l-.2-.3c-.1-.2-.1-.3-.2-.4l-.3-.9c-1.3-3.6-1.6-7.5-.8-11.2.4-1.9 1-3.8 1.9-5.5.4-.8.9-1.6 1.5-2.5l.4-.6c.1-.1.2-.3.3-.4l.2-.2c.2-.2.3-.4.5-.6l.8-.9c.2-.2.5-.5.8-.7l.2-.2c.1-.1.3-.2.4-.3l.6-.5c.9-.7 1.7-1.2 2.5-1.7 1-.5 1.9-.9 2.7-1.3 1-.4 1.9-.6 2.9-.8 3.8-.8 7.9-.5 11.5.9 3.4 1.3 6.5 3.5 8.7 6.4l.1.1c.2.3.5.6.7.9l.1.2c.1.1.2.2.2.4l.9 1.6c.1.2.2.3.2.5l.1.3c.1.1.1.3.2.4l.1.3c.1.3.2.6.3.8l.4 1.1c.2.8.4 1.5.5 2.2.2 1.3.3 2.8.2 4.3-.1 1.3-.3 2.6-.6 3.8-.3 1.1-.6 2.2-1.1 3.2-.1.2-.1.3-.2.5l-.1.3-.3.6-.6 1.2c-.7 1.2-1.5 2.2-2.3 3.2-.2.2-.4.4-.5.6l-.8.8c-.2.2-.4.3-.6.5-1 .9-2 1.6-3.2 2.3-1.8 1.1-3.7 1.9-5.7 2.3-1.2.3-2.5.5-3.8.6-.4-.1-.7-.1-1-.1zM99.1 79.5l.1.3c.1.1.1.3.2.4l.2.3c.1.3.3.6.4.9.4.7.8 1.4 1.4 2.3l.2.2c.2.3.4.5.6.8l.2.2.3.3 1.3 1.4.6.5c.1.1.2.2.4.3.3.3.7.5 1 .7l.2.1c.1.1.2.2.3.2l1.6.9c.1.1.3.1.4.2l.3.2c.1.1.2.1.3.2 1.4.6 2.8 1.1 4.3 1.3.4.1.7.1 1.1.2h.3c.3 0 .5 0 .8.1h2c.4 0 .8-.1 1.3-.1h-1.3c-1.3 0-2.7-.2-4.1-.5-1.4-.3-2.8-.8-4.2-1.4-1.4-.6-2.7-1.5-4-2.5-.1-.1-.2-.2-.4-.3l-1.5-1.3-.4-.4-.3-.3-.1-.2c-.2-.2-.4-.5-.6-.7l-.2-.2c-.5-.6-1-1.4-1.5-2.2-.2-.3-.3-.5-.5-.8l-.2-.3c-.1-.1-.1-.3-.2-.4l-.3-.4zm4.8 5.5l1.3 1.1.3.3c1.2 1 2.5 1.8 3.9 2.4 1.3.6 2.7 1.1 4 1.4 1.3.3 2.6.4 3.9.5 1.2 0 2.4-.1 3.6-.3l.3-.1c.2 0 .3-.1.5-.1l.3-.1c.2 0 .3-.1.5-.1l.8-.2c.1 0 .3-.1.5-.2l.2-.1c1-.4 1.8-.7 2.4-1.1 1.1-.6 2.2-1.3 3.1-2.1.2-.2.4-.4.6-.5l.8-.8c.1-.1.3-.3.5-.6.8-1 1.5-2 2.1-3.1.4-.7.7-1.5 1.1-2.5l.1-.3c.1-.1.1-.3.2-.5l.2-.8c0-.2.1-.3.1-.5l.1-.3c0-.2.1-.3.1-.5l.1-.3c.2-1.2.3-2.4.3-3.5 0-1.3-.2-2.6-.5-3.9-.2-.8-.4-1.4-.6-2l-.4-1c-.1-.2-.2-.5-.3-.7l-.1-.3c-.6-1.4-1.4-2.6-2.4-3.8l-.3-.3-1.8-1.8c-.1-.1-.2-.2-.3-.2l-.2-.2c-.2-.2-.5-.4-.7-.6l-.2-.2c-.8-.6-1.4-1-2.1-1.3-.2-.1-.5-.3-.7-.4l-.4-.2c-.1 0-.2-.1-.3-.2l-.8-.3c-1.6-.6-3.2-1-5-1.2-.8-.1-1.7-.1-2.6-.1-.8 0-1.7.1-2.6.3-3.6.7-7 2.4-9.6 4.9l-.5.5c-.2.2-.3.3-.4.5l-.2.2-.3.3-.4.6c-.6.8-1.1 1.6-1.5 2.3-.5.9-.9 1.7-1.1 2.5-.3.9-.6 1.8-.7 2.6-.4 1.8-.5 3.6-.3 5.4.2 1.8.6 3.5 1.3 5.1l.4.8c.1.1.1.2.2.4l.2.3c.1.3.3.5.4.8.4.8 1 1.5 1.4 2.1l.2.2c.2.2.4.5.6.7l.2.2.3.3.2.6zm12.9-32.3c.7 0 1.3 0 1.9.1 1.8.2 3.6.6 5.2 1.3l.8.4c.1.1.3.1.4.2l.4.2c.3.1.5.3.8.4.6.3 1.3.8 2.1 1.4l.3.2c.3.2.5.4.7.6l.2.1.3.3 1.3 1.3.5.6c.1.1.2.2.3.4 1 1.2 1.8 2.6 2.5 4l.1.3c.1.2.2.5.3.8l.4 1c.2.6.4 1.3.6 2.1.3 1.4.5 2.7.5 4.1v1.6c.1-.5.1-1.1.2-1.6.1-1.5 0-2.8-.2-4.1-.1-.7-.3-1.4-.5-2.2l-.4-1.1c-.1-.3-.2-.5-.3-.8l-.1-.3c0-.1-.1-.2-.2-.4l-.1-.3c-.1-.1-.1-.3-.2-.4l-.9-1.6c-.1-.1-.1-.2-.2-.3l-.1-.2-.6-.9-.1-.1c-2.1-2.7-5.1-4.9-8.4-6.1-3.4-1.3-7.4-1.6-11-.8-.9.2-1.8.4-2.7.8-.8.3-1.7.7-2.6 1.2-.8.4-1.5.9-2.4 1.6l-.6.5-.3.3-.2.2c-.3.2-.5.5-.7.7 2.7-2.4 6.1-4.1 9.7-4.8 1-.2 1.9-.3 2.8-.3-.1-.3.2-.4.5-.4z"/></g><path fill="#6D6F74" d="M150.3 91.7c1.1.5 2.3.9 3.5 1.3-.5-2.3-.9-4.7-1-7l-2.5 5.7z"/><path fill="#7D8186" d="M155.6 87.1c-1-.3-2-.7-2.9-1.1.1 2.3.5 4.7 1 7 1.8-1.6 3.5-3.3 4.9-5.1-1-.2-2-.5-3-.8z"/><path fill="#CBD0D3" d="M153.7 93c1.2.4 2.4.7 3.6 1 1.2.3 2.4.5 3.7.6-1-2.2-1.8-4.4-2.3-6.7-1.5 1.8-3.2 3.5-5 5.1z"/><path fill="#A9AFB4" d="M161.7 88.4c-1-.1-2-.3-3.1-.5.6 2.2 1.3 4.5 2.3 6.7 1.5-1.9 2.7-3.9 3.8-5.9-.9-.1-2-.2-3-.3z"/><path fill="#F3F7F9" d="M161 94.6c1.2.1 2.5.2 3.7.3s2.5 0 3.7-.1c-1.4-2-2.6-4-3.6-6.1-1.1 2-2.4 4-3.8 5.9z"/><path fill="#A9AFB4" d="M167.9 88.5c-1 .1-2.1.1-3.1.1 1 2.1 2.2 4.1 3.6 6.1 1.1-2.2 1.9-4.4 2.6-6.6-1.1.2-2.1.4-3.1.4z"/><path fill="#B9BEC4" d="M174 87.4c-1 .3-2 .5-3 .7 1.4 1.9 3 3.6 4.7 5.3.6-2.3 1-4.7 1.2-7-.9.4-1.9.8-2.9 1z"/><path fill="#A9AFB4" d="M179.8 85.2c-.9.5-1.9.9-2.8 1.3 1.7 1.5 3.6 3 5.7 4.2.2-2.4.1-4.8-.1-7.1-1 .6-1.9 1.1-2.8 1.6z"/><path fill="#F3F7F9" d="M185 81.8c-.8.6-1.7 1.2-2.5 1.8 2 1.2 4.1 2.2 6.4 3.1-.3-2.4-.8-4.7-1.5-6.9-.8.7-1.6 1.4-2.4 2z"/><path fill="#9A9FA5" d="M188.8 86.7c1-.8 1.9-1.6 2.8-2.4.9-.9 1.7-1.8 2.5-2.7-2.4-.4-4.7-1-6.8-1.8.7 2.2 1.2 4.5 1.5 6.9z"/><path fill="#F3F7F9" d="M189.5 77.5c-.7.8-1.4 1.5-2.1 2.3 2.2.8 4.5 1.4 6.8 1.8-.8-2.3-1.7-4.5-2.8-6.5-.6.8-1.3 1.6-1.9 2.4z"/><path fill="#6D6F74" d="M175.7 93.4c1.2-.3 2.4-.7 3.5-1.2 1.2-.5 2.3-1 3.4-1.5-2-1.3-3.9-2.7-5.7-4.2-.2 2.2-.6 4.6-1.2 6.9zM200 72.1l-5.7-2.5c1.5 1.8 2.8 3.7 4 5.8.7-1 1.3-2.1 1.7-3.3zm-69.3-30.2c-.5 1.1-.9 2.3-1.3 3.5 2.3-.5 4.7-.9 7-1l-5.7-2.5z"/><path fill="#7D8186" d="M135.3 47.3c.3-1 .7-2 1.1-2.9-2.3.1-4.7.5-7 1 1.6 1.8 3.3 3.5 5.1 4.9.2-1 .5-2 .8-3z"/><path fill="#CBD0D3" d="M129.4 45.4c-.4 1.2-.7 2.4-1 3.6-.3 1.2-.5 2.4-.6 3.7 2.2-1 4.4-1.8 6.7-2.3-1.8-1.6-3.5-3.2-5.1-5z"/><path fill="#A9AFB4" d="M133.9 53.3c.1-1 .3-2 .5-3.1-2.2.6-4.5 1.3-6.7 2.3 1.9 1.5 3.9 2.7 5.9 3.8.2-.9.2-1.9.3-3z"/><path fill="#F3F7F9" d="M127.8 52.6c-.1 1.2-.2 2.5-.3 3.7 0 1.2 0 2.5.1 3.7 2-1.4 4-2.6 6.1-3.6-2-1.1-4-2.3-5.9-3.8z"/><path fill="#A9AFB4" d="M133.8 59.5c-.1-1-.1-2.1-.1-3.1-2.1 1-4.1 2.2-6.1 3.6 2.2 1.1 4.4 1.9 6.6 2.6-.1-1-.3-2-.4-3.1z"/><path fill="#CBD0D3" d="M127.7 60c.1 1.2.3 2.5.5 3.7.2 1.2.5 2.4.8 3.6 1.7-1.8 3.4-3.3 5.3-4.7-2.3-.7-4.5-1.5-6.6-2.6z"/><path fill="#B9BEC4" d="M134.9 65.6c-.3-1-.5-2-.7-3-1.9 1.4-3.6 3-5.3 4.7 2.3.6 4.7 1 7 1.2-.3-.9-.7-1.9-1-2.9z"/><path fill="#A9AFB4" d="M137.2 71.4c-.5-.9-.9-1.9-1.3-2.8-1.5 1.7-3 3.6-4.2 5.7 2.4.2 4.8.1 7.1-.1-.6-1-1.1-1.9-1.6-2.8z"/><path fill="#DADFE2" d="M131.7 74.2c.6 1.1 1.2 2.2 1.8 3.2.7 1 1.4 2.1 2.2 3 .9-2.3 1.9-4.4 3.1-6.4-2.3.3-4.7.4-7.1.2z"/><path fill="#F3F7F9" d="M140.6 76.6c-.6-.8-1.2-1.7-1.8-2.5-1.2 2-2.2 4.1-3.1 6.4 2.4-.3 4.7-.8 6.9-1.5-.7-.8-1.4-1.6-2-2.4z"/><path fill="#9A9FA5" d="M135.7 80.5c.8 1 1.6 1.9 2.4 2.8.9.9 1.8 1.7 2.7 2.5.4-2.4 1-4.7 1.8-6.8-2.2.6-4.5 1.2-6.9 1.5z"/><path fill="#F3F7F9" d="M144.9 81.1c-.8-.7-1.5-1.4-2.3-2.1-.8 2.2-1.4 4.5-1.8 6.8 2.3-.8 4.5-1.7 6.5-2.8-.8-.6-1.7-1.2-2.4-1.9z"/><path fill="#B9BEC4" d="M140.8 85.8c.9.8 1.9 1.6 2.9 2.3 1 .7 2.1 1.4 3.2 2-.1-2.4.1-4.8.4-7.1-2 1.1-4.2 2-6.5 2.8z"/><path fill="#6D6F74" d="M150.3 91.7l2.5-5.7c-1.8 1.5-3.7 2.8-5.8 4 1 .6 2.1 1.2 3.3 1.7z"/><path fill="#7D8186" d="M175.1 26.9c1 .3 2 .7 2.9 1.1-.1-2.3-.5-4.7-1-7-1.8 1.6-3.5 3.3-4.9 5.1 1 .2 2 .5 3 .8z"/><path fill="#CBD0D3" d="M177 21c-1.2-.4-2.4-.7-3.6-1-1.2-.3-2.4-.5-3.7-.6 1 2.2 1.8 4.4 2.3 6.7 1.6-1.8 3.2-3.5 5-5.1z"/><path fill="#A9AFB4" d="M169.1 25.6c1 .1 2 .3 3.1.5-.6-2.2-1.3-4.5-2.3-6.7-1.5 1.9-2.7 3.9-3.8 5.9.9.1 1.9.2 3 .3z"/><path fill="#F3F7F9" d="M169.8 19.4c-1.2-.1-2.5-.2-3.7-.3-1.2 0-2.5 0-3.7.1 1.4 2 2.6 4 3.6 6.1 1-2 2.3-4 3.8-5.9z"/><path fill="#A9AFB4" d="M162.9 25.5c1-.1 2.1-.1 3.1-.1-1-2.1-2.2-4.1-3.6-6.1-1.1 2.2-1.9 4.4-2.6 6.6 1-.2 2-.3 3.1-.4z"/><path fill="#CBD0D3" d="M162.4 19.3c-1.2.1-2.5.3-3.7.5-1.2.2-2.4.5-3.6.8 1.8 1.7 3.3 3.4 4.7 5.3.6-2.2 1.5-4.5 2.6-6.6z"/><path fill="#B9BEC4" d="M156.8 26.6c1-.3 2-.5 3-.7-1.4-1.9-3-3.6-4.7-5.3-.6 2.3-1 4.7-1.2 7 .9-.4 1.9-.7 2.9-1z"/><path fill="#A9AFB4" d="M151 28.8c.9-.5 1.9-.9 2.8-1.3-1.7-1.5-3.6-3-5.7-4.2-.2 2.4-.1 4.8.1 7.1 1-.6 1.9-1.1 2.8-1.6z"/><path fill="#DADFE2" d="M148.2 23.3c-1.1.6-2.2 1.2-3.2 1.8-1 .7-2.1 1.4-3 2.2 2.3.9 4.4 1.9 6.4 3.1-.4-2.3-.4-4.7-.2-7.1z"/><path fill="#F3F7F9" d="M145.8 32.2c.8-.6 1.7-1.2 2.5-1.8-2-1.2-4.1-2.2-6.4-3.1.3 2.4.8 4.7 1.5 6.9.8-.7 1.5-1.4 2.4-2z"/><path fill="#9A9FA5" d="M141.9 27.3c-1 .8-1.9 1.6-2.8 2.4-.9.9-1.7 1.8-2.5 2.7 2.4.4 4.7 1 6.8 1.8-.7-2.2-1.2-4.5-1.5-6.9z"/><path fill="#F3F7F9" d="M141.3 36.5c.7-.8 1.4-1.5 2.1-2.3-2.2-.8-4.5-1.4-6.8-1.8.8 2.3 1.7 4.5 2.8 6.5.6-.8 1.2-1.6 1.9-2.4z"/><path fill="#B9BEC4" d="M136.6 32.5c-.8.9-1.6 1.9-2.3 2.9-.7 1-1.4 2.1-2 3.2 2.4-.1 4.8.1 7.1.4-1.1-2.1-2.1-4.3-2.8-6.5z"/><path fill="#6D6F74" d="M130.7 41.9l5.7 2.5c-1.5-1.8-2.8-3.7-4-5.8-.7 1-1.2 2.2-1.7 3.3zM200 72.1c.5-1.1.9-2.3 1.3-3.5-2.3.5-4.7.9-7 1l5.7 2.5z"/><path fill="#7D8186" d="M195.5 66.7c-.3 1-.7 2-1.1 2.9 2.3-.1 4.7-.5 7-1-1.6-1.8-3.3-3.5-5.1-4.9-.2 1.1-.5 2.1-.8 3z"/><path fill="#CBD0D3" d="M201.4 68.7c.4-1.2.7-2.4 1-3.6.3-1.2.5-2.4.6-3.7-2.2 1-4.4 1.8-6.7 2.3 1.8 1.5 3.5 3.1 5.1 5z"/><path fill="#A9AFB4" d="M196.8 60.7c-.1 1-.3 2-.5 3.1 2.2-.6 4.5-1.3 6.7-2.3-1.9-1.5-3.9-2.7-5.9-3.8-.1.9-.2 2-.3 3z"/><path fill="#F3F7F9" d="M203 61.4c.1-1.2.2-2.5.3-3.7 0-1.2 0-2.5-.1-3.7-2 1.4-4 2.6-6.1 3.6 1.9 1.1 3.9 2.3 5.9 3.8z"/><path fill="#A9AFB4" d="M196.9 54.5c.1 1 .1 2.1.1 3.1 2.1-1 4.1-2.2 6.1-3.6-2.2-1.1-4.4-1.9-6.6-2.6.2 1 .3 2.1.4 3.1z"/><path fill="#B9BEC4" d="M195.8 48.4c.3 1 .5 2 .7 3 1.9-1.4 3.6-3 5.3-4.7-2.3-.6-4.7-1-7-1.2.4.9.7 1.9 1 2.9z"/><path fill="#A9AFB4" d="M193.5 42.6c.5.9.9 1.9 1.3 2.8 1.5-1.7 3-3.6 4.2-5.7-2.4-.2-4.8-.1-7.1.1.6 1 1.2 1.9 1.6 2.8z"/><path fill="#DADFE2" d="M199.1 39.8c-.6-1.1-1.2-2.2-1.8-3.2-.7-1-1.4-2.1-2.2-3-.9 2.3-1.9 4.4-3.1 6.4 2.3-.3 4.7-.4 7.1-.2z"/><path fill="#9A9FA5" d="M190.2 37.4c.6.8 1.2 1.7 1.8 2.5 1.2-2 2.2-4.1 3.1-6.4-2.4.3-4.7.8-6.9 1.5.7.8 1.3 1.6 2 2.4z"/><path fill="#9A9FA5" d="M195.1 33.5c-.8-1-1.6-1.9-2.4-2.8-.9-.9-1.8-1.7-2.7-2.5-.4 2.4-1 4.7-1.8 6.8 2.2-.6 4.5-1.1 6.9-1.5z"/><path fill="#B9BEC4" d="M189.9 28.2c-.9-.8-1.9-1.6-2.9-2.3-1-.7-2.1-1.4-3.2-2 .1 2.4-.1 4.8-.4 7.1 2.1-1.1 4.2-2 6.5-2.8z"/><path fill="#7D8186" d="M183.4 31c.3-2.3.5-4.7.4-7.1-2.1 1.2-4 2.6-5.8 4 1 .4 1.9.9 2.8 1.4.9.6 1.8 1.1 2.6 1.7z"/><path fill="#08AFB2" d="M168.4 94.7c1.2-.1 2.5-.3 3.7-.5 1.2-.2 2.4-.5 3.6-.8-1.8-1.7-3.3-3.4-4.7-5.3-.7 2.3-1.5 4.5-2.6 6.6zm22.9-19.6c2.3.3 4.7.5 7.1.4-1.2-2.1-2.6-4-4-5.8-.4 1-.9 1.9-1.4 2.8-.5.8-1.1 1.7-1.7 2.6zm-44 7.9c-.3 2.3-.5 4.7-.4 7.1 2.1-1.2 4-2.6 5.8-4-1-.4-1.9-.9-2.8-1.4-.9-.6-1.7-1.1-2.6-1.7zm-7.9-44.1c-2.3-.3-4.7-.5-7.1-.4 1.2 2.1 2.6 4 4 5.8.4-1 .9-1.9 1.4-2.8.6-.8 1.1-1.7 1.7-2.6zm46.5-6c.8.7 1.5 1.4 2.3 2.1.8-2.2 1.4-4.5 1.8-6.8-2.3.8-4.5 1.7-6.5 2.8.8.6 1.6 1.3 2.4 1.9z"/><path fill="#E3BF21" d="M182.6 90.7c1.1-.6 2.2-1.2 3.2-1.8 1-.7 2.1-1.4 3-2.2-2.3-.9-4.4-1.9-6.4-3.1.3 2.3.3 4.7.2 7.1zm11.6-9.2c.8-.9 1.6-1.9 2.3-2.9.7-1 1.4-2.1 2-3.2-2.4.1-4.8-.1-7.1-.4 1.1 2.1 2 4.3 2.8 6.5zM129 67.3c.3 1.2.7 2.4 1.2 3.5.5 1.2 1 2.3 1.5 3.4 1.3-2 2.7-3.9 4.2-5.7-2.3-.1-4.6-.6-6.9-1.2zm26.1-46.7c-1.2.3-2.4.7-3.5 1.2-1.2.5-2.3 1-3.4 1.5 2 1.3 3.9 2.7 5.7 4.2.1-2.2.5-4.6 1.2-6.9zm46.7 26.1c-.3-1.2-.7-2.4-1.2-3.5-.5-1.2-1-2.3-1.5-3.4-1.3 2-2.7 3.9-4.2 5.7 2.2.1 4.5.6 6.9 1.2z"/><path fill="#E55962" d="M203.1 54c-.1-1.2-.3-2.5-.5-3.7-.2-1.2-.5-2.4-.8-3.6-1.7 1.8-3.4 3.3-5.3 4.7 2.2.7 4.4 1.5 6.6 2.6zm-22.6-31.7c-1.1-.5-2.3-.9-3.5-1.3.5 2.3.9 4.7 1 7 1.8-1.5 3.7-2.8 5.8-4-1.1-.6-2.2-1.2-3.3-1.7z"/><path fill="#08AFB2" d="M0 180.6h101.6v1.5H0zm225.4 0H327v1.5H225.4z"/><g stroke-width=".5" stroke-miterlimit="10"><path fill="#4D4D4F" stroke="#4D4D4F" d="M22.6 155.8l-1.7-43.1-6.6 43.1h-2.9L5 112.7l-1.6 43.1h-2l1.9-48H6l6.9 45 7-45h2.9l1.9 48h-2.1zm26.6-48.1L39.9 144v11.8H38V144l-9.1-36.3h1.9L39 140l8.2-32.3h2zm20.3 1.8v31.4h10.8v1.8H69.5v13.1h-1.9v-48h14.7v1.7H69.5zm34.7 46.3h-1.9v-8c0-3-2-5-5.3-5h-7.9v13h-1.9v-48h8c4 0 8.7 2.5 8.7 9.3v16.5c0 3-1.4 6-4.6 7.9 3.1.8 4.9 3.4 4.9 6.4v7.9zm-15.1-14.7h6.1c2.9 0 6.9-2.7 6.9-7.5v-16.5c0-4.6-2.7-7.5-6.9-7.5h-6.1v31.5zm21.6 14.7v-48h1.9v48h-1.9zm11.2-46.3v31.3h10.7v1.7h-10.7V154h13.5v1.8H120v-48h15.4v1.7h-13.5zm37.3-1.7v48h-1.9l-14.5-42.2v42.2H141v-48h1.9l14.5 42.6v-42.6h1.8zm24.7 39c0 9.1-7 9-9.1 9h-8.2v-48h8.2c4.5 0 9.1.6 9.1 9.2v29.8zm-1.8-29.8c-.1-6.9-3.2-7.4-7.3-7.4h-6.3v44.3h6.3c3.4 0 7.3-.5 7.3-7.1V117zm35.2-7.5h-6.9v46.3h-1.9v-46.3h-6.9v-1.7h15.6v1.7zm6.9 0v31.3h10.7v1.7h-10.7V154h13.5v1.8h-15.4v-48h15.4v1.7h-13.5zm36 46.3h-1.9v-8c0-3-2-5-5.3-5h-7.9v13h-1.9v-48h8c4 0 8.7 2.5 8.7 9.3v16.5c0 3-1.4 6-4.6 7.9 3.1.8 4.9 3.4 4.9 6.4v7.9zm-15.1-14.7h6.1c2.9 0 6.9-2.7 6.9-7.5v-16.5c0-4.6-2.7-7.5-6.9-7.5h-6.1v31.5zm23.5-31.6v31.3h10.7v1.7h-10.7V154h13.5v1.8h-15.4v-48h15.4v1.7h-13.5zm18.2 37.2v-4.1h1.9v4.1c-.1 4.1 2.2 7.9 7 7.9 4.5 0 6.8-3.4 6.8-7.7v-3.4c0-4-3.8-5.5-7.7-7.7-3.9-2.2-7.8-4.7-7.9-9v-9.9c0-5.3 2.7-9.4 8.2-9.4 5.1 0 8 4 8 9.3v5.7h-1.9v-5.6c0-4.1-1.7-7.5-6.1-7.5-3.7 0-6.3 2.5-6.3 7.5v9.8c.2 3.8 3.2 5.5 6.6 7.4 4.3 2.4 9 4.6 9 9.1v3.6c0 5.1-2.7 9.5-8.6 9.5-5.3 0-9-3.8-9-9.6zm35.7-4.1h-9.8l-2 13.2h-1.9l7.4-48h2.7l7.6 48h-1.9l-2.1-13.2zm-.2-1.9l-4.7-30.1-4.6 30.1h9.3z"/><path fill="#E55962" stroke="#E55962" d="M112.4 186l1.2-.5c.8 1.7 2.2 3 4.7 3 2.2 0 3.7-1.1 3.7-2.8 0-2-1.4-2.5-4.1-3.4-2.5-.7-4.6-1.6-4.6-4.2 0-2.2 2-3.7 4.4-3.7 2.3 0 3.8 1.1 4.7 2.8l-1.1.7c-.7-1.3-1.9-2.2-3.6-2.2-1.9 0-3.1 1-3.1 2.4 0 1.7.9 2.2 3.8 3.1 2.7.8 4.9 1.8 4.9 4.5 0 2.4-1.8 4.1-5.1 4.1-3-.1-5-1.8-5.8-3.8zm16.5-.5v-9.7h-2.3v-1.2h2.3v-5.2h1.4v5.2h4.3v1.2h-4.3v9.6c0 2.2.8 3 2 3 1.3 0 1.8-.5 2.4-1.1l.9.9c-.7.8-1.6 1.5-3.3 1.5-1.8 0-3.4-1.2-3.4-4.2zm10.6-1.5v-9.3h1.4v9.1c0 3 1.4 4.7 4.2 4.7 3.2 0 5.4-2.1 5.4-5.5v-8.2h1.4v14.8h-1.4v-3.3c-1 2.2-3 3.6-5.6 3.6-3.2-.1-5.4-2.3-5.4-5.9zm17.4-2c0-4.3 3.1-7.7 7.3-7.7 3 0 5.2 1.6 6.3 3.8v-14.9h1.4v26.1h-1.4l.1-3.7c-1 2.3-3.5 4-6.3 4-4.3.1-7.4-3.2-7.4-7.6zm13.7 0c0-3.7-2.5-6.4-6.2-6.4s-6 2.7-6 6.4 2.4 6.4 6 6.4c3.7.1 6.2-2.7 6.2-6.4zm6.9-13.7c0-.7.6-1.2 1.2-1.2s1.2.5 1.2 1.2-.6 1.2-1.2 1.2-1.2-.4-1.2-1.2zm.5 6.4h1.4v14.8H178v-14.8zm6.3 7.3c0-4.2 3.4-7.7 7.7-7.7 4.3 0 7.6 3.4 7.6 7.7 0 4.2-3.3 7.7-7.6 7.7s-7.7-3.4-7.7-7.7zm13.9 0c0-3.7-2.5-6.4-6.2-6.4s-6.3 2.7-6.3 6.4 2.6 6.4 6.3 6.4 6.2-2.7 6.2-6.4zm4.9 4l1.2-.5c.8 1.7 2.2 3 4.7 3 2.2 0 3.7-1.1 3.7-2.8 0-2-1.4-2.5-4.1-3.4-2.5-.7-4.6-1.6-4.6-4.2 0-2.2 2-3.7 4.4-3.7 2.3 0 3.8 1.1 4.7 2.8l-1.1.7c-.7-1.3-1.9-2.2-3.6-2.2-1.9 0-3.1 1-3.1 2.4 0 1.7.9 2.2 3.8 3.1 2.7.8 4.9 1.8 4.9 4.5 0 2.4-1.8 4.1-5.1 4.1-3-.1-5-1.8-5.8-3.8z"/></g></svg>