<?xml version="1.0" encoding="UTF-8"?>
<!-- Generator: Adobe Illustrator 18.1.1, SVG Export Plug-In . SVG Version: 6.00 Build 0)  -->
<svg version="1.1" id="Layer_1" xmlns="http://www.w3.org/2000/svg" xmlns:xlink="http://www.w3.org/1999/xlink" x="0px" y="0px" viewBox="0 0 327 190.1" enable-background="new 0 0 327 190.1" xml:space="preserve">
<g>
	<g>
		<path fill="#08AFB2" d="M174.1,27.9c0,0,0.1,0.2,0.4,0.5c0.3,0.3,0.7,0.7,1.2,1.4c1.1,1.2,2.6,3.1,4.1,5.7c0.2,0.3,0.4,0.7,0.6,1    c0.2,0.4,0.4,0.7,0.5,1.1c0.2,0.4,0.4,0.8,0.5,1.2c0.2,0.4,0.4,0.8,0.5,1.2c0.7,1.7,1.3,3.6,1.7,5.6c0.5,2.1,0.8,4.3,0.8,6.7    c0.1,2.4,0,4.9-0.5,7.4c-0.9,5.1-3,10.6-6.7,15.4c-0.2,0.3-0.5,0.6-0.7,0.9c-0.2,0.3-0.5,0.6-0.7,0.9c-0.3,0.3-0.5,0.6-0.8,0.9    l-0.4,0.4l-0.4,0.4c-0.3,0.3-0.5,0.5-0.8,0.8c-0.3,0.3-0.6,0.5-0.9,0.8c-0.6,0.6-1.2,1-1.8,1.6c-1.3,1-2.6,1.9-4,2.8    c-0.7,0.4-1.4,0.8-2.2,1.2c-0.4,0.2-0.8,0.4-1.1,0.5l-0.6,0.3l-0.6,0.2c-3.1,1.3-6.5,2.2-9.9,2.5c-3.5,0.4-7,0.3-10.5-0.4    c-1.8-0.3-3.5-0.8-5.2-1.4c-1.7-0.6-3.4-1.3-5-2.2c-1.6-0.8-3.1-1.8-4.6-2.9l-1.1-0.8c-0.4-0.3-0.7-0.6-1-0.9    c-0.3-0.3-0.7-0.6-1-0.9l-1-1l-0.9-0.9c-0.1-0.2-0.3-0.3-0.4-0.5l-0.5-0.5c-0.3-0.4-0.6-0.7-0.9-1.1l-0.8-1.1    c-1.1-1.5-2.1-3-2.9-4.6c-0.8-1.6-1.6-3.3-2.2-5c-0.6-1.7-1.1-3.4-1.4-5.2c-0.7-3.5-0.8-7.1-0.4-10.5c0.4-3.5,1.3-6.8,2.5-9.9    l0.2-0.6l0.3-0.6c0.2-0.4,0.3-0.8,0.5-1.1c0.4-0.7,0.8-1.5,1.2-2.2c0.8-1.4,1.8-2.7,2.8-4c0.5-0.6,1-1.2,1.5-1.8    c0.3-0.3,0.5-0.6,0.8-0.9c0.3-0.3,0.6-0.6,0.8-0.8l0.2-0.2l0.1-0.1l0.1-0.1l0.1-0.1l0.4-0.4c0.3-0.3,0.6-0.5,0.8-0.8    c0.3-0.2,0.6-0.5,0.9-0.7c0.3-0.2,0.6-0.5,0.9-0.7c4.9-3.6,10.3-5.8,15.4-6.7c5.2-0.9,10-0.6,14.1,0.4c2.1,0.5,3.9,1.1,5.6,1.7    c0.4,0.2,0.8,0.3,1.2,0.5c0.4,0.2,0.8,0.3,1.2,0.5c0.4,0.2,0.7,0.4,1.1,0.5c0.3,0.2,0.7,0.4,1,0.6c2.6,1.5,4.5,3,5.7,4.1    c0.6,0.5,1,1,1.4,1.2C173.9,27.8,174.1,27.9,174.1,27.9z M174.1,27.9c0,0-0.2-0.1-0.5-0.4c-0.3-0.3-0.7-0.7-1.4-1.2    c-1.2-1.1-3.1-2.5-5.7-4c-2.6-1.5-6-2.9-10.1-3.7c-2-0.4-4.3-0.6-6.6-0.6c-2.3,0-4.8,0.3-7.3,0.8c-2.5,0.6-5,1.4-7.5,2.6    c-2.5,1.2-4.8,2.8-7,4.6c-0.3,0.2-0.5,0.5-0.8,0.7c-0.3,0.2-0.5,0.5-0.8,0.7c-0.3,0.3-0.5,0.5-0.8,0.8l-0.4,0.4L125,29    c-0.2,0.3-0.5,0.5-0.7,0.8c-0.2,0.3-0.5,0.6-0.7,0.9c-0.5,0.6-0.9,1.2-1.3,1.8c-0.8,1.2-1.7,2.5-2.3,3.9c-0.4,0.7-0.7,1.4-1,2.1    c-0.2,0.4-0.3,0.7-0.4,1.1l-0.2,0.5l-0.2,0.5c-1,2.9-1.7,6-1.9,9.2c-0.1,1.6-0.1,3.2,0,4.7c0,0.4,0.1,0.8,0.1,1.2    c0,0.4,0.1,0.8,0.2,1.2l0.1,0.6l0.1,0.6c0.1,0.4,0.1,0.8,0.2,1.2c0.7,3.1,1.8,6.2,3.4,9l0.6,1.1c0.2,0.3,0.4,0.7,0.6,1l0.3,0.5    l0.3,0.5c0.2,0.3,0.5,0.7,0.7,1l0.7,1c0.2,0.3,0.5,0.6,0.8,0.9l0.4,0.4c0.1,0.1,0.3,0.3,0.4,0.5l0.9,0.9l0.8,0.8    c0.3,0.3,0.6,0.5,0.9,0.8c0.3,0.3,0.6,0.5,0.9,0.8l1,0.7c0.3,0.2,0.7,0.5,1,0.7l0.5,0.3l0.5,0.3c0.3,0.2,0.7,0.4,1,0.6l1.1,0.6    c2.8,1.5,5.9,2.7,9,3.4c6.3,1.4,12.8,0.9,18.6-1.2l0.5-0.2l0.5-0.2c0.4-0.1,0.7-0.3,1.1-0.4c0.7-0.3,1.4-0.6,2.1-1    c1.4-0.7,2.6-1.5,3.9-2.3c0.6-0.4,1.2-0.9,1.8-1.3c0.3-0.2,0.6-0.4,0.9-0.7c0.3-0.3,0.6-0.5,0.9-0.8l0.4-0.4l0.4-0.4    c0.3-0.3,0.5-0.5,0.8-0.8c0.2-0.3,0.5-0.5,0.7-0.8c0.2-0.3,0.5-0.5,0.7-0.8c1.9-2.2,3.4-4.6,4.6-7c1.2-2.5,2-5,2.6-7.5    c0.6-2.5,0.8-4.9,0.8-7.3c0-2.3-0.2-4.5-0.6-6.6c-0.8-4.1-2.2-7.5-3.7-10.1c-1.5-2.6-2.9-4.5-4-5.7c-0.5-0.6-1-1.1-1.2-1.4    C174.2,28.1,174.1,27.9,174.1,27.9z"/>
		<path fill="#08AFB2" d="M148.6,89.9c-2.2,0-4.5-0.2-6.7-0.6c-1.6-0.3-3.4-0.8-5.2-1.4c-1.6-0.5-3.2-1.3-5-2.2    c-1.5-0.8-3-1.7-4.7-2.9l-1.1-0.8c-0.2-0.2-0.5-0.4-0.7-0.6c-0.1-0.1-0.2-0.2-0.4-0.3c-0.4-0.3-0.7-0.6-1-0.9l-1-1l-1.1-1.1    c-0.1-0.1-0.2-0.2-0.3-0.3l-0.5-0.5c-0.1-0.1-0.2-0.2-0.3-0.4c-0.2-0.2-0.4-0.5-0.6-0.7l-0.8-1.1c-1.2-1.7-2.2-3.2-2.9-4.7    c-0.9-1.8-1.6-3.4-2.2-5c-0.6-1.9-1.1-3.6-1.4-5.2c-0.7-3.5-0.8-7-0.4-10.6c0.4-3.5,1.3-6.9,2.6-10l0.7-1.6    c0.1-0.3,0.2-0.5,0.4-0.8l0.3-0.6c0.3-0.5,0.6-1.1,0.9-1.6c0.7-1.2,1.6-2.5,2.8-4l0.4-0.4c0.4-0.5,0.8-1,1.2-1.4l0.3-0.3    c0.2-0.2,0.4-0.4,0.5-0.6l1.7-1.6l1.9-1.6c0.2-0.2,0.5-0.4,0.7-0.6c4.6-3.4,9.9-5.7,15.6-6.7c4.7-0.8,9.6-0.7,14.2,0.4    c1.9,0.4,3.9,1,5.7,1.8c0.3,0.1,0.6,0.3,0.9,0.4l0.5,0.2c0.3,0.1,0.7,0.3,1,0.5l1.1,0.5l1,0.6c2.1,1.2,4,2.6,5.7,4.1    c0.4,0.4,0.8,0.7,1.1,1c0.1,0.1,0.2,0.2,0.3,0.3l0.5,0.4l-0.2,0.2l0.2-0.2l0.4,0.5c0.1,0.1,0.2,0.2,0.3,0.3c0.3,0.3,0.6,0.6,1,1.1    c1.5,1.7,2.9,3.6,4.1,5.7l1.1,2.1c0.2,0.3,0.3,0.6,0.5,1l0.2,0.5c0.1,0.3,0.3,0.6,0.4,0.9c0.7,1.8,1.3,3.7,1.8,5.7    c0.5,2.2,0.8,4.5,0.9,6.7c0.1,2.6-0.1,5.2-0.5,7.5c-1,5.6-3.3,11-6.7,15.6c-0.2,0.2-0.4,0.5-0.6,0.7l-1,1.3l-1.4,1.5l-0.8,0.8    c-0.2,0.2-0.4,0.4-0.6,0.5l-0.3,0.3c-0.5,0.4-1,0.8-1.4,1.2l-0.4,0.3c-1.5,1.2-2.8,2.1-4.1,2.8c-0.5,0.3-1.1,0.6-1.6,0.9l-0.6,0.3    c-0.3,0.1-0.6,0.3-0.8,0.4l-1.5,0.7c-3.1,1.3-6.5,2.2-10,2.6C151.3,89.8,150,89.9,148.6,89.9z M144.9,18c-0.8,0.1-1.6,0.2-2.4,0.3    c-5.5,1-10.8,3.2-15.3,6.6c-0.2,0.2-0.5,0.4-0.7,0.5l-1.3,1.1l-1.8,1.6l-0.6,0.5c-0.2,0.2-0.3,0.4-0.5,0.5l-0.3,0.3    c-0.4,0.4-0.8,0.9-1.2,1.4l-0.3,0.4c-1.1,1.5-2,2.7-2.7,4c-0.3,0.5-0.6,1-0.9,1.6l-0.3,0.6c-0.1,0.2-0.2,0.5-0.3,0.7l-0.7,1.5    c-1.3,3.1-2.1,6.4-2.5,9.8c-0.4,3.5-0.2,7,0.4,10.4c0.3,1.6,0.7,3.3,1.4,5.1c0.5,1.5,1.2,3.2,2.1,4.9c0.7,1.4,1.7,2.9,2.9,4.6    l0.8,1.1c0.2,0.2,0.4,0.5,0.6,0.7c0.1,0.1,0.2,0.2,0.3,0.4l0.5,0.5c0.1,0.1,0.2,0.2,0.3,0.3l1,1.1l1,1c0.3,0.3,0.6,0.6,1,0.9    c0.1,0.1,0.3,0.2,0.4,0.3c0.2,0.2,0.4,0.4,0.7,0.5l1.1,0.8c1.6,1.2,3.1,2.1,4.6,2.9c1.8,0.9,3.4,1.6,4.9,2.1    c1.8,0.6,3.5,1.1,5.1,1.4c3.4,0.6,7,0.8,10.4,0.4c3.4-0.4,6.7-1.2,9.8-2.5l1.5-0.6c0.3-0.1,0.5-0.2,0.8-0.4l0.6-0.3    c0.5-0.3,1.1-0.6,1.6-0.9c1.2-0.7,2.5-1.6,4-2.7l0.4-0.3c0.5-0.4,0.9-0.8,1.4-1.2l0.3-0.3c0.2-0.2,0.4-0.3,0.6-0.5l1.6-1.7    l0.8-0.9l0.9-1.1c0.2-0.2,0.4-0.5,0.5-0.7c3.4-4.5,5.6-9.8,6.6-15.3c0.1-0.7,0.2-1.5,0.3-2.2c-0.1,0.7-0.3,1.5-0.4,2.2    c-0.6,2.6-1.5,5.1-2.6,7.5c-1.2,2.4-2.8,4.8-4.7,7.1c-0.2,0.2-0.4,0.4-0.6,0.7l-2.1,2.1l-1.3,1.1c-0.2,0.2-0.4,0.3-0.6,0.5    l-0.3,0.2c-0.4,0.4-0.9,0.7-1.4,1l-0.4,0.3c-1.5,1-2.7,1.8-3.9,2.4c-0.5,0.3-1,0.5-1.5,0.7c-0.2,0.1-0.4,0.2-0.6,0.3l-2.2,0.9    c-3.6,1.3-7.5,2-11.5,2l0,0c-2.5,0-5-0.3-7.4-0.8c-3.2-0.7-6.2-1.8-9.1-3.4l-1.1-0.6c-0.2-0.1-0.5-0.3-0.7-0.4l-1.8-1.2    c-0.2-0.2-0.4-0.3-0.6-0.5l-1-0.7c-0.2-0.2-0.4-0.3-0.6-0.5c-0.1-0.1-0.2-0.2-0.3-0.3l-0.1-0.1c-0.3-0.3-0.6-0.5-0.9-0.8l-0.8-0.8    l-1.1-1.1c-0.1-0.1-0.2-0.2-0.3-0.3l-0.4-0.4c-0.1-0.1-0.2-0.2-0.3-0.3c-0.2-0.2-0.3-0.4-0.5-0.6l-0.7-1c-0.2-0.2-0.3-0.4-0.5-0.6    l-0.9-1.4c-0.1-0.1-0.2-0.3-0.3-0.4c-0.1-0.2-0.3-0.4-0.4-0.6l-0.6-1.1c-1.5-2.8-2.7-5.9-3.4-9.1c-0.1-0.2-0.1-0.5-0.2-0.8    c0-0.1,0-0.3-0.1-0.4l-0.3-1.6c0-0.3-0.1-0.5-0.1-0.8l-0.1-1.2c-0.1-1.7-0.1-3.3,0-4.8c0.2-3.2,0.8-6.3,1.9-9.3l0.6-1.5    c0.1-0.2,0.2-0.5,0.3-0.7c0.1-0.2,0.2-0.4,0.3-0.6c0.2-0.5,0.5-1,0.7-1.5c0.6-1.2,1.3-2.4,2.3-3.9l0.3-0.5c0.3-0.5,0.7-0.9,1-1.4    l0.2-0.3c0.2-0.2,0.3-0.4,0.5-0.6l2.3-2.4l1-0.9c0.2-0.2,0.4-0.4,0.7-0.6c2.3-1.9,4.6-3.5,7.1-4.7c2.4-1.2,4.9-2,7.5-2.6    C143.3,18.2,144.1,18.1,144.9,18z M150,18.3l-0.1,0c-2.4,0-4.8,0.3-7.2,0.8c-2.5,0.6-5,1.4-7.4,2.6c-2.4,1.2-4.7,2.7-6.9,4.6    c-0.2,0.2-0.4,0.4-0.6,0.5l-2.1,2.1l-1.1,1.2c-0.1,0.2-0.3,0.3-0.4,0.5l-0.3,0.3c-0.4,0.4-0.7,0.9-1,1.3l-0.3,0.5    c-1,1.5-1.7,2.7-2.3,3.8c-0.3,0.5-0.5,1-0.7,1.5c-0.1,0.2-0.2,0.4-0.3,0.6c-0.1,0.2-0.2,0.4-0.3,0.6l-0.6,1.5    c-1,2.9-1.6,5.9-1.8,9.1c-0.1,1.5-0.1,3,0,4.7l0.1,1.2c0,0.2,0.1,0.5,0.1,0.7L117,58c0,0.1,0.1,0.3,0.1,0.4c0,0.2,0.1,0.5,0.1,0.7    c0.7,3.1,1.8,6.1,3.3,8.9l0.6,1c0.1,0.2,0.2,0.4,0.4,0.6c0.1,0.1,0.2,0.3,0.3,0.4l0.7,1c0.1,0.1,0.2,0.2,0.3,0.4    c0.1,0.2,0.3,0.4,0.4,0.6l0.7,1c0.2,0.2,0.3,0.4,0.5,0.6c0.1,0.1,0.2,0.2,0.3,0.3l0.4,0.4c0.1,0.1,0.2,0.2,0.3,0.3l1,1.1l0.8,0.8    c0.3,0.3,0.6,0.5,0.8,0.8c0.2,0.1,0.3,0.2,0.4,0.3c0.2,0.2,0.4,0.3,0.6,0.5l1,0.8c0.2,0.2,0.4,0.3,0.6,0.4    c0.1,0.1,0.2,0.2,0.4,0.3l1.4,0.9c0.2,0.1,0.4,0.3,0.6,0.4l1,0.6c2.8,1.5,5.8,2.6,8.9,3.3c2.4,0.5,4.8,0.8,7.2,0.8    c3.9,0,7.6-0.6,11.2-1.9l1.3-0.5l0.8-0.3c0.2-0.1,0.4-0.2,0.6-0.3c0.5-0.2,1-0.4,1.4-0.7c1.2-0.6,2.4-1.3,3.9-2.3l0.4-0.3    c0.4-0.3,0.9-0.7,1.3-1l0.3-0.3c0.2-0.1,0.4-0.3,0.5-0.4l2.5-2.4l0.7-0.8c0.2-0.2,0.4-0.4,0.5-0.6c1.9-2.2,3.4-4.6,4.6-7    c1.1-2.4,2-4.8,2.6-7.4c0.5-2.3,0.8-4.8,0.8-7.2c0-2.2-0.2-4.4-0.6-6.5c-0.6-3.5-1.9-6.8-3.6-10c-1.5-2.7-3-4.5-4-5.6    c-0.4-0.4-0.7-0.8-0.9-1c-0.1-0.1-0.2-0.2-0.3-0.3l-0.9-0.9c-0.1-0.1-0.2-0.2-0.3-0.3c-0.3-0.3-0.6-0.6-1-0.9c-1.2-1-3-2.5-5.6-4    c-3.2-1.8-6.6-3-10-3.6C154.3,18.5,152.2,18.3,150,18.3z"/>
	</g>
	<g>
		<path fill="#E55962" d="M152.9,60.6c0,0-0.1-0.2-0.4-0.5c-0.3-0.3-0.7-0.7-1.2-1.4c-1.1-1.2-2.6-3.1-4.1-5.7    c-1.5-2.6-3.1-6-4.1-10.1c-0.5-2.1-0.9-4.3-1-6.7c-0.1-1.2,0-2.4,0-3.7c0-0.6,0.1-1.3,0.2-1.9c0.1-0.6,0.2-1.3,0.3-1.9    c0.5-2.6,1.2-5.3,2.4-7.9c0.1-0.3,0.3-0.7,0.5-1c0.2-0.3,0.3-0.7,0.5-1c0.2-0.3,0.4-0.6,0.5-1l0.3-0.5l0.3-0.5    c0.2-0.3,0.4-0.6,0.6-0.9c0.2-0.3,0.4-0.6,0.6-0.9c0.4-0.6,0.9-1.2,1.4-1.8c0.2-0.3,0.5-0.6,0.7-0.9c0.3-0.3,0.5-0.6,0.8-0.9    c0.3-0.3,0.5-0.6,0.8-0.8l0.4-0.4l0.1-0.1l0.1,0l0.1-0.1l0.2-0.2c0.3-0.3,0.6-0.5,0.8-0.8c0.3-0.3,0.6-0.5,0.9-0.8    c0.6-0.5,1.3-1,1.9-1.5c1.3-0.9,2.7-1.8,4.1-2.5c0.7-0.4,1.5-0.7,2.2-1.1c0.4-0.2,0.8-0.3,1.1-0.5l0.6-0.2l0.6-0.2    c6.2-2.2,13.1-2.8,19.9-1.4c3.4,0.7,6.6,1.8,9.7,3.4c1.5,0.8,3,1.7,4.5,2.7L200,8c0.4,0.3,0.7,0.5,1,0.8c0.3,0.3,0.7,0.6,1,0.9    l1,0.9c0.6,0.6,1.2,1.2,1.8,1.9c0.3,0.3,0.6,0.7,0.9,1l0.8,1c1.1,1.4,2.1,2.8,2.9,4.4c0.8,1.5,1.6,3.1,2.2,4.8    c0.6,1.6,1.1,3.3,1.5,5c1.5,6.8,0.9,14-1.5,20.2c-2.4,6.3-6.4,11.6-11.3,15.3c-0.6,0.5-1.2,0.9-1.8,1.3c-0.3,0.2-0.6,0.4-0.9,0.6    c-0.3,0.2-0.6,0.4-1,0.6l-0.5,0.3l-0.5,0.3c-0.3,0.2-0.6,0.4-1,0.5c-0.3,0.2-0.7,0.3-1,0.5c-0.3,0.2-0.6,0.3-1,0.5    c-0.7,0.3-1.3,0.6-2,0.8c-0.3,0.1-0.7,0.2-1,0.4c-0.3,0.1-0.7,0.2-1,0.3c-1.3,0.4-2.7,0.7-4,0.9c-2.6,0.5-5.2,0.5-7.6,0.4    c-2.4-0.1-4.7-0.5-6.7-1c-2.1-0.5-4-1.2-5.6-1.9c-0.4-0.2-0.8-0.4-1.2-0.6c-0.4-0.2-0.8-0.4-1.2-0.6c-0.4-0.2-0.7-0.4-1.1-0.6    c-0.3-0.2-0.7-0.4-1-0.6c-2.6-1.5-4.5-3.1-5.7-4.1c-0.6-0.5-1-1-1.4-1.3C153.1,60.8,152.9,60.6,152.9,60.6L152.9,60.6z     M153.1,60.5c0,0,0.2,0.1,0.5,0.4c0.3,0.3,0.7,0.7,1.4,1.2c1.2,1.1,3.1,2.5,5.7,3.9c1.3,0.7,2.8,1.4,4.5,2    c0.4,0.1,0.9,0.3,1.3,0.4c0.4,0.1,0.9,0.3,1.4,0.4c0.5,0.1,0.9,0.2,1.4,0.3c0.5,0.1,1,0.2,1.5,0.3c2,0.3,4.2,0.5,6.5,0.5    c2.3,0,4.7-0.3,7.1-0.9c1.2-0.3,2.4-0.6,3.7-1.1c0.3-0.1,0.6-0.2,0.9-0.3c0.3-0.1,0.6-0.2,0.9-0.4c0.6-0.2,1.2-0.5,1.8-0.8    c2.4-1.1,4.8-2.6,7-4.4c0.3-0.2,0.5-0.5,0.8-0.7c0.3-0.2,0.5-0.5,0.8-0.7c0.3-0.3,0.5-0.5,0.8-0.8l0.4-0.4l0.4-0.4    c0.3-0.3,0.5-0.5,0.8-0.8c0.3-0.3,0.5-0.6,0.7-0.8c0.5-0.5,0.9-1.1,1.4-1.7c0.9-1.2,1.7-2.5,2.5-3.8c0.4-0.7,0.7-1.4,1.1-2    c0.2-0.3,0.3-0.7,0.5-1.1l0.2-0.5l0.2-0.5c1.1-2.9,1.9-6,2.2-9.2c0.2-1.6,0.2-3.2,0.1-4.8c-0.1-1.6-0.3-3.2-0.6-4.9    c-1.2-6.4-4.3-12.7-9-17.6l-0.9-0.9c-0.3-0.3-0.6-0.6-0.9-0.9c-0.3-0.3-0.6-0.6-1-0.8l-1-0.8c-1.3-1-2.7-2-4.2-2.8    c-1.5-0.8-3-1.5-4.6-2.1c-1.6-0.6-3.2-1-4.8-1.4c-3.3-0.7-6.6-0.8-9.9-0.5c-3.3,0.3-6.4,1.2-9.3,2.4L164.8,4l-0.5,0.3    c-0.4,0.2-0.7,0.3-1.1,0.5c-0.7,0.4-1.4,0.7-2,1.1c-1.3,0.8-2.6,1.7-3.8,2.6c-0.6,0.5-1.2,0.9-1.7,1.4c-0.3,0.3-0.5,0.5-0.8,0.7    c-0.3,0.3-0.5,0.5-0.8,0.8l-0.2,0.2l-0.1,0.1l-0.1,0c0,0,0,0,0,0l-0.4,0.4c-0.2,0.3-0.5,0.5-0.7,0.8c-0.2,0.3-0.5,0.6-0.7,0.8    c-0.2,0.3-0.5,0.5-0.7,0.8c-1.8,2.3-3.2,4.6-4.3,7.1c-1.1,2.4-1.9,4.9-2.5,7.4c-0.5,2.4-0.8,4.9-0.9,7.2c-0.1,2.3,0.1,4.5,0.5,6.5    c0.1,0.5,0.2,1,0.3,1.5c0.1,0.5,0.2,1,0.3,1.4c0.1,0.5,0.3,0.9,0.4,1.4c0.1,0.4,0.3,0.9,0.4,1.3c0.6,1.7,1.3,3.2,2,4.5    c1.4,2.6,2.9,4.5,3.9,5.7c0.5,0.6,1,1,1.2,1.4C152.9,60.3,153.1,60.5,153.1,60.5L153.1,60.5z"/>
		<path fill="#E55962" d="M179.1,72c-0.6,0-1.3,0-1.9,0c-2.3-0.1-4.6-0.4-6.8-1c-2-0.5-3.9-1.1-5.7-1.9c-0.3-0.1-0.6-0.3-0.9-0.4    l-0.5-0.2c-0.3-0.2-0.7-0.3-1-0.5l-1.2-0.6l-0.9-0.5c-2.1-1.2-3.9-2.6-5.7-4.2c-0.4-0.4-0.8-0.7-1.1-1c-0.1-0.1-0.2-0.2-0.3-0.3    l-0.9-0.9c-0.1-0.1-0.2-0.2-0.3-0.3c-0.3-0.3-0.6-0.6-1-1.1c-1.6-1.8-2.9-3.7-4.2-5.7c-1.9-3.2-3.3-6.7-4.2-10.2    c-0.5-2.2-0.9-4.5-1-6.8c-0.1-1.2-0.1-2.4,0-3.7c0-0.5,0.1-1,0.1-1.4l0-0.5c0.1-0.7,0.2-1.3,0.3-2c0.5-2.8,1.3-5.5,2.4-8    c0.1-0.2,0.2-0.4,0.3-0.7l0.3-0.6c0.1-0.2,0.2-0.5,0.4-0.7l1.1-1.9l0.6-0.9c0.1-0.2,0.3-0.4,0.4-0.6l0.2-0.3    c0.4-0.6,0.9-1.2,1.4-1.8c0.2-0.2,0.4-0.5,0.6-0.7l0.9-1l2.5-2.5c0.2-0.2,0.4-0.3,0.6-0.5l0.3-0.3c0.5-0.4,1-0.8,1.5-1.1l0.4-0.3    c1.5-1,2.9-1.9,4.2-2.5c0.5-0.3,1.1-0.5,1.6-0.8l0.6-0.3c0.3-0.1,0.5-0.2,0.8-0.3l1.6-0.6c4-1.4,8.3-2.2,12.6-2.2    c2.5,0,5,0.2,7.4,0.7c3.4,0.7,6.7,1.8,9.8,3.4c1.4,0.7,2.9,1.6,4.5,2.7l1.1,0.8c0.2,0.2,0.5,0.4,0.7,0.5c0.1,0.1,0.2,0.2,0.3,0.3    l0.1,0c0.3,0.3,0.7,0.5,1,0.8l1,0.9c0.2,0.2,0.4,0.4,0.6,0.6c0.4,0.4,0.9,0.9,1.3,1.3c0.1,0.1,0.2,0.2,0.3,0.3    c0.2,0.2,0.4,0.4,0.6,0.7l0.8,1c1.2,1.6,2.2,3,3,4.4c0.9,1.7,1.7,3.3,2.3,4.8c0.7,1.8,1.1,3.5,1.5,5.1c1.4,6.8,0.9,14-1.5,20.4    c-2.3,6.1-6.3,11.6-11.4,15.5l-0.3,0.2c-0.5,0.4-1.1,0.8-1.6,1.2l-0.3,0.2c-0.2,0.1-0.4,0.3-0.6,0.4l-1.9,1.2l-1,0.5    c-0.3,0.1-0.5,0.3-0.8,0.4l-0.5,0.3c-0.2,0.1-0.5,0.2-0.7,0.3l-0.5,0.2c-0.5,0.2-1,0.4-1.5,0.6l-2,0.7c-1.4,0.4-2.7,0.7-4,0.9    C183,71.9,181.1,72,179.1,72z M165.8,68.7c1.5,0.6,3.1,1.1,4.8,1.5c2.2,0.5,4.4,0.9,6.7,1c0.6,0,1.2,0,1.9,0c2,0,3.8-0.2,5.6-0.5    c1.2-0.2,2.6-0.5,3.9-0.9l2-0.7c0.5-0.2,0.9-0.4,1.4-0.6l0.5-0.2c0.2-0.1,0.4-0.2,0.7-0.3l0.5-0.3c0.2-0.1,0.5-0.2,0.7-0.4    l1.9-1.1l1-0.6c0.2-0.1,0.4-0.3,0.6-0.4l0.3-0.2c0.5-0.4,1-0.7,1.6-1.1l0.3-0.2c5-3.9,8.9-9.3,11.1-15.2c2.4-6.3,2.9-13.4,1.5-20    c-0.3-1.6-0.8-3.2-1.5-5c-0.6-1.5-1.3-3-2.2-4.7c-0.8-1.4-1.7-2.8-2.9-4.3l-0.8-1c-0.2-0.2-0.4-0.4-0.6-0.6    c-0.1-0.1-0.2-0.2-0.3-0.3c-0.4-0.5-0.8-0.9-1.2-1.3c-0.2-0.2-0.4-0.4-0.6-0.6l-1-0.9c-0.3-0.3-0.6-0.5-0.9-0.8    c-0.2-0.1-0.3-0.2-0.4-0.3c-0.2-0.2-0.4-0.4-0.6-0.5l-1.1-0.8c-1.6-1.1-3-2-4.4-2.7c-2.4-1.2-5-2.2-7.6-2.9    c0.9,0.3,1.9,0.6,2.9,0.9c1.5,0.5,3,1.2,4.7,2.1c1.3,0.7,2.7,1.7,4.3,2.8l1,0.8c0.2,0.2,0.4,0.4,0.6,0.5c0.1,0.1,0.2,0.2,0.3,0.3    l0.1,0.1c0.3,0.3,0.6,0.5,0.9,0.8l0.9,0.9c4.6,4.8,7.8,11.1,9.1,17.8c0.3,1.8,0.5,3.4,0.6,4.9c0.1,1.8,0,3.4-0.1,4.9    c-0.3,3.3-1.1,6.4-2.2,9.3l-0.6,1.5c-0.1,0.2-0.2,0.5-0.3,0.7c-0.1,0.2-0.2,0.5-0.3,0.7c-0.2,0.5-0.5,0.9-0.7,1.4    c-0.6,1.2-1.4,2.3-2.5,3.8l-0.3,0.4c-0.3,0.4-0.7,0.9-1.1,1.3l-0.2,0.3c-0.2,0.2-0.3,0.4-0.5,0.5l-1.5,1.6l-1.8,1.6    c-0.2,0.2-0.4,0.4-0.7,0.5c-2.2,1.8-4.6,3.2-7.1,4.4l-0.5,0.2c-0.4,0.2-0.9,0.4-1.3,0.6l-1.8,0.7c-1.1,0.4-2.3,0.7-3.7,1.1    c-2.4,0.5-4.9,0.8-7.2,0.9c-2.2,0-4.4-0.1-6.6-0.5c-0.2,0-0.4-0.1-0.5-0.1c-0.3-0.1-0.7-0.1-1-0.2l-0.5-0.1    c-0.3-0.1-0.6-0.1-0.9-0.2l-1.4-0.4C166.1,68.8,166,68.8,165.8,68.7z M153.4,60.2l0.4,0.4c0.1,0.1,0.2,0.2,0.3,0.3    c0.3,0.3,0.6,0.6,1,0.9c1.7,1.5,3.6,2.8,5.7,3.9c1.2,0.7,2.7,1.3,4.5,2l0.5,0.2c0.3,0.1,0.5,0.2,0.8,0.3l1.4,0.4    c0.3,0.1,0.6,0.1,0.9,0.2l0.5,0.1c0.3,0.1,0.6,0.1,0.9,0.2c0.2,0,0.4,0.1,0.5,0.1c2.1,0.4,4.3,0.5,6.4,0.5c2.3,0,4.7-0.3,7.1-0.9    c1.4-0.3,2.5-0.7,3.6-1l1.8-0.7c0.4-0.2,0.9-0.4,1.3-0.6l0.5-0.2c2.5-1.2,4.8-2.6,6.9-4.3c0.2-0.2,0.4-0.3,0.6-0.5l1-0.8l2.3-2.3    c0.2-0.2,0.3-0.3,0.5-0.5l0.3-0.3c0.4-0.4,0.7-0.8,1-1.3l0.3-0.4c1-1.4,1.8-2.6,2.4-3.7c0.3-0.4,0.5-0.9,0.7-1.4    c0.1-0.2,0.2-0.5,0.3-0.7c0.1-0.2,0.2-0.4,0.3-0.6l0.6-1.4c1.1-2.8,1.9-5.9,2.2-9.1c0.1-1.4,0.2-3,0.1-4.8c-0.1-1.4-0.2-3-0.6-4.8    c-1.2-6.5-4.4-12.7-8.9-17.4l-0.9-0.9c-0.3-0.3-0.6-0.5-0.8-0.8L200,10c-0.1-0.1-0.2-0.2-0.3-0.3c-0.2-0.2-0.4-0.4-0.6-0.5l-1-0.8    c-1.5-1.1-2.9-2-4.2-2.8c-1.6-0.9-3.1-1.6-4.5-2.1c-1.7-0.6-3.3-1-4.8-1.4c-3.3-0.7-6.6-0.8-9.8-0.5c-3.2,0.3-6.3,1.1-9.2,2.4    l-1.4,0.6c-0.2,0.1-0.5,0.2-0.7,0.3c-0.2,0.1-0.4,0.2-0.6,0.3c-0.5,0.3-1,0.5-1.4,0.8c-1.4,0.8-2.7,1.7-3.8,2.6l-0.4,0.3    c-0.5,0.4-0.9,0.7-1.3,1.1l-0.3,0.3c-0.2,0.2-0.3,0.3-0.5,0.5L154,12c0,0,0,0,0,0l-1.2,1.3l-0.8,1c-0.2,0.2-0.3,0.4-0.5,0.6    c-1.7,2.2-3.2,4.6-4.3,7c-1.1,2.4-1.9,4.8-2.5,7.3c-0.5,2.4-0.8,4.8-0.8,7.1c0,2.2,0.1,4.3,0.5,6.5c0,0.2,0.1,0.4,0.1,0.5    c0.1,0.3,0.1,0.6,0.2,0.9l0.1,0.5c0.1,0.3,0.1,0.6,0.2,0.9l0.4,1.4c0.1,0.3,0.2,0.5,0.3,0.8l0.2,0.5c0.6,1.8,1.3,3.2,2,4.4    c1.1,2.1,2.4,3.9,3.9,5.6c0.4,0.4,0.7,0.8,0.9,1c0.1,0.1,0.2,0.2,0.3,0.3L153.4,60.2z M177.4,0.8c-4.3,0-8.4,0.7-12.4,2.1    l-1.5,0.6c-0.2,0.1-0.5,0.2-0.7,0.3L162.2,4c-0.5,0.2-1.1,0.5-1.6,0.8c-1.3,0.7-2.6,1.5-4.1,2.5l-0.4,0.3c-0.5,0.4-1,0.7-1.4,1.1    L154.3,9c-0.2,0.2-0.4,0.3-0.6,0.5l-1.7,1.6l-1.7,1.9c-0.2,0.2-0.4,0.4-0.6,0.7c-0.5,0.6-0.9,1.2-1.4,1.8l-0.2,0.3    c-0.1,0.2-0.3,0.4-0.4,0.6l-1.7,2.8c-0.1,0.2-0.2,0.5-0.4,0.7l-0.3,0.6c-0.1,0.2-0.2,0.4-0.3,0.6c-1.1,2.5-1.9,5.1-2.4,7.8    c-0.1,0.6-0.2,1.3-0.3,1.9l0,0.5c0,0.5-0.1,0.9-0.1,1.4c-0.1,1.3-0.1,2.5,0,3.7c0.1,2.2,0.4,4.5,1,6.6c0.3,1.4,0.8,2.7,1.3,4.1    l-0.3-1.2c-0.1-0.3-0.1-0.6-0.2-0.9l-0.1-0.5c-0.1-0.3-0.1-0.6-0.2-1c0-0.2-0.1-0.4-0.1-0.5c-0.4-2.2-0.5-4.4-0.5-6.6    c0-2.4,0.3-4.8,0.9-7.2c0.6-2.5,1.4-5,2.5-7.5c1.1-2.5,2.6-4.9,4.4-7.2c0.2-0.2,0.3-0.4,0.5-0.7l2.4-2.6l0.8-0.8    c0.2-0.2,0.4-0.3,0.5-0.5l0.3-0.3c0.4-0.4,0.9-0.8,1.3-1.1l0.4-0.3c1.1-0.8,2.4-1.8,3.8-2.6c0.5-0.3,1-0.6,1.5-0.8    c0.2-0.1,0.4-0.2,0.6-0.3c0.2-0.1,0.5-0.2,0.7-0.3l1.5-0.7c3-1.3,6.2-2.1,9.4-2.4c2.1-0.2,4.3-0.2,6.4,0    C179.9,0.8,178.7,0.8,177.4,0.8z"/>
	</g>
	<g>
		<path fill="#E3BF21" d="M163.8,86.6c0,0-0.1-0.1-0.3-0.3c-0.2-0.2-0.5-0.5-0.9-1c-0.8-0.9-1.9-2.3-3-4.2c-1.1-1.9-2.3-4.4-3.1-7.4    c-0.4-1.5-0.6-3.2-0.7-4.9c0-0.9,0-1.8,0-2.7c0-0.5,0.1-0.9,0.1-1.4c0.1-0.5,0.1-1,0.2-1.4c0.3-1.9,0.9-3.9,1.8-5.8    c0.1-0.2,0.2-0.5,0.3-0.7c0.1-0.2,0.2-0.5,0.4-0.7c0.1-0.2,0.3-0.5,0.4-0.7l0.2-0.4l0.2-0.3c0.1-0.2,0.3-0.5,0.4-0.7    c0.1-0.2,0.3-0.5,0.5-0.7c0.3-0.5,0.7-0.9,1-1.3c0.2-0.2,0.4-0.4,0.5-0.6c0.2-0.2,0.4-0.4,0.6-0.6c0.2-0.2,0.4-0.4,0.6-0.6    l0.3-0.3l0.1-0.1l0,0l0.1-0.1l0.2-0.1c0.2-0.2,0.4-0.4,0.6-0.6c0.2-0.2,0.4-0.4,0.7-0.6c0.4-0.4,0.9-0.7,1.4-1.1    c1-0.7,2-1.3,3-1.8c0.5-0.3,1.1-0.5,1.6-0.8c0.3-0.1,0.6-0.2,0.8-0.3l0.4-0.2l0.4-0.1c4.6-1.6,9.7-2,14.6-1    c2.5,0.5,4.9,1.3,7.2,2.5c1.1,0.6,2.2,1.3,3.3,2l0.8,0.6c0.3,0.2,0.5,0.4,0.8,0.6c0.2,0.2,0.5,0.4,0.7,0.6l0.7,0.7    c0.4,0.5,0.9,0.9,1.3,1.4c0.2,0.2,0.4,0.5,0.6,0.7l0.6,0.8c0.8,1,1.5,2.1,2.2,3.2c0.6,1.1,1.2,2.3,1.6,3.5    c0.4,1.2,0.8,2.4,1.1,3.7c1.1,5,0.6,10.3-1.1,14.9c-1.7,4.6-4.7,8.5-8.3,11.3c-0.4,0.3-0.9,0.7-1.4,1c-0.2,0.2-0.5,0.3-0.7,0.5    c-0.2,0.1-0.5,0.3-0.7,0.4l-0.4,0.2l-0.4,0.2c-0.2,0.1-0.5,0.3-0.7,0.4c-0.2,0.1-0.5,0.2-0.7,0.4c-0.2,0.1-0.5,0.2-0.7,0.3    c-0.5,0.2-1,0.4-1.5,0.6c-0.2,0.1-0.5,0.2-0.7,0.3c-0.2,0.1-0.5,0.2-0.7,0.2c-1,0.3-2,0.5-2.9,0.7c-1.9,0.3-3.8,0.4-5.6,0.3    c-1.8-0.1-3.4-0.4-5-0.7c-1.5-0.4-2.9-0.8-4.2-1.4c-0.3-0.1-0.6-0.3-0.9-0.4c-0.3-0.1-0.6-0.3-0.9-0.4c-0.3-0.1-0.5-0.3-0.8-0.4    c-0.3-0.1-0.5-0.3-0.7-0.4c-1.9-1.1-3.3-2.3-4.2-3c-0.5-0.4-0.8-0.7-1-0.9C163.9,86.7,163.8,86.6,163.8,86.6L163.8,86.6z     M163.9,86.5c0,0,0.1,0.1,0.3,0.3c0.2,0.2,0.5,0.5,1,0.9c0.9,0.8,2.3,1.9,4.2,2.9c1,0.5,2.1,1,3.3,1.5c0.3,0.1,0.6,0.2,1,0.3    c0.3,0.1,0.7,0.2,1,0.3c0.3,0.1,0.7,0.2,1.1,0.2c0.4,0.1,0.7,0.1,1.1,0.2c1.5,0.3,3.1,0.4,4.8,0.4c1.7,0,3.5-0.2,5.3-0.7    c0.9-0.2,1.8-0.5,2.7-0.8c0.2-0.1,0.5-0.2,0.7-0.2c0.2-0.1,0.4-0.2,0.7-0.3c0.5-0.2,0.9-0.4,1.3-0.6c1.8-0.8,3.5-1.9,5.2-3.2    c0.2-0.2,0.4-0.3,0.6-0.5c0.2-0.2,0.4-0.3,0.6-0.5c0.2-0.2,0.4-0.4,0.6-0.6l0.3-0.3l0.3-0.3c0.2-0.2,0.4-0.4,0.6-0.6    c0.2-0.2,0.4-0.4,0.5-0.6c0.4-0.4,0.7-0.8,1-1.3c0.6-0.9,1.3-1.8,1.8-2.8c0.3-0.5,0.5-1,0.8-1.5c0.1-0.3,0.2-0.5,0.3-0.8l0.2-0.4    l0.2-0.4c0.8-2.1,1.4-4.4,1.6-6.8c0.1-1.2,0.1-2.4,0.1-3.6c0-1.2-0.2-2.4-0.4-3.6c-0.9-4.7-3.2-9.3-6.6-12.9l-0.7-0.6    c-0.2-0.2-0.4-0.4-0.7-0.6c-0.2-0.2-0.5-0.4-0.7-0.6l-0.7-0.6c-1-0.8-2-1.5-3.1-2.1c-1.1-0.6-2.2-1.1-3.4-1.6    c-1.2-0.4-2.4-0.8-3.6-1c-2.4-0.5-4.9-0.6-7.3-0.4c-2.4,0.2-4.7,0.9-6.9,1.8l-0.4,0.2l-0.4,0.2c-0.3,0.1-0.5,0.2-0.8,0.4    c-0.5,0.3-1,0.5-1.5,0.8c-1,0.6-1.9,1.2-2.8,1.9c-0.4,0.4-0.9,0.7-1.3,1.1c-0.2,0.2-0.4,0.4-0.6,0.5c-0.2,0.2-0.4,0.4-0.6,0.6    l-0.1,0.1l-0.1,0.1l0,0c0,0,0,0,0,0l-0.3,0.3c-0.2,0.2-0.4,0.4-0.5,0.6c-0.2,0.2-0.3,0.4-0.5,0.6c-0.2,0.2-0.3,0.4-0.5,0.6    c-1.3,1.7-2.4,3.4-3.2,5.2c-0.8,1.8-1.4,3.6-1.8,5.4c-0.4,1.8-0.6,3.6-0.6,5.3c0,1.7,0.1,3.3,0.4,4.8c0.1,0.4,0.1,0.7,0.2,1.1    c0.1,0.4,0.2,0.7,0.2,1.1c0.1,0.3,0.2,0.7,0.3,1c0.1,0.3,0.2,0.6,0.3,1c0.5,1.2,0.9,2.4,1.5,3.3c1,1.9,2.1,3.3,2.9,4.2    c0.4,0.5,0.7,0.8,0.9,1C163.8,86.3,163.9,86.5,163.9,86.5L163.9,86.5z"/>
		<path fill="#E3BF21" d="M183.1,95.5c-0.5,0-1,0-1.4,0c-1.7-0.1-3.4-0.3-5.1-0.7c-1.5-0.4-2.9-0.8-4.3-1.4    c-0.2-0.1-0.5-0.2-0.7-0.3l-0.4-0.2c-0.3-0.1-0.5-0.2-0.7-0.4l-1.6-0.9c-1.5-0.9-3-1.9-4.3-3.1c-0.3-0.3-0.6-0.5-0.8-0.7    c-0.1-0.1-0.1-0.1-0.2-0.2l-0.7-0.7c-0.1-0.1-0.1-0.1-0.2-0.2c-0.2-0.2-0.5-0.5-0.7-0.8c-1.2-1.3-2.2-2.7-3.1-4.3    c-1.4-2.4-2.5-5-3.1-7.7c-0.4-1.7-0.7-3.4-0.7-5.1c0-0.9,0-1.8,0-2.8c0-0.4,0.1-0.7,0.1-1.1l0-0.4c0.1-0.5,0.1-1,0.2-1.5    c0.4-2.1,1-4.1,1.8-6c0.1-0.2,0.2-0.3,0.2-0.5l0.2-0.4c0.1-0.2,0.2-0.4,0.3-0.6l1.3-2.1c0.1-0.2,0.2-0.3,0.3-0.5l0.2-0.2    c0.3-0.5,0.7-0.9,1-1.4c0.1-0.2,0.3-0.4,0.4-0.5l0.7-0.8l1.3-1.3l0.6-0.6c0.2-0.1,0.3-0.3,0.5-0.4l0.2-0.2    c0.4-0.3,0.7-0.6,1.1-0.8l0.3-0.2c1.1-0.8,2.2-1.4,3.1-1.9c0.4-0.2,0.8-0.4,1.2-0.6l0.4-0.2c0.2-0.1,0.4-0.2,0.6-0.2l1.2-0.4    c3-1.1,6.2-1.6,9.5-1.6c1.9,0,3.7,0.2,5.6,0.6c2.6,0.5,5.1,1.4,7.4,2.6c1.1,0.5,2.2,1.2,3.4,2.1l0.8,0.6c0.2,0.1,0.3,0.3,0.5,0.4    l0.3,0.2c0.3,0.2,0.5,0.4,0.8,0.7l0.7,0.6c0.2,0.2,0.3,0.3,0.4,0.4c0.3,0.3,0.6,0.6,1,1l0.2,0.2c0.2,0.2,0.3,0.3,0.5,0.5l0.6,0.7    c0.9,1.2,1.6,2.3,2.2,3.3c0.7,1.3,1.3,2.5,1.7,3.6c0.5,1.3,0.9,2.6,1.1,3.8c1.1,5.1,0.7,10.5-1.2,15.3c-1.7,4.5-4.7,8.7-8.5,11.6    l-0.2,0.1c-0.4,0.3-0.8,0.6-1.2,0.9l-0.2,0.2c-0.2,0.1-0.3,0.2-0.5,0.3l-1.4,0.9l-0.7,0.4c-0.2,0.1-0.4,0.2-0.6,0.3l-0.4,0.2    c-0.2,0.1-0.4,0.2-0.5,0.2l-0.4,0.2c-0.4,0.2-0.7,0.3-1.1,0.4l-1.5,0.5c-1,0.3-2.1,0.5-3,0.7C186,95.3,184.6,95.5,183.1,95.5z     M206.6,60.4c0.3,0.9,0.5,1.9,0.7,2.8c0.2,1.4,0.4,2.6,0.4,3.7c0,1.4,0,2.6-0.1,3.7c-0.2,2.4-0.8,4.8-1.7,7l-0.5,1.1    c-0.1,0.2-0.1,0.3-0.2,0.5c-0.1,0.2-0.2,0.3-0.3,0.5c-0.2,0.4-0.4,0.7-0.6,1.1c-0.5,0.9-1,1.8-1.8,2.9l-0.3,0.3    c-0.3,0.3-0.5,0.7-0.8,1l-0.2,0.2c-0.1,0.1-0.2,0.3-0.4,0.4l-1.7,1.8l-0.7,0.6c-0.2,0.1-0.3,0.3-0.5,0.4c-1.6,1.3-3.4,2.4-5.3,3.3    l-0.4,0.2c-0.3,0.2-0.7,0.3-1,0.4l-1.4,0.5c-0.8,0.3-1.7,0.5-2.8,0.8c0,0,0,0,0,0c0,0,0,0,0,0c0.9-0.2,1.9-0.4,2.8-0.7l1.4-0.5    c0.4-0.1,0.7-0.3,1-0.4l0.4-0.2c0.2-0.1,0.3-0.1,0.4-0.2l0.4-0.2c0.2-0.1,0.3-0.2,0.5-0.3l1.4-0.8l0.7-0.4    c0.1-0.1,0.3-0.2,0.4-0.3l0.2-0.2c0.4-0.3,0.8-0.5,1.1-0.8l0.2-0.1c3.6-2.8,6.4-6.7,8.1-11c1.7-4.5,2.1-9.7,1.1-14.5    C207.2,62.3,207,61.4,206.6,60.4z M164.5,85.9l0.3,0.3c0.1,0.1,0.1,0.1,0.2,0.2c0.2,0.2,0.4,0.4,0.7,0.7c1.3,1.1,2.6,2,4.1,2.8    c0.9,0.5,1.9,1,3.2,1.4l0.3,0.1c0.2,0.1,0.4,0.1,0.6,0.2l1,0.3c0.2,0,0.4,0.1,0.6,0.1l0.4,0.1c0.2,0.1,0.4,0.1,0.7,0.1    c0.1,0,0.3,0,0.4,0.1c1.5,0.3,3.1,0.4,4.6,0.3c1.7,0,3.4-0.2,5.1-0.6c1-0.2,1.8-0.5,2.6-0.8l1.3-0.5c0.3-0.1,0.6-0.3,0.9-0.4    l0.4-0.2c1.8-0.8,3.5-1.9,5-3.1c0.2-0.1,0.3-0.2,0.4-0.4l1.8-1.7l0.6-0.6c0.1-0.1,0.2-0.2,0.3-0.4l0.2-0.2    c0.3-0.3,0.5-0.6,0.7-0.9l0.3-0.3c0.8-1,1.3-1.9,1.7-2.7c0.2-0.3,0.4-0.7,0.5-1c0.1-0.2,0.2-0.3,0.3-0.5c0.1-0.1,0.1-0.3,0.2-0.4    l0.4-1.1c0.8-2.1,1.3-4.3,1.6-6.6c0.1-1,0.1-2.2,0.1-3.5c0-1-0.2-2.1-0.4-3.5c-0.9-4.7-3.2-9.1-6.4-12.5l-0.6-0.6    c-0.2-0.2-0.4-0.4-0.6-0.6c-0.1-0.1-0.2-0.2-0.3-0.3c-0.1-0.1-0.3-0.2-0.4-0.4l-0.7-0.6c-1.1-0.8-2.1-1.5-3-2    c-1.2-0.6-2.3-1.1-3.3-1.5c-1.2-0.4-2.4-0.8-3.5-1c-2.4-0.5-4.8-0.6-7.1-0.3c-2.3,0.2-4.5,0.8-6.7,1.7l-1,0.5    c-0.2,0.1-0.3,0.2-0.5,0.2l-0.4,0.2c-0.3,0.2-0.7,0.4-1,0.6c-1,0.6-1.9,1.3-2.7,1.9l-0.3,0.2c-0.3,0.3-0.6,0.5-0.9,0.8l-0.2,0.2    c-0.1,0.1-0.2,0.2-0.4,0.3l-0.8,0.8l0,0c0,0,0,0,0,0.1l-1.4,1.6c-0.1,0.1-0.2,0.3-0.3,0.4c-1.3,1.6-2.3,3.3-3.1,5.1    c-0.8,1.7-1.4,3.5-1.8,5.3c-0.4,1.7-0.6,3.4-0.6,5.1c0,1.6,0.1,3.1,0.3,4.7c0,0.1,0,0.3,0.1,0.4c0,0.2,0.1,0.4,0.1,0.7l0.1,0.4    c0.1,0.2,0.1,0.4,0.2,0.6l0.3,1c0.1,0.2,0.1,0.4,0.2,0.6l0.1,0.3c0.5,1.3,0.9,2.3,1.4,3.2c0.8,1.5,1.7,2.8,2.8,4.1    c0.3,0.3,0.5,0.6,0.7,0.7c0.1,0.1,0.2,0.2,0.2,0.2L164.5,85.9z M163.4,50.5l-0.5,0.5l-0.7,0.7c-0.1,0.2-0.3,0.3-0.4,0.5    c-0.4,0.5-0.7,0.9-1,1.3l-0.2,0.2c-0.1,0.1-0.2,0.3-0.3,0.4l-1.2,2.1c-0.1,0.2-0.2,0.3-0.2,0.5l-0.2,0.4c-0.1,0.1-0.1,0.3-0.2,0.4    c-0.5,1.2-1,2.4-1.3,3.7c0.4-1.2,0.8-2.4,1.4-3.6c0.8-1.9,2-3.7,3.3-5.4c0.1-0.2,0.3-0.3,0.4-0.5L163.4,50.5z M163.3,49.5l0.5,0.5    l0.1-0.1L163.3,49.5z"/>
	</g>
	<g>
		<path fill="#6D6F74" d="M130.8,85.8c0,0-0.1,0.1-0.3,0.2c-0.2,0.2-0.4,0.4-0.8,0.7c-0.7,0.6-1.7,1.4-3.2,2.3    c-1.4,0.9-3.3,1.7-5.6,2.3c-1.1,0.3-2.4,0.5-3.7,0.5c-0.7,0-1.4,0-2.1,0c-0.4,0-0.7-0.1-1.1-0.1c-0.4,0-0.7-0.1-1.1-0.2    c-1.5-0.3-2.9-0.7-4.4-1.3c-0.2-0.1-0.4-0.2-0.5-0.3c-0.2-0.1-0.4-0.2-0.5-0.3c-0.2-0.1-0.4-0.2-0.5-0.3l-0.3-0.2l-0.3-0.2    c-0.2-0.1-0.3-0.2-0.5-0.3c-0.2-0.1-0.3-0.2-0.5-0.4c-0.3-0.2-0.7-0.5-1-0.8c-0.2-0.1-0.3-0.3-0.5-0.4c-0.2-0.1-0.3-0.3-0.5-0.4    c-0.2-0.1-0.3-0.3-0.5-0.5l-0.2-0.2l0,0l0,0l-0.1-0.1l-0.1-0.1c-0.1-0.2-0.3-0.3-0.4-0.5c-0.1-0.2-0.3-0.3-0.4-0.5    c-0.3-0.3-0.5-0.7-0.8-1.1c-0.5-0.7-1-1.5-1.4-2.3c-0.2-0.4-0.4-0.8-0.6-1.2c-0.1-0.2-0.2-0.4-0.3-0.6l-0.1-0.3l-0.1-0.3    c-1.2-3.4-1.5-7.3-0.8-11c0.4-1.9,1-3.7,1.9-5.4c0.4-0.9,1-1.7,1.5-2.5l0.4-0.6c0.1-0.2,0.3-0.4,0.5-0.6c0.2-0.2,0.3-0.4,0.5-0.6    l0.5-0.5c0.3-0.3,0.7-0.7,1-1c0.2-0.2,0.4-0.3,0.6-0.5l0.6-0.5c0.8-0.6,1.6-1.2,2.4-1.6c0.9-0.5,1.7-0.9,2.7-1.2    c0.9-0.3,1.9-0.6,2.8-0.8c3.8-0.8,7.8-0.5,11.2,0.8c3.5,1.3,6.4,3.6,8.5,6.3c0.3,0.3,0.5,0.7,0.8,1c0.1,0.2,0.2,0.3,0.4,0.5    c0.1,0.2,0.2,0.4,0.3,0.5l0.2,0.3l0.1,0.3c0.1,0.2,0.2,0.4,0.3,0.5c0.1,0.2,0.2,0.4,0.3,0.5c0.1,0.2,0.2,0.4,0.3,0.5    c0.2,0.4,0.3,0.7,0.4,1.1c0.1,0.2,0.1,0.4,0.2,0.6c0.1,0.2,0.1,0.4,0.2,0.6c0.2,0.7,0.4,1.5,0.5,2.2c0.3,1.5,0.3,2.9,0.2,4.2    c-0.1,1.3-0.3,2.6-0.5,3.7c-0.3,1.2-0.6,2.2-1,3.1c-0.1,0.2-0.2,0.5-0.3,0.7c-0.1,0.2-0.2,0.4-0.3,0.6c-0.1,0.2-0.2,0.4-0.3,0.6    c-0.1,0.2-0.2,0.4-0.3,0.6c-0.9,1.5-1.7,2.5-2.3,3.1c-0.3,0.3-0.5,0.6-0.7,0.8C130.9,85.7,130.8,85.8,130.8,85.8L130.8,85.8z     M130.7,85.7c0,0,0.1-0.1,0.2-0.3c0.2-0.2,0.4-0.4,0.7-0.8c0.6-0.7,1.4-1.7,2.2-3.2c0.4-0.7,0.8-1.6,1.1-2.5    c0.1-0.2,0.2-0.5,0.2-0.7c0.1-0.2,0.1-0.5,0.2-0.8c0.1-0.3,0.1-0.5,0.2-0.8c0.1-0.3,0.1-0.6,0.2-0.8c0.2-1.1,0.3-2.4,0.3-3.6    c0-1.3-0.2-2.6-0.5-4c-0.2-0.7-0.3-1.4-0.6-2c-0.1-0.2-0.1-0.3-0.2-0.5c-0.1-0.2-0.1-0.3-0.2-0.5c-0.1-0.3-0.3-0.7-0.4-1    c-0.6-1.4-1.5-2.7-2.4-3.9c-0.1-0.2-0.3-0.3-0.4-0.5c-0.1-0.1-0.3-0.3-0.4-0.4c-0.1-0.1-0.3-0.3-0.4-0.5l-0.2-0.2l-0.2-0.2    c-0.1-0.1-0.3-0.3-0.4-0.4c-0.1-0.1-0.3-0.3-0.5-0.4c-0.3-0.3-0.6-0.5-1-0.8c-0.7-0.5-1.4-1-2.1-1.4c-0.4-0.2-0.8-0.4-1.1-0.6    c-0.2-0.1-0.4-0.2-0.6-0.3l-0.3-0.1l-0.3-0.1c-1.6-0.6-3.3-1.1-5.1-1.2c-0.9-0.1-1.8-0.1-2.7-0.1c-0.9,0-1.8,0.2-2.7,0.3    c-3.6,0.7-7,2.4-9.8,5l-0.5,0.5c-0.2,0.2-0.3,0.3-0.5,0.5c-0.2,0.2-0.3,0.3-0.5,0.5l-0.4,0.5c-0.6,0.7-1.1,1.5-1.6,2.4    c-0.4,0.8-0.9,1.7-1.2,2.6c-0.3,0.9-0.6,1.8-0.8,2.7c-0.4,1.8-0.5,3.7-0.3,5.5c0.2,1.8,0.6,3.6,1.3,5.2l0.1,0.3l0.1,0.3    c0.1,0.2,0.2,0.4,0.3,0.6c0.2,0.4,0.4,0.8,0.6,1.1c0.4,0.7,0.9,1.4,1.4,2.1c0.3,0.3,0.5,0.7,0.8,1c0.1,0.2,0.3,0.3,0.4,0.5    c0.1,0.2,0.3,0.3,0.4,0.5l0.1,0.1l0.1,0.1l0,0c0,0,0,0,0,0l0.2,0.2c0.1,0.1,0.3,0.3,0.4,0.4c0.2,0.1,0.3,0.3,0.5,0.4    c0.2,0.1,0.3,0.3,0.5,0.4c1.3,1,2.6,1.8,3.9,2.4c1.4,0.6,2.7,1.1,4.1,1.4c1.4,0.3,2.7,0.5,4,0.5c1.3,0,2.5-0.1,3.6-0.3    c0.3-0.1,0.6-0.1,0.8-0.2c0.3-0.1,0.5-0.1,0.8-0.2c0.3-0.1,0.5-0.1,0.8-0.2c0.2-0.1,0.5-0.2,0.7-0.2c0.9-0.3,1.8-0.7,2.5-1.1    c1.5-0.8,2.5-1.6,3.2-2.2c0.3-0.3,0.6-0.5,0.8-0.7C130.6,85.8,130.7,85.7,130.7,85.7L130.7,85.7z"/>
		<path fill="#6D6F74" d="M116.4,92.3c-0.4,0-0.8,0-1.2,0c-0.3,0-0.5,0-0.8-0.1l-0.3,0c-0.4-0.1-0.7-0.1-1.1-0.2    c-1.6-0.3-3.1-0.7-4.5-1.4c-0.1,0-0.3-0.1-0.4-0.2l-0.3-0.1c-0.1-0.1-0.3-0.1-0.4-0.2l-1.6-1c-0.1-0.1-0.2-0.2-0.4-0.2l-0.2-0.1    c-0.4-0.2-0.7-0.5-1-0.8c-0.1-0.1-0.3-0.2-0.4-0.3l-2-1.9c-0.1-0.1-0.2-0.2-0.3-0.3l-0.1-0.2c-0.2-0.3-0.4-0.5-0.6-0.8l-0.2-0.2    c-0.6-0.8-1.1-1.6-1.4-2.3c-0.2-0.3-0.3-0.6-0.4-0.9l-0.2-0.3c-0.1-0.2-0.1-0.3-0.2-0.4l-0.3-0.9c-1.3-3.6-1.6-7.5-0.8-11.2    c0.4-1.9,1-3.8,1.9-5.5c0.4-0.8,0.9-1.6,1.5-2.5l0.4-0.6c0.1-0.1,0.2-0.3,0.3-0.4l0.2-0.2c0.2-0.2,0.3-0.4,0.5-0.6l0.8-0.9    c0.2-0.2,0.5-0.5,0.8-0.7l0.2-0.2c0.1-0.1,0.3-0.2,0.4-0.3l0.6-0.5c0.9-0.7,1.7-1.2,2.5-1.7c1-0.5,1.9-0.9,2.7-1.3    c1-0.4,1.9-0.6,2.9-0.8c3.8-0.8,7.9-0.5,11.5,0.9c3.4,1.3,6.5,3.5,8.7,6.4l0.1,0.1c0.2,0.3,0.5,0.6,0.7,0.9l0.1,0.2    c0.1,0.1,0.2,0.2,0.2,0.4l0.9,1.6c0.1,0.2,0.2,0.3,0.2,0.5l0.1,0.3c0.1,0.1,0.1,0.3,0.2,0.4l0.1,0.3c0.1,0.3,0.2,0.6,0.3,0.8    l0.4,1.1c0.2,0.8,0.4,1.5,0.5,2.2c0.2,1.3,0.3,2.8,0.2,4.3c-0.1,1.3-0.3,2.6-0.6,3.8c-0.3,1.1-0.6,2.2-1.1,3.2    c-0.1,0.2-0.1,0.3-0.2,0.5l-0.1,0.3c-0.1,0.2-0.2,0.4-0.3,0.6l-0.6,1.2c-0.7,1.2-1.5,2.2-2.3,3.2c-0.2,0.2-0.4,0.4-0.5,0.6    l-0.8,0.8c-0.2,0.2-0.4,0.3-0.6,0.5c-1,0.9-2,1.6-3.2,2.3c-1.8,1.1-3.7,1.9-5.7,2.3c-1.2,0.3-2.5,0.5-3.8,0.6    C117,92.3,116.7,92.3,116.4,92.3z M99.1,79.5l0.1,0.3c0.1,0.1,0.1,0.3,0.2,0.4l0.2,0.3c0.1,0.3,0.3,0.6,0.4,0.9    c0.4,0.7,0.8,1.4,1.4,2.3l0.2,0.2c0.2,0.3,0.4,0.5,0.6,0.8l0.2,0.2c0.1,0.1,0.2,0.2,0.3,0.3l1.3,1.4l0.6,0.5    c0.1,0.1,0.2,0.2,0.4,0.3c0.3,0.3,0.7,0.5,1,0.7l0.2,0.1c0.1,0.1,0.2,0.2,0.3,0.2l1.6,0.9c0.1,0.1,0.3,0.1,0.4,0.2l0.3,0.2    c0.1,0.1,0.2,0.1,0.3,0.2c1.4,0.6,2.8,1.1,4.3,1.3c0.4,0.1,0.7,0.1,1.1,0.2l0.3,0c0.3,0,0.5,0,0.8,0.1c0.7,0,1.4,0,2,0    c0.4,0,0.8-0.1,1.3-0.1c-0.4,0-0.8,0-1.3,0c-1.3,0-2.7-0.2-4.1-0.5c-1.4-0.3-2.8-0.8-4.2-1.4c-1.4-0.6-2.7-1.5-4-2.5    c-0.1-0.1-0.2-0.2-0.4-0.3l-1.5-1.3l-0.4-0.4c-0.1-0.1-0.2-0.2-0.3-0.3l-0.1-0.2c-0.2-0.2-0.4-0.5-0.6-0.7l-0.2-0.2    c-0.5-0.6-1-1.4-1.5-2.2c-0.2-0.3-0.3-0.5-0.5-0.8l-0.2-0.3c-0.1-0.1-0.1-0.3-0.2-0.4L99.1,79.5z M103.9,85l1.3,1.1    c0.1,0.1,0.2,0.2,0.3,0.3c1.2,1,2.5,1.8,3.9,2.4c1.3,0.6,2.7,1.1,4,1.4c1.3,0.3,2.6,0.4,3.9,0.5c1.2,0,2.4-0.1,3.6-0.3l0.3-0.1    c0.2,0,0.3-0.1,0.5-0.1l0.3-0.1c0.2,0,0.3-0.1,0.5-0.1l0.8-0.2c0.1,0,0.3-0.1,0.5-0.2l0.2-0.1c1-0.4,1.8-0.7,2.4-1.1    c1.1-0.6,2.2-1.3,3.1-2.1c0.2-0.2,0.4-0.4,0.6-0.5l0.8-0.8c0.1-0.1,0.3-0.3,0.5-0.6c0.8-1,1.5-2,2.1-3.1c0.4-0.7,0.7-1.5,1.1-2.5    l0.1-0.3c0.1-0.1,0.1-0.3,0.2-0.5l0.2-0.8c0-0.2,0.1-0.3,0.1-0.5l0.1-0.3c0-0.2,0.1-0.3,0.1-0.5l0.1-0.3c0.2-1.2,0.3-2.4,0.3-3.5    c0-1.3-0.2-2.6-0.5-3.9c-0.2-0.8-0.4-1.4-0.6-2l-0.4-1c-0.1-0.2-0.2-0.5-0.3-0.7l-0.1-0.3c-0.6-1.4-1.4-2.6-2.4-3.8    c-0.1-0.1-0.2-0.2-0.3-0.3l-1.8-1.8c-0.1-0.1-0.2-0.2-0.3-0.2l-0.2-0.2c-0.2-0.2-0.5-0.4-0.7-0.6l-0.2-0.2c-0.8-0.6-1.4-1-2.1-1.3    c-0.2-0.1-0.5-0.3-0.7-0.4l-0.4-0.2c-0.1,0-0.2-0.1-0.3-0.2l-0.8-0.3c-1.6-0.6-3.2-1-5-1.2c-0.8-0.1-1.7-0.1-2.6-0.1    c-0.8,0-1.7,0.1-2.6,0.3c-3.6,0.7-7,2.4-9.6,4.9l-0.5,0.5c-0.2,0.2-0.3,0.3-0.4,0.5l-0.2,0.2c-0.1,0.1-0.2,0.2-0.3,0.3l-0.4,0.6    c-0.6,0.8-1.1,1.6-1.5,2.3c-0.5,0.9-0.9,1.7-1.1,2.5c-0.3,0.9-0.6,1.8-0.7,2.6c-0.4,1.8-0.5,3.6-0.3,5.4c0.2,1.8,0.6,3.5,1.3,5.1    l0.4,0.8c0.1,0.1,0.1,0.2,0.2,0.4l0.2,0.3c0.1,0.3,0.3,0.5,0.4,0.8c0.4,0.8,1,1.5,1.4,2.1l0.2,0.2c0.2,0.2,0.4,0.5,0.6,0.7    l0.2,0.2c0.1,0.1,0.2,0.2,0.3,0.3L103.9,85z M116.8,52.7c0.7,0,1.3,0,1.9,0.1c1.8,0.2,3.6,0.6,5.2,1.3l0.8,0.4    c0.1,0.1,0.3,0.1,0.4,0.2l0.4,0.2c0.3,0.1,0.5,0.3,0.8,0.4c0.6,0.3,1.3,0.8,2.1,1.4l0.3,0.2c0.3,0.2,0.5,0.4,0.7,0.6l0.2,0.1    c0.1,0.1,0.2,0.2,0.3,0.3l1.3,1.3l0.5,0.6c0.1,0.1,0.2,0.2,0.3,0.4c1,1.2,1.8,2.6,2.5,4l0.1,0.3c0.1,0.2,0.2,0.5,0.3,0.8l0.4,1    c0.2,0.6,0.4,1.3,0.6,2.1c0.3,1.4,0.5,2.7,0.5,4.1c0,0.5,0,1.1,0,1.6c0.1-0.5,0.1-1.1,0.2-1.6c0.1-1.5,0-2.8-0.2-4.1    c-0.1-0.7-0.3-1.4-0.5-2.2l-0.4-1.1c-0.1-0.3-0.2-0.5-0.3-0.8l-0.1-0.3c0-0.1-0.1-0.2-0.2-0.4l-0.1-0.3c-0.1-0.1-0.1-0.3-0.2-0.4    l-0.9-1.6c-0.1-0.1-0.1-0.2-0.2-0.3l-0.1-0.2c-0.2-0.3-0.4-0.6-0.6-0.9l-0.1-0.1c-2.1-2.7-5.1-4.9-8.4-6.1    c-3.4-1.3-7.4-1.6-11-0.8c-0.9,0.2-1.8,0.4-2.7,0.8c-0.8,0.3-1.7,0.7-2.6,1.2c-0.8,0.4-1.5,0.9-2.4,1.6l-0.6,0.5    c-0.1,0.1-0.2,0.2-0.3,0.3l-0.2,0.2c-0.3,0.2-0.5,0.5-0.7,0.7l0,0c2.7-2.4,6.1-4.1,9.7-4.8c1-0.2,1.9-0.3,2.8-0.3    C116.2,52.8,116.5,52.7,116.8,52.7z"/>
	</g>
	<g>
		<g>
			<g>
				<g>
					<g>
						<path fill="#6D6F74" d="M150.3,91.7c1.1,0.5,2.3,0.9,3.5,1.3c-0.5-2.3-0.9-4.7-1-7L150.3,91.7z"/>
					</g>
					<g>
						<path fill="#7D8186" d="M155.6,87.1c-1-0.3-2-0.7-2.9-1.1c0.1,2.3,0.5,4.7,1,7c1.8-1.6,3.5-3.3,4.9-5.1        C157.6,87.7,156.6,87.4,155.6,87.1z"/>
					</g>
					<g>
						<path fill="#CBD0D3" d="M153.7,93c1.2,0.4,2.4,0.7,3.6,1c1.2,0.3,2.4,0.5,3.7,0.6c-1-2.2-1.8-4.4-2.3-6.7        C157.2,89.7,155.5,91.4,153.7,93z"/>
					</g>
					<g>
						<path fill="#A9AFB4" d="M161.7,88.4c-1-0.1-2-0.3-3.1-0.5c0.6,2.2,1.3,4.5,2.3,6.7c1.5-1.9,2.7-3.9,3.8-5.9        C163.8,88.6,162.7,88.5,161.7,88.4z"/>
					</g>
					<g>
						<path fill="#F3F7F9" d="M161,94.6c1.2,0.1,2.5,0.2,3.7,0.3s2.5,0,3.7-0.1c-1.4-2-2.6-4-3.6-6.1        C163.7,90.7,162.4,92.7,161,94.6z"/>
					</g>
					<g>
						<path fill="#A9AFB4" d="M167.9,88.5c-1,0.1-2.1,0.1-3.1,0.1c1,2.1,2.2,4.1,3.6,6.1c1.1-2.2,1.9-4.4,2.6-6.6        C169.9,88.3,168.9,88.5,167.9,88.5z"/>
					</g>
					<g>
						<path fill="#B9BEC4" d="M174,87.4c-1,0.3-2,0.5-3,0.7c1.4,1.9,3,3.6,4.7,5.3c0.6-2.3,1-4.7,1.2-7C176,86.8,175,87.2,174,87.4z        "/>
					</g>
					<g>
						<path fill="#A9AFB4" d="M179.8,85.2c-0.9,0.5-1.9,0.9-2.8,1.3c1.7,1.5,3.6,3,5.7,4.2c0.2-2.4,0.1-4.8-0.1-7.1        C181.6,84.2,180.7,84.7,179.8,85.2z"/>
					</g>
					<g>
						<path fill="#F3F7F9" d="M185,81.8c-0.8,0.6-1.7,1.2-2.5,1.8c2,1.2,4.1,2.2,6.4,3.1c-0.3-2.4-0.8-4.7-1.5-6.9        C186.6,80.5,185.8,81.2,185,81.8z"/>
					</g>
					<g>
						<path fill="#9A9FA5" d="M188.8,86.7c1-0.8,1.9-1.6,2.8-2.4c0.9-0.9,1.7-1.8,2.5-2.7c-2.4-0.4-4.7-1-6.8-1.8        C188,82,188.5,84.3,188.8,86.7z"/>
					</g>
					<g>
						<path fill="#F3F7F9" d="M189.5,77.5c-0.7,0.8-1.4,1.5-2.1,2.3c2.2,0.8,4.5,1.4,6.8,1.8c-0.8-2.3-1.7-4.5-2.8-6.5        C190.8,75.9,190.1,76.7,189.5,77.5z"/>
					</g>
					<g>
						<path fill="#6D6F74" d="M175.7,93.4c1.2-0.3,2.4-0.7,3.5-1.2c1.2-0.5,2.3-1,3.4-1.5c-2-1.3-3.9-2.7-5.7-4.2        C176.7,88.7,176.3,91.1,175.7,93.4z"/>
					</g>
					<g>
						<path fill="#6D6F74" d="M200,72.1l-5.7-2.5c1.5,1.8,2.8,3.7,4,5.8C199,74.4,199.6,73.3,200,72.1z"/>
					</g>
				</g>
				<g>
					<g>
						<path fill="#6D6F74" d="M130.7,41.9c-0.5,1.1-0.9,2.3-1.3,3.5c2.3-0.5,4.7-0.9,7-1L130.7,41.9z"/>
					</g>
					<g>
						<path fill="#7D8186" d="M135.3,47.3c0.3-1,0.7-2,1.1-2.9c-2.3,0.1-4.7,0.5-7,1c1.6,1.8,3.3,3.5,5.1,4.9        C134.7,49.3,135,48.3,135.3,47.3z"/>
					</g>
					<g>
						<path fill="#CBD0D3" d="M129.4,45.4c-0.4,1.2-0.7,2.4-1,3.6c-0.3,1.2-0.5,2.4-0.6,3.7c2.2-1,4.4-1.8,6.7-2.3        C132.7,48.8,131,47.2,129.4,45.4z"/>
					</g>
					<g>
						<path fill="#A9AFB4" d="M133.9,53.3c0.1-1,0.3-2,0.5-3.1c-2.2,0.6-4.5,1.3-6.7,2.3c1.9,1.5,3.9,2.7,5.9,3.8        C133.8,55.4,133.8,54.4,133.9,53.3z"/>
					</g>
					<g>
						<path fill="#F3F7F9" d="M127.8,52.6c-0.1,1.2-0.2,2.5-0.3,3.7c0,1.2,0,2.5,0.1,3.7c2-1.4,4-2.6,6.1-3.6        C131.7,55.3,129.7,54.1,127.8,52.6z"/>
					</g>
					<g>
						<path fill="#A9AFB4" d="M133.8,59.5c-0.1-1-0.1-2.1-0.1-3.1c-2.1,1-4.1,2.2-6.1,3.6c2.2,1.1,4.4,1.9,6.6,2.6        C134.1,61.6,133.9,60.6,133.8,59.5z"/>
					</g>
					<g>
						<path fill="#CBD0D3" d="M127.7,60c0.1,1.2,0.3,2.5,0.5,3.7c0.2,1.2,0.5,2.4,0.8,3.6c1.7-1.8,3.4-3.3,5.3-4.7        C132,61.9,129.8,61.1,127.7,60z"/>
					</g>
					<g>
						<path fill="#B9BEC4" d="M134.9,65.6c-0.3-1-0.5-2-0.7-3c-1.9,1.4-3.6,3-5.3,4.7c2.3,0.6,4.7,1,7,1.2        C135.6,67.6,135.2,66.6,134.9,65.6z"/>
					</g>
					<g>
						<path fill="#A9AFB4" d="M137.2,71.4c-0.5-0.9-0.9-1.9-1.3-2.8c-1.5,1.7-3,3.6-4.2,5.7c2.4,0.2,4.8,0.1,7.1-0.1        C138.2,73.2,137.7,72.3,137.2,71.4z"/>
					</g>
					<g>
						<path fill="#DADFE2" d="M131.7,74.2c0.6,1.1,1.2,2.2,1.8,3.2c0.7,1,1.4,2.1,2.2,3c0.9-2.3,1.9-4.4,3.1-6.4        C136.5,74.3,134.1,74.4,131.7,74.2z"/>
					</g>
					<g>
						<path fill="#F3F7F9" d="M140.6,76.6c-0.6-0.8-1.2-1.7-1.8-2.5c-1.2,2-2.2,4.1-3.1,6.4c2.4-0.3,4.7-0.8,6.9-1.5        C141.9,78.2,141.2,77.4,140.6,76.6z"/>
					</g>
					<g>
						<path fill="#9A9FA5" d="M135.7,80.5c0.8,1,1.6,1.9,2.4,2.8c0.9,0.9,1.8,1.7,2.7,2.5c0.4-2.4,1-4.7,1.8-6.8        C140.4,79.6,138.1,80.2,135.7,80.5z"/>
					</g>
					<g>
						<path fill="#F3F7F9" d="M144.9,81.1c-0.8-0.7-1.5-1.4-2.3-2.1c-0.8,2.2-1.4,4.5-1.8,6.8c2.3-0.8,4.5-1.7,6.5-2.8        C146.5,82.4,145.6,81.8,144.9,81.1z"/>
					</g>
					<g>
						<path fill="#B9BEC4" d="M140.8,85.8c0.9,0.8,1.9,1.6,2.9,2.3c1,0.7,2.1,1.4,3.2,2c-0.1-2.4,0.1-4.8,0.4-7.1        C145.3,84.1,143.1,85,140.8,85.8z"/>
					</g>
					<g>
						<path fill="#6D6F74" d="M150.3,91.7l2.5-5.7c-1.8,1.5-3.7,2.8-5.8,4C148,90.6,149.1,91.2,150.3,91.7z"/>
					</g>
				</g>
				<g>
					<g>
						<path fill="#7D8186" d="M175.1,26.9c1,0.3,2,0.7,2.9,1.1c-0.1-2.3-0.5-4.7-1-7c-1.8,1.6-3.5,3.3-4.9,5.1        C173.1,26.3,174.1,26.6,175.1,26.9z"/>
					</g>
					<g>
						<path fill="#CBD0D3" d="M177,21c-1.2-0.4-2.4-0.7-3.6-1c-1.2-0.3-2.4-0.5-3.7-0.6c1,2.2,1.8,4.4,2.3,6.7        C173.6,24.3,175.2,22.6,177,21z"/>
					</g>
					<g>
						<path fill="#A9AFB4" d="M169.1,25.6c1,0.1,2,0.3,3.1,0.5c-0.6-2.2-1.3-4.5-2.3-6.7c-1.5,1.9-2.7,3.9-3.8,5.9        C167,25.4,168,25.5,169.1,25.6z"/>
					</g>
					<g>
						<path fill="#F3F7F9" d="M169.8,19.4c-1.2-0.1-2.5-0.2-3.7-0.3c-1.2,0-2.5,0-3.7,0.1c1.4,2,2.6,4,3.6,6.1        C167,23.3,168.3,21.3,169.8,19.4z"/>
					</g>
					<g>
						<path fill="#A9AFB4" d="M162.9,25.5c1-0.1,2.1-0.1,3.1-0.1c-1-2.1-2.2-4.1-3.6-6.1c-1.1,2.2-1.9,4.4-2.6,6.6        C160.8,25.7,161.8,25.6,162.9,25.5z"/>
					</g>
					<g>
						<path fill="#CBD0D3" d="M162.4,19.3c-1.2,0.1-2.5,0.3-3.7,0.5c-1.2,0.2-2.4,0.5-3.6,0.8c1.8,1.7,3.3,3.4,4.7,5.3        C160.4,23.7,161.3,21.4,162.4,19.3z"/>
					</g>
					<g>
						<path fill="#B9BEC4" d="M156.8,26.6c1-0.3,2-0.5,3-0.7c-1.4-1.9-3-3.6-4.7-5.3c-0.6,2.3-1,4.7-1.2,7        C154.8,27.2,155.8,26.9,156.8,26.6z"/>
					</g>
					<g>
						<path fill="#A9AFB4" d="M151,28.8c0.9-0.5,1.9-0.9,2.8-1.3c-1.7-1.5-3.6-3-5.7-4.2c-0.2,2.4-0.1,4.8,0.1,7.1        C149.2,29.8,150.1,29.3,151,28.8z"/>
					</g>
					<g>
						<path fill="#DADFE2" d="M148.2,23.3c-1.1,0.6-2.2,1.2-3.2,1.8c-1,0.7-2.1,1.4-3,2.2c2.3,0.9,4.4,1.9,6.4,3.1        C148,28.1,148,25.7,148.2,23.3z"/>
					</g>
					<g>
						<path fill="#F3F7F9" d="M145.8,32.2c0.8-0.6,1.7-1.2,2.5-1.8c-2-1.2-4.1-2.2-6.4-3.1c0.3,2.4,0.8,4.7,1.5,6.9        C144.2,33.5,144.9,32.8,145.8,32.2z"/>
					</g>
					<g>
						<path fill="#9A9FA5" d="M141.9,27.3c-1,0.8-1.9,1.6-2.8,2.4c-0.9,0.9-1.7,1.8-2.5,2.7c2.4,0.4,4.7,1,6.8,1.8        C142.7,32,142.2,29.7,141.9,27.3z"/>
					</g>
					<g>
						<path fill="#F3F7F9" d="M141.3,36.5c0.7-0.8,1.4-1.5,2.1-2.3c-2.2-0.8-4.5-1.4-6.8-1.8c0.8,2.3,1.7,4.5,2.8,6.5        C140,38.1,140.6,37.3,141.3,36.5z"/>
					</g>
					<g>
						<path fill="#B9BEC4" d="M136.6,32.5c-0.8,0.9-1.6,1.9-2.3,2.9c-0.7,1-1.4,2.1-2,3.2c2.4-0.1,4.8,0.1,7.1,0.4        C138.3,36.9,137.3,34.7,136.6,32.5z"/>
					</g>
					<g>
						<path fill="#6D6F74" d="M130.7,41.9l5.7,2.5c-1.5-1.8-2.8-3.7-4-5.8C131.7,39.6,131.2,40.8,130.7,41.9z"/>
					</g>
				</g>
				<g>
					<g>
						<path fill="#6D6F74" d="M200,72.1c0.5-1.1,0.9-2.3,1.3-3.5c-2.3,0.5-4.7,0.9-7,1L200,72.1z"/>
					</g>
					<g>
						<path fill="#7D8186" d="M195.5,66.7c-0.3,1-0.7,2-1.1,2.9c2.3-0.1,4.7-0.5,7-1c-1.6-1.8-3.3-3.5-5.1-4.9        C196.1,64.8,195.8,65.8,195.5,66.7z"/>
					</g>
					<g>
						<path fill="#CBD0D3" d="M201.4,68.7c0.4-1.2,0.7-2.4,1-3.6c0.3-1.2,0.5-2.4,0.6-3.7c-2.2,1-4.4,1.8-6.7,2.3        C198.1,65.2,199.8,66.8,201.4,68.7z"/>
					</g>
					<g>
						<path fill="#A9AFB4" d="M196.8,60.7c-0.1,1-0.3,2-0.5,3.1c2.2-0.6,4.5-1.3,6.7-2.3c-1.9-1.5-3.9-2.7-5.9-3.8        C197,58.6,196.9,59.7,196.8,60.7z"/>
					</g>
					<g>
						<path fill="#F3F7F9" d="M203,61.4c0.1-1.2,0.2-2.5,0.3-3.7c0-1.2,0-2.5-0.1-3.7c-2,1.4-4,2.6-6.1,3.6        C199,58.7,201,59.9,203,61.4z"/>
					</g>
					<g>
						<path fill="#A9AFB4" d="M196.9,54.5c0.1,1,0.1,2.1,0.1,3.1c2.1-1,4.1-2.2,6.1-3.6c-2.2-1.1-4.4-1.9-6.6-2.6        C196.7,52.4,196.8,53.5,196.9,54.5z"/>
					</g>
					<g>
						<path fill="#B9BEC4" d="M195.8,48.4c0.3,1,0.5,2,0.7,3c1.9-1.4,3.6-3,5.3-4.7c-2.3-0.6-4.7-1-7-1.2        C195.2,46.4,195.5,47.4,195.8,48.4z"/>
					</g>
					<g>
						<path fill="#A9AFB4" d="M193.5,42.6c0.5,0.9,0.9,1.9,1.3,2.8c1.5-1.7,3-3.6,4.2-5.7c-2.4-0.2-4.8-0.1-7.1,0.1        C192.5,40.8,193.1,41.7,193.5,42.6z"/>
					</g>
					<g>
						<path fill="#DADFE2" d="M199.1,39.8c-0.6-1.1-1.2-2.2-1.8-3.2c-0.7-1-1.4-2.1-2.2-3c-0.9,2.3-1.9,4.4-3.1,6.4        C194.3,39.7,196.7,39.6,199.1,39.8z"/>
					</g>
					<g>
						<path fill="#9A9FA5" d="M190.2,37.4c0.6,0.8,1.2,1.7,1.8,2.5c1.2-2,2.2-4.1,3.1-6.4c-2.4,0.3-4.7,0.8-6.9,1.5        C188.9,35.8,189.5,36.6,190.2,37.4z"/>
					</g>
					<g>
						<path fill="#9A9FA5" d="M195.1,33.5c-0.8-1-1.6-1.9-2.4-2.8c-0.9-0.9-1.8-1.7-2.7-2.5c-0.4,2.4-1,4.7-1.8,6.8        C190.4,34.4,192.7,33.9,195.1,33.5z"/>
					</g>
					<g>
						<path fill="#B9BEC4" d="M189.9,28.2c-0.9-0.8-1.9-1.6-2.9-2.3c-1-0.7-2.1-1.4-3.2-2c0.1,2.4-0.1,4.8-0.4,7.1        C185.5,29.9,187.6,29,189.9,28.2z"/>
					</g>
					<g>
						<path fill="#7D8186" d="M183.4,31c0.3-2.3,0.5-4.7,0.4-7.1c-2.1,1.2-4,2.6-5.8,4c1,0.4,1.9,0.9,2.8,1.4        C181.7,29.9,182.6,30.4,183.4,31z"/>
					</g>
				</g>
			</g>
		</g>
		<g>
			<path fill="#08AFB2" d="M168.4,94.7c1.2-0.1,2.5-0.3,3.7-0.5c1.2-0.2,2.4-0.5,3.6-0.8c-1.8-1.7-3.3-3.4-4.7-5.3     C170.3,90.4,169.5,92.6,168.4,94.7z"/>
		</g>
		<g>
			<path fill="#08AFB2" d="M191.3,75.1c2.3,0.3,4.7,0.5,7.1,0.4c-1.2-2.1-2.6-4-4-5.8c-0.4,1-0.9,1.9-1.4,2.8     C192.5,73.3,191.9,74.2,191.3,75.1z"/>
		</g>
		<g>
			<path fill="#08AFB2" d="M147.3,83c-0.3,2.3-0.5,4.7-0.4,7.1c2.1-1.2,4-2.6,5.8-4c-1-0.4-1.9-0.9-2.8-1.4     C149,84.1,148.2,83.6,147.3,83z"/>
		</g>
		<g>
			<path fill="#08AFB2" d="M139.4,38.9c-2.3-0.3-4.7-0.5-7.1-0.4c1.2,2.1,2.6,4,4,5.8c0.4-1,0.9-1.9,1.4-2.8     C138.3,40.7,138.8,39.8,139.4,38.9z"/>
		</g>
		<g>
			<path fill="#08AFB2" d="M185.9,32.9c0.8,0.7,1.5,1.4,2.3,2.1c0.8-2.2,1.4-4.5,1.8-6.8c-2.3,0.8-4.5,1.7-6.5,2.8     C184.3,31.6,185.1,32.3,185.9,32.9z"/>
		</g>
		<g>
			<path fill="#E3BF21" d="M182.6,90.7c1.1-0.6,2.2-1.2,3.2-1.8c1-0.7,2.1-1.4,3-2.2c-2.3-0.9-4.4-1.9-6.4-3.1     C182.7,85.9,182.7,88.3,182.6,90.7z"/>
		</g>
		<g>
			<path fill="#E3BF21" d="M194.2,81.5c0.8-0.9,1.6-1.9,2.3-2.9c0.7-1,1.4-2.1,2-3.2c-2.4,0.1-4.8-0.1-7.1-0.4     C192.5,77.1,193.4,79.3,194.2,81.5z"/>
		</g>
		<g>
			<path fill="#E3BF21" d="M129,67.3c0.3,1.2,0.7,2.4,1.2,3.5c0.5,1.2,1,2.3,1.5,3.4c1.3-2,2.7-3.9,4.2-5.7     C133.6,68.4,131.3,67.9,129,67.3z"/>
		</g>
		<g>
			<path fill="#E3BF21" d="M155.1,20.6c-1.2,0.3-2.4,0.7-3.5,1.2c-1.2,0.5-2.3,1-3.4,1.5c2,1.3,3.9,2.7,5.7,4.2     C154,25.3,154.4,22.9,155.1,20.6z"/>
		</g>
		<g>
			<path fill="#E3BF21" d="M201.8,46.7c-0.3-1.2-0.7-2.4-1.2-3.5c-0.5-1.2-1-2.3-1.5-3.4c-1.3,2-2.7,3.9-4.2,5.7     C197.1,45.6,199.4,46.1,201.8,46.7z"/>
		</g>
		<g>
			<g>
				<path fill="#E55962" d="M203.1,54c-0.1-1.2-0.3-2.5-0.5-3.7c-0.2-1.2-0.5-2.4-0.8-3.6c-1.7,1.8-3.4,3.3-5.3,4.7      C198.7,52.1,200.9,52.9,203.1,54z"/>
			</g>
			<g>
				<path fill="#E55962" d="M180.5,22.3c-1.1-0.5-2.3-0.9-3.5-1.3c0.5,2.3,0.9,4.7,1,7c1.8-1.5,3.7-2.8,5.8-4      C182.7,23.4,181.6,22.8,180.5,22.3z"/>
			</g>
		</g>
	</g>
</g>
<g>
	<rect y="180.6" fill="#08AFB2" width="101.6" height="1.5"/>
</g>
<g>
	<rect x="225.4" y="180.6" fill="#08AFB2" width="101.6" height="1.5"/>
</g>
<g>
	<g>
		<path fill="#4D4D4F" stroke="#4D4D4F" stroke-width="0.5" stroke-miterlimit="10" d="M22.6,155.8l-1.7-43.1l-6.6,43.1h-2.9    L5,112.7l-1.6,43.1H1.4l1.9-48H6l6.9,45l7-45h2.9l1.9,48H22.6z"/>
		<path fill="#4D4D4F" stroke="#4D4D4F" stroke-width="0.5" stroke-miterlimit="10" d="M49.2,107.7L39.9,144v11.8H38V144l-9.1-36.3    h1.9L39,140l8.2-32.3H49.2z"/>
		<path fill="#4D4D4F" stroke="#4D4D4F" stroke-width="0.5" stroke-miterlimit="10" d="M69.5,109.5v31.4h10.8v1.8H69.5v13.1h-1.9    v-48h14.7v1.7H69.5z"/>
		<path fill="#4D4D4F" stroke="#4D4D4F" stroke-width="0.5" stroke-miterlimit="10" d="M104.2,155.8h-1.9v-8c0-3-2-5-5.3-5h-7.9v13    h-1.9v-48h8c4,0,8.7,2.5,8.7,9.3v16.5c0,3-1.4,6-4.6,7.9c3.1,0.8,4.9,3.4,4.9,6.4V155.8z M89.1,141.1h6.1c2.9,0,6.9-2.7,6.9-7.5    v-16.5c0-4.6-2.7-7.5-6.9-7.5h-6.1V141.1z"/>
		<path fill="#4D4D4F" stroke="#4D4D4F" stroke-width="0.5" stroke-miterlimit="10" d="M110.7,155.8v-48h1.9v48H110.7z"/>
		<path fill="#4D4D4F" stroke="#4D4D4F" stroke-width="0.5" stroke-miterlimit="10" d="M121.9,109.5v31.3h10.7v1.7h-10.7V154h13.5    v1.8H120v-48h15.4v1.7H121.9z"/>
		<path fill="#4D4D4F" stroke="#4D4D4F" stroke-width="0.5" stroke-miterlimit="10" d="M159.2,107.8v48h-1.9l-14.5-42.2v42.2H141    v-48h1.9l14.5,42.6v-42.6H159.2z"/>
		<path fill="#4D4D4F" stroke="#4D4D4F" stroke-width="0.5" stroke-miterlimit="10" d="M183.9,146.8c0,9.1-7,9-9.1,9h-8.2v-48h8.2    c4.5,0,9.1,0.6,9.1,9.2V146.8z M182.1,117c-0.1-6.9-3.2-7.4-7.3-7.4h-6.3v44.3c6.3,0,6.3,0,6.3,0c3.4,0,7.3-0.5,7.3-7.1V117z"/>
		<path fill="#4D4D4F" stroke="#4D4D4F" stroke-width="0.5" stroke-miterlimit="10" d="M217.3,109.5h-6.9v46.3h-1.9v-46.3h-6.9v-1.7    h15.6V109.5z"/>
		<path fill="#4D4D4F" stroke="#4D4D4F" stroke-width="0.5" stroke-miterlimit="10" d="M224.2,109.5v31.3h10.7v1.7h-10.7V154h13.5    v1.8h-15.4v-48h15.4v1.7H224.2z"/>
		<path fill="#4D4D4F" stroke="#4D4D4F" stroke-width="0.5" stroke-miterlimit="10" d="M260.2,155.8h-1.9v-8c0-3-2-5-5.3-5h-7.9v13    h-1.9v-48h8c4,0,8.7,2.5,8.7,9.3v16.5c0,3-1.4,6-4.6,7.9c3.1,0.8,4.9,3.4,4.9,6.4V155.8z M245.1,141.1h6.1c2.9,0,6.9-2.7,6.9-7.5    v-16.5c0-4.6-2.7-7.5-6.9-7.5h-6.1V141.1z"/>
		<path fill="#4D4D4F" stroke="#4D4D4F" stroke-width="0.5" stroke-miterlimit="10" d="M268.6,109.5v31.3h10.7v1.7h-10.7V154h13.5    v1.8h-15.4v-48h15.4v1.7H268.6z"/>
		<path fill="#4D4D4F" stroke="#4D4D4F" stroke-width="0.5" stroke-miterlimit="10" d="M286.8,146.7v-4.1h1.9v4.1    c-0.1,4.1,2.2,7.9,7,7.9c4.5,0,6.8-3.4,6.8-7.7c0-1.4,0-1.6,0-3.4c0-4-3.8-5.5-7.7-7.7c-3.9-2.2-7.8-4.7-7.9-9c0-2.2,0-7.3,0-9.9    c0-5.3,2.7-9.4,8.2-9.4c5.1,0,8,4,8,9.3v5.7h-1.9v-5.6c0-4.1-1.7-7.5-6.1-7.5c-3.7,0-6.3,2.5-6.3,7.5c0,2.5,0,7.6,0,9.8    c0.2,3.8,3.2,5.5,6.6,7.4c4.3,2.4,9,4.6,9,9.1v3.6c0,5.1-2.7,9.5-8.6,9.5C290.5,156.3,286.8,152.5,286.8,146.7z"/>
		<path fill="#4D4D4F" stroke="#4D4D4F" stroke-width="0.5" stroke-miterlimit="10" d="M322.5,142.6h-9.8l-2,13.2h-1.9l7.4-48h2.7    l7.6,48h-1.9L322.5,142.6z M322.3,140.7l-4.7-30.1l-4.6,30.1H322.3z"/>
		<path fill="#E55962" stroke="#E55962" stroke-width="0.5" stroke-miterlimit="10" d="M112.4,186l1.2-0.5c0.8,1.7,2.2,3,4.7,3    c2.2,0,3.7-1.1,3.7-2.8c0-2-1.4-2.5-4.1-3.4c-2.5-0.7-4.6-1.6-4.6-4.2c0-2.2,2-3.7,4.4-3.7c2.3,0,3.8,1.1,4.7,2.8l-1.1,0.7    c-0.7-1.3-1.9-2.2-3.6-2.2c-1.9,0-3.1,1-3.1,2.4c0,1.7,0.9,2.2,3.8,3.1c2.7,0.8,4.9,1.8,4.9,4.5c0,2.4-1.8,4.1-5.1,4.1    C115.2,189.7,113.2,188,112.4,186z"/>
		<path fill="#E55962" stroke="#E55962" stroke-width="0.5" stroke-miterlimit="10" d="M128.9,185.5v-9.7h-2.3v-1.2h2.3v-5.2h1.4    v5.2h4.3v1.2h-4.3v9.6c0,2.2,0.8,3,2,3c1.3,0,1.8-0.5,2.4-1.1l0.9,0.9c-0.7,0.8-1.6,1.5-3.3,1.5    C130.5,189.7,128.9,188.5,128.9,185.5z"/>
		<path fill="#E55962" stroke="#E55962" stroke-width="0.5" stroke-miterlimit="10" d="M139.5,184v-9.3h1.4v9.1c0,3,1.4,4.7,4.2,4.7    c3.2,0,5.4-2.1,5.4-5.5v-8.2h1.4v14.8h-1.4l0-3.3c-1,2.2-3,3.6-5.6,3.6C141.7,189.8,139.5,187.6,139.5,184z"/>
		<path fill="#E55962" stroke="#E55962" stroke-width="0.5" stroke-miterlimit="10" d="M156.9,182c0-4.3,3.1-7.7,7.3-7.7    c3,0,5.2,1.6,6.3,3.8v-14.9h1.4v26.1h-1.4l0.1-3.7c-1,2.3-3.5,4-6.3,4C160,189.7,156.9,186.4,156.9,182z M170.6,182    c0-3.7-2.5-6.4-6.2-6.4c-3.7,0-6,2.7-6,6.4c0,3.7,2.4,6.4,6,6.4C168.1,188.5,170.6,185.7,170.6,182z"/>
		<path fill="#E55962" stroke="#E55962" stroke-width="0.5" stroke-miterlimit="10" d="M177.5,168.3c0-0.7,0.6-1.2,1.2-1.2    c0.6,0,1.2,0.5,1.2,1.2c0,0.7-0.6,1.2-1.2,1.2C178.1,169.5,177.5,169.1,177.5,168.3z M178,174.7h1.4v14.8H178V174.7z"/>
		<path fill="#E55962" stroke="#E55962" stroke-width="0.5" stroke-miterlimit="10" d="M184.3,182c0-4.2,3.4-7.7,7.7-7.7    c4.3,0,7.6,3.4,7.6,7.7c0,4.2-3.3,7.7-7.6,7.7C187.7,189.7,184.3,186.3,184.3,182z M198.2,182c0-3.7-2.5-6.4-6.2-6.4    s-6.3,2.7-6.3,6.4c0,3.7,2.6,6.4,6.3,6.4S198.2,185.7,198.2,182z"/>
		<path fill="#E55962" stroke="#E55962" stroke-width="0.5" stroke-miterlimit="10" d="M203.1,186l1.2-0.5c0.8,1.7,2.2,3,4.7,3    c2.2,0,3.7-1.1,3.7-2.8c0-2-1.4-2.5-4.1-3.4c-2.5-0.7-4.6-1.6-4.6-4.2c0-2.2,2-3.7,4.4-3.7c2.3,0,3.8,1.1,4.7,2.8l-1.1,0.7    c-0.7-1.3-1.9-2.2-3.6-2.2c-1.9,0-3.1,1-3.1,2.4c0,1.7,0.9,2.2,3.8,3.1c2.7,0.8,4.9,1.8,4.9,4.5c0,2.4-1.8,4.1-5.1,4.1    C205.9,189.7,203.9,188,203.1,186z"/>
	</g>
</g>
</svg>